<svg width="11" height="14" viewBox="0 0 11 14" fill="none" xmlns="http://www.w3.org/2000/svg">
<g filter="url(#filter0_i_77_3712)">
<path d="M6 -1.74846e-07L6 2L4 2C1.79086 2 -1.65704e-07 3.79086 -2.62268e-07 6L3 6C3 5.44772 3.44772 5 4 5L6 5L6 7L10 3.5L6 -1.74846e-07Z" fill="#82C27C"/>
</g>
<path d="M6 2.5C6.27614 2.5 6.5 2.27614 6.5 2L6.5 1.10188L9.2407 3.5L6.5 5.89812L6.5 5C6.5 4.86739 6.44732 4.74021 6.35355 4.64645C6.25978 4.55268 6.13261 4.5 6 4.5L4 4.5C3.34689 4.5 2.79127 4.9174 2.58535 5.5L0.535444 5.5C0.778059 3.80385 2.23676 2.5 4 2.5L6 2.5Z" stroke="url(#paint0_linear_77_3712)" stroke-linejoin="round"/>
<g filter="url(#filter1_i_77_3712)">
<path d="M5 14V12L7 12C9.20914 12 11 10.2091 11 8H8C8 8.55228 7.55228 9 7 9L5 9V7L1 10.5L5 14Z" fill="#82C27C"/>
</g>
<path d="M5 11.5C4.72386 11.5 4.5 11.7239 4.5 12V12.8981L1.7593 10.5L4.5 8.10188L4.5 9C4.5 9.13261 4.55268 9.25979 4.64645 9.35355C4.74021 9.44732 4.86739 9.5 5 9.5L7 9.5C7.65311 9.5 8.20873 9.0826 8.41465 8.5H10.4646C10.2219 10.1961 8.76324 11.5 7 11.5L5 11.5Z" stroke="url(#paint1_linear_77_3712)" stroke-linejoin="round"/>
<defs>
<filter id="filter0_i_77_3712" x="0" y="0" width="11" height="8" filterUnits="userSpaceOnUse" color-interpolation-filters="sRGB">
<feFlood flood-opacity="0" result="BackgroundImageFix"/>
<feBlend mode="normal" in="SourceGraphic" in2="BackgroundImageFix" result="shape"/>
<feColorMatrix in="SourceAlpha" type="matrix" values="0 0 0 0 0 0 0 0 0 0 0 0 0 0 0 0 0 0 127 0" result="hardAlpha"/>
<feOffset dx="1" dy="1"/>
<feGaussianBlur stdDeviation="1"/>
<feComposite in2="hardAlpha" operator="arithmetic" k2="-1" k3="1"/>
<feColorMatrix type="matrix" values="0 0 0 0 0.71381 0 0 0 0 0.864312 0 0 0 0 0.687251 0 0 0 1 0"/>
<feBlend mode="normal" in2="shape" result="effect1_innerShadow_77_3712"/>
</filter>
<filter id="filter1_i_77_3712" x="1" y="7" width="11" height="8" filterUnits="userSpaceOnUse" color-interpolation-filters="sRGB">
<feFlood flood-opacity="0" result="BackgroundImageFix"/>
<feBlend mode="normal" in="SourceGraphic" in2="BackgroundImageFix" result="shape"/>
<feColorMatrix in="SourceAlpha" type="matrix" values="0 0 0 0 0 0 0 0 0 0 0 0 0 0 0 0 0 0 127 0" result="hardAlpha"/>
<feOffset dx="1" dy="1"/>
<feGaussianBlur stdDeviation="1"/>
<feComposite in2="hardAlpha" operator="arithmetic" k2="-1" k3="1"/>
<feColorMatrix type="matrix" values="0 0 0 0 0.71381 0 0 0 0 0.864312 0 0 0 0 0.687251 0 0 0 1 0"/>
<feBlend mode="normal" in2="shape" result="effect1_innerShadow_77_3712"/>
</filter>
<linearGradient id="paint0_linear_77_3712" x1="11" y1="7" x2="4.91275" y2="0.184746" gradientUnits="userSpaceOnUse">
<stop stop-color="#2A6B26"/>
<stop offset="1" stop-color="#80C178"/>
</linearGradient>
<linearGradient id="paint1_linear_77_3712" x1="1" y1="7" x2="8.20119" y2="12.9644" gradientUnits="userSpaceOnUse">
<stop stop-color="#80C178"/>
<stop offset="1" stop-color="#2A6B26"/>
</linearGradient>
</defs>
</svg>
