<svg width="13" height="12" viewBox="0 0 13 12" fill="none" xmlns="http://www.w3.org/2000/svg">
<path fill-rule="evenodd" clip-rule="evenodd" d="M6.02826 0.0257945C6.29023 0.113119 6.43181 0.39628 6.34449 0.658251C6.19111 1.11837 6.19045 1.4842 6.23011 1.82988C6.24518 1.96123 6.26483 2.0817 6.28607 2.21185L6.28607 2.21189L6.28608 2.21192L6.28609 2.212L6.28612 2.21217C6.29484 2.26561 6.30382 2.32069 6.31287 2.37883C6.34234 2.56831 6.37007 2.77815 6.37007 3.00014C6.37007 3.27628 6.14621 3.50014 5.87007 3.50014C5.59392 3.50013 5.37007 3.27627 5.37007 3.00013C5.37007 2.85749 5.35224 2.70925 5.32475 2.53253C5.31804 2.4894 5.31052 2.44329 5.30263 2.39496L5.30259 2.39467L5.30258 2.39464C5.28007 2.25665 5.25461 2.10056 5.23663 1.94387C5.18517 1.49534 5.18454 0.975809 5.3958 0.34202C5.48313 0.0800489 5.76629 -0.0615302 6.02826 0.0257945ZM12.3444 6.34201C12.4317 6.60398 12.2902 6.88714 12.0282 6.97447C11.3944 7.18573 10.8749 7.18508 10.4263 7.1336C10.2697 7.11562 10.1137 7.09016 9.97571 7.06766L9.97568 7.06765L9.9756 7.06764L9.97555 7.06763C9.9271 7.05972 9.88089 7.05218 9.83766 7.04546C9.66095 7.01796 9.51272 7.00012 9.37008 7.00012C9.09393 7.00012 8.87008 6.77627 8.87008 6.50012C8.87008 6.22398 9.09393 6.00012 9.37008 6.00012C9.59207 6.00012 9.80192 6.02787 9.9914 6.05735C10.0497 6.06641 10.1048 6.07541 10.1584 6.08415L10.1584 6.08416C10.2885 6.10539 10.409 6.12505 10.5404 6.14013C10.886 6.1798 11.2519 6.17915 11.712 6.02578C11.9739 5.93846 12.2571 6.08004 12.3444 6.34201ZM9.31739 7.77653C9.19389 7.52954 8.89356 7.42942 8.64657 7.55292C8.39958 7.67641 8.29947 7.97675 8.42296 8.22374C8.84324 9.0643 9.43187 9.51438 9.93049 9.74938C10.1767 9.86541 10.3973 9.92746 10.5601 9.96074C10.6417 9.97741 10.7094 9.98699 10.7594 9.9925C10.7845 9.99526 10.8052 9.997 10.821 9.99811L10.8412 9.99933L10.8485 9.99967L10.8514 9.99978L10.8527 9.99983L10.8533 9.99985C10.8536 9.99986 10.8539 9.99987 10.8702 9.50013L10.8539 9.99987C11.1299 10.0089 11.3609 9.79243 11.3699 9.51644C11.3789 9.24209 11.1651 9.01218 10.8914 9.00058L10.8904 9.00052C10.8873 9.0003 10.88 8.99973 10.8689 8.99851C10.8465 8.99605 10.8093 8.991 10.7603 8.98099C10.6621 8.96092 10.5194 8.92145 10.3568 8.8448C10.0377 8.69443 9.62638 8.39451 9.31739 7.77653ZM4.81738 3.72373C4.94088 3.47675 4.84076 3.17641 4.59377 3.05291C3.97579 2.74392 3.67587 2.33255 3.5255 2.01349C3.44885 1.85086 3.40938 1.70819 3.38931 1.60996C3.37931 1.56101 3.37425 1.52375 3.37179 1.50144C3.37057 1.4903 3.37 1.48298 3.36978 1.47988L3.36972 1.47887L3.36972 1.47887C3.35813 1.20524 3.12821 0.991444 2.85387 1.00039C2.57787 1.0094 2.36143 1.24043 2.37043 1.51643L2.87017 1.50013C2.37043 1.51643 2.37044 1.51671 2.37045 1.517L2.37047 1.51759L2.37052 1.51888L2.37063 1.5218L2.37097 1.5291L2.37219 1.54927C2.3733 1.56514 2.37504 1.58583 2.3778 1.61087C2.38331 1.6609 2.39289 1.72861 2.40956 1.81019C2.44284 1.97301 2.50489 2.1936 2.62093 2.43981C2.85592 2.93843 3.306 3.52706 4.14656 3.94734C4.39355 4.07084 4.69389 3.97072 4.81738 3.72373ZM7.51657 9.3537C7.32131 9.15844 7.32131 8.84186 7.51657 8.6466C7.71183 8.45133 8.02841 8.45133 8.22368 8.64659C8.83247 9.25538 8.96004 10.6173 7.72364 11.8537C7.52838 12.049 7.2118 12.049 7.01653 11.8537C6.82127 11.6584 6.82127 11.3418 7.01653 11.1466C7.96795 10.1952 7.63706 9.47419 7.51657 9.3537ZM3.72367 4.85368C3.52841 5.04894 3.21183 5.04894 3.01656 4.85368C2.89606 4.73318 2.17507 4.40227 1.22367 5.35368C1.02841 5.54894 0.711826 5.54894 0.516564 5.35368C0.321302 5.15841 0.321302 4.84183 0.516564 4.64657C1.75298 3.41015 3.1149 3.53779 3.72367 4.14657C3.91893 4.34183 3.91893 4.65841 3.72367 4.85368ZM9.37019 0.500136C9.37019 0.223993 9.14633 0.000134042 8.87019 0.000134042C8.59404 0.000134042 8.37019 0.223993 8.37019 0.500136V3.50014V4.00014H8.87019H11.8702C12.1463 4.00014 12.3702 3.77628 12.3702 3.50014C12.3702 3.22399 12.1463 3.00014 11.8702 3.00014H9.37019V0.500136Z" fill="url(#paint0_linear_170_3006)"/>
<g filter="url(#filter0_i_170_3006)">
<ellipse cx="9.0392" cy="3.25267" rx="1.46963" ry="0.890761" transform="rotate(45 9.0392 3.25267)" fill="#54A24C"/>
</g>
<path d="M8.05579 4.23608C8.39644 4.57674 8.80486 4.81923 9.20955 4.91847C9.6038 5.01516 10.0868 4.99054 10.4319 4.6454C10.7771 4.30027 10.8017 3.81726 10.705 3.42301C10.6058 3.01832 10.3633 2.60991 10.0226 2.26925C9.68196 1.92859 9.27355 1.68611 8.86886 1.58686C8.47461 1.49017 7.9916 1.51479 7.64647 1.85993C7.30133 2.20507 7.27671 2.68807 7.3734 3.08232C7.47264 3.48701 7.71513 3.89543 8.05579 4.23608Z" stroke="url(#paint1_linear_170_3006)"/>
<path d="M7.31066 3.08285C7.31066 3.08285 6.71256 2.89643 5.99715 3.08286C5.28174 3.26928 3.37012 5.70703 3.37012 5.70703C3.37012 5.70703 3.37011 7.02421 4.35525 8.01211C5.34039 9 6.65391 9 6.65391 9C6.65391 9 9.08028 7.10627 9.28094 6.36562C9.48159 5.62497 9.28094 5.04843 9.28094 5.04843L7.96742 4.38984L7.31066 3.08285Z" fill="url(#paint2_linear_170_3006)"/>
<path d="M7.52066 4.61434L7.5951 4.76249L7.74332 4.8368L8.84698 5.39018C8.85133 5.41806 8.85545 5.44875 8.85897 5.48197C8.87904 5.67146 8.87911 5.93673 8.79834 6.23488C8.79852 6.23418 8.79749 6.23812 8.79377 6.24709C8.7901 6.25596 8.78447 6.26817 8.77618 6.28388C8.75932 6.31581 8.73461 6.3563 8.70034 6.40544C8.63131 6.50442 8.53524 6.62183 8.41559 6.75365C8.17654 7.017 7.86881 7.31013 7.55851 7.58818C7.24979 7.86481 6.94615 8.11973 6.71911 8.30591C6.63093 8.37822 6.55459 8.43993 6.49432 8.48827C6.49244 8.48806 6.49055 8.48785 6.48865 8.48764C6.37124 8.47456 6.20237 8.44796 6.00591 8.39423C5.61072 8.28614 5.12282 8.07372 4.7093 7.65905C4.29569 7.24428 4.08365 6.7547 3.97573 6.35789C3.92209 6.16066 3.89553 5.99113 3.88247 5.87321C3.88225 5.87122 3.88203 5.86924 3.88182 5.86728C3.93064 5.80662 3.99304 5.72971 4.06613 5.64086C4.25368 5.41286 4.51017 5.10808 4.78763 4.79864C5.06651 4.4876 5.3597 4.17957 5.62147 3.94125C5.75254 3.82192 5.86858 3.72665 5.96556 3.65878C6.01371 3.62508 6.05277 3.60124 6.0829 3.58536C6.11082 3.57064 6.12388 3.56659 6.12386 3.56654C6.12386 3.56653 6.12365 3.56659 6.12323 3.5667C6.40982 3.49202 6.67666 3.49137 6.87366 3.51059C6.90916 3.51405 6.94205 3.51812 6.97198 3.52244L7.52066 4.61434ZM6.6561 8.50001L6.65592 8.50001L6.6561 8.50001Z" stroke="white" stroke-opacity="0.5" style="mix-blend-mode:soft-light"/>
<path d="M8.37012 4L4.37012 8" stroke="url(#paint3_linear_170_3006)" stroke-linecap="square"/>
<path d="M6.65391 9C6.96154 9.39416 6.96158 9.39413 6.96162 9.39409L6.96177 9.39398L6.96221 9.39363L6.96377 9.39242L6.96945 9.38796L6.99079 9.37118C7.00929 9.35659 7.03618 9.33531 7.07032 9.30808C7.13859 9.25364 7.23593 9.17534 7.35321 9.07916C7.5874 8.88712 7.90289 8.62231 8.22585 8.33293C8.54722 8.04496 8.88371 7.72579 9.15604 7.42576C9.29208 7.27588 9.41849 7.12384 9.52056 6.97749C9.61747 6.83853 9.71598 6.67191 9.76354 6.49637C9.88342 6.05387 9.88349 5.66054 9.8534 5.3766C9.83832 5.23426 9.8155 5.11774 9.79547 5.03392C9.78544 4.99194 9.77606 4.95793 9.7686 4.93274C9.76487 4.92013 9.76162 4.90971 9.75899 4.90157L9.75555 4.89109L9.75421 4.88715L9.75365 4.88551L9.75339 4.88477L9.75327 4.88442C9.75321 4.88425 9.75316 4.88409 9.28094 5.04843L9.75316 4.88409L9.68645 4.69243L9.50504 4.60147L8.33974 4.01719L7.75743 2.85836L7.66212 2.66867L7.45945 2.6055L7.31066 3.08285C7.45945 2.6055 7.4593 2.60546 7.45915 2.60541L7.45884 2.60531L7.45817 2.60511L7.45667 2.60464L7.45298 2.60353L7.44292 2.60056C7.43505 2.59828 7.42483 2.5954 7.41239 2.59209C7.38753 2.58546 7.35369 2.57703 7.31186 2.56797C7.22838 2.54989 7.11199 2.52908 6.97072 2.51531C6.6898 2.48791 6.29988 2.48727 5.87107 2.59901C5.69482 2.64494 5.52836 2.74418 5.39218 2.83949C5.24768 2.94062 5.097 3.06638 4.94825 3.20181C4.65038 3.473 4.33153 3.80936 4.04308 4.13106C3.7532 4.45436 3.48708 4.77067 3.29385 5.00558C3.19707 5.12322 3.11821 5.2209 3.06337 5.28939C3.03593 5.32364 3.01449 5.35063 2.99979 5.36919L2.98289 5.39058L2.97841 5.39628L2.97719 5.39783L2.97684 5.39827L2.97673 5.39841C2.97669 5.39846 2.97666 5.39849 3.37012 5.70703M6.65391 9C6.65391 9.5 6.65372 9.5 6.65352 9.5L6.65311 9.5L6.65219 9.5L6.64998 9.49999L6.64412 9.49993L6.62669 9.49961C6.61259 9.49926 6.59359 9.49862 6.57008 9.49742C6.5231 9.49503 6.45793 9.49041 6.37791 9.48149C6.21825 9.4637 5.99716 9.42856 5.74211 9.3588C5.23425 9.21991 4.57283 8.93838 4.00121 8.36517C3.42967 7.79204 3.14915 7.12908 3.01078 6.62032C2.94128 6.36477 2.90627 6.14327 2.88855 5.98334C2.87967 5.90318 2.87507 5.83791 2.87268 5.79088C2.87149 5.76734 2.87085 5.74832 2.87051 5.73422L2.87018 5.7168L2.87013 5.71094L2.87012 5.70874L2.87012 5.70782L2.87012 5.70741C2.87012 5.70722 2.87012 5.70703 3.37012 5.70703M6.65391 9L6.96154 9.39416L6.82593 9.5H6.65391V9ZM3.37012 5.70703L2.87012 5.70703L2.87012 5.53436L2.97666 5.39849L3.37012 5.70703Z" stroke="url(#paint4_linear_170_3006)"/>
<defs>
<filter id="filter0_i_170_3006" x="6.82483" y="1.03833" width="4.42871" height="4.42865" filterUnits="userSpaceOnUse" color-interpolation-filters="sRGB">
<feFlood flood-opacity="0" result="BackgroundImageFix"/>
<feBlend mode="normal" in="SourceGraphic" in2="BackgroundImageFix" result="shape"/>
<feColorMatrix in="SourceAlpha" type="matrix" values="0 0 0 0 0 0 0 0 0 0 0 0 0 0 0 0 0 0 127 0" result="hardAlpha"/>
<feOffset dx="-1.3" dy="1.3"/>
<feComposite in2="hardAlpha" operator="arithmetic" k2="-1" k3="1"/>
<feColorMatrix type="matrix" values="0 0 0 0 1 0 0 0 0 1 0 0 0 0 1 0 0 0 0.5 0"/>
<feBlend mode="hard-light" in2="shape" result="effect1_innerShadow_170_3006"/>
</filter>
<linearGradient id="paint0_linear_170_3006" x1="-0.0285791" y1="-2.42624e-07" x2="11.679" y2="12.3795" gradientUnits="userSpaceOnUse">
<stop stop-color="#40B73A"/>
<stop offset="1" stop-color="#235C20"/>
</linearGradient>
<linearGradient id="paint1_linear_170_3006" x1="10.2193" y1="4.15098" x2="8.64272" y2="1.82358" gradientUnits="userSpaceOnUse">
<stop stop-color="#33822E"/>
<stop offset="1" stop-color="#379532"/>
</linearGradient>
<linearGradient id="paint2_linear_170_3006" x1="4.68363" y1="3.73125" x2="8.63518" y2="7.67178" gradientUnits="userSpaceOnUse">
<stop stop-color="#A5CC8D"/>
<stop offset="0.44542" stop-color="#5C9F42"/>
<stop offset="0.554484" stop-color="#96BF83"/>
<stop offset="1" stop-color="#609A46"/>
</linearGradient>
<linearGradient id="paint3_linear_170_3006" x1="9.09739" y1="3.63636" x2="4.73375" y2="8" gradientUnits="userSpaceOnUse">
<stop stop-color="#358A30"/>
<stop offset="0.505" stop-color="#549E4D"/>
<stop offset="1" stop-color="#358D30"/>
</linearGradient>
<linearGradient id="paint4_linear_170_3006" x1="3.37012" y1="3.07265" x2="9.29744" y2="8.98345" gradientUnits="userSpaceOnUse">
<stop stop-color="#3BA635"/>
<stop offset="1" stop-color="#2E712A"/>
</linearGradient>
</defs>
</svg>
