<svg width="10" height="10" viewBox="0 0 10 10" fill="none" xmlns="http://www.w3.org/2000/svg">
<g clip-path="url(#clip0_140_3527)">
<mask id="path-1-inside-1_140_3527" fill="white">
<path d="M10 5C10 7.76142 7.76142 10 5 10C2.23858 10 0 7.76142 0 5C0 2.23858 2.23858 0 5 0C7.76142 0 10 2.23858 10 5Z"/>
</mask>
<path d="M10 5C10 7.76142 7.76142 10 5 10C2.23858 10 0 7.76142 0 5C0 2.23858 2.23858 0 5 0C7.76142 0 10 2.23858 10 5Z" fill="url(#paint0_angular_140_3527)"/>
<path d="M9 5C9 7.20914 7.20914 9 5 9V11C8.31371 11 11 8.31371 11 5H9ZM5 9C2.79086 9 1 7.20914 1 5H-1C-1 8.31371 1.68629 11 5 11V9ZM1 5C1 2.79086 2.79086 1 5 1V-1C1.68629 -1 -1 1.68629 -1 5H1ZM5 1C7.20914 1 9 2.79086 9 5H11C11 1.68629 8.31371 -1 5 -1V1Z" fill="url(#paint1_linear_140_3527)" mask="url(#path-1-inside-1_140_3527)"/>
<mask id="path-3-inside-2_140_3527" fill="white">
<path fill-rule="evenodd" clip-rule="evenodd" d="M5 9C7.20914 9 9 7.20914 9 5C9 2.79086 7.20914 1 5 1C2.79086 1 1 2.79086 1 5C1 7.20914 2.79086 9 5 9ZM5 6C5.55228 6 6 5.55228 6 5C6 4.44772 5.55228 4 5 4C4.44772 4 4 4.44772 4 5C4 5.55228 4.44772 6 5 6Z"/>
</mask>
<path d="M8 5C8 6.65685 6.65685 8 5 8V10C7.76142 10 10 7.76142 10 5H8ZM5 2C6.65685 2 8 3.34315 8 5H10C10 2.23858 7.76142 0 5 0V2ZM2 5C2 3.34315 3.34315 2 5 2V0C2.23858 0 0 2.23858 0 5H2ZM5 8C3.34315 8 2 6.65685 2 5H0C0 7.76142 2.23858 10 5 10V8ZM5 5V7C6.10457 7 7 6.10457 7 5H5ZM5 5H7C7 3.89543 6.10457 3 5 3V5ZM5 5V3C3.89543 3 3 3.89543 3 5H5ZM5 5H3C3 6.10457 3.89543 7 5 7V5Z" fill="white" fill-opacity="0.66" style="mix-blend-mode:hard-light" mask="url(#path-3-inside-2_140_3527)"/>
<circle cx="5" cy="5" r="1" fill="#7A9ED3"/>
</g>
<defs>
<radialGradient id="paint0_angular_140_3527" cx="0" cy="0" r="1" gradientUnits="userSpaceOnUse" gradientTransform="translate(5 5) rotate(-90) scale(5)">
<stop offset="0.00978372" stop-color="#C8EDF9"/>
<stop offset="0.0562591" stop-color="#FEFFFF"/>
<stop offset="0.0869076" stop-color="#E8F7FF"/>
<stop offset="0.151284" stop-color="#F1FEFF"/>
<stop offset="0.186145" stop-color="white"/>
<stop offset="0.20088" stop-color="#94BCE7"/>
<stop offset="0.305074" stop-color="#C5E1FF"/>
<stop offset="0.309966" stop-color="#94BCE7"/>
<stop offset="0.482388" stop-color="#BADBFE"/>
<stop offset="0.619108" stop-color="#F1FDFF"/>
<stop offset="0.625073" stop-color="#97BDEC"/>
<stop offset="0.633833" stop-color="#C8EDF9"/>
<stop offset="0.676859" stop-color="#94BCE7"/>
<stop offset="0.878701" stop-color="#B2D6FB"/>
<stop offset="0.884548" stop-color="white"/>
<stop offset="0.937167" stop-color="#BADBFE"/>
<stop offset="0.986241" stop-color="#97BDEC"/>
</radialGradient>
<linearGradient id="paint1_linear_140_3527" x1="0" y1="0" x2="10" y2="10" gradientUnits="userSpaceOnUse">
<stop offset="0.147434" stop-color="#B4CFF5"/>
<stop offset="0.85197" stop-color="#4978C0"/>
</linearGradient>
<clipPath id="clip0_140_3527">
<rect width="10" height="10" fill="white"/>
</clipPath>
</defs>
</svg>
