<svg width="10" height="11" viewBox="0 0 10 11" fill="none" xmlns="http://www.w3.org/2000/svg">
<mask id="path-1-inside-1_201_5534" fill="white">
<path fill-rule="evenodd" clip-rule="evenodd" d="M4.75 0.558167C4.19772 0.558167 3.75 1.00588 3.75 1.55817V1.823C3.75 1.94199 3.67414 2.04726 3.56423 2.09285C3.45426 2.13846 3.32693 2.11732 3.24274 2.03313L3.05546 1.84585C2.66493 1.45533 2.03177 1.45533 1.64124 1.84585L1.28769 2.19941C0.897165 2.58993 0.897165 3.2231 1.28769 3.61362L1.47497 3.8009C1.55916 3.88509 1.5803 4.01242 1.53468 4.1224C1.48909 4.23231 1.38383 4.30817 1.26484 4.30817H1C0.447715 4.30817 0 4.75588 0 5.30817V5.80817C0 6.36045 0.447715 6.80817 1 6.80817H1.26483C1.38383 6.80817 1.48909 6.88402 1.53468 6.99393C1.5803 7.10391 1.55916 7.23125 1.47497 7.31543L1.28769 7.50271C0.897163 7.89324 0.897163 8.5264 1.28769 8.91693L1.64124 9.27048C2.03177 9.66101 2.66493 9.66101 3.05545 9.27048L3.24274 9.0832C3.32693 8.99901 3.45426 8.97787 3.56423 9.02349C3.67414 9.06908 3.75 9.17434 3.75 9.29333V9.55817C3.75 10.1105 4.19772 10.5582 4.75 10.5582H5.25C5.80228 10.5582 6.25 10.1105 6.25 9.55817V9.29333C6.25 9.17434 6.32586 9.06907 6.43577 9.02349C6.54574 8.97787 6.67308 8.99901 6.75727 9.0832L6.94454 9.27047C7.33507 9.661 7.96823 9.661 8.35876 9.27047L8.71231 8.91692C9.10283 8.5264 9.10283 7.89323 8.71231 7.50271L8.52503 7.31543C8.44084 7.23124 8.4197 7.10391 8.46532 6.99393C8.51091 6.88402 8.61617 6.80817 8.73516 6.80817H9C9.55228 6.80817 10 6.36045 10 5.80817V5.30817C10 4.75588 9.55228 4.30817 9 4.30817H8.73516C8.61617 4.30817 8.51091 4.23231 8.46532 4.1224C8.4197 4.01243 8.44084 3.88509 8.52503 3.8009L8.71231 3.61363C9.10283 3.2231 9.10283 2.58994 8.71231 2.19941L8.35876 1.84586C7.96823 1.45534 7.33507 1.45534 6.94454 1.84586L6.75727 2.03313C6.67308 2.11732 6.54574 2.13847 6.43577 2.09285C6.32586 2.04726 6.25 1.94199 6.25 1.823V1.55817C6.25 1.00588 5.80228 0.558167 5.25 0.558167H4.75ZM5 6.80817C5.69036 6.80817 6.25 6.24852 6.25 5.55817C6.25 4.86781 5.69036 4.30817 5 4.30817C4.30964 4.30817 3.75 4.86781 3.75 5.55817C3.75 6.24852 4.30964 6.80817 5 6.80817Z"/>
</mask>
<g filter="url(#filter0_ii_201_5534)">
<path fill-rule="evenodd" clip-rule="evenodd" d="M4.75 0.558167C4.19772 0.558167 3.75 1.00588 3.75 1.55817V1.823C3.75 1.94199 3.67414 2.04726 3.56423 2.09285C3.45426 2.13846 3.32693 2.11732 3.24274 2.03313L3.05546 1.84585C2.66493 1.45533 2.03177 1.45533 1.64124 1.84585L1.28769 2.19941C0.897165 2.58993 0.897165 3.2231 1.28769 3.61362L1.47497 3.8009C1.55916 3.88509 1.5803 4.01242 1.53468 4.1224C1.48909 4.23231 1.38383 4.30817 1.26484 4.30817H1C0.447715 4.30817 0 4.75588 0 5.30817V5.80817C0 6.36045 0.447715 6.80817 1 6.80817H1.26483C1.38383 6.80817 1.48909 6.88402 1.53468 6.99393C1.5803 7.10391 1.55916 7.23125 1.47497 7.31543L1.28769 7.50271C0.897163 7.89324 0.897163 8.5264 1.28769 8.91693L1.64124 9.27048C2.03177 9.66101 2.66493 9.66101 3.05545 9.27048L3.24274 9.0832C3.32693 8.99901 3.45426 8.97787 3.56423 9.02349C3.67414 9.06908 3.75 9.17434 3.75 9.29333V9.55817C3.75 10.1105 4.19772 10.5582 4.75 10.5582H5.25C5.80228 10.5582 6.25 10.1105 6.25 9.55817V9.29333C6.25 9.17434 6.32586 9.06907 6.43577 9.02349C6.54574 8.97787 6.67308 8.99901 6.75727 9.0832L6.94454 9.27047C7.33507 9.661 7.96823 9.661 8.35876 9.27047L8.71231 8.91692C9.10283 8.5264 9.10283 7.89323 8.71231 7.50271L8.52503 7.31543C8.44084 7.23124 8.4197 7.10391 8.46532 6.99393C8.51091 6.88402 8.61617 6.80817 8.73516 6.80817H9C9.55228 6.80817 10 6.36045 10 5.80817V5.30817C10 4.75588 9.55228 4.30817 9 4.30817H8.73516C8.61617 4.30817 8.51091 4.23231 8.46532 4.1224C8.4197 4.01243 8.44084 3.88509 8.52503 3.8009L8.71231 3.61363C9.10283 3.2231 9.10283 2.58994 8.71231 2.19941L8.35876 1.84586C7.96823 1.45534 7.33507 1.45534 6.94454 1.84586L6.75727 2.03313C6.67308 2.11732 6.54574 2.13847 6.43577 2.09285C6.32586 2.04726 6.25 1.94199 6.25 1.823V1.55817C6.25 1.00588 5.80228 0.558167 5.25 0.558167H4.75ZM5 6.80817C5.69036 6.80817 6.25 6.24852 6.25 5.55817C6.25 4.86781 5.69036 4.30817 5 4.30817C4.30964 4.30817 3.75 4.86781 3.75 5.55817C3.75 6.24852 4.30964 6.80817 5 6.80817Z" fill="#BEBEBE"/>
</g>
<path d="M3.56423 2.09285L3.1811 1.16916L3.1811 1.16916L3.56423 2.09285ZM3.24274 2.03313L3.94984 1.32603L3.94984 1.32603L3.24274 2.03313ZM3.05546 1.84585L2.34835 2.55296L3.05546 1.84585ZM1.64124 1.84585L0.934136 1.13875L0.934136 1.13875L1.64124 1.84585ZM1.28769 2.19941L0.580583 1.4923L0.580583 1.4923L1.28769 2.19941ZM1.28769 3.61362L1.9948 2.90651L1.9948 2.90651L1.28769 3.61362ZM1.47497 3.8009L2.18208 3.09379L2.18208 3.09379L1.47497 3.8009ZM1.53468 4.1224L2.45837 4.50554L2.45837 4.50554L1.53468 4.1224ZM1.53468 6.99393L2.45837 6.6108L2.45837 6.6108L1.53468 6.99393ZM1.47497 7.31543L0.767862 6.60833L0.767861 6.60833L1.47497 7.31543ZM1.28769 7.50271L1.99479 8.20982H1.99479L1.28769 7.50271ZM1.28769 8.91693L1.99479 8.20982H1.99479L1.28769 8.91693ZM1.64124 9.27048L0.934134 9.97759L0.934134 9.97759L1.64124 9.27048ZM3.05545 9.27048L2.34835 8.56337H2.34835L3.05545 9.27048ZM3.24274 9.0832L2.53563 8.37609L2.53563 8.37609L3.24274 9.0832ZM3.56423 9.02349L3.1811 9.94718L3.1811 9.94718L3.56423 9.02349ZM6.43577 9.02349L6.8189 9.94718L6.81891 9.94717L6.43577 9.02349ZM6.75727 9.0832L7.46438 8.37609L7.46437 8.37609L6.75727 9.0832ZM6.94454 9.27047L6.23744 9.97758L6.23744 9.97758L6.94454 9.27047ZM8.35876 9.27047L9.06586 9.97758V9.97758L8.35876 9.27047ZM8.71231 8.91692L9.41942 9.62403H9.41942L8.71231 8.91692ZM8.71231 7.50271L8.0052 8.20981V8.20981L8.71231 7.50271ZM8.52503 7.31543L9.23214 6.60832L9.23214 6.60832L8.52503 7.31543ZM8.46532 6.99393L9.38901 7.37707L9.38901 7.37707L8.46532 6.99393ZM8.46532 4.1224L9.38901 3.73926V3.73926L8.46532 4.1224ZM8.52503 3.8009L7.81793 3.0938L7.81792 3.0938L8.52503 3.8009ZM8.71231 3.61363L9.41942 4.32073L9.41942 4.32073L8.71231 3.61363ZM8.71231 2.19941L9.41942 1.49231L9.41942 1.49231L8.71231 2.19941ZM8.35876 1.84586L7.65165 2.55297L7.65165 2.55297L8.35876 1.84586ZM6.94454 1.84586L7.65165 2.55297L6.94454 1.84586ZM6.75727 2.03313L6.05016 1.32603L6.05016 1.32603L6.75727 2.03313ZM6.43577 2.09285L6.05263 3.01654L6.05263 3.01654L6.43577 2.09285ZM4.75 1.55817V1.55817V-0.441833C3.64543 -0.441833 2.75 0.453598 2.75 1.55817H4.75ZM4.75 1.823V1.55817H2.75V1.823H4.75ZM3.94737 3.01654C4.40033 2.82866 4.75 2.37819 4.75 1.823H2.75C2.75 1.5058 2.94796 1.26586 3.1811 1.16916L3.94737 3.01654ZM2.53563 2.74024C2.92594 3.13055 3.49046 3.20606 3.94737 3.01654L3.1811 1.16916C3.41806 1.07087 3.72792 1.1041 3.94984 1.32603L2.53563 2.74024ZM2.34835 2.55296L2.53563 2.74024L3.94984 1.32603L3.76256 1.13875L2.34835 2.55296ZM2.34835 2.55296L2.34835 2.55296L3.76256 1.13875C2.98151 0.357698 1.71518 0.357698 0.934136 1.13875L2.34835 2.55296ZM1.9948 2.90651L2.34835 2.55296L0.934136 1.13875L0.580583 1.4923L1.9948 2.90651ZM1.9948 2.90651L0.580583 1.4923C-0.200466 2.27335 -0.200466 3.53968 0.580583 4.32073L1.9948 2.90651ZM2.18208 3.09379L1.9948 2.90651L0.580583 4.32073L0.767861 4.50801L2.18208 3.09379ZM2.45837 4.50554C2.6479 4.04862 2.57238 3.4841 2.18208 3.09379L0.767861 4.508C0.545933 4.28608 0.512701 3.97622 0.610991 3.73926L2.45837 4.50554ZM1.26484 5.30817C1.82003 5.30817 2.27049 4.95849 2.45837 4.50554L0.610991 3.73926C0.707694 3.50613 0.947627 3.30817 1.26484 3.30817V5.30817ZM1 5.30817H1.26484V3.30817H1V5.30817ZM1 5.30817V3.30817C-0.104569 3.30817 -1 4.2036 -1 5.30817H1ZM1 5.80817V5.30817H-1V5.80817H1ZM1 5.80817H1H-1C-1 6.91274 -0.104569 7.80817 1 7.80817V5.80817ZM1.26483 5.80817H1V7.80817H1.26483V5.80817ZM2.45837 6.6108C2.27049 6.15784 1.82002 5.80817 1.26483 5.80817V7.80817C0.947627 7.80817 0.707693 7.61021 0.610991 7.37707L2.45837 6.6108ZM2.18207 8.02254C2.57238 7.63223 2.6479 7.06771 2.45837 6.6108L0.610991 7.37707C0.512701 7.14011 0.545932 6.83026 0.767862 6.60833L2.18207 8.02254ZM1.99479 8.20982L2.18207 8.02254L0.767861 6.60833L0.580581 6.79561L1.99479 8.20982ZM1.99479 8.20982V8.20982L0.580581 6.79561C-0.200468 7.57666 -0.200468 8.84299 0.580581 9.62403L1.99479 8.20982ZM2.34835 8.56338L1.99479 8.20982L0.58058 9.62403L0.934134 9.97759L2.34835 8.56338ZM2.34835 8.56337L0.934134 9.97759C1.71518 10.7586 2.98151 10.7586 3.76256 9.97759L2.34835 8.56337ZM2.53563 8.37609L2.34835 8.56337L3.76256 9.97759L3.94984 9.79031L2.53563 8.37609ZM3.94737 8.0998C3.49046 7.91027 2.92594 7.98579 2.53563 8.37609L3.94984 9.79031C3.72791 10.0122 3.41806 10.0455 3.1811 9.94718L3.94737 8.0998ZM4.75 9.29333C4.75 8.73814 4.40033 8.28768 3.94737 8.09979L3.1811 9.94718C2.94796 9.85048 2.75 9.61054 2.75 9.29333H4.75ZM4.75 9.55817V9.29333H2.75V9.55817H4.75ZM4.75 9.55817H2.75C2.75 10.6627 3.64543 11.5582 4.75 11.5582V9.55817ZM5.25 9.55817H4.75V11.5582H5.25V9.55817ZM5.25 9.55817V11.5582C6.35457 11.5582 7.25 10.6627 7.25 9.55817H5.25ZM5.25 9.29333V9.55817H7.25V9.29333H5.25ZM6.05263 8.09979C5.59967 8.28767 5.25 8.73814 5.25 9.29333H7.25C7.25 9.61054 7.05204 9.85047 6.8189 9.94718L6.05263 8.09979ZM7.46437 8.37609C7.07407 7.98579 6.50955 7.91027 6.05262 8.0998L6.81891 9.94717C6.58194 10.0455 6.27209 10.0122 6.05016 9.79031L7.46437 8.37609ZM7.65165 8.56337L7.46438 8.37609L6.05016 9.7903L6.23744 9.97758L7.65165 8.56337ZM7.65165 8.56337H7.65165L6.23744 9.97758C7.01849 10.7586 8.28481 10.7586 9.06586 9.97758L7.65165 8.56337ZM8.0052 8.20981L7.65165 8.56337L9.06586 9.97758L9.41942 9.62403L8.0052 8.20981ZM8.0052 8.20981V8.20981L9.41942 9.62403C10.2005 8.84298 10.2005 7.57665 9.41942 6.7956L8.0052 8.20981ZM7.81793 8.02254L8.0052 8.20981L9.41942 6.7956L9.23214 6.60832L7.81793 8.02254ZM7.54163 6.61079C7.3521 7.06771 7.42762 7.63223 7.81793 8.02254L9.23214 6.60832C9.45407 6.83025 9.4873 7.1401 9.38901 7.37707L7.54163 6.61079ZM8.73516 5.80817C8.17997 5.80817 7.72951 6.15784 7.54163 6.6108L9.38901 7.37707C9.29231 7.61021 9.05237 7.80817 8.73516 7.80817V5.80817ZM9 5.80817H8.73516V7.80817H9V5.80817ZM9 5.80817V7.80817C10.1046 7.80817 11 6.91274 11 5.80817H9ZM9 5.30817V5.80817H11V5.30817H9ZM9 5.30817H11C11 4.2036 10.1046 3.30817 9 3.30817V5.30817ZM8.73516 5.30817H9V3.30817H8.73516V5.30817ZM7.54163 4.50554C7.72951 4.9585 8.17997 5.30817 8.73516 5.30817V3.30817C9.05237 3.30817 9.29231 3.50613 9.38901 3.73926L7.54163 4.50554ZM7.81792 3.0938C7.42762 3.4841 7.3521 4.04862 7.54163 4.50554L9.38901 3.73926C9.4873 3.97623 9.45407 4.28608 9.23214 4.50801L7.81792 3.0938ZM8.0052 2.90652L7.81793 3.0938L9.23214 4.50801L9.41942 4.32073L8.0052 2.90652ZM8.0052 2.90652V2.90652L9.41942 4.32073C10.2005 3.53969 10.2005 2.27336 9.41942 1.49231L8.0052 2.90652ZM7.65165 2.55297L8.0052 2.90652L9.41942 1.49231L9.06586 1.13875L7.65165 2.55297ZM7.65165 2.55297V2.55297L9.06586 1.13875C8.28481 0.357705 7.01848 0.357706 6.23743 1.13875L7.65165 2.55297ZM7.46437 2.74024L7.65165 2.55297L6.23743 1.13875L6.05016 1.32603L7.46437 2.74024ZM6.05263 3.01654C6.50954 3.20606 7.07407 3.13055 7.46438 2.74024L6.05016 1.32603C6.27209 1.1041 6.58194 1.07087 6.81891 1.16916L6.05263 3.01654ZM5.25 1.823C5.25 2.37819 5.59967 2.82866 6.05263 3.01654L6.81891 1.16916C7.05204 1.26586 7.25 1.50579 7.25 1.823H5.25ZM5.25 1.55817V1.823H7.25V1.55817H5.25ZM5.25 1.55817H7.25C7.25 0.453597 6.35457 -0.441833 5.25 -0.441833V1.55817ZM4.75 1.55817H5.25V-0.441833H4.75V1.55817ZM5.25 5.55817C5.25 5.69624 5.13807 5.80817 5 5.80817V7.80817C6.24264 7.80817 7.25 6.80081 7.25 5.55817H5.25ZM5 5.30817C5.13807 5.30817 5.25 5.4201 5.25 5.55817H7.25C7.25 4.31553 6.24264 3.30817 5 3.30817V5.30817ZM4.75 5.55817C4.75 5.4201 4.86193 5.30817 5 5.30817V3.30817C3.75736 3.30817 2.75 4.31553 2.75 5.55817H4.75ZM5 5.80817C4.86193 5.80817 4.75 5.69624 4.75 5.55817H2.75C2.75 6.80081 3.75736 7.80817 5 7.80817V5.80817Z" fill="url(#paint0_linear_201_5534)" mask="url(#path-1-inside-1_201_5534)"/>
<defs>
<filter id="filter0_ii_201_5534" x="0" y="0.558167" width="12" height="12" filterUnits="userSpaceOnUse" color-interpolation-filters="sRGB">
<feFlood flood-opacity="0" result="BackgroundImageFix"/>
<feBlend mode="normal" in="SourceGraphic" in2="BackgroundImageFix" result="shape"/>
<feColorMatrix in="SourceAlpha" type="matrix" values="0 0 0 0 0 0 0 0 0 0 0 0 0 0 0 0 0 0 127 0" result="hardAlpha"/>
<feOffset dx="4" dy="4"/>
<feGaussianBlur stdDeviation="1"/>
<feComposite in2="hardAlpha" operator="arithmetic" k2="-1" k3="1"/>
<feColorMatrix type="matrix" values="0 0 0 0 1 0 0 0 0 1 0 0 0 0 1 0 0 0 0.33 0"/>
<feBlend mode="normal" in2="shape" result="effect1_innerShadow_201_5534"/>
<feColorMatrix in="SourceAlpha" type="matrix" values="0 0 0 0 0 0 0 0 0 0 0 0 0 0 0 0 0 0 127 0" result="hardAlpha"/>
<feOffset dx="1.5" dy="1.5"/>
<feGaussianBlur stdDeviation="0.5"/>
<feComposite in2="hardAlpha" operator="arithmetic" k2="-1" k3="1"/>
<feColorMatrix type="matrix" values="0 0 0 0 1 0 0 0 0 1 0 0 0 0 1 0 0 0 0.66 0"/>
<feBlend mode="normal" in2="effect1_innerShadow_201_5534" result="effect2_innerShadow_201_5534"/>
</filter>
<linearGradient id="paint0_linear_201_5534" x1="10.001" y1="10.5591" x2="-0.000959223" y2="0.557207" gradientUnits="userSpaceOnUse">
<stop offset="0.14049" stop-color="#4F4F4F"/>
<stop offset="0.857348" stop-color="#CECECE"/>
</linearGradient>
</defs>
</svg>
