<svg width="12" height="12" viewBox="0 0 12 12" fill="none" xmlns="http://www.w3.org/2000/svg">
<mask id="path-1-outside-1_188_3412" maskUnits="userSpaceOnUse" x="0" y="0.558167" width="12" height="11" fill="black">
<rect fill="white" y="0.558167" width="12" height="11"/>
<path fill-rule="evenodd" clip-rule="evenodd" d="M3 1.55817C1.89543 1.55817 1 2.4536 1 3.55817V5.55817C1 6.66274 1.89543 7.55817 3 7.55817H5C5.5 7.55817 5.70993 7.73183 6 8.05817C6.69859 8.84408 5 10.5582 5 10.5582C6.72268 10.1275 8.81632 8.58396 9.3638 7.52516C10.2947 7.35409 11 6.5385 11 5.55817V3.55817C11 2.4536 10.1046 1.55817 9 1.55817H3Z"/>
</mask>
<path fill-rule="evenodd" clip-rule="evenodd" d="M3 1.55817C1.89543 1.55817 1 2.4536 1 3.55817V5.55817C1 6.66274 1.89543 7.55817 3 7.55817H5C5.5 7.55817 5.70993 7.73183 6 8.05817C6.69859 8.84408 5 10.5582 5 10.5582C6.72268 10.1275 8.81632 8.58396 9.3638 7.52516C10.2947 7.35409 11 6.5385 11 5.55817V3.55817C11 2.4536 10.1046 1.55817 9 1.55817H3Z" fill="url(#paint0_linear_188_3412)"/>
<path d="M6 8.05817L6.74741 7.3938L6 8.05817ZM5 10.5582L4.28969 9.85428C3.9739 10.1729 3.90899 10.6629 4.13092 11.0528C4.35285 11.4427 4.80729 11.6371 5.24254 11.5283L5 10.5582ZM9.3638 7.52516L9.18305 6.54163C8.87883 6.59754 8.61759 6.79109 8.47552 7.06585L9.3638 7.52516ZM2 3.55817C2 3.00588 2.44772 2.55817 3 2.55817V0.558167C1.34315 0.558167 0 1.90131 0 3.55817H2ZM2 5.55817V3.55817H0V5.55817H2ZM3 6.55817C2.44772 6.55817 2 6.11045 2 5.55817H0C0 7.21502 1.34315 8.55817 3 8.55817V6.55817ZM5 6.55817H3V8.55817H5V6.55817ZM5 8.55817C5.06788 8.55817 5.09862 8.56414 5.10578 8.56576C5.10943 8.56659 5.10184 8.56483 5.09226 8.55949C5.08505 8.55548 5.09212 8.55782 5.11845 8.5818C5.14776 8.60848 5.18787 8.64971 5.25259 8.72253L6.74741 7.3938C6.5942 7.22144 6.37473 6.98444 6.06518 6.81209C5.7295 6.62519 5.37413 6.55817 5 6.55817V8.55817ZM5.25259 8.72253C5.13411 8.58924 5.1842 8.46598 5.16284 8.5609C5.13904 8.66675 5.06276 8.84043 4.91984 9.06361C4.78471 9.27464 4.62581 9.475 4.49537 9.62711C4.43139 9.70172 4.37704 9.76149 4.33984 9.80144C4.3213 9.82135 4.30719 9.83614 4.29848 9.84519C4.29412 9.84972 4.29113 9.85279 4.28962 9.85433C4.28887 9.8551 4.28849 9.85549 4.28849 9.85549C4.2885 9.85548 4.2886 9.85538 4.2888 9.85518C4.28889 9.85508 4.28902 9.85496 4.28917 9.8548C4.28924 9.85473 4.28937 9.8546 4.28941 9.85456C4.28955 9.85442 4.28969 9.85428 5 10.5582C5.71031 11.2621 5.71047 11.2619 5.71063 11.2617C5.71069 11.2617 5.71086 11.2615 5.71099 11.2614C5.71124 11.2611 5.71152 11.2608 5.71182 11.2605C5.71243 11.2599 5.71315 11.2592 5.71396 11.2584C5.7156 11.2567 5.71764 11.2546 5.72008 11.2521C5.72496 11.2471 5.73142 11.2405 5.73933 11.2323C5.75516 11.2158 5.77686 11.193 5.8034 11.1645C5.85636 11.1077 5.92926 11.0274 6.01361 10.929C6.17983 10.7352 6.40191 10.4579 6.6041 10.1422C6.79851 9.83858 7.01589 9.43638 7.11409 8.99979C7.21475 8.55229 7.21519 7.92005 6.74741 7.3938L5.25259 8.72253ZM5.24254 11.5283C6.26047 11.2738 7.32787 10.7118 8.20083 10.0931C9.0496 9.49154 9.86748 8.72827 10.2521 7.98446L8.47552 7.06585C8.31264 7.38086 7.80996 7.91875 7.04437 8.46134C6.30297 8.98679 5.46221 9.41184 4.75746 9.58802L5.24254 11.5283ZM10 5.55817C10 6.04726 9.64787 6.45621 9.18305 6.54163L9.54454 8.50869C10.9415 8.25197 12 7.02974 12 5.55817H10ZM10 3.55817V5.55817H12V3.55817H10ZM9 2.55817C9.55228 2.55817 10 3.00588 10 3.55817H12C12 1.90131 10.6569 0.558167 9 0.558167V2.55817ZM3 2.55817H9V0.558167H3V2.55817Z" fill="#5887B8" mask="url(#path-1-outside-1_188_3412)"/>
<mask id="path-3-inside-2_188_3412" fill="white">
<path fill-rule="evenodd" clip-rule="evenodd" d="M3 1.55817C1.89543 1.55817 1 2.4536 1 3.55817V5.55817C1 6.66274 1.89543 7.55817 3 7.55817H5C5.5 7.55817 5.70993 7.73183 6 8.05817C6.69859 8.84408 5 10.5582 5 10.5582C6.72268 10.1275 8.81632 8.58396 9.3638 7.52516C10.2947 7.35409 11 6.5385 11 5.55817V3.55817C11 2.4536 10.1046 1.55817 9 1.55817H3Z"/>
</mask>
<path d="M6 8.05817L6.74741 7.3938L6 8.05817ZM5 10.5582L4.28969 9.85428C3.9739 10.1729 3.90899 10.6629 4.13092 11.0528C4.35285 11.4427 4.80729 11.6371 5.24254 11.5283L5 10.5582ZM9.3638 7.52516L9.18305 6.54163C8.87883 6.59754 8.61759 6.79109 8.47552 7.06585L9.3638 7.52516ZM2 3.55817C2 3.00588 2.44772 2.55817 3 2.55817V0.558167C1.34315 0.558167 0 1.90131 0 3.55817H2ZM2 5.55817V3.55817H0V5.55817H2ZM3 6.55817C2.44772 6.55817 2 6.11045 2 5.55817H0C0 7.21502 1.34315 8.55817 3 8.55817V6.55817ZM5 6.55817H3V8.55817H5V6.55817ZM5 8.55817C5.06788 8.55817 5.09862 8.56414 5.10578 8.56576C5.10943 8.56659 5.10184 8.56483 5.09226 8.55949C5.08505 8.55548 5.09212 8.55782 5.11845 8.5818C5.14776 8.60848 5.18787 8.64971 5.25259 8.72253L6.74741 7.3938C6.5942 7.22144 6.37473 6.98444 6.06518 6.81209C5.7295 6.62519 5.37413 6.55817 5 6.55817V8.55817ZM5.25259 8.72253C5.13411 8.58924 5.1842 8.46598 5.16284 8.5609C5.13904 8.66675 5.06276 8.84043 4.91984 9.06361C4.78471 9.27464 4.62581 9.475 4.49537 9.62711C4.43139 9.70172 4.37704 9.76149 4.33984 9.80144C4.3213 9.82135 4.30719 9.83614 4.29848 9.84519C4.29412 9.84972 4.29113 9.85279 4.28962 9.85433C4.28887 9.8551 4.28849 9.85549 4.28849 9.85549C4.2885 9.85548 4.2886 9.85538 4.2888 9.85518C4.28889 9.85508 4.28902 9.85496 4.28917 9.8548C4.28924 9.85473 4.28937 9.8546 4.28941 9.85456C4.28955 9.85442 4.28969 9.85428 5 10.5582C5.71031 11.2621 5.71047 11.2619 5.71063 11.2617C5.71069 11.2617 5.71086 11.2615 5.71099 11.2614C5.71124 11.2611 5.71152 11.2608 5.71182 11.2605C5.71243 11.2599 5.71315 11.2592 5.71396 11.2584C5.7156 11.2567 5.71764 11.2546 5.72008 11.2521C5.72496 11.2471 5.73142 11.2405 5.73933 11.2323C5.75516 11.2158 5.77686 11.193 5.8034 11.1645C5.85636 11.1077 5.92926 11.0274 6.01361 10.929C6.17983 10.7352 6.40191 10.4579 6.6041 10.1422C6.79851 9.83858 7.01589 9.43638 7.11409 8.99979C7.21475 8.55229 7.21519 7.92005 6.74741 7.3938L5.25259 8.72253ZM5.24254 11.5283C6.26047 11.2738 7.32787 10.7118 8.20083 10.0931C9.0496 9.49154 9.86748 8.72827 10.2521 7.98446L8.47552 7.06585C8.31264 7.38086 7.80996 7.91875 7.04437 8.46134C6.30297 8.98679 5.46221 9.41184 4.75746 9.58802L5.24254 11.5283ZM10 5.55817C10 6.04726 9.64787 6.45621 9.18305 6.54163L9.54454 8.50869C10.9415 8.25197 12 7.02974 12 5.55817H10ZM10 3.55817V5.55817H12V3.55817H10ZM9 2.55817C9.55228 2.55817 10 3.00588 10 3.55817H12C12 1.90131 10.6569 0.558167 9 0.558167V2.55817ZM3 2.55817H9V0.558167H3V2.55817Z" fill="white" style="mix-blend-mode:soft-light" mask="url(#path-3-inside-2_188_3412)"/>
<defs>
<linearGradient id="paint0_linear_188_3412" x1="1" y1="1.55817" x2="11" y2="10.5582" gradientUnits="userSpaceOnUse">
<stop stop-color="#EFF5FE"/>
<stop offset="1" stop-color="#B5D5FD"/>
</linearGradient>
</defs>
</svg>
