<svg width="12" height="11" viewBox="0 0 12 11" fill="none" xmlns="http://www.w3.org/2000/svg">
<path d="M11.5 3.37635C11.5 2.92476 11.2468 2.5592 10.933 2.28949C10.6177 2.01838 10.1906 1.79689 9.70641 1.6208C8.73382 1.26714 7.42334 1.05817 6 1.05817C4.57666 1.05817 3.26618 1.26714 2.29359 1.6208C1.80936 1.79689 1.3823 2.01838 1.06696 2.28949C0.753246 2.5592 0.5 2.92476 0.5 3.37635C0.5 4.80619 0.677954 6.46473 1.46378 7.77831C2.2771 9.13786 3.69902 10.0582 6 10.0582C8.30098 10.0582 9.7229 9.13786 10.5362 7.77831C11.322 6.46473 11.5 4.80619 11.5 3.37635Z" fill="url(#paint0_linear_393_6265)" stroke="url(#paint1_linear_393_6265)"/>
<path d="M10.5 3.37635C10.5 4.75813 10.3208 6.19051 9.67806 7.26493C9.06281 8.29338 7.98474 9.05817 6 9.05817C4.01526 9.05817 2.93719 8.29338 2.32194 7.26493C1.67919 6.19051 1.5 4.75813 1.5 3.37635C1.5 3.32586 1.52658 3.21311 1.71889 3.04777C1.90957 2.88383 2.21475 2.71354 2.63534 2.5606C3.4724 2.25621 4.66191 2.05817 6 2.05817C7.33809 2.05817 8.5276 2.25621 9.36466 2.5606C9.78525 2.71354 10.0904 2.88383 10.2811 3.04777C10.4734 3.21311 10.5 3.32586 10.5 3.37635Z" stroke="white" stroke-opacity="0.66"/>
<path d="M2.5 7.05817C2.36536 6.52379 2.66481 6.17788 2.90413 5.70615C3.14346 5.23442 2.90413 4.77153 2.52331 4.63663C2.14248 4.50173 1.76165 4.49471 1.38083 4.99313C1 5.49154 1 6.00971 1 6.41913C1 7.75817 2 8.55817 3 8.55817C3.27042 8.55817 3.5 8.31264 3.5 8.05817C3.5 7.55817 2.63493 7.59371 2.5 7.05817Z" fill="white"/>
<path d="M2.98485 6.93601C2.95003 6.79781 2.96599 6.68945 3.02374 6.55007C3.05597 6.4723 3.09957 6.38935 3.15797 6.28445C3.16935 6.264 3.18147 6.24241 3.19413 6.21987C3.24226 6.13416 3.29809 6.03474 3.35003 5.93237C3.72774 5.18789 3.35153 4.39957 2.69026 4.16533C2.45861 4.08327 2.16294 4.01602 1.84026 4.09005C1.50789 4.1663 1.22488 4.37368 0.983527 4.68956C0.499553 5.32297 0.499825 5.98701 0.499994 6.39674C0.499997 6.40429 0.5 6.41176 0.5 6.41913C0.5 8.04394 1.73359 9.05817 3 9.05817C3.5567 9.05817 4 8.57854 4 8.05817C4 7.76053 3.86041 7.54243 3.69834 7.39566C3.5636 7.27365 3.39769 7.18799 3.29244 7.13365C3.28829 7.13151 3.28423 7.12941 3.28027 7.12737C3.15144 7.06075 3.07883 7.02211 3.02488 6.97909C3.00223 6.96103 2.99246 6.94921 2.98875 6.94401C2.98608 6.94027 2.98555 6.9388 2.98485 6.93601Z" stroke="url(#paint2_linear_393_6265)"/>
<path d="M10.5 3.55817C10.5 3.65253 10.4543 3.79301 10.2635 3.97338C10.0717 4.15475 9.76739 4.34112 9.34984 4.50814C8.51752 4.84107 7.33339 5.05817 6 5.05817C4.66661 5.05817 3.48248 4.84107 2.65016 4.50814C2.23261 4.34112 1.92826 4.15475 1.73648 3.97338C1.54575 3.79301 1.5 3.65253 1.5 3.55817C1.5 3.46381 1.54575 3.32333 1.73648 3.14295C1.92826 2.96158 2.23261 2.77521 2.65016 2.60819C3.48248 2.27526 4.66661 2.05817 6 2.05817C7.33339 2.05817 8.51752 2.27526 9.34984 2.60819C9.76739 2.77521 10.0717 2.96158 10.2635 3.14295C10.4543 3.32333 10.5 3.46381 10.5 3.55817Z" fill="url(#paint3_linear_393_6265)" stroke="url(#paint4_linear_393_6265)"/>
<ellipse cx="6" cy="3.55817" rx="4" ry="1" fill="#8F5035"/>
<defs>
<linearGradient id="paint0_linear_393_6265" x1="1.62686" y1="9.9634" x2="8.03908" y2="4.03433" gradientUnits="userSpaceOnUse">
<stop offset="0.308746" stop-color="#E5E5E5"/>
<stop offset="1" stop-color="#C4C4C4"/>
</linearGradient>
<linearGradient id="paint1_linear_393_6265" x1="2.04625" y1="1.55817" x2="10.0953" y2="9.41313" gradientUnits="userSpaceOnUse">
<stop stop-color="#D9D9D9"/>
<stop offset="1" stop-color="#B3B3B3"/>
</linearGradient>
<linearGradient id="paint2_linear_393_6265" x1="1" y1="6.55817" x2="4" y2="6.55817" gradientUnits="userSpaceOnUse">
<stop stop-color="#AEAEAE"/>
<stop offset="0.558695" stop-color="#C4C4C4"/>
<stop offset="1" stop-color="#C4C4C4" stop-opacity="0.66"/>
</linearGradient>
<linearGradient id="paint3_linear_393_6265" x1="6" y1="1.55817" x2="6" y2="5.55817" gradientUnits="userSpaceOnUse">
<stop stop-color="#F6F6F6"/>
<stop offset="1" stop-color="#A8A8A8"/>
</linearGradient>
<linearGradient id="paint4_linear_393_6265" x1="1" y1="3.55956" x2="11" y2="3.55734" gradientUnits="userSpaceOnUse">
<stop stop-color="white"/>
<stop offset="1" stop-color="#F0F0F0"/>
</linearGradient>
</defs>
</svg>
