<svg width="9" height="10" viewBox="0 0 9 10" fill="none" xmlns="http://www.w3.org/2000/svg">
<mask id="path-1-inside-1_77_3749" fill="white">
<path fill-rule="evenodd" clip-rule="evenodd" d="M8.86072 2V8C8.86072 9.10457 7.06986 10 4.86072 10C2.65158 10 0.860718 9.10457 0.860718 8V2C0.860718 0.895431 2.65158 0 4.86072 0C7.06986 0 8.86072 0.895431 8.86072 2Z"/>
</mask>
<path fill-rule="evenodd" clip-rule="evenodd" d="M8.86072 2V8C8.86072 9.10457 7.06986 10 4.86072 10C2.65158 10 0.860718 9.10457 0.860718 8V2C0.860718 0.895431 2.65158 0 4.86072 0C7.06986 0 8.86072 0.895431 8.86072 2Z" fill="url(#paint0_linear_77_3749)"/>
<path d="M7.86072 2V8H9.86072V2H7.86072ZM4.86072 11C6.08687 11 7.24638 10.7536 8.13636 10.3086C8.96652 9.89356 9.86072 9.13511 9.86072 8H7.86072C7.86072 8.00106 7.86065 8.00261 7.86008 8.00544C7.85948 8.00839 7.85794 8.01457 7.85396 8.0243C7.84588 8.04405 7.82655 8.08106 7.78291 8.13265C7.6917 8.24047 7.52052 8.38049 7.24193 8.51979C6.68419 8.79866 5.8437 9 4.86072 9V11ZM-0.139282 8C-0.139282 9.13511 0.754915 9.89356 1.58508 10.3086C2.47505 10.7536 3.63457 11 4.86072 11V9C3.87773 9 3.03724 8.79866 2.4795 8.51979C2.20091 8.38049 2.02974 8.24047 1.93853 8.13265C1.89489 8.08106 1.87556 8.04405 1.86748 8.0243C1.86349 8.01457 1.86196 8.00839 1.86136 8.00544C1.86078 8.00261 1.86072 8.00106 1.86072 8H-0.139282ZM1.86072 8V2H-0.139282V8H1.86072ZM4.86072 -1C3.63457 -1 2.47505 -0.753629 1.58508 -0.308641C0.754915 0.10644 -0.139282 0.864887 -0.139282 2H1.86072C1.86072 1.99894 1.86078 1.99739 1.86136 1.99456C1.86196 1.99161 1.86349 1.98543 1.86748 1.9757C1.87556 1.95595 1.89489 1.91894 1.93853 1.86735C2.02974 1.75953 2.20091 1.61951 2.4795 1.48021C3.03724 1.20134 3.87773 1 4.86072 1V-1ZM9.86072 2C9.86072 0.864887 8.96652 0.10644 8.13636 -0.308641C7.24638 -0.753629 6.08687 -1 4.86072 -1V1C5.8437 1 6.68419 1.20134 7.24193 1.48021C7.52052 1.61951 7.6917 1.75953 7.78291 1.86735C7.82655 1.91894 7.84588 1.95595 7.85396 1.9757C7.85794 1.98543 7.85948 1.99161 7.86008 1.99456C7.86065 1.99739 7.86072 1.99894 7.86072 2H9.86072Z" fill="url(#paint1_linear_77_3749)" fill-opacity="0.5" mask="url(#path-1-inside-1_77_3749)"/>
<g filter="url(#filter0_d_77_3749)">
<ellipse cx="4.86072" cy="2" rx="3" ry="1" fill="white"/>
</g>
<mask id="path-4-inside-2_77_3749" fill="white">
<path fill-rule="evenodd" clip-rule="evenodd" d="M7.86072 2V8C7.86072 8.55228 6.51757 9 4.86072 9C3.20386 9 1.86072 8.55228 1.86072 8V2C1.86072 1.44772 3.20386 1 4.86072 1C6.51757 1 7.86072 1.44772 7.86072 2Z"/>
</mask>
<path d="M6.86072 2V8H8.86072V2H6.86072ZM4.86072 10C5.76672 10 6.62845 9.87906 7.29827 9.65579C7.62795 9.5459 7.96688 9.393 8.24394 9.17466C8.50972 8.9652 8.86072 8.5758 8.86072 8H6.86072C6.86072 7.70034 7.04382 7.57402 7.00599 7.60383C6.97943 7.62477 6.87902 7.68735 6.66581 7.75842C6.24984 7.89708 5.61157 8 4.86072 8V10ZM0.860718 8C0.860718 8.5758 1.21172 8.9652 1.4775 9.17466C1.75455 9.393 2.09349 9.5459 2.42317 9.65579C3.09299 9.87906 3.95472 10 4.86072 10V8C4.10986 8 3.4716 7.89708 3.05563 7.75842C2.84241 7.68735 2.74201 7.62477 2.71545 7.60383C2.67761 7.57402 2.86072 7.70034 2.86072 8H0.860718ZM2.86072 8V2H0.860718V8H2.86072ZM4.86072 0C3.95472 0 3.09299 0.120938 2.42317 0.34421C2.09349 0.454104 1.75455 0.606999 1.4775 0.825343C1.21172 1.0348 0.860718 1.4242 0.860718 2H2.86072C2.86072 2.29966 2.67761 2.42598 2.71545 2.39617C2.74201 2.37523 2.84241 2.31265 3.05563 2.24158C3.4716 2.10292 4.10986 2 4.86072 2V0ZM8.86072 2C8.86072 1.4242 8.50972 1.0348 8.24394 0.825343C7.96688 0.606999 7.62795 0.454104 7.29827 0.34421C6.62845 0.120938 5.76672 0 4.86072 0V2C5.61157 2 6.24984 2.10292 6.66581 2.24158C6.87902 2.31265 6.97943 2.37523 7.00599 2.39617C7.04382 2.42598 6.86072 2.29966 6.86072 2H8.86072Z" fill="url(#paint2_linear_77_3749)" mask="url(#path-4-inside-2_77_3749)"/>
<defs>
<filter id="filter0_d_77_3749" x="1.86072" y="1" width="6" height="3" filterUnits="userSpaceOnUse" color-interpolation-filters="sRGB">
<feFlood flood-opacity="0" result="BackgroundImageFix"/>
<feColorMatrix in="SourceAlpha" type="matrix" values="0 0 0 0 0 0 0 0 0 0 0 0 0 0 0 0 0 0 127 0" result="hardAlpha"/>
<feOffset dy="1"/>
<feComposite in2="hardAlpha" operator="out"/>
<feColorMatrix type="matrix" values="0 0 0 0 0 0 0 0 0 0 0 0 0 0 0 0 0 0 0.1 0"/>
<feBlend mode="normal" in2="BackgroundImageFix" result="effect1_dropShadow_77_3749"/>
<feBlend mode="normal" in="SourceGraphic" in2="effect1_dropShadow_77_3749" result="shape"/>
</filter>
<linearGradient id="paint0_linear_77_3749" x1="0.860718" y1="4.61538" x2="8.86072" y2="4.61538" gradientUnits="userSpaceOnUse">
<stop stop-color="#EEEEEE"/>
<stop offset="1" stop-color="#C2C2C2"/>
</linearGradient>
<linearGradient id="paint1_linear_77_3749" x1="8.86072" y1="10.7143" x2="1.29316" y2="-0.297192" gradientUnits="userSpaceOnUse">
<stop offset="0.0914634" stop-color="#727272"/>
<stop offset="0.917175" stop-color="#B8B8B8"/>
</linearGradient>
<linearGradient id="paint2_linear_77_3749" x1="7.86072" y1="9" x2="1.66864" y2="1.15154" gradientUnits="userSpaceOnUse">
<stop stop-color="#E7E7E7"/>
<stop offset="0.883197" stop-color="white"/>
</linearGradient>
</defs>
</svg>
