<svg width="6" height="8" viewBox="0 0 6 8" fill="none" xmlns="http://www.w3.org/2000/svg">
<mask id="path-1-inside-1_135_3253" fill="white">
<path fill-rule="evenodd" clip-rule="evenodd" d="M3 8C5 8 6 6.5 6 5C6 4.35572 5.54451 3.64314 4.95959 2.85681C4.96062 2.91078 4.96062 2.95879 4.96062 3C4.96062 3.5 4.34771 4 3.73477 4C3.12184 4 2.64509 3.6513 2.50888 3C2.37675 2.36818 2.501 1.55058 3.06812 0.132827C3.04494 0.0887242 3.02222 0.0444485 3 0C2.8453 0.180484 2.66667 0.376923 2.47521 0.587465C1.42906 1.73789 0 3.3094 0 5C0 6.5 1 8 3 8Z"/>
</mask>
<path fill-rule="evenodd" clip-rule="evenodd" d="M3 8C5 8 6 6.5 6 5C6 4.35572 5.54451 3.64314 4.95959 2.85681C4.96062 2.91078 4.96062 2.95879 4.96062 3C4.96062 3.5 4.34771 4 3.73477 4C3.12184 4 2.64509 3.6513 2.50888 3C2.37675 2.36818 2.501 1.55058 3.06812 0.132827C3.04494 0.0887242 3.02222 0.0444485 3 0C2.8453 0.180484 2.66667 0.376923 2.47521 0.587465C1.42906 1.73789 0 3.3094 0 5C0 6.5 1 8 3 8Z" fill="url(#paint0_linear_135_3253)"/>
<path d="M4.95959 2.85681L5.76195 2.25997L3.90025 -0.242782L3.95977 2.8759L4.95959 2.85681ZM2.50888 3L1.53006 3.2047L1.53006 3.2047L2.50888 3ZM3.06812 0.132827L3.99659 0.504228L4.16792 0.075933L3.95331 -0.332397L3.06812 0.132827ZM3 0L3.89443 -0.447212L3.22089 -1.79429L2.24074 -0.650791L3 0ZM2.47521 0.587465L3.21505 1.26025V1.26025L2.47521 0.587465ZM5 5C5 5.53693 4.8199 6.04117 4.50259 6.39814C4.20164 6.7367 3.72864 7 3 7V9C4.27136 9 5.29836 8.5133 5.99741 7.72686C6.6801 6.95883 7 5.96307 7 5H5ZM4.15723 3.45366C4.4436 3.83864 4.66448 4.16155 4.81331 4.44569C4.96443 4.73418 5 4.90678 5 5H7C7 4.44894 6.80783 3.94311 6.58497 3.51766C6.35983 3.08786 6.0605 2.66132 5.76195 2.25997L4.15723 3.45366ZM3.95977 2.8759C3.9606 2.91917 3.96062 2.95841 3.96062 3H5.96062C5.96062 2.95916 5.96064 2.90238 5.95941 2.83773L3.95977 2.8759ZM3.96062 3C3.96062 2.91899 3.98512 2.87439 3.98727 2.87064C3.98925 2.86717 3.97888 2.88534 3.94543 2.91263C3.91305 2.93904 3.87218 2.9631 3.82911 2.97949C3.78612 2.99586 3.75328 3 3.73477 3V5C4.30124 5 4.82574 4.77556 5.20966 4.46237C5.57804 4.16186 5.96062 3.65398 5.96062 3H3.96062ZM3.73477 3C3.61988 3 3.57529 2.96933 3.56398 2.96037C3.55601 2.95405 3.51385 2.92032 3.48771 2.7953L1.53006 3.2047C1.64012 3.73098 1.90444 4.19724 2.32213 4.52811C2.73648 4.85632 3.23673 5 3.73477 5V3ZM3.48771 2.7953C3.41892 2.46639 3.44501 1.88315 3.99659 0.504228L2.13965 -0.238573C1.557 1.21801 1.33458 2.26997 1.53006 3.2047L3.48771 2.7953ZM2.10557 0.447212C2.13091 0.497891 2.15671 0.548172 2.18293 0.598052L3.95331 -0.332397C3.93317 -0.370723 3.91354 -0.408993 3.89443 -0.447212L2.10557 0.447212ZM3.21505 1.26025C3.40389 1.05259 3.59312 0.844612 3.75926 0.650791L2.24074 -0.650791C2.09747 -0.483644 1.92945 -0.29874 1.73537 -0.0853149L3.21505 1.26025ZM1 5C1 4.43239 1.24331 3.81121 1.68281 3.1376C2.12003 2.46747 2.68379 1.84446 3.21505 1.26025L1.73537 -0.085315C1.22048 0.480894 0.546641 1.21885 0.00779352 2.04474C-0.52878 2.86714 -1 3.87701 -1 5H1ZM3 7C2.27136 7 1.79836 6.7367 1.49741 6.39814C1.1801 6.04117 1 5.53693 1 5H-1C-1 5.96307 -0.680103 6.95883 0.00259068 7.72686C0.701644 8.5133 1.72864 9 3 9V7Z" fill="url(#paint1_linear_135_3253)" mask="url(#path-1-inside-1_135_3253)"/>
<defs>
<linearGradient id="paint0_linear_135_3253" x1="3" y1="0" x2="3" y2="8" gradientUnits="userSpaceOnUse">
<stop offset="0.378063" stop-color="#FFE828"/>
<stop offset="0.867036" stop-color="#F8AF18"/>
</linearGradient>
<linearGradient id="paint1_linear_135_3253" x1="0" y1="0" x2="6" y2="8" gradientUnits="userSpaceOnUse">
<stop offset="0.255538" stop-color="#F9A400"/>
<stop offset="0.777803" stop-color="#FA2700"/>
</linearGradient>
</defs>
</svg>
