<svg width="9" height="10" viewBox="0 0 9 10" fill="none" xmlns="http://www.w3.org/2000/svg">
<mask id="path-1-inside-1_270_5521" fill="white">
<path d="M2 0.558167H4V2.55817H2V0.558167Z"/>
</mask>
<path d="M2 0.558167H4V2.55817H2V0.558167Z" fill="#838F9C"/>
<path d="M4 0.558167H5V-0.441833H4V0.558167ZM2 1.55817H4V-0.441833H2V1.55817ZM3 0.558167V2.55817H5V0.558167H3Z" fill="#516476" mask="url(#path-1-inside-1_270_5521)"/>
<mask id="path-3-inside-2_270_5521" fill="white">
<path d="M5 0.558167H7V2.55817H5V0.558167Z"/>
</mask>
<path d="M5 0.558167H7V2.55817H5V0.558167Z" fill="#838F9C"/>
<path d="M5 0.558167V-0.441833H4V0.558167H5ZM5 1.55817H7V-0.441833H5V1.55817ZM6 2.55817V0.558167H4V2.55817H6Z" fill="#404D5A" mask="url(#path-3-inside-2_270_5521)"/>
<mask id="path-5-outside-3_270_5521" maskUnits="userSpaceOnUse" x="0" y="1.55817" width="9" height="8" fill="black">
<rect fill="white" y="1.55817" width="9" height="8"/>
<path fill-rule="evenodd" clip-rule="evenodd" d="M6.5 2.55817H6V4.55817H7V3.05817C7 2.78202 6.77614 2.55817 6.5 2.55817ZM3 5.55817V8.55817H1V5.55817H3ZM6 8.55817V5.55817H8V8.55817H6ZM2 3.05817C2 2.78202 2.22386 2.55817 2.5 2.55817H3V4.55817H2V3.05817ZM5 3.55817H4V4.55817H5V3.55817Z"/>
</mask>
<path fill-rule="evenodd" clip-rule="evenodd" d="M6.5 2.55817H6V4.55817H7V3.05817C7 2.78202 6.77614 2.55817 6.5 2.55817ZM3 5.55817V8.55817H1V5.55817H3ZM6 8.55817V5.55817H8V8.55817H6ZM2 3.05817C2 2.78202 2.22386 2.55817 2.5 2.55817H3V4.55817H2V3.05817ZM5 3.55817H4V4.55817H5V3.55817Z" fill="url(#paint0_linear_270_5521)"/>
<path d="M6 2.55817V1.55817H5V2.55817H6ZM6 4.55817H5V5.55817H6V4.55817ZM7 4.55817V5.55817H8V4.55817H7ZM3 8.55817V9.55817H4V8.55817H3ZM3 5.55817H4V4.55817H3V5.55817ZM1 8.55817H0V9.55817H1V8.55817ZM1 5.55817V4.55817H0V5.55817H1ZM6 5.55817V4.55817H5V5.55817H6ZM6 8.55817H5V9.55817H6V8.55817ZM8 5.55817H9V4.55817H8V5.55817ZM8 8.55817V9.55817H9V8.55817H8ZM3 2.55817H4V1.55817H3V2.55817ZM3 4.55817V5.55817H4V4.55817H3ZM2 4.55817H1V5.55817H2V4.55817ZM4 3.55817V2.55817H3V3.55817H4ZM5 3.55817H6V2.55817H5V3.55817ZM4 4.55817H3V5.55817H4V4.55817ZM5 4.55817V5.55817H6V4.55817H5ZM6 3.55817H6.5V1.55817H6V3.55817ZM7 4.55817V2.55817H5V4.55817H7ZM7 3.55817H6V5.55817H7V3.55817ZM6 3.05817V4.55817H8V3.05817H6ZM6.5 3.55817C6.22386 3.55817 6 3.33431 6 3.05817H8C8 2.22974 7.32843 1.55817 6.5 1.55817V3.55817ZM4 8.55817V5.55817H2V8.55817H4ZM1 9.55817H3V7.55817H1V9.55817ZM0 5.55817V8.55817H2V5.55817H0ZM3 4.55817H1V6.55817H3V4.55817ZM5 5.55817V8.55817H7V5.55817H5ZM8 4.55817H6V6.55817H8V4.55817ZM9 8.55817V5.55817H7V8.55817H9ZM6 9.55817H8V7.55817H6V9.55817ZM2.5 1.55817C1.67157 1.55817 1 2.22974 1 3.05817H3C3 3.33431 2.77614 3.55817 2.5 3.55817V1.55817ZM3 1.55817H2.5V3.55817H3V1.55817ZM4 4.55817V2.55817H2V4.55817H4ZM2 5.55817H3V3.55817H2V5.55817ZM1 3.05817V4.55817H3V3.05817H1ZM4 4.55817H5V2.55817H4V4.55817ZM5 4.55817V3.55817H3V4.55817H5ZM5 3.55817H4V5.55817H5V3.55817ZM4 3.55817V4.55817H6V3.55817H4Z" fill="url(#paint1_linear_270_5521)" mask="url(#path-5-outside-3_270_5521)"/>
<mask id="path-7-inside-4_270_5521" fill="white">
<path d="M1 5.55817H3V8.55817H1V5.55817Z"/>
</mask>
<path d="M1 5.55817V4.55817H0V5.55817H1ZM1 6.55817H3V4.55817H1V6.55817ZM2 8.55817V5.55817H0V8.55817H2Z" fill="url(#paint2_linear_270_5521)" mask="url(#path-7-inside-4_270_5521)"/>
<mask id="path-9-inside-5_270_5521" fill="white">
<path d="M6 5.55817H8V8.55817H6V5.55817Z"/>
</mask>
<path d="M6 5.55817V4.55817H5V5.55817H6ZM6 6.55817H8V4.55817H6V6.55817ZM7 8.55817V5.55817H5V8.55817H7Z" fill="url(#paint3_linear_270_5521)" mask="url(#path-9-inside-5_270_5521)"/>
<path d="M2 1.55817H3V4.55817H2V1.55817Z" fill="#90A0B0" fill-opacity="0.5"/>
<path d="M6 1.55817H7V4.55817H6V1.55817Z" fill="#90A0B0" fill-opacity="0.5"/>
<defs>
<linearGradient id="paint0_linear_270_5521" x1="4.5" y1="1.55817" x2="4.5" y2="8.55817" gradientUnits="userSpaceOnUse">
<stop stop-color="#8194A9"/>
<stop offset="1" stop-color="#4E5F70"/>
</linearGradient>
<linearGradient id="paint1_linear_270_5521" x1="8" y1="8.55817" x2="1" y2="1.55817" gradientUnits="userSpaceOnUse">
<stop stop-color="#18191B"/>
<stop offset="1" stop-color="#637B92"/>
</linearGradient>
<linearGradient id="paint2_linear_270_5521" x1="1" y1="5.55817" x2="3" y2="8.55817" gradientUnits="userSpaceOnUse">
<stop stop-color="#AFB9C4"/>
<stop offset="1" stop-color="#AFB9C4" stop-opacity="0"/>
</linearGradient>
<linearGradient id="paint3_linear_270_5521" x1="6" y1="5.55817" x2="8" y2="8.55817" gradientUnits="userSpaceOnUse">
<stop stop-color="#AFB9C4"/>
<stop offset="1" stop-color="#AFB9C4" stop-opacity="0"/>
</linearGradient>
</defs>
</svg>
