<svg width="12" height="12" viewBox="0 0 12 12" fill="none" xmlns="http://www.w3.org/2000/svg">
<path d="M3.20495 8.14365L3.20591 8.14435L3.22053 8.15499L3.2351 8.16558L3.2496 8.17613L3.26405 8.18663L3.27844 8.1971L3.29278 8.20753L3.30706 8.21791L3.32128 8.22826L3.33545 8.23856L3.34956 8.24882L3.36361 8.25904L3.37761 8.26922L3.39155 8.27936L3.40544 8.28946L3.41927 8.29952L3.43304 8.30954L3.44676 8.31951L3.46042 8.32945L3.47403 8.33935L3.48759 8.34921L3.50109 8.35902L3.51453 8.3688L3.52792 8.37854L3.54125 8.38824L3.55453 8.3979L3.56776 8.40751L3.58093 8.41709L3.59405 8.42663L3.60711 8.43613L3.62012 8.44559L3.63308 8.45502L3.64598 8.4644L3.65883 8.47374L3.67162 8.48305L3.68436 8.49231L3.69705 8.50154L3.70968 8.51073L3.72226 8.51988L3.73479 8.52899L3.74727 8.53806L3.75969 8.5471L3.77206 8.5561L3.78438 8.56505L3.79664 8.57397L3.80886 8.58286L3.82102 8.5917L3.83312 8.60051L3.84518 8.60927L3.85719 8.61801L3.86914 8.6267L3.88104 8.63535L3.89289 8.64397L3.90469 8.65255L3.91644 8.6611L3.92813 8.6696L3.93978 8.67807L3.95137 8.6865L3.96291 8.6949L3.97441 8.70326L3.98585 8.71158L3.99724 8.71986L4.00858 8.72811L4.01987 8.73632L4.03111 8.74449L4.0423 8.75263L4.05344 8.76074L4.06453 8.7688L4.07557 8.77683L4.08656 8.78482L4.0975 8.79278L4.1084 8.8007L4.11924 8.80859L4.13003 8.81644L4.14078 8.82425L4.15147 8.83203L4.16212 8.83978L4.17272 8.84748L4.18327 8.85515L4.19377 8.86279L4.20422 8.87039L4.21462 8.87796L4.22498 8.88549L4.23529 8.89299L4.24555 8.90045L4.25576 8.90788L4.26593 8.91527L4.27604 8.92263L4.28611 8.92995L4.29613 8.93724L4.30611 8.94449L4.31604 8.95171L4.32592 8.9589L4.33575 8.96605L4.34554 8.97317L4.35528 8.98025L4.36497 8.9873L4.37462 8.99432L4.38422 9.0013L4.39377 9.00825L4.40328 9.01517L4.41274 9.02205L4.42216 9.0289L4.43153 9.03571L4.44086 9.04249L4.45013 9.04924L4.45937 9.05596L4.46856 9.06264L4.4777 9.06929L4.4868 9.0759L4.49585 9.08249L4.50486 9.08904L4.51382 9.09556L4.52274 9.10204L4.53161 9.1085L4.54044 9.11492L4.54923 9.12131L4.55797 9.12767L4.56666 9.13399L4.57532 9.14028L4.58393 9.14654L4.59249 9.15277L4.60101 9.15897L4.60949 9.16513L4.61792 9.17127L4.62631 9.17737L4.63466 9.18344L4.64297 9.18948L4.65123 9.19549L4.65945 9.20147L4.66762 9.20741L4.67575 9.21333L4.68384 9.21921L4.69189 9.22506L4.6999 9.23089L4.70786 9.23668L4.71578 9.24244L4.72366 9.24817L4.7315 9.25387L4.73929 9.25954L4.74705 9.26518L4.75476 9.27078L4.76243 9.27636L4.77006 9.28191L4.77765 9.28743L4.78519 9.29292L4.7927 9.29838L4.80016 9.30381L4.80759 9.30921L4.81497 9.31458L4.82231 9.31992L4.82962 9.32523L4.83688 9.33051L4.8441 9.33576L4.85128 9.34098L4.85842 9.34618L4.86553 9.35134L4.87259 9.35648L4.87961 9.36159L4.88659 9.36666L4.89354 9.37171L4.90044 9.37674L4.90731 9.38173L4.91413 9.38669L4.92092 9.39163L4.92767 9.39654L4.93437 9.40141L4.94104 9.40627L4.94768 9.41109L4.95427 9.41588L4.96082 9.42065L4.96734 9.42539L4.97382 9.4301L4.98026 9.43479L4.98666 9.43944L4.99303 9.44407L4.99936 9.44867L5.00565 9.45325L5.0119 9.4578L5.01811 9.46232L5.02429 9.46681L5.03043 9.47127L5.03654 9.47571L5.0426 9.48013L5.04863 9.48451L5.05463 9.48887L5.06058 9.4932L5.0665 9.49751L5.07239 9.50179L5.07824 9.50604L5.08405 9.51027L5.08982 9.51447L5.09556 9.51864L5.10127 9.52279L5.10694 9.52691L5.11257 9.53101L5.11817 9.53508L5.12373 9.53913L5.12926 9.54315L5.13475 9.54714L5.1402 9.55111L5.14563 9.55505L5.15101 9.55897L5.15637 9.56286L5.16168 9.56673L5.16697 9.57057L5.17222 9.57439L5.17743 9.57818L5.18261 9.58195L5.18776 9.5857L5.19287 9.58941L5.19795 9.59311L5.203 9.59678L5.20801 9.60042L5.21299 9.60404L5.21794 9.60764L5.22285 9.61121L5.22773 9.61476L5.23258 9.61829L5.23739 9.62179L5.24217 9.62527L5.24692 9.62872L5.25163 9.63215L5.25632 9.63556L5.26097 9.63894L5.26559 9.6423L5.27017 9.64563L5.27473 9.64894L5.27925 9.65223L5.28374 9.6555L5.2882 9.65874L5.29263 9.66196L5.29703 9.66516L5.30139 9.66834L5.30573 9.67149L5.31003 9.67462L5.3143 9.67772L5.31854 9.68081L5.32275 9.68387L5.32693 9.68691L5.33108 9.68993L5.3352 9.69293L5.33929 9.6959L5.34335 9.69885L5.34738 9.70178L5.35138 9.70469L5.35534 9.70757L5.35928 9.71044L5.36319 9.71328L5.36707 9.7161L5.37092 9.7189L5.37474 9.72168L5.37854 9.72444L5.3823 9.72718L5.38603 9.72989L5.38974 9.73259L5.39341 9.73526L5.39706 9.73792L5.40068 9.74055L5.40427 9.74316L5.40784 9.74575L5.41137 9.74832L5.41488 9.75087L5.41835 9.7534L5.4218 9.75591L5.42523 9.7584L5.42862 9.76087L5.43199 9.76332L5.43533 9.76575L5.43864 9.76816L5.44193 9.77055L5.44519 9.77292L5.44842 9.77527L5.45163 9.7776L5.45481 9.77991L5.45796 9.7822L5.46108 9.78448L5.46418 9.78673L5.46726 9.78896L5.4703 9.79118L5.47332 9.79338L5.47632 9.79556L5.47929 9.79771L5.48223 9.79985L5.48515 9.80198L5.48804 9.80408L5.49091 9.80616L5.49375 9.80823L5.49656 9.81028L5.49935 9.81231L5.50212 9.81432L5.50486 9.81632L5.50758 9.81829L5.51027 9.82025L5.51294 9.82219L5.51558 9.82411L5.5182 9.82602L5.5208 9.8279L5.52337 9.82977L5.52592 9.83163L5.52844 9.83346L5.53094 9.83528L5.53341 9.83708L5.53587 9.83886L5.5383 9.84063L5.5407 9.84238L5.54309 9.84411L5.54544 9.84583L5.54778 9.84753L5.5501 9.84921L5.55239 9.85088L5.55466 9.85253L5.5569 9.85416L5.55913 9.85578L5.56133 9.85738L5.56351 9.85897L5.56567 9.86054L5.5678 9.86209L5.56992 9.86363L5.57201 9.86515L5.57408 9.86665L5.57613 9.86814L5.57816 9.86962L5.58016 9.87108L5.58215 9.87252L5.58411 9.87395L5.58606 9.87536L5.58798 9.87676L5.58988 9.87815L5.59176 9.87951L5.59362 9.88087L5.59546 9.88221L5.59728 9.88353L5.59909 9.88484L5.60087 9.88614L5.60263 9.88742L5.60437 9.88868L5.60609 9.88993L5.60779 9.89117L5.60947 9.8924L5.61113 9.8936L5.61278 9.8948L5.6144 9.89598L5.61601 9.89715L5.61759 9.8983L5.61916 9.89944L5.62071 9.90057L5.62224 9.90168L5.62375 9.90278L5.62525 9.90387L5.62672 9.90494L5.62818 9.906L5.62962 9.90705L5.63104 9.90808L5.63245 9.9091L5.63383 9.91011L5.6352 9.91111L5.63655 9.91209L5.63789 9.91306L5.6392 9.91402L5.6405 9.91496L5.64178 9.91589L5.64305 9.91681L5.6443 9.91772L5.64553 9.91862L5.64675 9.9195L5.64795 9.92038L5.64913 9.92124L5.6503 9.92208L5.65145 9.92292L5.65258 9.92375L5.6537 9.92456L5.6548 9.92536L5.65589 9.92615L5.65696 9.92693L5.65802 9.9277L5.65906 9.92846L5.66009 9.9292L5.6611 9.92994L5.66209 9.93067L5.66307 9.93138L5.66404 9.93208L5.66499 9.93277L5.66593 9.93345L5.66685 9.93413L5.66776 9.93479L5.66865 9.93544L5.66953 9.93608L5.6704 9.93671L5.67125 9.93733L5.67209 9.93794L5.67292 9.93854L5.67373 9.93913L5.67453 9.93971L5.67531 9.94028L5.67608 9.94084L5.67684 9.94139L5.67759 9.94193L5.67832 9.94246L5.67904 9.94299L5.67975 9.9435L5.68044 9.94401L5.68112 9.9445L5.68179 9.94499L5.68245 9.94547L5.6831 9.94594L5.68373 9.9464L5.68435 9.94685L5.68496 9.9473L5.68556 9.94773L5.68615 9.94816L5.68672 9.94858L5.68729 9.94899L5.68784 9.94939L5.68838 9.94978L5.68891 9.95017L5.68943 9.95055L5.68994 9.95092L5.69044 9.95128L5.69093 9.95164L5.69141 9.95199L5.69188 9.95233L5.69234 9.95266L5.69278 9.95298L5.69322 9.9533L5.69365 9.95361L5.69407 9.95392L5.69448 9.95422L5.69487 9.95451L5.69526 9.95479L5.69564 9.95507L5.69602 9.95534L5.69638 9.9556L5.69673 9.95586L5.69707 9.95611L5.69741 9.95635L5.69774 9.95659L5.69806 9.95682L5.69837 9.95705L5.69867 9.95726L5.69896 9.95748L5.69925 9.95769L5.69953 9.95789L5.6998 9.95808L5.70006 9.95827L5.70031 9.95846L5.70056 9.95864L5.7008 9.95881L5.70103 9.95898L5.70126 9.95915L5.70148 9.95931L5.70169 9.95946L5.70189 9.95961L5.70209 9.95975L5.70228 9.95989L5.70246 9.96003L5.70264 9.96016L5.70282 9.96028L5.70298 9.9604L5.70314 9.96052L5.7033 9.96063L5.70344 9.96074L5.70359 9.96084L5.70372 9.96094L5.70385 9.96104L5.70398 9.96113L5.7041 9.96122L5.70422 9.9613L5.70433 9.96138L5.70443 9.96146L5.70453 9.96153L5.70463 9.9616L5.70472 9.96167L5.70481 9.96173L5.70489 9.96179L5.70497 9.96185L5.70505 9.9619L5.70512 9.96195L5.70518 9.962L5.70525 9.96205L5.7053 9.96209L5.70536 9.96213L5.70541 9.96217L5.70546 9.9622L5.70551 9.96224L5.70555 9.96227L5.70559 9.9623L5.70562 9.96232L5.70566 9.96235L5.70569 9.96237L5.70572 9.96239L5.70574 9.96241L5.70577 9.96243L5.70579 9.96244L5.70581 9.96246L5.70582 9.96247L5.70584 9.96248L5.70585 9.96249L5.70586 9.9625L5.70587 9.9625L5.70588 9.96251L5.70589 9.96252L5.7059 9.96252L5.7059 9.96253L5.70591 9.96253L6 9.55817L5.70591 9.96253L6 10.1764L6.29409 9.96253L6.29409 9.96253L6.2941 9.96252L6.29411 9.96252L6.29412 9.96251L6.29413 9.9625L6.29414 9.9625L6.29415 9.96249L6.29416 9.96248L6.29418 9.96247L6.29419 9.96246L6.29421 9.96244L6.29423 9.96243L6.29426 9.96241L6.29428 9.96239L6.29431 9.96237L6.29434 9.96235L6.29438 9.96232L6.29441 9.9623L6.29445 9.96227L6.29449 9.96224L6.29454 9.9622L6.29459 9.96217L6.29464 9.96213L6.2947 9.96209L6.29475 9.96205L6.29482 9.962L6.29488 9.96195L6.29495 9.9619L6.29503 9.96185L6.29511 9.96179L6.29519 9.96173L6.29528 9.96167L6.29537 9.9616L6.29547 9.96153L6.29557 9.96146L6.29567 9.96138L6.29578 9.9613L6.2959 9.96122L6.29602 9.96113L6.29615 9.96104L6.29628 9.96094L6.29641 9.96084L6.29656 9.96074L6.2967 9.96063L6.29686 9.96052L6.29702 9.9604L6.29718 9.96028L6.29736 9.96016L6.29754 9.96003L6.29772 9.95989L6.29791 9.95975L6.29811 9.95961L6.29831 9.95946L6.29852 9.95931L6.29874 9.95915L6.29897 9.95898L6.2992 9.95881L6.29944 9.95864L6.29969 9.95846L6.29994 9.95827L6.3002 9.95808L6.30047 9.95789L6.30075 9.95769L6.30104 9.95748L6.30133 9.95726L6.30163 9.95705L6.30194 9.95682L6.30226 9.95659L6.30259 9.95635L6.30293 9.95611L6.30327 9.95586L6.30362 9.9556L6.30398 9.95534L6.30436 9.95507L6.30474 9.95479L6.30513 9.95451L6.30552 9.95422L6.30593 9.95392L6.30635 9.95361L6.30678 9.9533L6.30722 9.95298L6.30766 9.95266L6.30812 9.95233L6.30859 9.95199L6.30907 9.95164L6.30956 9.95128L6.31006 9.95092L6.31057 9.95055L6.31109 9.95017L6.31162 9.94978L6.31216 9.94939L6.31271 9.94899L6.31328 9.94858L6.31385 9.94816L6.31444 9.94773L6.31504 9.9473L6.31565 9.94685L6.31627 9.9464L6.3169 9.94594L6.31755 9.94547L6.31821 9.94499L6.31888 9.9445L6.31956 9.94401L6.32025 9.9435L6.32096 9.94299L6.32168 9.94246L6.32241 9.94193L6.32316 9.94139L6.32392 9.94084L6.32469 9.94028L6.32547 9.93971L6.32627 9.93913L6.32708 9.93854L6.32791 9.93794L6.32875 9.93733L6.3296 9.93671L6.33047 9.93608L6.33135 9.93544L6.33224 9.93479L6.33315 9.93413L6.33407 9.93345L6.33501 9.93277L6.33596 9.93208L6.33693 9.93138L6.33791 9.93067L6.3389 9.92994L6.33991 9.9292L6.34094 9.92846L6.34198 9.9277L6.34304 9.92693L6.34411 9.92615L6.3452 9.92536L6.3463 9.92456L6.34742 9.92375L6.34855 9.92292L6.3497 9.92208L6.35087 9.92124L6.35205 9.92038L6.35325 9.9195L6.35447 9.91862L6.3557 9.91772L6.35695 9.91681L6.35822 9.91589L6.3595 9.91496L6.3608 9.91402L6.36211 9.91306L6.36345 9.91209L6.3648 9.91111L6.36617 9.91011L6.36755 9.9091L6.36896 9.90808L6.37038 9.90705L6.37182 9.906L6.37328 9.90494L6.37475 9.90387L6.37625 9.90278L6.37776 9.90168L6.37929 9.90057L6.38084 9.89944L6.38241 9.8983L6.38399 9.89715L6.3856 9.89598L6.38722 9.8948L6.38887 9.8936L6.39053 9.8924L6.39221 9.89117L6.39391 9.88993L6.39563 9.88868L6.39737 9.88742L6.39913 9.88614L6.40091 9.88484L6.40272 9.88353L6.40454 9.88221L6.40638 9.88087L6.40824 9.87951L6.41012 9.87815L6.41202 9.87676L6.41394 9.87536L6.41589 9.87395L6.41785 9.87252L6.41984 9.87108L6.42184 9.86962L6.42387 9.86814L6.42592 9.86665L6.42799 9.86515L6.43008 9.86363L6.4322 9.86209L6.43433 9.86054L6.43649 9.85897L6.43867 9.85738L6.44087 9.85578L6.4431 9.85416L6.44534 9.85253L6.44761 9.85088L6.4499 9.84921L6.45222 9.84753L6.45456 9.84583L6.45691 9.84411L6.4593 9.84238L6.4617 9.84063L6.46413 9.83886L6.46659 9.83708L6.46906 9.83528L6.47156 9.83346L6.47408 9.83163L6.47663 9.82977L6.4792 9.8279L6.4818 9.82602L6.48442 9.82411L6.48706 9.82219L6.48973 9.82025L6.49242 9.81829L6.49514 9.81632L6.49788 9.81432L6.50065 9.81231L6.50344 9.81028L6.50625 9.80823L6.50909 9.80616L6.51196 9.80408L6.51485 9.80198L6.51777 9.79985L6.52071 9.79771L6.52368 9.79556L6.52668 9.79338L6.5297 9.79118L6.53274 9.78896L6.53582 9.78673L6.53892 9.78448L6.54204 9.7822L6.54519 9.77991L6.54837 9.7776L6.55158 9.77527L6.55481 9.77292L6.55807 9.77055L6.56136 9.76816L6.56467 9.76575L6.56801 9.76332L6.57138 9.76087L6.57477 9.7584L6.5782 9.75591L6.58165 9.7534L6.58512 9.75087L6.58863 9.74832L6.59216 9.74575L6.59573 9.74316L6.59932 9.74055L6.60294 9.73792L6.60659 9.73526L6.61026 9.73259L6.61397 9.72989L6.6177 9.72718L6.62146 9.72444L6.62526 9.72168L6.62908 9.7189L6.63293 9.7161L6.63681 9.71328L6.64072 9.71044L6.64466 9.70757L6.64862 9.70469L6.65262 9.70178L6.65665 9.69885L6.66071 9.6959L6.6648 9.69293L6.66892 9.68993L6.67307 9.68691L6.67725 9.68387L6.68146 9.68081L6.6857 9.67772L6.68997 9.67462L6.69427 9.67149L6.69861 9.66834L6.70297 9.66516L6.70737 9.66196L6.7118 9.65874L6.71626 9.6555L6.72075 9.65223L6.72527 9.64894L6.72983 9.64563L6.73441 9.6423L6.73903 9.63894L6.74368 9.63556L6.74837 9.63215L6.75308 9.62872L6.75783 9.62527L6.76261 9.62179L6.76742 9.61829L6.77227 9.61476L6.77715 9.61121L6.78206 9.60764L6.78701 9.60404L6.79199 9.60042L6.797 9.59678L6.80205 9.59311L6.80713 9.58941L6.81224 9.5857L6.81739 9.58195L6.82257 9.57818L6.82778 9.57439L6.83303 9.57057L6.83832 9.56673L6.84363 9.56286L6.84899 9.55897L6.85437 9.55505L6.8598 9.55111L6.86525 9.54714L6.87074 9.54315L6.87627 9.53913L6.88183 9.53508L6.88743 9.53101L6.89306 9.52691L6.89873 9.52279L6.90444 9.51864L6.91018 9.51447L6.91595 9.51027L6.92176 9.50604L6.92761 9.50179L6.9335 9.49751L6.93942 9.4932L6.94537 9.48887L6.95137 9.48451L6.9574 9.48013L6.96346 9.47571L6.96957 9.47127L6.97571 9.46681L6.98189 9.46232L6.9881 9.4578L6.99435 9.45325L7.00064 9.44867L7.00697 9.44407L7.01334 9.43944L7.01974 9.43479L7.02618 9.4301L7.03266 9.42539L7.03918 9.42065L7.04573 9.41588L7.05232 9.41109L7.05896 9.40627L7.06563 9.40141L7.07233 9.39654L7.07908 9.39163L7.08587 9.38669L7.09269 9.38173L7.09956 9.37674L7.10646 9.37171L7.11341 9.36666L7.12039 9.36159L7.12741 9.35648L7.13447 9.35134L7.14158 9.34618L7.14872 9.34098L7.1559 9.33576L7.16312 9.33051L7.17038 9.32523L7.17769 9.31992L7.18503 9.31458L7.19241 9.30921L7.19984 9.30381L7.2073 9.29838L7.21481 9.29292L7.22235 9.28743L7.22994 9.28191L7.23757 9.27636L7.24524 9.27078L7.25295 9.26518L7.26071 9.25954L7.2685 9.25387L7.27634 9.24817L7.28422 9.24244L7.29214 9.23668L7.3001 9.23089L7.30811 9.22506L7.31616 9.21921L7.32425 9.21333L7.33238 9.20741L7.34056 9.20147L7.34877 9.19549L7.35703 9.18948L7.36534 9.18344L7.37369 9.17737L7.38208 9.17127L7.39051 9.16513L7.39899 9.15897L7.40751 9.15277L7.41607 9.14654L7.42468 9.14028L7.43334 9.13399L7.44203 9.12767L7.45077 9.12131L7.45956 9.11492L7.46839 9.1085L7.47726 9.10204L7.48618 9.09556L7.49514 9.08904L7.50415 9.08249L7.5132 9.0759L7.5223 9.06929L7.53144 9.06264L7.54063 9.05596L7.54987 9.04924L7.55914 9.04249L7.56847 9.03571L7.57784 9.0289L7.58726 9.02205L7.59672 9.01517L7.60623 9.00825L7.61578 9.0013L7.62538 8.99432L7.63503 8.9873L7.64472 8.98025L7.65446 8.97317L7.66425 8.96605L7.67408 8.9589L7.68396 8.95171L7.69389 8.94449L7.70387 8.93724L7.71389 8.92995L7.72396 8.92263L7.73407 8.91527L7.74424 8.90788L7.75445 8.90045L7.76471 8.89299L7.77502 8.88549L7.78538 8.87796L7.79578 8.87039L7.80623 8.86279L7.81673 8.85515L7.82728 8.84748L7.83788 8.83978L7.84853 8.83203L7.85922 8.82425L7.86997 8.81644L7.88076 8.80859L7.8916 8.8007L7.9025 8.79278L7.91344 8.78482L7.92443 8.77683L7.93547 8.7688L7.94656 8.76074L7.9577 8.75263L7.96889 8.74449L7.98013 8.73632L7.99142 8.72811L8.00276 8.71986L8.01415 8.71158L8.02559 8.70326L8.03709 8.6949L8.04863 8.6865L8.06022 8.67807L8.07187 8.6696L8.08356 8.6611L8.09531 8.65255L8.10711 8.64397L8.11896 8.63535L8.13086 8.6267L8.14281 8.61801L8.15482 8.60927L8.16688 8.60051L8.17898 8.5917L8.19114 8.58286L8.20336 8.57397L8.21562 8.56505L8.22794 8.5561L8.24031 8.5471L8.25273 8.53806L8.26521 8.52899L8.27774 8.51988L8.29032 8.51073L8.30295 8.50154L8.31564 8.49231L8.32838 8.48305L8.34117 8.47374L8.35402 8.4644L8.36692 8.45502L8.37988 8.44559L8.39289 8.43613L8.40595 8.42663L8.41907 8.41709L8.43224 8.40751L8.44547 8.3979L8.45875 8.38824L8.47208 8.37854L8.48547 8.3688L8.49891 8.35902L8.51241 8.34921L8.52597 8.33935L8.53958 8.32945L8.55324 8.31951L8.56696 8.30954L8.58073 8.29952L8.59456 8.28946L8.60845 8.27936L8.62239 8.26922L8.63639 8.25904L8.65044 8.24882L8.66455 8.23856L8.67872 8.22826L8.69294 8.21791L8.70722 8.20753L8.72156 8.1971L8.73595 8.18663L8.7504 8.17613L8.7649 8.16558L8.77947 8.15499L8.79409 8.14436L8.79546 8.14335C8.8081 8.13409 8.82099 8.12466 8.83415 8.11503C9.66371 7.50801 11.5 6.16433 11.5 3.73998C11.5 2.26739 10.3252 1.05817 8.85714 1.05817C8.07109 1.05817 7.36654 1.40683 6.88439 1.95533C6.76473 2.09146 6.57569 2.30909 6.38075 2.53419C6.18001 2.76599 5.82 2.76599 5.61926 2.53419C5.42455 2.30935 5.23563 2.09186 5.11561 1.95533C4.63346 1.40683 3.92891 1.05817 3.14286 1.05817C1.67479 1.05817 0.5 2.26739 0.5 3.73998C0.5 6.1687 2.45524 7.59626 3.17352 8.12069C3.18428 8.12855 3.19476 8.1362 3.20495 8.14365Z" fill="#D9D9D9" stroke="url(#paint0_linear_280_5981)"/>
<path d="M1 3.73998C1 4.94497 1.95939 5.9218 3.14286 5.9218C4.32632 5.9218 5.28571 4.94497 5.28571 3.73998C5.28571 3.18118 5.07939 2.67144 4.74008 2.28544C4.3477 1.83908 3.7775 1.55817 3.14286 1.55817C1.95939 1.55817 1 2.535 1 3.73998Z" fill="url(#paint1_linear_280_5981)"/>
<path d="M8.85714 5.9218C10.0406 5.9218 11 4.94497 11 3.73998C11 2.535 10.0406 1.55817 8.85714 1.55817C8.2225 1.55817 7.6523 1.83908 7.25992 2.28544C6.92061 2.67144 6.71429 3.18118 6.71429 3.73998C6.71429 4.94497 7.67368 5.9218 8.85714 5.9218Z" fill="url(#paint2_linear_280_5981)"/>
<path d="M11 3.73998C11 4.94497 10.0406 5.9218 8.85714 5.9218C7.67368 5.9218 6.71429 4.94497 6.71429 3.73998C6.71429 3.18118 6.92061 2.67144 7.25992 2.28544C7.14163 2.42001 6.95371 2.63635 6.75872 2.86151C6.3586 3.32355 5.64141 3.32355 5.24129 2.86151C5.04653 2.63662 4.85872 2.42041 4.74008 2.28544C5.07939 2.67144 5.28571 3.18118 5.28571 3.73998C5.28571 4.94497 4.32632 5.9218 3.14286 5.9218C1.95939 5.9218 1 4.94497 1 3.73998C1 5.9218 2.78571 7.2179 3.5 7.73998C6 9.55817 6 9.55817 6 9.55817C6 9.55817 6 9.55817 8.5 7.73998C9.32923 7.13257 11 5.9218 11 3.73998Z" fill="url(#paint3_linear_280_5981)"/>
<path d="M3.78616 7.32982L3.78615 7.32982C3.04412 6.78749 1.5 5.63035 1.5 3.73998C1.5 2.80261 2.24399 2.05817 3.14286 2.05817C3.62609 2.05817 4.06195 2.27132 4.36454 2.61555C4.48182 2.74897 4.66851 2.96388 4.86332 3.18883C5.46283 3.88111 6.53718 3.88112 7.13669 3.18883C7.33173 2.96362 7.51854 2.74856 7.63546 2.61555C7.93805 2.27132 8.37391 2.05817 8.85714 2.05817C9.75601 2.05817 10.5 2.80261 10.5 3.73998C10.5 5.62925 9.07063 6.70229 8.21928 7.32582L8.21928 7.32583L8.20591 7.33562L8.20455 7.33661L6 8.93992L3.79504 7.33632L3.79409 7.33562L3.78616 7.32982Z" stroke="url(#paint4_linear_280_5981)"/>
<defs>
<linearGradient id="paint0_linear_280_5981" x1="1" y1="1.55817" x2="11.1522" y2="10.1047" gradientUnits="userSpaceOnUse">
<stop stop-color="#FCB2B0"/>
<stop offset="0.836863" stop-color="#D24343"/>
</linearGradient>
<linearGradient id="paint1_linear_280_5981" x1="1" y1="1.55817" x2="10.2156" y2="10.3778" gradientUnits="userSpaceOnUse">
<stop stop-color="#FFB5B4"/>
<stop offset="0.778805" stop-color="#FF6E6D"/>
</linearGradient>
<linearGradient id="paint2_linear_280_5981" x1="1" y1="1.55817" x2="10.2156" y2="10.3778" gradientUnits="userSpaceOnUse">
<stop stop-color="#FFB5B4"/>
<stop offset="0.778805" stop-color="#FF6E6D"/>
</linearGradient>
<linearGradient id="paint3_linear_280_5981" x1="1" y1="1.55817" x2="10.2156" y2="10.3778" gradientUnits="userSpaceOnUse">
<stop stop-color="#FFB5B4"/>
<stop offset="0.778805" stop-color="#FF6E6D"/>
</linearGradient>
<linearGradient id="paint4_linear_280_5981" x1="1" y1="1.55817" x2="10.4103" y2="10.2003" gradientUnits="userSpaceOnUse">
<stop stop-color="#FED9D6"/>
<stop offset="0.836863" stop-color="#FEBEB9"/>
</linearGradient>
</defs>
</svg>
