<svg width="10" height="10" viewBox="0 0 10 10" fill="none" xmlns="http://www.w3.org/2000/svg">
<mask id="path-1-outside-1_6_157" maskUnits="userSpaceOnUse" x="0" y="0" width="10" height="10" fill="black">
<rect fill="white" width="10" height="10"/>
<path fill-rule="evenodd" clip-rule="evenodd" d="M1 9V7.5L4 5V2.5L5.5 1H7L9 3V4.5L7.5 6H5V7H4V8H3V9H1ZM7 2L8 3L7 4L6 3L7 2Z"/>
</mask>
<g filter="url(#filter0_i_6_157)">
<path fill-rule="evenodd" clip-rule="evenodd" d="M1 9V7.5L4 5V2.5L5.5 1H7L9 3V4.5L7.5 6H5V7H4V8H3V9H1ZM7 2L8 3L7 4L6 3L7 2Z" fill="#F4D847"/>
</g>
<path d="M1 7.5L0.359816 6.73178L0 7.03163V7.5H1ZM1 9H0V10H1V9ZM4 5L4.64018 5.76822L5 5.46837V5H4ZM4 2.5L3.29289 1.79289L3 2.08579V2.5H4ZM5.5 1V0H5.08579L4.79289 0.292893L5.5 1ZM7 1L7.70711 0.292893L7.41421 0H7V1ZM9 3H10V2.58579L9.70711 2.29289L9 3ZM9 4.5L9.70711 5.20711L10 4.91421V4.5H9ZM7.5 6V7H7.91421L8.20711 6.70711L7.5 6ZM5 6V5H4V6H5ZM5 7V8H6V7H5ZM4 7V6H3V7H4ZM4 8V9H5V8H4ZM3 8V7H2V8H3ZM3 9V10H4V9H3ZM8 3L8.70711 3.70711L9.41421 3L8.70711 2.29289L8 3ZM7 2L7.70711 1.29289L7 0.585786L6.29289 1.29289L7 2ZM7 4L6.29289 4.70711L7 5.41421L7.70711 4.70711L7 4ZM6 3L5.29289 2.29289L4.58579 3L5.29289 3.70711L6 3ZM0 7.5V9H2V7.5H0ZM3.35982 4.23178L0.359816 6.73178L1.64018 8.26822L4.64018 5.76822L3.35982 4.23178ZM3 2.5V5H5V2.5H3ZM4.79289 0.292893L3.29289 1.79289L4.70711 3.20711L6.20711 1.70711L4.79289 0.292893ZM7 0H5.5V2H7V0ZM9.70711 2.29289L7.70711 0.292893L6.29289 1.70711L8.29289 3.70711L9.70711 2.29289ZM10 4.5V3H8V4.5H10ZM8.20711 6.70711L9.70711 5.20711L8.29289 3.79289L6.79289 5.29289L8.20711 6.70711ZM5 7H7.5V5H5V7ZM6 7V6H4V7H6ZM4 8H5V6H4V8ZM5 8V7H3V8H5ZM3 9H4V7H3V9ZM4 9V8H2V9H4ZM1 10H3V8H1V10ZM8.70711 2.29289L7.70711 1.29289L6.29289 2.70711L7.29289 3.70711L8.70711 2.29289ZM7.70711 4.70711L8.70711 3.70711L7.29289 2.29289L6.29289 3.29289L7.70711 4.70711ZM5.29289 3.70711L6.29289 4.70711L7.70711 3.29289L6.70711 2.29289L5.29289 3.70711ZM6.29289 1.29289L5.29289 2.29289L6.70711 3.70711L7.70711 2.70711L6.29289 1.29289Z" fill="url(#paint0_linear_6_157)" mask="url(#path-1-outside-1_6_157)"/>
<defs>
<filter id="filter0_i_6_157" x="0" y="0" width="10" height="10" filterUnits="userSpaceOnUse" color-interpolation-filters="sRGB">
<feFlood flood-opacity="0" result="BackgroundImageFix"/>
<feBlend mode="normal" in="SourceGraphic" in2="BackgroundImageFix" result="shape"/>
<feColorMatrix in="SourceAlpha" type="matrix" values="0 0 0 0 0 0 0 0 0 0 0 0 0 0 0 0 0 0 127 0" result="hardAlpha"/>
<feOffset dx="2" dy="1"/>
<feComposite in2="hardAlpha" operator="arithmetic" k2="-1" k3="1"/>
<feColorMatrix type="matrix" values="0 0 0 0 1 0 0 0 0 1 0 0 0 0 1 0 0 0 0.5 0"/>
<feBlend mode="normal" in2="shape" result="effect1_innerShadow_6_157"/>
</filter>
<linearGradient id="paint0_linear_6_157" x1="2.5" y1="2.5" x2="6.7612" y2="8.06565" gradientUnits="userSpaceOnUse">
<stop stop-color="#EAC15E"/>
<stop offset="1" stop-color="#C98032"/>
</linearGradient>
</defs>
</svg>
