<svg width="8" height="10" viewBox="0 0 8 10" fill="none" xmlns="http://www.w3.org/2000/svg">
<mask id="path-1-inside-1_241_4847" fill="white">
<path fill-rule="evenodd" clip-rule="evenodd" d="M7 3.55817V4.55817H6.99998V3.55817H5.5C5.5 2.72974 4.82843 2.05817 4 2.05817C3.17157 2.05817 2.5 2.72974 2.5 3.55817H1C1 1.90131 2.34315 0.558167 4 0.558167C5.65685 0.558167 7 1.90131 7 3.55817Z"/>
</mask>
<path fill-rule="evenodd" clip-rule="evenodd" d="M7 3.55817V4.55817H6.99998V3.55817H5.5C5.5 2.72974 4.82843 2.05817 4 2.05817C3.17157 2.05817 2.5 2.72974 2.5 3.55817H1C1 1.90131 2.34315 0.558167 4 0.558167C5.65685 0.558167 7 1.90131 7 3.55817Z" fill="url(#paint0_linear_241_4847)"/>
<path d="M7 4.55817V5.55817H8V4.55817H7ZM6.99998 4.55817H5.99998V5.55817H6.99998V4.55817ZM6.99998 3.55817H7.99998V2.55817H6.99998V3.55817ZM5.5 3.55817H4.5V4.55817H5.5V3.55817ZM2.5 3.55817V4.55817H3.5V3.55817H2.5ZM1 3.55817H0V4.55817H1V3.55817ZM8 4.55817V3.55817H6V4.55817H8ZM6.99998 5.55817H7V3.55817H6.99998V5.55817ZM5.99998 3.55817V4.55817H7.99998V3.55817H5.99998ZM5.5 4.55817H6.99998V2.55817H5.5V4.55817ZM4 3.05817C4.27614 3.05817 4.5 3.28202 4.5 3.55817H6.5C6.5 2.17745 5.38071 1.05817 4 1.05817V3.05817ZM3.5 3.55817C3.5 3.28202 3.72386 3.05817 4 3.05817V1.05817C2.61929 1.05817 1.5 2.17745 1.5 3.55817H3.5ZM1 4.55817H2.5V2.55817H1V4.55817ZM4 -0.441833C1.79086 -0.441833 0 1.34903 0 3.55817H2C2 2.4536 2.89543 1.55817 4 1.55817V-0.441833ZM8 3.55817C8 1.34903 6.20914 -0.441833 4 -0.441833V1.55817C5.10457 1.55817 6 2.4536 6 3.55817H8Z" fill="url(#paint1_linear_241_4847)" fill-opacity="0.5" mask="url(#path-1-inside-1_241_4847)"/>
<rect x="0.5" y="4.05817" width="7" height="5" fill="url(#paint2_linear_241_4847)" stroke="url(#paint3_linear_241_4847)"/>
<g filter="url(#filter0_i_241_4847)">
<rect x="3" y="5.55817" width="2" height="2" fill="#AB824D"/>
</g>
<defs>
<filter id="filter0_i_241_4847" x="3" y="5.55817" width="2" height="2" filterUnits="userSpaceOnUse" color-interpolation-filters="sRGB">
<feFlood flood-opacity="0" result="BackgroundImageFix"/>
<feBlend mode="normal" in="SourceGraphic" in2="BackgroundImageFix" result="shape"/>
<feColorMatrix in="SourceAlpha" type="matrix" values="0 0 0 0 0 0 0 0 0 0 0 0 0 0 0 0 0 0 127 0" result="hardAlpha"/>
<feOffset dx="1" dy="1"/>
<feComposite in2="hardAlpha" operator="arithmetic" k2="-1" k3="1"/>
<feColorMatrix type="matrix" values="0 0 0 0 0.866667 0 0 0 0 0.592157 0 0 0 0 0.188235 0 0 0 1 0"/>
<feBlend mode="normal" in2="shape" result="effect1_innerShadow_241_4847"/>
</filter>
<linearGradient id="paint0_linear_241_4847" x1="2.71429" y1="2.15371" x2="6.11252" y2="5.12717" gradientUnits="userSpaceOnUse">
<stop stop-color="#D9D9D9"/>
<stop offset="1" stop-color="#737373"/>
</linearGradient>
<linearGradient id="paint1_linear_241_4847" x1="7" y1="7.05167" x2="0.20354" y2="1.10477" gradientUnits="userSpaceOnUse">
<stop stop-color="#404040"/>
<stop offset="1" stop-color="#8D8D8D"/>
</linearGradient>
<linearGradient id="paint2_linear_241_4847" x1="1" y1="7.05817" x2="6.92391" y2="7.72954" gradientUnits="userSpaceOnUse">
<stop stop-color="#F8E48E"/>
<stop offset="0.477181" stop-color="#FFF297"/>
<stop offset="1" stop-color="#EEBA3C"/>
</linearGradient>
<linearGradient id="paint3_linear_241_4847" x1="1" y1="4.55817" x2="7" y2="8.55817" gradientUnits="userSpaceOnUse">
<stop stop-color="#E0C259"/>
<stop offset="1" stop-color="#CE6E01"/>
</linearGradient>
</defs>
</svg>
