<svg width="11" height="12" viewBox="0 0 11 12" fill="none" xmlns="http://www.w3.org/2000/svg">
<mask id="path-1-outside-1_329_14186" maskUnits="userSpaceOnUse" x="0" y="0.558167" width="12" height="11" fill="black">
<rect fill="white" y="0.558167" width="12" height="11"/>
<path fill-rule="evenodd" clip-rule="evenodd" d="M10.0023 5.36617C10.0801 6.8199 9.1395 7.96342 8.35487 8.82788C7.57024 9.69234 5.2346 11.0617 4.57561 10.3694C4.25217 10.0296 4.2126 9.64842 4.17302 9.26718C4.13231 8.87506 4.0916 8.48286 3.74197 8.13554C3.40015 7.79598 2.92483 7.66826 2.4496 7.54056C1.98375 7.41539 1.51799 7.29023 1.17815 6.96559C0.488634 6.3069 1.96886 4.15349 2.75349 3.28903C3.53812 2.42457 4.66255 1.55817 6.04842 1.55817C6.70741 1.55817 7.56058 1.58927 8.46017 2.48134C9.37191 3.38546 9.9417 4.23212 10.0023 5.36617ZM5 7.55817C5.55228 7.55817 6 7.11045 6 6.55817C6 6.00588 5.55228 5.55817 5 5.55817C4.44772 5.55817 4 6.00588 4 6.55817C4 7.11045 4.44772 7.55817 5 7.55817Z"/>
</mask>
<path fill-rule="evenodd" clip-rule="evenodd" d="M10.0023 5.36617C10.0801 6.8199 9.1395 7.96342 8.35487 8.82788C7.57024 9.69234 5.2346 11.0617 4.57561 10.3694C4.25217 10.0296 4.2126 9.64842 4.17302 9.26718C4.13231 8.87506 4.0916 8.48286 3.74197 8.13554C3.40015 7.79598 2.92483 7.66826 2.4496 7.54056C1.98375 7.41539 1.51799 7.29023 1.17815 6.96559C0.488634 6.3069 1.96886 4.15349 2.75349 3.28903C3.53812 2.42457 4.66255 1.55817 6.04842 1.55817C6.70741 1.55817 7.56058 1.58927 8.46017 2.48134C9.37191 3.38546 9.9417 4.23212 10.0023 5.36617ZM5 7.55817C5.55228 7.55817 6 7.11045 6 6.55817C6 6.00588 5.55228 5.55817 5 5.55817C4.44772 5.55817 4 6.00588 4 6.55817C4 7.11045 4.44772 7.55817 5 7.55817Z" fill="url(#paint0_linear_329_14186)"/>
<path d="M8.35487 8.82788L9.09534 9.49997L8.35487 8.82788ZM10.0023 5.36617L11.0009 5.31278V5.31278L10.0023 5.36617ZM4.57561 10.3694L5.29995 9.67995L5.29995 9.67995L4.57561 10.3694ZM4.17302 9.26718L5.16768 9.16392L4.17302 9.26718ZM3.74197 8.13554L3.0372 8.84498L3.74197 8.13554ZM2.4496 7.54056L2.7091 6.57482L2.70909 6.57482L2.4496 7.54056ZM1.17815 6.96559L1.86891 6.2425L1.86891 6.2425L1.17815 6.96559ZM2.75349 3.28903L3.49396 3.96112L3.49396 3.96112L2.75349 3.28903ZM8.46017 2.48134L9.16431 1.77128L9.1643 1.77128L8.46017 2.48134ZM9.09534 9.49997C9.86132 8.65606 11.1033 7.22747 11.0009 5.31278L9.00377 5.41957C9.05685 6.41233 8.41769 7.27078 7.6144 8.15579L9.09534 9.49997ZM3.85128 11.0588C4.35357 11.5866 5.04181 11.5917 5.46999 11.5329C5.93684 11.4687 6.41993 11.2891 6.84794 11.0854C7.69655 10.6814 8.59369 10.0527 9.09534 9.49997L7.6144 8.15579C7.33143 8.46756 6.66843 8.95576 5.98831 9.27952C5.65195 9.43964 5.37853 9.52662 5.19759 9.5515C4.97798 9.58169 5.12715 9.49841 5.29995 9.67995L3.85128 11.0588ZM3.17837 9.37045C3.21581 9.73115 3.2664 10.4444 3.85128 11.0588L5.29995 9.67995C5.26269 9.64081 5.2434 9.60589 5.2262 9.54817C5.202 9.46697 5.18904 9.36973 5.16768 9.16392L3.17837 9.37045ZM3.0372 8.84498C3.08126 8.88874 3.10099 8.92512 3.11807 8.9803C3.14306 9.06101 3.15635 9.15842 3.17837 9.37045L5.16768 9.16392C5.12874 8.78888 5.07607 8.05129 4.44673 7.4261L3.0372 8.84498ZM2.1901 8.5063C2.72045 8.64881 2.9168 8.72537 3.0372 8.84498L4.44673 7.4261C3.8835 6.86658 3.12921 6.6877 2.7091 6.57482L2.1901 8.5063ZM0.487393 7.68868C1.04422 8.2206 1.77748 8.39543 2.1901 8.5063L2.70909 6.57482C2.19003 6.43534 1.99176 6.35986 1.86891 6.2425L0.487393 7.68868ZM2.01302 2.61694C1.57331 3.10139 0.954787 3.92461 0.527295 4.74025C0.316274 5.14288 0.11808 5.60644 0.0381287 6.06192C-0.0370954 6.49046 -0.0474178 7.17777 0.487393 7.68868L1.86891 6.2425C2.05896 6.42406 1.9751 6.59519 2.00801 6.4077C2.03619 6.24714 2.12781 5.99481 2.29874 5.66869C2.63514 5.02684 3.14904 4.34113 3.49396 3.96112L2.01302 2.61694ZM6.04842 0.558167C4.23555 0.558167 2.8608 1.6829 2.01302 2.61694L3.49396 3.96112C4.21544 3.16623 5.08954 2.55817 6.04842 2.55817V0.558167ZM9.1643 1.77128C8.59809 1.20979 8.01491 0.892074 7.44461 0.725385C6.89025 0.563354 6.38985 0.558167 6.04842 0.558167V2.55817C6.36598 2.55817 6.62166 2.56853 6.88352 2.64507C7.12946 2.71695 7.42266 2.86082 7.75604 3.19141L9.1643 1.77128ZM11.0009 5.31278C10.9208 3.81378 10.146 2.74479 9.16431 1.77128L7.75604 3.19141C8.5978 4.02614 8.96264 4.65045 9.00377 5.41957L11.0009 5.31278ZM5 6.55817V8.55817C6.10457 8.55817 7 7.66274 7 6.55817H5ZM5 6.55817H7C7 5.4536 6.10457 4.55817 5 4.55817V6.55817ZM5 6.55817H5V4.55817C3.89543 4.55817 3 5.4536 3 6.55817H5ZM5 6.55817H5H3C3 7.66274 3.89543 8.55817 5 8.55817V6.55817Z" fill="url(#paint1_linear_329_14186)" mask="url(#path-1-outside-1_329_14186)"/>
<mask id="path-3-inside-2_329_14186" fill="white">
<path fill-rule="evenodd" clip-rule="evenodd" d="M10.0023 5.36617C10.0801 6.8199 9.1395 7.96342 8.35487 8.82788C7.57024 9.69234 5.2346 11.0617 4.57561 10.3694C4.25217 10.0296 4.2126 9.64842 4.17302 9.26718C4.13231 8.87506 4.0916 8.48286 3.74197 8.13554C3.40015 7.79598 2.92483 7.66826 2.4496 7.54056C1.98375 7.41539 1.51799 7.29023 1.17815 6.96559C0.488634 6.3069 1.96886 4.15349 2.75349 3.28903C3.53812 2.42457 4.66255 1.55817 6.04842 1.55817C6.70741 1.55817 7.56058 1.58927 8.46017 2.48134C9.37191 3.38546 9.9417 4.23212 10.0023 5.36617ZM5 7.55817C5.55228 7.55817 6 7.11045 6 6.55817C6 6.00588 5.55228 5.55817 5 5.55817C4.44772 5.55817 4 6.00588 4 6.55817C4 7.11045 4.44772 7.55817 5 7.55817Z"/>
</mask>
<path d="M8.35487 8.82788L9.09534 9.49997L8.35487 8.82788ZM10.0023 5.36617L11.0009 5.31278V5.31278L10.0023 5.36617ZM4.57561 10.3694L5.29995 9.67995L5.29995 9.67995L4.57561 10.3694ZM4.17302 9.26718L5.16768 9.16392L4.17302 9.26718ZM3.74197 8.13554L3.0372 8.84498L3.74197 8.13554ZM2.4496 7.54056L2.7091 6.57482L2.70909 6.57482L2.4496 7.54056ZM1.17815 6.96559L1.86891 6.2425L1.86891 6.2425L1.17815 6.96559ZM2.75349 3.28903L3.49396 3.96112L3.49396 3.96112L2.75349 3.28903ZM8.46017 2.48134L9.16431 1.77128L9.1643 1.77128L8.46017 2.48134ZM9.09534 9.49997C9.86132 8.65606 11.1033 7.22747 11.0009 5.31278L9.00377 5.41957C9.05685 6.41233 8.41769 7.27078 7.6144 8.15579L9.09534 9.49997ZM3.85128 11.0588C4.35357 11.5866 5.04181 11.5917 5.46999 11.5329C5.93684 11.4687 6.41993 11.2891 6.84794 11.0854C7.69655 10.6814 8.59369 10.0527 9.09534 9.49997L7.6144 8.15579C7.33143 8.46756 6.66843 8.95576 5.98831 9.27952C5.65195 9.43964 5.37853 9.52662 5.19759 9.5515C4.97798 9.58169 5.12715 9.49841 5.29995 9.67995L3.85128 11.0588ZM3.17837 9.37045C3.21581 9.73115 3.2664 10.4444 3.85128 11.0588L5.29995 9.67995C5.26269 9.64081 5.2434 9.60589 5.2262 9.54817C5.202 9.46697 5.18904 9.36973 5.16768 9.16392L3.17837 9.37045ZM3.0372 8.84498C3.08126 8.88874 3.10099 8.92512 3.11807 8.9803C3.14306 9.06101 3.15635 9.15842 3.17837 9.37045L5.16768 9.16392C5.12874 8.78888 5.07607 8.05129 4.44673 7.4261L3.0372 8.84498ZM2.1901 8.5063C2.72045 8.64881 2.9168 8.72537 3.0372 8.84498L4.44673 7.4261C3.8835 6.86658 3.12921 6.6877 2.7091 6.57482L2.1901 8.5063ZM0.487393 7.68868C1.04422 8.2206 1.77748 8.39543 2.1901 8.5063L2.70909 6.57482C2.19003 6.43534 1.99176 6.35986 1.86891 6.2425L0.487393 7.68868ZM2.01302 2.61694C1.57331 3.10139 0.954787 3.92461 0.527295 4.74025C0.316274 5.14288 0.11808 5.60644 0.0381287 6.06192C-0.0370954 6.49046 -0.0474178 7.17777 0.487393 7.68868L1.86891 6.2425C2.05896 6.42406 1.9751 6.59519 2.00801 6.4077C2.03619 6.24714 2.12781 5.99481 2.29874 5.66869C2.63514 5.02684 3.14904 4.34113 3.49396 3.96112L2.01302 2.61694ZM6.04842 0.558167C4.23555 0.558167 2.8608 1.6829 2.01302 2.61694L3.49396 3.96112C4.21544 3.16623 5.08954 2.55817 6.04842 2.55817V0.558167ZM9.1643 1.77128C8.59809 1.20979 8.01491 0.892074 7.44461 0.725385C6.89025 0.563354 6.38985 0.558167 6.04842 0.558167V2.55817C6.36598 2.55817 6.62166 2.56853 6.88352 2.64507C7.12946 2.71695 7.42266 2.86082 7.75604 3.19141L9.1643 1.77128ZM11.0009 5.31278C10.9208 3.81378 10.146 2.74479 9.16431 1.77128L7.75604 3.19141C8.5978 4.02614 8.96264 4.65045 9.00377 5.41957L11.0009 5.31278ZM5 6.55817V8.55817C6.10457 8.55817 7 7.66274 7 6.55817H5ZM5 6.55817H7C7 5.4536 6.10457 4.55817 5 4.55817V6.55817ZM5 6.55817H5V4.55817C3.89543 4.55817 3 5.4536 3 6.55817H5ZM5 6.55817H5H3C3 7.66274 3.89543 8.55817 5 8.55817V6.55817Z" fill="white" fill-opacity="0.33" mask="url(#path-3-inside-2_329_14186)"/>
<circle cx="2" cy="5.55817" r="0.5" fill="#F58582" stroke="url(#paint2_linear_329_14186)"/>
<circle cx="4" cy="4.55817" r="0.5" fill="#FFC06D" stroke="url(#paint3_linear_329_14186)"/>
<circle cx="6" cy="3.55817" r="0.5" fill="#FFE26D" stroke="url(#paint4_linear_329_14186)"/>
<circle cx="8" cy="4.55817" r="0.5" fill="#98C861" stroke="#7BB83C"/>
<circle cx="8" cy="6.55817" r="0.5" fill="#5BB6C5" stroke="#2798AD"/>
<defs>
<linearGradient id="paint0_linear_329_14186" x1="5.50343" y1="1.55817" x2="5.50343" y2="10.5583" gradientUnits="userSpaceOnUse">
<stop stop-color="#E8B180"/>
<stop offset="1" stop-color="#DF9259"/>
</linearGradient>
<linearGradient id="paint1_linear_329_14186" x1="5.50343" y1="1.55817" x2="5.50343" y2="10.5583" gradientUnits="userSpaceOnUse">
<stop stop-color="#D0905C" stop-opacity="0.823529"/>
<stop offset="1" stop-color="#9F641D"/>
</linearGradient>
<linearGradient id="paint2_linear_329_14186" x1="3" y1="5.55817" x2="1" y2="5.55817" gradientUnits="userSpaceOnUse">
<stop stop-color="#F04141"/>
<stop offset="1" stop-color="#F6756F"/>
</linearGradient>
<linearGradient id="paint3_linear_329_14186" x1="5" y1="4.55817" x2="3" y2="4.55817" gradientUnits="userSpaceOnUse">
<stop stop-color="#FEA733"/>
<stop offset="1" stop-color="#FFA42C"/>
</linearGradient>
<linearGradient id="paint4_linear_329_14186" x1="6" y1="2.55817" x2="6" y2="4.55817" gradientUnits="userSpaceOnUse">
<stop stop-color="#FFD52B"/>
<stop offset="1" stop-color="#FBCE3B"/>
</linearGradient>
</defs>
</svg>
