<svg width="12" height="12" viewBox="0 0 12 12" fill="none" xmlns="http://www.w3.org/2000/svg">
<path d="M0.540427 10.803C0.45989 10.991 0.501877 11.209 0.646447 11.3536C0.791016 11.4981 1.00904 11.5401 1.19696 11.4596L4.69696 9.95957C4.84946 9.89422 4.9596 9.75747 4.99098 9.59455C5.02235 9.43164 4.97087 9.26376 4.85355 9.14645L2.85355 7.14645C2.73624 7.02913 2.56836 6.97765 2.40545 7.00902C2.24253 7.0404 2.10578 7.15054 2.04043 7.30304L0.540427 10.803Z" fill="url(#paint0_linear_3_1311)"/>
<path d="M0.540427 10.803C0.45989 10.991 0.501877 11.209 0.646447 11.3536C0.791016 11.4981 1.00904 11.5401 1.19696 11.4596L4.69696 9.95957C4.84946 9.89422 4.9596 9.75747 4.99098 9.59455C5.02235 9.43164 4.97087 9.26376 4.85355 9.14645L2.85355 7.14645C2.73624 7.02913 2.56836 6.97765 2.40545 7.00902C2.24253 7.0404 2.10578 7.15054 2.04043 7.30304L0.540427 10.803Z" fill="url(#paint1_linear_3_1311)"/>
<path d="M0.540427 10.803C0.45989 10.991 0.501877 11.209 0.646447 11.3536C0.791016 11.4981 1.00904 11.5401 1.19696 11.4596L4.69696 9.95957C4.84946 9.89422 4.9596 9.75747 4.99098 9.59455C5.02235 9.43164 4.97087 9.26376 4.85355 9.14645L2.85355 7.14645C2.73624 7.02913 2.56836 6.97765 2.40545 7.00902C2.24253 7.0404 2.10578 7.15054 2.04043 7.30304L0.540427 10.803Z" stroke="url(#paint2_linear_3_1311)" stroke-linejoin="round"/>
<path d="M0.540427 10.803C0.45989 10.991 0.501877 11.209 0.646447 11.3536C0.791016 11.4981 1.00904 11.5401 1.19696 11.4596L4.69696 9.95957C4.84946 9.89422 4.9596 9.75747 4.99098 9.59455C5.02235 9.43164 4.97087 9.26376 4.85355 9.14645L2.85355 7.14645C2.73624 7.02913 2.56836 6.97765 2.40545 7.00902C2.24253 7.0404 2.10578 7.15054 2.04043 7.30304L0.540427 10.803Z" stroke="url(#paint3_linear_3_1311)" stroke-linejoin="round"/>
<path d="M2.14645 7.14645C1.95118 7.34171 1.95118 7.65829 2.14645 7.85355L4.14645 9.85355C4.34171 10.0488 4.65829 10.0488 4.85355 9.85355L10.8536 3.85355C11.0488 3.65829 11.0488 3.34171 10.8536 3.14645L8.85355 1.14645C8.65829 0.951184 8.34171 0.951184 8.14645 1.14645L2.14645 7.14645Z" fill="url(#paint4_linear_3_1311)" stroke="url(#paint5_linear_3_1311)" stroke-linejoin="round"/>
<path fill-rule="evenodd" clip-rule="evenodd" d="M2.5 7.5L3.20711 8.20711L9.20711 2.20711L8.5 1.5L2.5 7.5Z" fill="#FCF4B3"/>
<path d="M10.1464 3.85356L10.5 4.20712L10.8536 3.85356C11.0768 3.63032 11.3397 3.23926 11.4185 2.75535C11.5023 2.24043 11.3688 1.66169 10.8536 1.14646C10.3383 0.631226 9.75958 0.497682 9.24466 0.581506C8.76075 0.660283 8.36969 0.923213 8.14645 1.14646L7.79289 1.50001L8.14645 1.85356L10.1464 3.85356Z" fill="url(#paint6_linear_3_1311)" stroke="url(#paint7_linear_3_1311)"/>
<defs>
<linearGradient id="paint0_linear_3_1311" x1="2.16667" y1="7.88889" x2="4.11111" y2="9.83333" gradientUnits="userSpaceOnUse">
<stop stop-color="#FAE7D1"/>
<stop offset="1" stop-color="#E89840"/>
</linearGradient>
<linearGradient id="paint1_linear_3_1311" x1="2.94444" y1="8.66667" x2="-0.166666" y2="11.7778" gradientUnits="userSpaceOnUse">
<stop stop-color="#584013" stop-opacity="0"/>
<stop offset="0.499937" stop-color="#584013" stop-opacity="0"/>
<stop offset="0.661921" stop-color="#584013"/>
</linearGradient>
<linearGradient id="paint2_linear_3_1311" x1="2.16667" y1="8.66667" x2="3.33333" y2="9.83333" gradientUnits="userSpaceOnUse">
<stop stop-color="#B98926"/>
<stop offset="1" stop-color="#AA6016"/>
</linearGradient>
<linearGradient id="paint3_linear_3_1311" x1="3.72222" y1="7.88889" x2="-0.166668" y2="11.7778" gradientUnits="userSpaceOnUse">
<stop offset="0.5" stop-color="#B98926" stop-opacity="0"/>
<stop offset="0.656842" stop-color="#584013"/>
</linearGradient>
<linearGradient id="paint4_linear_3_1311" x1="2.5" y1="7.65789" x2="4.34211" y2="9.5" gradientUnits="userSpaceOnUse">
<stop stop-color="#F5DC60"/>
<stop offset="1" stop-color="#EFCB1A"/>
</linearGradient>
<linearGradient id="paint5_linear_3_1311" x1="2.5" y1="7.65789" x2="4.3421" y2="9.5" gradientUnits="userSpaceOnUse">
<stop stop-color="#E9C755"/>
<stop offset="1" stop-color="#D98F3B"/>
</linearGradient>
<linearGradient id="paint6_linear_3_1311" x1="8.47662" y1="2.30195" x2="10.8903" y2="2.69267" gradientUnits="userSpaceOnUse">
<stop stop-color="#FDD7D1"/>
<stop offset="1" stop-color="#FBACA1"/>
</linearGradient>
<linearGradient id="paint7_linear_3_1311" x1="8.50001" y1="2.31509" x2="10.8693" y2="2.72938" gradientUnits="userSpaceOnUse">
<stop stop-color="#E1B3AD"/>
<stop offset="1" stop-color="#B17971"/>
</linearGradient>
</defs>
</svg>
