<svg width="11" height="12" viewBox="0 0 11 12" fill="none" xmlns="http://www.w3.org/2000/svg">
<mask id="path-1-outside-1_259_5010" maskUnits="userSpaceOnUse" x="2" y="0.558167" width="6" height="6" fill="black">
<rect fill="white" x="2" y="0.558167" width="6" height="6"/>
<path d="M6 1.55817L5 2.55817L4 3.55817L5 4.55817L6 3.55817L7 2.55817L6 1.55817Z"/>
</mask>
<path d="M6 1.55817L5 2.55817L4 3.55817L5 4.55817L6 3.55817L7 2.55817L6 1.55817Z" fill="#A9A9A9"/>
<path d="M6 1.55817L6.70711 0.85106C6.31658 0.460535 5.68342 0.460535 5.29289 0.85106L6 1.55817ZM7 2.55817L7.70711 3.26527C8.09763 2.87475 8.09763 2.24158 7.70711 1.85106L7 2.55817ZM5 4.55817L4.29289 5.26527L5 5.97238L5.70711 5.26527L5 4.55817ZM4 3.55817L3.29289 2.85106L2.58579 3.55817L3.29289 4.26527L4 3.55817ZM5.70711 3.26527L6.70711 2.26527L5.29289 0.85106L4.29289 1.85106L5.70711 3.26527ZM6.29289 1.85106L5.29289 2.85106L6.70711 4.26527L7.70711 3.26527L6.29289 1.85106ZM5.29289 2.85106L4.29289 3.85106L5.70711 5.26527L6.70711 4.26527L5.29289 2.85106ZM5.70711 3.85106L4.70711 2.85106L3.29289 4.26527L4.29289 5.26527L5.70711 3.85106ZM4.70711 4.26527L5.70711 3.26527L4.29289 1.85106L3.29289 2.85106L4.70711 4.26527ZM5.29289 2.26527L6.29289 3.26527L7.70711 1.85106L6.70711 0.85106L5.29289 2.26527Z" fill="#838383" mask="url(#path-1-outside-1_259_5010)"/>
<mask id="path-3-outside-2_259_5010" maskUnits="userSpaceOnUse" x="5" y="3.55817" width="6" height="6" fill="black">
<rect fill="white" x="5" y="3.55817" width="6" height="6"/>
<path d="M9 4.55817L8 5.55817L7 6.55817L8 7.55817L9 6.55817L10 5.55817L9 4.55817Z"/>
</mask>
<path d="M9 4.55817L8 5.55817L7 6.55817L8 7.55817L9 6.55817L10 5.55817L9 4.55817Z" fill="#A9A9A9"/>
<path d="M9 4.55817L9.70711 3.85106C9.31658 3.46054 8.68342 3.46054 8.29289 3.85106L9 4.55817ZM10 5.55817L10.7071 6.26527C11.0976 5.87475 11.0976 5.24158 10.7071 4.85106L10 5.55817ZM8 7.55817L7.29289 8.26527L8 8.97238L8.70711 8.26527L8 7.55817ZM7 6.55817L6.29289 5.85106L5.58579 6.55817L6.29289 7.26527L7 6.55817ZM8.70711 6.26527L9.70711 5.26527L8.29289 3.85106L7.29289 4.85106L8.70711 6.26527ZM9.29289 4.85106L8.29289 5.85106L9.70711 7.26527L10.7071 6.26527L9.29289 4.85106ZM8.29289 5.85106L7.29289 6.85106L8.70711 8.26527L9.70711 7.26527L8.29289 5.85106ZM8.70711 6.85106L7.70711 5.85106L6.29289 7.26527L7.29289 8.26527L8.70711 6.85106ZM7.70711 7.26527L8.70711 6.26527L7.29289 4.85106L6.29289 5.85106L7.70711 7.26527ZM8.29289 5.26527L9.29289 6.26527L10.7071 4.85106L9.70711 3.85106L8.29289 5.26527Z" fill="#6F6F6F" mask="url(#path-3-outside-2_259_5010)"/>
<mask id="path-5-outside-3_259_5010" maskUnits="userSpaceOnUse" x="0" y="1.55817" width="10" height="10" fill="black">
<rect fill="white" y="1.55817" width="10" height="10"/>
<path d="M3 3.55817L4 2.55817L9 7.55817L8 8.55817H5L3 10.5582C1.89543 10.5582 1 9.66274 1 8.55817L3 6.55817V3.55817Z"/>
</mask>
<path d="M3 3.55817L4 2.55817L9 7.55817L8 8.55817H5L3 10.5582C1.89543 10.5582 1 9.66274 1 8.55817L3 6.55817V3.55817Z" fill="url(#paint0_linear_259_5010)"/>
<path d="M4 2.55817L4.70711 1.85106C4.31658 1.46054 3.68342 1.46054 3.29289 1.85106L4 2.55817ZM3 3.55817L2.29289 2.85106C2.10536 3.0386 2 3.29295 2 3.55817H3ZM3 6.55817L3.70711 7.26527L4 6.97238V6.55817H3ZM1 8.55817L0.292893 7.85106L0 8.14395V8.55817H1ZM3 10.5582V11.5582H3.41421L3.70711 11.2653L3 10.5582ZM5 8.55817V7.55817H4.58579L4.29289 7.85106L5 8.55817ZM8 8.55817V9.55817C8.26522 9.55817 8.51957 9.45281 8.70711 9.26527L8 8.55817ZM9 7.55817L9.70711 8.26527C10.0976 7.87475 10.0976 7.24158 9.70711 6.85106L9 7.55817ZM3.29289 1.85106L2.29289 2.85106L3.70711 4.26527L4.70711 3.26527L3.29289 1.85106ZM2 3.55817V6.55817H4V3.55817H2ZM2.29289 5.85106L0.292893 7.85106L1.70711 9.26527L3.70711 7.26527L2.29289 5.85106ZM3.70711 11.2653L5.70711 9.26527L4.29289 7.85106L2.29289 9.85106L3.70711 11.2653ZM5 9.55817H8V7.55817H5V9.55817ZM8.70711 9.26527L9.70711 8.26527L8.29289 6.85106L7.29289 7.85106L8.70711 9.26527ZM9.70711 6.85106L4.70711 1.85106L3.29289 3.26527L8.29289 8.26527L9.70711 6.85106ZM0 8.55817C0 10.215 1.34315 11.5582 3 11.5582V9.55817C2.44772 9.55817 2 9.11045 2 8.55817H0Z" fill="url(#paint1_linear_259_5010)" mask="url(#path-5-outside-3_259_5010)"/>
<mask id="path-7-inside-4_259_5010" fill="white">
<path d="M3 3.55817L4 2.55817L9 7.55817L8 8.55817H5L3 10.5582C1.89543 10.5582 1 9.66274 1 8.55817L3 6.55817V3.55817Z"/>
</mask>
<path d="M4 2.55817L4.70711 1.85106C4.31658 1.46054 3.68342 1.46054 3.29289 1.85106L4 2.55817ZM3 3.55817L2.29289 2.85106L2 3.14395V3.55817H3ZM3 6.55817L3.70711 7.26527L4 6.97238V6.55817H3ZM1 8.55817L0.292893 7.85106L0 8.14395V8.55817H1ZM3 10.5582V11.5582H3.41421L3.70711 11.2653L3 10.5582ZM5 8.55817V7.55817H4.58579L4.29289 7.85106L5 8.55817ZM8 8.55817V9.55817H8.41421L8.70711 9.26527L8 8.55817ZM9 7.55817L9.70711 8.26527L10.4142 7.55817L9.70711 6.85106L9 7.55817ZM3.29289 1.85106L2.29289 2.85106L3.70711 4.26527L4.70711 3.26527L3.29289 1.85106ZM2 3.55817V6.55817H4V3.55817H2ZM2.29289 5.85106L0.292893 7.85106L1.70711 9.26527L3.70711 7.26527L2.29289 5.85106ZM3.70711 11.2653L5.70711 9.26527L4.29289 7.85106L2.29289 9.85106L3.70711 11.2653ZM5 9.55817H8V7.55817H5V9.55817ZM8.70711 9.26527L9.70711 8.26527L8.29289 6.85106L7.29289 7.85106L8.70711 9.26527ZM9.70711 6.85106L4.70711 1.85106L3.29289 3.26527L8.29289 8.26527L9.70711 6.85106ZM0 8.55817C0 10.215 1.34315 11.5582 3 11.5582V9.55817C2.44772 9.55817 2 9.11045 2 8.55817H0Z" fill="url(#paint2_linear_259_5010)" mask="url(#path-7-inside-4_259_5010)"/>
<defs>
<linearGradient id="paint0_linear_259_5010" x1="3.35276e-08" y1="2.55817" x2="9" y2="11.5582" gradientUnits="userSpaceOnUse">
<stop stop-color="#85AEE1"/>
<stop offset="1" stop-color="#3F7AC3"/>
</linearGradient>
<linearGradient id="paint1_linear_259_5010" x1="6.37025e-07" y1="2.55817" x2="9" y2="11.5582" gradientUnits="userSpaceOnUse">
<stop stop-color="#9CBDEE"/>
<stop offset="1" stop-color="#1B3776"/>
</linearGradient>
<linearGradient id="paint2_linear_259_5010" x1="6.37025e-07" y1="2.55817" x2="9" y2="11.5582" gradientUnits="userSpaceOnUse">
<stop stop-color="#ABC4E6"/>
<stop offset="1" stop-color="#6289BF"/>
</linearGradient>
</defs>
</svg>
