<svg width="11" height="12" viewBox="0 0 11 12" fill="none" xmlns="http://www.w3.org/2000/svg">
<rect x="0.5" y="1.05817" width="10" height="10" fill="white" stroke="url(#paint0_linear_203_6128)" stroke-linejoin="round"/>
<mask id="path-2-outside-1_203_6128" maskUnits="userSpaceOnUse" x="1" y="3.55817" width="9" height="7" fill="black">
<rect fill="white" x="1" y="3.55817" width="9" height="7"/>
<path fill-rule="evenodd" clip-rule="evenodd" d="M2.5 4.55817C2.22386 4.55817 2 4.78202 2 5.05817C2 5.33431 2.22386 5.55817 2.5 5.55817C2.77614 5.55817 3 5.33431 3 5.05817C3 4.78202 2.77614 4.55817 2.5 4.55817ZM4.5 4.55817C4.22386 4.55817 4 4.78202 4 5.05817C4 5.33431 4.22386 5.55817 4.5 5.55817H5.5C5.77614 5.55817 6 5.33431 6 5.05817C6 4.78202 5.77614 4.55817 5.5 4.55817H4.5ZM7 5.05817C7 4.78202 7.22386 4.55817 7.5 4.55817H8.5C8.77614 4.55817 9 4.78202 9 5.05817C9 5.33431 8.77614 5.55817 8.5 5.55817H7.5C7.22386 5.55817 7 5.33431 7 5.05817ZM7 7.05817C7 6.78202 7.22386 6.55817 7.5 6.55817H8.5C8.77614 6.55817 9 6.78202 9 7.05817C9 7.33431 8.77614 7.55817 8.5 7.55817H7.5C7.22386 7.55817 7 7.33431 7 7.05817ZM4 7.05817C4 6.78202 4.22386 6.55817 4.5 6.55817H5.5C5.77614 6.55817 6 6.78202 6 7.05817C6 7.33431 5.77614 7.55817 5.5 7.55817H4.5C4.22386 7.55817 4 7.33431 4 7.05817ZM2 7.05817C2 6.78202 2.22386 6.55817 2.5 6.55817C2.77614 6.55817 3 6.78202 3 7.05817C3 7.33431 2.77614 7.55817 2.5 7.55817C2.22386 7.55817 2 7.33431 2 7.05817ZM7.5 8.55817C7.22386 8.55817 7 8.78202 7 9.05817C7 9.33431 7.22386 9.55817 7.5 9.55817H8.5C8.77614 9.55817 9 9.33431 9 9.05817C9 8.78202 8.77614 8.55817 8.5 8.55817H7.5ZM4 9.05817C4 8.78202 4.22386 8.55817 4.5 8.55817H5.5C5.77614 8.55817 6 8.78202 6 9.05817C6 9.33431 5.77614 9.55817 5.5 9.55817H4.5C4.22386 9.55817 4 9.33431 4 9.05817ZM2.5 8.55817C2.22386 8.55817 2 8.78202 2 9.05817C2 9.33431 2.22386 9.55817 2.5 9.55817C2.77614 9.55817 3 9.33431 3 9.05817C3 8.78202 2.77614 8.55817 2.5 8.55817Z"/>
</mask>
<path fill-rule="evenodd" clip-rule="evenodd" d="M2.5 4.55817C2.22386 4.55817 2 4.78202 2 5.05817C2 5.33431 2.22386 5.55817 2.5 5.55817C2.77614 5.55817 3 5.33431 3 5.05817C3 4.78202 2.77614 4.55817 2.5 4.55817ZM4.5 4.55817C4.22386 4.55817 4 4.78202 4 5.05817C4 5.33431 4.22386 5.55817 4.5 5.55817H5.5C5.77614 5.55817 6 5.33431 6 5.05817C6 4.78202 5.77614 4.55817 5.5 4.55817H4.5ZM7 5.05817C7 4.78202 7.22386 4.55817 7.5 4.55817H8.5C8.77614 4.55817 9 4.78202 9 5.05817C9 5.33431 8.77614 5.55817 8.5 5.55817H7.5C7.22386 5.55817 7 5.33431 7 5.05817ZM7 7.05817C7 6.78202 7.22386 6.55817 7.5 6.55817H8.5C8.77614 6.55817 9 6.78202 9 7.05817C9 7.33431 8.77614 7.55817 8.5 7.55817H7.5C7.22386 7.55817 7 7.33431 7 7.05817ZM4 7.05817C4 6.78202 4.22386 6.55817 4.5 6.55817H5.5C5.77614 6.55817 6 6.78202 6 7.05817C6 7.33431 5.77614 7.55817 5.5 7.55817H4.5C4.22386 7.55817 4 7.33431 4 7.05817ZM2 7.05817C2 6.78202 2.22386 6.55817 2.5 6.55817C2.77614 6.55817 3 6.78202 3 7.05817C3 7.33431 2.77614 7.55817 2.5 7.55817C2.22386 7.55817 2 7.33431 2 7.05817ZM7.5 8.55817C7.22386 8.55817 7 8.78202 7 9.05817C7 9.33431 7.22386 9.55817 7.5 9.55817H8.5C8.77614 9.55817 9 9.33431 9 9.05817C9 8.78202 8.77614 8.55817 8.5 8.55817H7.5ZM4 9.05817C4 8.78202 4.22386 8.55817 4.5 8.55817H5.5C5.77614 8.55817 6 8.78202 6 9.05817C6 9.33431 5.77614 9.55817 5.5 9.55817H4.5C4.22386 9.55817 4 9.33431 4 9.05817ZM2.5 8.55817C2.22386 8.55817 2 8.78202 2 9.05817C2 9.33431 2.22386 9.55817 2.5 9.55817C2.77614 9.55817 3 9.33431 3 9.05817C3 8.78202 2.77614 8.55817 2.5 8.55817Z" fill="white"/>
<path d="M3 5.05817C3 5.33431 2.77614 5.55817 2.5 5.55817V3.55817C1.67157 3.55817 1 4.22974 1 5.05817H3ZM2.5 4.55817C2.77614 4.55817 3 4.78202 3 5.05817H1C1 5.88659 1.67157 6.55817 2.5 6.55817V4.55817ZM2 5.05817C2 4.78202 2.22386 4.55817 2.5 4.55817V6.55817C3.32843 6.55817 4 5.88659 4 5.05817H2ZM2.5 5.55817C2.22386 5.55817 2 5.33431 2 5.05817H4C4 4.22974 3.32843 3.55817 2.5 3.55817V5.55817ZM5 5.05817C5 5.33431 4.77614 5.55817 4.5 5.55817V3.55817C3.67157 3.55817 3 4.22974 3 5.05817H5ZM4.5 4.55817C4.77614 4.55817 5 4.78202 5 5.05817H3C3 5.88659 3.67157 6.55817 4.5 6.55817V4.55817ZM5.5 4.55817H4.5V6.55817H5.5V4.55817ZM5 5.05817C5 4.78202 5.22386 4.55817 5.5 4.55817V6.55817C6.32843 6.55817 7 5.88659 7 5.05817H5ZM5.5 5.55817C5.22386 5.55817 5 5.33431 5 5.05817H7C7 4.22974 6.32843 3.55817 5.5 3.55817V5.55817ZM4.5 5.55817H5.5V3.55817H4.5V5.55817ZM7.5 3.55817C6.67157 3.55817 6 4.22974 6 5.05817H8C8 5.33431 7.77614 5.55817 7.5 5.55817V3.55817ZM8.5 3.55817H7.5V5.55817H8.5V3.55817ZM10 5.05817C10 4.22974 9.32843 3.55817 8.5 3.55817V5.55817C8.22386 5.55817 8 5.33431 8 5.05817H10ZM8.5 6.55817C9.32843 6.55817 10 5.88659 10 5.05817H8C8 4.78202 8.22386 4.55817 8.5 4.55817V6.55817ZM7.5 6.55817H8.5V4.55817H7.5V6.55817ZM6 5.05817C6 5.88659 6.67157 6.55817 7.5 6.55817V4.55817C7.77614 4.55817 8 4.78202 8 5.05817H6ZM7.5 5.55817C6.67157 5.55817 6 6.22974 6 7.05817H8C8 7.33431 7.77614 7.55817 7.5 7.55817V5.55817ZM8.5 5.55817H7.5V7.55817H8.5V5.55817ZM10 7.05817C10 6.22974 9.32843 5.55817 8.5 5.55817V7.55817C8.22386 7.55817 8 7.33431 8 7.05817H10ZM8.5 8.55817C9.32843 8.55817 10 7.88659 10 7.05817H8C8 6.78202 8.22386 6.55817 8.5 6.55817V8.55817ZM7.5 8.55817H8.5V6.55817H7.5V8.55817ZM6 7.05817C6 7.88659 6.67157 8.55817 7.5 8.55817V6.55817C7.77614 6.55817 8 6.78202 8 7.05817H6ZM4.5 5.55817C3.67157 5.55817 3 6.22974 3 7.05817H5C5 7.33431 4.77614 7.55817 4.5 7.55817V5.55817ZM5.5 5.55817H4.5V7.55817H5.5V5.55817ZM7 7.05817C7 6.22974 6.32843 5.55817 5.5 5.55817V7.55817C5.22386 7.55817 5 7.33431 5 7.05817H7ZM5.5 8.55817C6.32843 8.55817 7 7.88659 7 7.05817H5C5 6.78202 5.22386 6.55817 5.5 6.55817V8.55817ZM4.5 8.55817H5.5V6.55817H4.5V8.55817ZM3 7.05817C3 7.88659 3.67157 8.55817 4.5 8.55817V6.55817C4.77614 6.55817 5 6.78202 5 7.05817H3ZM2.5 5.55817C1.67157 5.55817 1 6.22974 1 7.05817H3C3 7.33431 2.77614 7.55817 2.5 7.55817V5.55817ZM4 7.05817C4 6.22974 3.32843 5.55817 2.5 5.55817V7.55817C2.22386 7.55817 2 7.33431 2 7.05817H4ZM2.5 8.55817C3.32843 8.55817 4 7.88659 4 7.05817H2C2 6.78202 2.22386 6.55817 2.5 6.55817V8.55817ZM1 7.05817C1 7.88659 1.67157 8.55817 2.5 8.55817V6.55817C2.77614 6.55817 3 6.78202 3 7.05817H1ZM8 9.05817C8 9.33431 7.77614 9.55817 7.5 9.55817V7.55817C6.67157 7.55817 6 8.22974 6 9.05817H8ZM7.5 8.55817C7.77614 8.55817 8 8.78202 8 9.05817H6C6 9.88659 6.67157 10.5582 7.5 10.5582V8.55817ZM8.5 8.55817H7.5V10.5582H8.5V8.55817ZM8 9.05817C8 8.78202 8.22386 8.55817 8.5 8.55817V10.5582C9.32843 10.5582 10 9.88659 10 9.05817H8ZM8.5 9.55817C8.22386 9.55817 8 9.33431 8 9.05817H10C10 8.22974 9.32843 7.55817 8.5 7.55817V9.55817ZM7.5 9.55817H8.5V7.55817H7.5V9.55817ZM4.5 7.55817C3.67157 7.55817 3 8.22974 3 9.05817H5C5 9.33431 4.77614 9.55817 4.5 9.55817V7.55817ZM5.5 7.55817H4.5V9.55817H5.5V7.55817ZM7 9.05817C7 8.22974 6.32843 7.55817 5.5 7.55817V9.55817C5.22386 9.55817 5 9.33431 5 9.05817H7ZM5.5 10.5582C6.32843 10.5582 7 9.88659 7 9.05817H5C5 8.78202 5.22386 8.55817 5.5 8.55817V10.5582ZM4.5 10.5582H5.5V8.55817H4.5V10.5582ZM3 9.05817C3 9.88659 3.67157 10.5582 4.5 10.5582V8.55817C4.77614 8.55817 5 8.78202 5 9.05817H3ZM3 9.05817C3 9.33431 2.77614 9.55817 2.5 9.55817V7.55817C1.67157 7.55817 1 8.22974 1 9.05817H3ZM2.5 8.55817C2.77614 8.55817 3 8.78202 3 9.05817H1C1 9.88659 1.67157 10.5582 2.5 10.5582V8.55817ZM2 9.05817C2 8.78202 2.22386 8.55817 2.5 8.55817V10.5582C3.32843 10.5582 4 9.88659 4 9.05817H2ZM2.5 9.55817C2.22386 9.55817 2 9.33431 2 9.05817H4C4 8.22974 3.32843 7.55817 2.5 7.55817V9.55817Z" fill="url(#paint1_linear_203_6128)" mask="url(#path-2-outside-1_203_6128)"/>
<rect x="1.5" y="2.05817" width="8" height="2" rx="1" fill="url(#paint2_linear_203_6128)" stroke="white"/>
<rect x="1.5" y="2.05817" width="8" height="8" stroke="url(#paint3_linear_203_6128)" stroke-opacity="0.66" style="mix-blend-mode:screen"/>
<defs>
<linearGradient id="paint0_linear_203_6128" x1="1" y1="1.55817" x2="10" y2="10.5582" gradientUnits="userSpaceOnUse">
<stop stop-color="#9FC0ED"/>
<stop offset="1" stop-color="#5284C3"/>
</linearGradient>
<linearGradient id="paint1_linear_203_6128" x1="7.50001" y1="6.22483" x2="7.50001" y2="11.2248" gradientUnits="userSpaceOnUse">
<stop stop-color="#A6C3E9"/>
<stop offset="1" stop-color="#BFD3EB"/>
</linearGradient>
<linearGradient id="paint2_linear_203_6128" x1="2" y1="3.05817" x2="9" y2="3.05817" gradientUnits="userSpaceOnUse">
<stop stop-color="#A5D59C"/>
<stop offset="1" stop-color="#7CBE76"/>
</linearGradient>
<linearGradient id="paint3_linear_203_6128" x1="1.375" y1="1.55817" x2="10" y2="10.5582" gradientUnits="userSpaceOnUse">
<stop stop-color="#F4F7FB"/>
<stop offset="1" stop-color="#D8E2F0"/>
</linearGradient>
</defs>
</svg>
