<svg width="10" height="13" viewBox="0 0 10 13" fill="none" xmlns="http://www.w3.org/2000/svg">
<path d="M7.71429 2.95816C7.71429 1.1175 6.81087 0.558194 5.80952 0.558167C4.80818 0.558139 4 1.53599 4 2.55817V4.55817C4 5.35817 3.38095 5.95816 2.7619 6.95816C2.14286 7.95816 2 8.95817 2 9.35817C2 10.5582 2 10.9582 2.7619 11.7582C3.52381 12.5582 5.04762 12.5582 5.80952 12.5582C6.57143 12.5582 8.09524 12.5582 8.85714 11.7582C9.61905 10.9582 10 9.75817 10 8.95817C10 8.15816 9.63037 6.9461 8.85714 6.15816C7.93912 5.22267 7.71429 4.79882 7.71429 2.95816Z" fill="url(#paint0_linear_389_6292)"/>
<path d="M6.34294 3.56395C6.34294 3.05781 6.12532 2.55817 5.6801 2.55817C5.23489 2.55817 5 2.98283 5 3.56395C5 4.14507 4.5 5.55817 4.5 5.55817C4.5 5.55817 3.61272 7.05739 3.36022 7.62955C3.10772 8.20171 2.5 9.09491 2.5 9.55817C2.5 10.4164 2.85522 10.5684 3.36023 11.1405C3.86524 11.7127 5.17509 11.5306 5.6801 11.5306C6.18511 11.5306 6.99944 11.4104 7.42001 10.7504C7.84059 10.0904 8 9.43379 8 8.79987C8 8.16595 7.66859 7.23944 7.00577 6.45923C6.34294 5.67901 6.34294 5.12438 6.34294 3.56395V3.56395Z" fill="url(#paint1_linear_389_6292)"/>
<path d="M5.80951 1.05817C6.21974 1.05818 6.54604 1.17111 6.77472 1.4121C7.00697 1.65685 7.21429 2.11318 7.21429 2.95816C7.21429 3.88434 7.26821 4.52977 7.47366 5.07415C7.68403 5.63155 8.03509 6.03433 8.50027 6.50837C9.16837 7.18918 9.5 8.26869 9.5 8.95817C9.5 9.64189 9.16042 10.7147 8.49507 11.4133C8.22399 11.698 7.78015 11.8724 7.24714 11.9657C6.72408 12.0572 6.19347 12.0582 5.80952 12.0582C5.42558 12.0582 4.89497 12.0572 4.3719 11.9657C3.8389 11.8724 3.39506 11.698 3.12397 11.4133C2.77286 11.0447 2.64268 10.8157 2.5777 10.5769C2.50388 10.3056 2.5 9.98203 2.5 9.35817C2.5 9.03896 2.62297 8.13252 3.18704 7.22134C3.33438 6.98332 3.48265 6.76759 3.62749 6.55858C3.63838 6.54287 3.64927 6.52715 3.66018 6.51143C3.7916 6.32191 3.9233 6.13199 4.03823 5.94634C4.28847 5.54211 4.5 5.09613 4.5 4.55817V2.55817C4.5 1.74962 5.14294 1.05815 5.80951 1.05817Z" stroke="url(#paint2_linear_389_6292)"/>
<g filter="url(#filter0_d_389_6292)">
<path d="M6.5 3.55817H4.5C4.22386 3.55817 3.99572 3.78433 4.05241 4.05459C4.1683 4.607 4.45915 5.05817 4.75 5.05817C5.48952 5.05817 6.5719 4.79421 6.9013 4.04484C7.01242 3.79205 6.77614 3.55817 6.5 3.55817Z" fill="#FCDD2F"/>
</g>
<path d="M0.506585 11.2094C0.530746 11.441 0.662959 11.6027 0.782605 11.7007C0.899493 11.7965 1.03498 11.8587 1.15439 11.9011C1.39538 11.9867 1.68351 12.0303 1.94629 12.0481C2.21262 12.0662 2.48862 12.06 2.71633 12.0285C2.82785 12.0131 2.94833 11.9889 3.05655 11.9485C3.11056 11.9283 3.17826 11.898 3.2443 11.8513C3.30725 11.8067 3.40302 11.7228 3.45802 11.5847C3.54276 11.372 3.47727 11.1719 3.45071 11.0977C3.41365 10.9942 3.35865 10.8931 3.30284 10.8041C3.18935 10.623 3.03107 10.4263 2.86198 10.2492C2.69376 10.0731 2.49589 9.89661 2.29656 9.76839C2.19722 9.70449 2.08225 9.64263 1.95879 9.60296C1.84019 9.56485 1.66821 9.53263 1.48348 9.58716C1.09358 9.70225 0.841446 10.0182 0.701336 10.2906C0.558879 10.5676 0.475079 10.9074 0.506585 11.2094Z" fill="url(#paint3_linear_389_6292)" stroke="url(#paint4_linear_389_6292)"/>
<path d="M9.49341 11.2094C9.46925 11.441 9.33704 11.6027 9.2174 11.7007C9.10051 11.7965 8.96502 11.8587 8.84561 11.9011C8.60462 11.9867 8.31649 12.0303 8.05371 12.0481C7.78738 12.0662 7.51138 12.06 7.28367 12.0285C7.17215 12.0131 7.05167 11.9889 6.94345 11.9485C6.88944 11.9283 6.82174 11.898 6.7557 11.8513C6.69275 11.8067 6.59698 11.7228 6.54198 11.5847C6.45724 11.372 6.52273 11.1719 6.54929 11.0977C6.58635 10.9942 6.64135 10.8931 6.69716 10.8041C6.81065 10.623 6.96893 10.4263 7.13802 10.2492C7.30624 10.0731 7.50411 9.89661 7.70344 9.76839C7.80278 9.70449 7.91775 9.64263 8.04121 9.60296C8.15981 9.56485 8.33179 9.53263 8.51652 9.58716C8.90642 9.70225 9.15855 10.0182 9.29866 10.2906C9.44112 10.5676 9.52492 10.9074 9.49341 11.2094Z" fill="url(#paint5_linear_389_6292)" stroke="url(#paint6_linear_389_6292)"/>
<defs>
<filter id="filter0_d_389_6292" x="4.0437" y="3.55817" width="2.88562" height="2.5" filterUnits="userSpaceOnUse" color-interpolation-filters="sRGB">
<feFlood flood-opacity="0" result="BackgroundImageFix"/>
<feColorMatrix in="SourceAlpha" type="matrix" values="0 0 0 0 0 0 0 0 0 0 0 0 0 0 0 0 0 0 127 0" result="hardAlpha"/>
<feOffset dy="1"/>
<feComposite in2="hardAlpha" operator="out"/>
<feColorMatrix type="matrix" values="0 0 0 0 0 0 0 0 0 0 0 0 0 0 0 0 0 0 0.1 0"/>
<feBlend mode="normal" in2="BackgroundImageFix" result="effect1_dropShadow_389_6292"/>
<feBlend mode="normal" in="SourceGraphic" in2="effect1_dropShadow_389_6292" result="shape"/>
</filter>
<linearGradient id="paint0_linear_389_6292" x1="10" y1="6.55817" x2="2" y2="6.55817" gradientUnits="userSpaceOnUse">
<stop stop-color="#242424"/>
<stop offset="1" stop-color="#565657" stop-opacity="0.988235"/>
</linearGradient>
<linearGradient id="paint1_linear_389_6292" x1="8.33141" y1="7.23945" x2="3.02882" y2="7.23945" gradientUnits="userSpaceOnUse">
<stop offset="0.505" stop-color="white"/>
<stop offset="1" stop-color="#F2F2F2"/>
</linearGradient>
<linearGradient id="paint2_linear_389_6292" x1="10" y1="6.55817" x2="2" y2="6.55817" gradientUnits="userSpaceOnUse">
<stop stop-color="#242424"/>
<stop offset="1" stop-color="#565657"/>
</linearGradient>
<linearGradient id="paint3_linear_389_6292" x1="2.80064" y1="10.7598" x2="0.999236" y2="10.7598" gradientUnits="userSpaceOnUse">
<stop stop-color="#FEC72D"/>
<stop offset="1" stop-color="#F8C72D"/>
</linearGradient>
<linearGradient id="paint4_linear_389_6292" x1="2.80064" y1="10.7598" x2="0.999236" y2="10.7598" gradientUnits="userSpaceOnUse">
<stop stop-color="#D19425"/>
<stop offset="1" stop-color="#DDAB2D" stop-opacity="0.86"/>
</linearGradient>
<linearGradient id="paint5_linear_389_6292" x1="7.09304" y1="11.1087" x2="8.96302" y2="11.1087" gradientUnits="userSpaceOnUse">
<stop stop-color="#FFBE2A"/>
<stop offset="1" stop-color="#FEBC29"/>
</linearGradient>
<linearGradient id="paint6_linear_389_6292" x1="7.09304" y1="11.1087" x2="8.96302" y2="11.1087" gradientUnits="userSpaceOnUse">
<stop stop-color="#B97D28" stop-opacity="0.968627"/>
<stop offset="1" stop-color="#F5B429" stop-opacity="0.92549"/>
</linearGradient>
</defs>
</svg>
