<svg width="11" height="12" viewBox="0 0 11 12" fill="none" xmlns="http://www.w3.org/2000/svg">
<circle cx="1.5" cy="9.05817" r="1" fill="#EAB378" stroke="#CF7D2A"/>
<circle cx="9.5" cy="9.05817" r="1" fill="#EAB378" stroke="#CF7D2A"/>
<path d="M7.5 11.0582C7.72943 11.0582 7.92943 10.902 7.98507 10.6794L8.45148 8.81379L9.35355 7.91172C9.44882 7.81646 9.50161 7.68678 9.49996 7.55207C9.49832 7.41736 9.44238 7.28901 9.34483 7.1961L7.24483 5.1961C7.15186 5.10755 7.02839 5.05817 6.9 5.05817H4.1C3.97161 5.05817 3.84814 5.10755 3.75517 5.1961L1.65517 7.1961C1.55762 7.28901 1.50168 7.41736 1.50004 7.55207C1.49839 7.68678 1.55118 7.81646 1.64645 7.91172L2.5394 8.80467L2.90971 10.6562C2.95645 10.8899 3.16166 11.0582 3.4 11.0582H7.5Z" fill="#646464" stroke="#4E4E4E" stroke-linejoin="round"/>
<path d="M7.6 10.5582H3.4L3 8.55817L2 7.55817L4.1 5.55817H6.9L9 7.55817L8 8.55817L7.6 10.5582Z" fill="url(#paint0_linear_323_10049)"/>
<path d="M4.5 7.05817V8.05817M6.5 7.05817V8.05817M6.5 8.05817V9.05817H4.5V8.05817M6.5 8.05817L8.5 6.55817M4.5 8.05817L2.5 6.55817" stroke="#4E4E4E" stroke-linecap="round" stroke-linejoin="round"/>
<path d="M5.5 9.05817V11.0582" stroke="#4E4E4E" stroke-linecap="round" stroke-linejoin="round"/>
<circle cx="5.5" cy="4.05817" r="3" fill="#F6D0A8" stroke="#A87B4D"/>
<mask id="path-8-inside-1_323_10049" fill="white">
<path fill-rule="evenodd" clip-rule="evenodd" d="M2.08419 4.82468C2.57084 4.21679 3.63668 3.18317 4.625 3.18317C5.31782 3.18317 5.64841 3.5663 5.96058 3.92808C6.23979 4.25166 6.50426 4.55817 7 4.55817C7.61037 4.55817 8.37702 4.22025 8.99795 3.93729C8.93424 2.06026 7.39254 0.558167 5.5 0.558167C3.567 0.558167 2 2.12517 2 4.05817C2 4.32147 2.02908 4.57799 2.08419 4.82468Z"/>
</mask>
<path fill-rule="evenodd" clip-rule="evenodd" d="M2.08419 4.82468C2.57084 4.21679 3.63668 3.18317 4.625 3.18317C5.31782 3.18317 5.64841 3.5663 5.96058 3.92808C6.23979 4.25166 6.50426 4.55817 7 4.55817C7.61037 4.55817 8.37702 4.22025 8.99795 3.93729C8.93424 2.06026 7.39254 0.558167 5.5 0.558167C3.567 0.558167 2 2.12517 2 4.05817C2 4.32147 2.02908 4.57799 2.08419 4.82468Z" fill="url(#paint1_linear_323_10049)"/>
<path d="M2.08419 4.82468L1.10825 5.04272L1.5626 7.07631L2.86485 5.44964L2.08419 4.82468ZM5.96058 3.92808L5.20346 4.58136L5.96058 3.92808ZM8.99795 3.93729L9.41264 4.84725L10.02 4.57046L9.99738 3.90336L8.99795 3.93729ZM4.625 2.18317C3.80894 2.18317 3.08102 2.5943 2.57074 2.97278C2.036 3.36941 1.58764 3.84484 1.30354 4.19971L2.86485 5.44964C3.0674 5.19663 3.39529 4.8513 3.76221 4.57914C4.15359 4.28885 4.45275 4.18317 4.625 4.18317V2.18317ZM6.71769 3.27479C6.40224 2.90921 5.80662 2.18317 4.625 2.18317V4.18317C4.765 4.18317 4.82662 4.21533 4.87491 4.24802C4.95587 4.30284 5.03431 4.38533 5.20346 4.58136L6.71769 3.27479ZM7 3.55817C6.98217 3.55817 6.98223 3.55592 6.99111 3.55896C6.99888 3.56161 6.99721 3.56285 6.98249 3.55228C6.96531 3.53994 6.93625 3.51579 6.88986 3.46782C6.84123 3.41754 6.79094 3.35969 6.71769 3.27479L5.20346 4.58136C5.44941 4.8664 5.99128 5.55817 7 5.55817V3.55817ZM8.58327 3.02732C8.27185 3.16924 7.96358 3.30631 7.66735 3.40904C7.36124 3.51521 7.14048 3.55817 7 3.55817V5.55817C7.46989 5.55817 7.93764 5.43217 8.32268 5.29863C8.71761 5.16167 9.10313 4.9883 9.41264 4.84725L8.58327 3.02732ZM5.5 1.55817C6.85161 1.55817 7.95304 2.63111 7.99853 3.97121L9.99738 3.90336C9.91545 1.48941 7.93346 -0.441833 5.5 -0.441833V1.55817ZM3 4.05817C3 2.67745 4.11929 1.55817 5.5 1.55817V-0.441833C3.01472 -0.441833 1 1.57289 1 4.05817H3ZM3.06013 4.60663C3.0209 4.43105 3 4.24764 3 4.05817H1C1 4.3953 1.03725 4.72493 1.10825 5.04272L3.06013 4.60663Z" fill="url(#paint2_linear_323_10049)" mask="url(#path-8-inside-1_323_10049)"/>
<defs>
<linearGradient id="paint0_linear_323_10049" x1="5.5" y1="5.55817" x2="5.5" y2="10.5582" gradientUnits="userSpaceOnUse">
<stop stop-color="#A4A4A4"/>
<stop offset="1" stop-color="#848484"/>
</linearGradient>
<linearGradient id="paint1_linear_323_10049" x1="9.06457" y1="6.76787" x2="1.93338" y2="6.76787" gradientUnits="userSpaceOnUse">
<stop stop-color="#693E16"/>
<stop offset="1" stop-color="#935A25"/>
</linearGradient>
<linearGradient id="paint2_linear_323_10049" x1="9.06457" y1="6.76787" x2="1.93338" y2="6.76787" gradientUnits="userSpaceOnUse">
<stop stop-color="#553210"/>
<stop offset="1" stop-color="#7B4D1E"/>
</linearGradient>
</defs>
</svg>
