<svg width="13" height="8" viewBox="0 0 13 8" fill="none" xmlns="http://www.w3.org/2000/svg">
<path d="M3 7.55817V5.55817L1.5 4.05817L0.5 5.05817L3 7.55817Z" fill="#3275CB"/>
<path d="M10 0.558167V2.55817L11.5 4.05817L12.5 3.05817L10 0.558167Z" fill="#3275CB"/>
<path d="M3 0.558167V2.55817L1.5 4.05817L0.5 5.05817V3.05817L3 0.558167Z" fill="#43AF24"/>
<path d="M10 7.55817V5.55817L11.5 4.05817L12.5 3.05817V5.05817L10 7.55817Z" fill="#43AF24"/>
<path d="M3 0.558167V2.55817L4.5 4.05817L6.5 2.05817L5 0.558167H3Z" fill="#FFD300"/>
<path d="M10 7.55817V5.55817L8.5 4.05817L6.5 6.05817L8 7.55817H10Z" fill="#FFD300"/>
<path d="M3 7.55817V5.55817L4.5 4.05817L6.5 2.05817L8 0.558167H10V2.55817L8.5 4.05817L6.5 6.05817L5 7.55817H3Z" fill="#ED1602"/>
</svg>
