<svg width="10" height="10" viewBox="0 0 10 10" fill="none" xmlns="http://www.w3.org/2000/svg">
<rect width="10" height="10" rx="1" fill="url(#paint0_linear_145_3761)"/>
<path d="M8.45557 2.59863L7.16016 7.5H5.93652L5.12305 4.35547C5.07975 4.19141 5.05355 4.00798 5.04443 3.80518H5.03076C5.01025 4.02848 4.98063 4.21191 4.94189 4.35547L4.10791 7.5H2.83301L1.54443 2.59863H2.75098L3.44141 5.86279C3.47103 6.00179 3.49268 6.18864 3.50635 6.42334H3.52686C3.53597 6.24788 3.56901 6.05648 3.62598 5.84912L4.51465 2.59863H5.69727L6.50049 5.89014C6.53011 6.0109 6.55632 6.18636 6.5791 6.4165H6.59277C6.60189 6.23649 6.62581 6.0542 6.66455 5.86963L7.34131 2.59863H8.45557Z" fill="white"/>
<defs>
<linearGradient id="paint0_linear_145_3761" x1="0" y1="0" x2="10" y2="10" gradientUnits="userSpaceOnUse">
<stop stop-color="#2469C4"/>
<stop offset="1" stop-color="#1146AD"/>
</linearGradient>
</defs>
</svg>
