<svg width="13" height="12" viewBox="0 0 13 12" fill="none" xmlns="http://www.w3.org/2000/svg">
<mask id="path-1-outside-1_187_2983" maskUnits="userSpaceOnUse" x="3.87024" y="0.0112915" width="9" height="9" fill="black">
<rect fill="white" x="3.87024" y="0.0112915" width="9" height="9"/>
<path fill-rule="evenodd" clip-rule="evenodd" d="M6.51977 1.67465C7.14341 1.05102 8.18396 0.848941 9.15466 1.14602L7.98482 1.82142C7.50653 2.09757 7.34265 2.70916 7.6188 3.18745L8.68287 5.03048C8.95901 5.50877 9.5706 5.67265 10.0489 5.39651L11.3664 4.63587C11.2941 5.13575 11.0911 5.58865 10.7624 5.9173C10.1789 6.5008 9.28492 6.634 8.41018 6.35618C7.45012 6.47915 6.37024 7.49998 6.37024 7.49998L4.87024 5.99998C4.87024 5.99998 5.9509 4.97842 6.08035 4.02518C5.80324 3.15099 5.93664 2.25778 6.51977 1.67465Z"/>
</mask>
<path fill-rule="evenodd" clip-rule="evenodd" d="M6.51977 1.67465C7.14341 1.05102 8.18396 0.848941 9.15466 1.14602L7.98482 1.82142C7.50653 2.09757 7.34265 2.70916 7.6188 3.18745L8.68287 5.03048C8.95901 5.50877 9.5706 5.67265 10.0489 5.39651L11.3664 4.63587C11.2941 5.13575 11.0911 5.58865 10.7624 5.9173C10.1789 6.5008 9.28492 6.634 8.41018 6.35618C7.45012 6.47915 6.37024 7.49998 6.37024 7.49998L4.87024 5.99998C4.87024 5.99998 5.9509 4.97842 6.08035 4.02518C5.80324 3.15099 5.93664 2.25778 6.51977 1.67465Z" fill="#D9D9D9"/>
<path d="M9.15466 1.14602L9.65466 2.01204C9.9994 1.81301 10.1933 1.42847 10.1483 1.03295C10.1032 0.637441 9.82795 0.306287 9.44731 0.189795L9.15466 1.14602ZM6.51977 1.67465L7.22688 2.38176V2.38176L6.51977 1.67465ZM7.98482 1.82142L8.48482 2.68745L7.98482 1.82142ZM7.6188 3.18745L6.75277 3.68745L7.6188 3.18745ZM8.68287 5.03048L7.81685 5.53048L8.68287 5.03048ZM10.0489 5.39651L10.5489 6.26253L10.0489 5.39651ZM11.3664 4.63587L12.3561 4.77887C12.4109 4.39978 12.2443 4.02271 11.9272 3.80791C11.61 3.59311 11.1981 3.57833 10.8664 3.76984L11.3664 4.63587ZM8.41018 6.35618L8.71288 5.40309C8.57416 5.35903 8.4275 5.34579 8.28313 5.36428L8.41018 6.35618ZM6.37024 7.49998L5.66313 8.20709C6.04592 8.58988 6.66381 8.59856 7.0572 8.22668L6.37024 7.49998ZM4.87024 5.99998L4.18328 5.27329C3.98701 5.45883 3.87413 5.71587 3.87034 5.98593C3.86654 6.25599 3.97215 6.51611 4.16313 6.70709L4.87024 5.99998ZM6.08035 4.02518L7.07125 4.15975C7.09116 4.01318 7.0783 3.86402 7.03361 3.72302L6.08035 4.02518ZM9.44731 0.189795C8.19708 -0.192827 6.74846 0.0317478 5.81266 0.967548L7.22688 2.38176C7.53836 2.07028 8.17084 1.89071 8.86202 2.10224L9.44731 0.189795ZM8.48482 2.68745L9.65466 2.01204L8.65466 0.279991L7.48482 0.955399L8.48482 2.68745ZM8.48482 2.68745L7.48482 0.955399C6.52824 1.50768 6.20049 2.73086 6.75277 3.68745L8.48482 2.68745ZM9.5489 4.53048L8.48482 2.68745L6.75277 3.68745L7.81685 5.53048L9.5489 4.53048ZM9.5489 4.53048L9.5489 4.53048L7.81685 5.53048C8.36913 6.48707 9.59231 6.81482 10.5489 6.26253L9.5489 4.53048ZM10.8664 3.76984L9.5489 4.53048L10.5489 6.26253L11.8664 5.50189L10.8664 3.76984ZM11.4695 6.6244C11.9782 6.11567 12.2591 5.4504 12.3561 4.77887L10.3766 4.49287C10.3292 4.8211 10.2039 5.06164 10.0553 5.21019L11.4695 6.6244ZM8.10748 7.30926C9.23739 7.66812 10.5544 7.53948 11.4695 6.6244L10.0553 5.21019C9.80336 5.46213 9.33245 5.59987 8.71288 5.40309L8.10748 7.30926ZM8.28313 5.36428C7.55371 5.45771 6.87836 5.86241 6.46013 6.15259C6.23414 6.30939 6.04446 6.46058 5.91085 6.5728C5.84363 6.62925 5.78954 6.67673 5.75098 6.7113C5.73168 6.7286 5.7162 6.74274 5.70483 6.75321C5.69915 6.75846 5.69448 6.76279 5.69088 6.76615C5.68908 6.76783 5.68754 6.76927 5.68627 6.77047C5.68564 6.77106 5.68507 6.77159 5.68457 6.77206C5.68433 6.7723 5.68409 6.77252 5.68388 6.77272C5.68377 6.77282 5.68362 6.77297 5.68357 6.77302C5.68342 6.77315 5.68328 6.77329 6.37024 7.49998C7.0572 8.22668 7.05706 8.22681 7.05694 8.22693C7.0569 8.22696 7.05677 8.22708 7.0567 8.22715C7.05655 8.22729 7.05642 8.22742 7.0563 8.22753C7.05606 8.22775 7.05589 8.22792 7.05578 8.22802C7.05555 8.22823 7.05558 8.2282 7.05585 8.22795C7.0564 8.22744 7.05791 8.22603 7.06037 8.22376C7.06529 8.21923 7.07395 8.21131 7.08605 8.20046C7.1103 8.17872 7.14807 8.14549 7.1971 8.10432C7.29597 8.02128 7.43626 7.90958 7.60025 7.7958C7.96198 7.54482 8.30659 7.37761 8.53723 7.34807L8.28313 5.36428ZM7.07735 6.79288L5.57735 5.29288L4.16313 6.70709L5.66313 8.20709L7.07735 6.79288ZM4.87024 5.99998C5.5572 6.72668 5.55735 6.72654 5.5575 6.72639C5.55756 6.72634 5.55771 6.72619 5.55783 6.72609C5.55805 6.72587 5.55829 6.72564 5.55855 6.7254C5.55907 6.7249 5.55966 6.72435 5.56031 6.72373C5.56161 6.72249 5.56318 6.72099 5.56501 6.71924C5.56866 6.71575 5.57334 6.71124 5.57898 6.70577C5.59026 6.69482 5.60542 6.67994 5.62395 6.66141C5.66096 6.62441 5.71172 6.57253 5.77202 6.50795C5.89181 6.37966 6.05341 6.19684 6.22118 5.9774C6.52962 5.57395 6.96986 4.90639 7.07125 4.15975L5.08945 3.89061C5.06139 4.09721 4.89657 4.41705 4.63232 4.76269C4.51374 4.91779 4.39709 5.04995 4.31021 5.14299C4.26718 5.18908 4.2325 5.22445 4.2099 5.24704C4.19863 5.25831 4.19045 5.26631 4.18584 5.27079C4.18353 5.27303 4.18213 5.27438 4.18168 5.2748C4.18145 5.27502 4.18147 5.275 4.18174 5.27475C4.18187 5.27463 4.18206 5.27444 4.18232 5.2742C4.18245 5.27408 4.18259 5.27394 4.18275 5.27379C4.18283 5.27371 4.18296 5.27359 4.183 5.27355C4.18314 5.27342 4.18328 5.27329 4.87024 5.99998ZM5.81266 0.967548C4.8982 1.88202 4.76911 3.198 5.1271 4.32735L7.03361 3.72302C6.83738 3.10398 6.97509 2.63355 7.22688 2.38176L5.81266 0.967548Z" fill="#929292" mask="url(#path-1-outside-1_187_2983)"/>
<path d="M0.870239 9.5C0.870239 9.36739 0.922918 9.24021 1.01669 9.14645L4.51669 5.64645C4.71195 5.45118 5.02853 5.45118 5.22379 5.64645L6.72379 7.14645C6.91905 7.34171 6.91905 7.65829 6.72379 7.85355L3.22379 11.3536C3.13002 11.4473 3.00285 11.5 2.87024 11.5H1.37024C1.0941 11.5 0.870239 11.2761 0.870239 11V9.5Z" fill="#B2C8EC" stroke="url(#paint0_linear_187_2983)" stroke-linejoin="round"/>
<defs>
<linearGradient id="paint0_linear_187_2983" x1="2.37024" y1="8" x2="4.37024" y2="10" gradientUnits="userSpaceOnUse">
<stop stop-color="#90ADDE"/>
<stop offset="1" stop-color="#5283D3"/>
</linearGradient>
</defs>
</svg>
