<svg width="16" height="16" viewBox="0 0 16 16" fill="none" xmlns="http://www.w3.org/2000/svg">
<mask id="path-1-outside-1_199_4058" maskUnits="userSpaceOnUse" x="2" y="2" width="12" height="12" fill="black">
<rect fill="white" x="2" y="2" width="12" height="12"/>
<path d="M4.17029 13L6.43229 6.656C6.61429 6.136 6.82662 5.681 7.06929 5.291C7.32062 4.901 7.61529 4.576 7.95329 4.316C8.29996 4.056 8.71162 3.861 9.18829 3.731C9.66496 3.601 10.2283 3.536 10.8783 3.536C11.1903 3.536 11.498 3.55333 11.8013 3.588C12.1133 3.614 12.4296 3.666 12.7503 3.744V3.9C12.6636 4.16 12.5856 4.472 12.5163 4.836C12.447 5.2 12.3863 5.512 12.3343 5.772L10.9303 13H9.68229L11.1903 5.252C11.2163 5.10467 11.2466 4.96167 11.2813 4.823C11.3246 4.67567 11.3896 4.54133 11.4763 4.42L11.5803 4.784C11.5023 4.732 11.3723 4.693 11.1903 4.667C11.0083 4.641 10.8176 4.628 10.6183 4.628C10.0463 4.628 9.56962 4.71467 9.18829 4.888C8.81562 5.05267 8.51229 5.29533 8.27829 5.616C8.04429 5.928 7.84496 6.30933 7.68029 6.76L5.47029 13H4.17029ZM6.22429 10.14L6.58829 9.048H10.6963L10.4883 10.14H6.22429Z"/>
</mask>
<path d="M4.17029 13L6.43229 6.656C6.61429 6.136 6.82662 5.681 7.06929 5.291C7.32062 4.901 7.61529 4.576 7.95329 4.316C8.29996 4.056 8.71162 3.861 9.18829 3.731C9.66496 3.601 10.2283 3.536 10.8783 3.536C11.1903 3.536 11.498 3.55333 11.8013 3.588C12.1133 3.614 12.4296 3.666 12.7503 3.744V3.9C12.6636 4.16 12.5856 4.472 12.5163 4.836C12.447 5.2 12.3863 5.512 12.3343 5.772L10.9303 13H9.68229L11.1903 5.252C11.2163 5.10467 11.2466 4.96167 11.2813 4.823C11.3246 4.67567 11.3896 4.54133 11.4763 4.42L11.5803 4.784C11.5023 4.732 11.3723 4.693 11.1903 4.667C11.0083 4.641 10.8176 4.628 10.6183 4.628C10.0463 4.628 9.56962 4.71467 9.18829 4.888C8.81562 5.05267 8.51229 5.29533 8.27829 5.616C8.04429 5.928 7.84496 6.30933 7.68029 6.76L5.47029 13H4.17029ZM6.22429 10.14L6.58829 9.048H10.6963L10.4883 10.14H6.22429Z" fill="url(#paint0_radial_199_4058)"/>
<path d="M4.17029 13L3.22837 12.6642L2.75207 14H4.17029V13ZM6.43229 6.656L7.37422 6.99185L7.37615 6.98635L6.43229 6.656ZM7.06929 5.291L6.22872 4.7493L6.22442 4.75596L6.22023 4.7627L7.06929 5.291ZM7.95329 4.316L7.35325 3.51594L7.34358 3.52338L7.95329 4.316ZM9.18829 3.731L8.92517 2.76624L8.92517 2.76624L9.18829 3.731ZM11.8013 3.588L11.6877 4.58153L11.703 4.58327L11.7182 4.58455L11.8013 3.588ZM12.7503 3.744H13.7503V2.95808L12.9866 2.77233L12.7503 3.744ZM12.7503 3.9L13.699 4.21623L13.7503 4.06228V3.9H12.7503ZM12.5163 4.836L13.4986 5.02311L13.4986 5.02311L12.5163 4.836ZM12.3343 5.772L11.3537 5.57588L11.3526 5.58132L12.3343 5.772ZM10.9303 13V14H11.7547L11.9119 13.1907L10.9303 13ZM9.68229 13L8.70071 12.809L8.46889 14H9.68229V13ZM11.1903 5.252L12.1719 5.44305L12.1735 5.43443L12.1751 5.42578L11.1903 5.252ZM11.2813 4.823L10.3219 4.54083L10.3161 4.56054L10.3111 4.58046L11.2813 4.823ZM11.4763 4.42L12.4378 4.14528L10.6626 3.83876L11.4763 4.42ZM11.5803 4.784L11.0256 5.61605L12.5418 4.50928L11.5803 4.784ZM11.1903 4.667L11.3317 3.67705L11.3317 3.67705L11.1903 4.667ZM9.18829 4.888L9.59248 5.80274L9.60209 5.79837L9.18829 4.888ZM8.27829 5.616L9.07836 6.21605L9.08608 6.20547L8.27829 5.616ZM7.68029 6.76L6.74098 6.41679L6.73766 6.42615L7.68029 6.76ZM5.47029 13V14H6.17699L6.41292 13.3338L5.47029 13ZM6.22429 10.14L5.27561 9.82377L4.83686 11.14H6.22429V10.14ZM6.58829 9.048V8.048H5.86753L5.63961 8.73177L6.58829 9.048ZM10.6963 9.048L11.6786 9.23511L11.9047 8.048H10.6963V9.048ZM10.4883 10.14V11.14H11.3158L11.4706 10.3271L10.4883 10.14ZM5.11221 13.3358L7.37421 6.99185L5.49037 6.32015L3.22837 12.6642L5.11221 13.3358ZM7.37615 6.98635C7.53854 6.52236 7.72122 6.13611 7.91835 5.8193L6.22023 4.7627C5.93203 5.22589 5.69004 5.74963 5.48843 6.32565L7.37615 6.98635ZM7.90986 5.8327C8.10463 5.53047 8.32341 5.29292 8.563 5.10862L7.34358 3.52338C6.90717 3.85907 6.53661 4.27153 6.22872 4.7493L7.90986 5.8327ZM8.55329 5.116C8.78593 4.94152 9.07951 4.79719 9.45141 4.69576L8.92517 2.76624C8.34373 2.92481 7.81399 3.17048 7.35329 3.516L8.55329 5.116ZM9.45141 4.69576C9.82025 4.59517 10.2909 4.536 10.8783 4.536V2.536C10.1656 2.536 9.50966 2.60683 8.92517 2.76624L9.45141 4.69576ZM10.8783 4.536C11.1532 4.536 11.4229 4.55127 11.6877 4.58153L11.9148 2.59447C11.573 2.5554 11.2274 2.536 10.8783 2.536V4.536ZM11.7182 4.58455C11.9759 4.60601 12.241 4.64927 12.5139 4.71567L12.9866 2.77233C12.6183 2.68273 12.2507 2.62198 11.8843 2.59145L11.7182 4.58455ZM11.7503 3.744V3.9H13.7503V3.744H11.7503ZM11.8016 3.58377C11.6969 3.89775 11.6089 4.25527 11.534 4.64889L13.4986 5.02311C13.5623 4.68873 13.6303 4.42225 13.699 4.21623L11.8016 3.58377ZM11.534 4.64889C11.465 5.01096 11.4049 5.31979 11.3537 5.57588L13.3149 5.96812C13.3677 5.70421 13.4289 5.38904 13.4986 5.02311L11.534 4.64889ZM11.3526 5.58132L9.94864 12.8093L11.9119 13.1907L13.3159 5.96268L11.3526 5.58132ZM10.9303 12H9.68229V14H10.9303V12ZM10.6639 13.191L12.1719 5.44305L10.2087 5.06095L8.70071 12.809L10.6639 13.191ZM12.1751 5.42578C12.1972 5.30047 12.2227 5.18044 12.2514 5.06554L10.3111 4.58046C10.2705 4.7429 10.2354 4.90887 10.2055 5.07822L12.1751 5.42578ZM12.2407 5.10517C12.2534 5.0617 12.2702 5.02899 12.29 5.00124L10.6626 3.83876C10.509 4.05367 10.3958 4.28963 10.3219 4.54083L12.2407 5.10517ZM10.5148 4.69472L10.6188 5.05872L12.5418 4.50928L12.4378 4.14528L10.5148 4.69472ZM12.135 3.95195C11.8628 3.77046 11.546 3.70767 11.3317 3.67705L11.0489 5.65695C11.0765 5.6609 11.0977 5.6647 11.1131 5.66792C11.1287 5.67117 11.1362 5.67334 11.1369 5.67358C11.138 5.6739 11.1285 5.67114 11.1112 5.66359C11.0944 5.65621 11.0637 5.64148 11.0256 5.61605L12.135 3.95195ZM11.3317 3.67705C11.0991 3.64383 10.861 3.628 10.6183 3.628V5.628C10.7742 5.628 10.9174 5.63817 11.0489 5.65695L11.3317 3.67705ZM10.6183 3.628C9.9527 3.628 9.32411 3.7278 8.77449 3.97763L9.60209 5.79837C9.81513 5.70153 10.1399 5.628 10.6183 5.628V3.628ZM8.78413 3.97331C8.2551 4.20707 7.81094 4.56 7.4705 5.02653L9.08608 6.20547C9.21364 6.03066 9.37614 5.89827 9.59245 5.80269L8.78413 3.97331ZM7.47829 5.016C7.17386 5.42191 6.93188 5.89448 6.74102 6.41681L8.61955 7.10319C8.75804 6.72419 8.91472 6.43409 9.07829 6.216L7.47829 5.016ZM6.73766 6.42615L4.52766 12.6662L6.41292 13.3338L8.62292 7.09385L6.73766 6.42615ZM5.47029 12H4.17029V14H5.47029V12ZM7.17297 10.4562L7.53697 9.36423L5.63961 8.73177L5.27561 9.82377L7.17297 10.4562ZM6.58829 10.048H10.6963V8.048H6.58829V10.048ZM9.71395 8.86089L9.50595 9.95289L11.4706 10.3271L11.6786 9.23511L9.71395 8.86089ZM10.4883 9.14H6.22429V11.14H10.4883V9.14Z" fill="url(#paint1_linear_199_4058)" mask="url(#path-1-outside-1_199_4058)"/>
<defs>
<radialGradient id="paint0_radial_199_4058" cx="0" cy="0" r="1" gradientUnits="userSpaceOnUse" gradientTransform="translate(11.5 13) rotate(-138.352) scale(8.83243 7.80767)">
<stop offset="0.331484" stop-color="#6B96DC"/>
<stop offset="1" stop-color="#91BCE9"/>
</radialGradient>
<linearGradient id="paint1_linear_199_4058" x1="8.5" y1="5.92857" x2="8.5" y2="10.4286" gradientUnits="userSpaceOnUse">
<stop stop-color="#4B9EE2" stop-opacity="0.952941"/>
<stop offset="1" stop-color="#4A7BD8"/>
</linearGradient>
</defs>
</svg>
