<svg width="16" height="16" viewBox="0 0 16 16" fill="none" xmlns="http://www.w3.org/2000/svg">
<path d="M1.65343 9.41035C1.55297 8.95626 1.5 8.48431 1.5 8C1.5 4.41015 4.41015 1.5 8 1.5C11.5899 1.5 14.5 4.41015 14.5 8C14.5 8.48431 14.447 8.95626 14.3466 9.41035" stroke="url(#paint0_linear_496_9556)" stroke-width="3" stroke-linecap="round"/>
<path d="M1.65343 9.41035C1.55297 8.95626 1.5 8.48431 1.5 8C1.5 4.41015 4.41015 1.5 8 1.5C11.5899 1.5 14.5 4.41015 14.5 8C14.5 8.48431 14.447 8.95626 14.3466 9.41035" stroke="url(#paint1_linear_496_9556)" stroke-linecap="round"/>
<path d="M5.07081 8.65093C5.02445 8.44135 5 8.22353 5 8C5 6.34315 6.34315 5 8 5C9.65685 5 11 6.34315 11 8C11 8.22353 10.9756 8.44135 10.9292 8.65093" stroke="url(#paint2_linear_496_9556)" stroke-width="2" stroke-linecap="round"/>
<rect x="4.5" y="7.5" width="7" height="8" fill="#E9E9E9" stroke="url(#paint3_linear_496_9556)" stroke-linejoin="round"/>
<rect x="5.5" y="8.5" width="5" height="6" stroke="white" stroke-opacity="0.66" stroke-linejoin="round"/>
<rect x="7" y="13" width="2" height="1" rx="0.5" fill="#CFCFCF"/>
<rect x="6.5" y="9.5" width="3" height="2" fill="#C2DBF4" stroke="url(#paint4_linear_496_9556)"/>
<g filter="url(#filter0_i_496_9556)">
<circle cx="12.5" cy="12.5" r="3.5" fill="#456F23"/>
</g>
<circle cx="12.5" cy="12.5" r="3" stroke="url(#paint5_linear_496_9556)"/>
<path fill-rule="evenodd" clip-rule="evenodd" d="M12 12V11H13V12H14V13H13V14H12V13H11V12H12Z" fill="white"/>
<defs>
<filter id="filter0_i_496_9556" x="9" y="9" width="9" height="9" filterUnits="userSpaceOnUse" color-interpolation-filters="sRGB">
<feFlood flood-opacity="0" result="BackgroundImageFix"/>
<feBlend mode="normal" in="SourceGraphic" in2="BackgroundImageFix" result="shape"/>
<feColorMatrix in="SourceAlpha" type="matrix" values="0 0 0 0 0 0 0 0 0 0 0 0 0 0 0 0 0 0 127 0" result="hardAlpha"/>
<feOffset dx="2" dy="2"/>
<feGaussianBlur stdDeviation="4"/>
<feComposite in2="hardAlpha" operator="arithmetic" k2="-1" k3="1"/>
<feColorMatrix type="matrix" values="0 0 0 0 0.715009 0 0 0 0 0.899316 0 0 0 0 0.570196 0 0 0 1 0"/>
<feBlend mode="normal" in2="shape" result="effect1_innerShadow_496_9556"/>
</filter>
<linearGradient id="paint0_linear_496_9556" x1="4.04483" y1="1.5" x2="11.9552" y2="9.41035" gradientUnits="userSpaceOnUse">
<stop stop-color="#FFBD97"/>
<stop offset="1" stop-color="#FF7A24"/>
</linearGradient>
<linearGradient id="paint1_linear_496_9556" x1="4.04483" y1="1.5" x2="11.9552" y2="9.41035" gradientUnits="userSpaceOnUse">
<stop stop-color="#FFCEAC"/>
<stop offset="1" stop-color="#FFA66A"/>
</linearGradient>
<linearGradient id="paint2_linear_496_9556" x1="6.17454" y1="5" x2="11" y2="9" gradientUnits="userSpaceOnUse">
<stop stop-color="#FFB583"/>
<stop offset="1" stop-color="#FF7F2D"/>
</linearGradient>
<linearGradient id="paint3_linear_496_9556" x1="11" y1="14.5" x2="5" y2="8.5" gradientUnits="userSpaceOnUse">
<stop stop-color="#A1A1A1"/>
<stop offset="1" stop-color="#C9C7C4"/>
</linearGradient>
<linearGradient id="paint4_linear_496_9556" x1="6.5" y1="9" x2="9.5" y2="12" gradientUnits="userSpaceOnUse">
<stop stop-color="#84B0DE"/>
<stop offset="1" stop-color="#9EC5EC"/>
</linearGradient>
<linearGradient id="paint5_linear_496_9556" x1="15" y1="15" x2="10" y2="10" gradientUnits="userSpaceOnUse">
<stop stop-color="#376B19"/>
<stop offset="1" stop-color="#5A9438"/>
</linearGradient>
</defs>
</svg>
