<svg width="16" height="16" viewBox="0 0 16 16" fill="none" xmlns="http://www.w3.org/2000/svg">
<g clip-path="url(#clip0_504_8636)">
<mask id="path-1-outside-1_504_8636" maskUnits="userSpaceOnUse" x="0" y="0" width="16" height="16" fill="black">
<rect fill="white" width="16" height="16"/>
<path fill-rule="evenodd" clip-rule="evenodd" d="M1 14V12L6 7V4L9 1H11L15 5V7L12 10H10L9.70711 9.70711C9.31658 9.31658 8.68342 9.31658 8.29289 9.70711C8.10536 9.89464 8 10.149 8 10.4142C8 10.7377 7.71654 10.9875 7.44712 11.1666C7.17762 11.3458 7 11.6521 7 12C7 12.5523 6.55228 13 6 13C5.44772 13 5 13.4477 5 14C5 14.5523 4.55228 15 4 15H2C1.44772 15 1 14.5523 1 14ZM12 5C12.5523 5 13 4.55228 13 4C13 3.44772 12.5523 3 12 3C11.4477 3 11 3.44772 11 4C11 4.55228 11.4477 5 12 5Z"/>
</mask>
<path fill-rule="evenodd" clip-rule="evenodd" d="M1 14V12L6 7V4L9 1H11L15 5V7L12 10H10L9.70711 9.70711C9.31658 9.31658 8.68342 9.31658 8.29289 9.70711C8.10536 9.89464 8 10.149 8 10.4142C8 10.7377 7.71654 10.9875 7.44712 11.1666C7.17762 11.3458 7 11.6521 7 12C7 12.5523 6.55228 13 6 13C5.44772 13 5 13.4477 5 14C5 14.5523 4.55228 15 4 15H2C1.44772 15 1 14.5523 1 14ZM12 5C12.5523 5 13 4.55228 13 4C13 3.44772 12.5523 3 12 3C11.4477 3 11 3.44772 11 4C11 4.55228 11.4477 5 12 5Z" fill="#F1D13D"/>
<path d="M1 12L0.292893 11.2929C0.105357 11.4804 0 11.7348 0 12H1ZM6 7L6.70711 7.70711C6.89464 7.51957 7 7.26522 7 7H6ZM6 4L5.29289 3.29289C5.10536 3.48043 5 3.73478 5 4H6ZM9 1V0C8.73478 0 8.48043 0.105357 8.29289 0.292893L9 1ZM11 1L11.7071 0.292893C11.5196 0.105357 11.2652 0 11 0V1ZM15 5H16C16 4.73478 15.8946 4.48043 15.7071 4.29289L15 5ZM15 7L15.7071 7.70711C15.8946 7.51957 16 7.26522 16 7H15ZM12 10V11C12.2652 11 12.5196 10.8946 12.7071 10.7071L12 10ZM10 10L9.29289 10.7071C9.48043 10.8946 9.73478 11 10 11V10ZM8.29289 9.70711L9 10.4142L9 10.4142L8.29289 9.70711ZM7.44712 11.1666L6.89352 10.3338L7.44712 11.1666ZM2 14V12H0V14H2ZM1.70711 12.7071L6.70711 7.70711L5.29289 6.29289L0.292893 11.2929L1.70711 12.7071ZM7 7V4H5V7H7ZM6.70711 4.70711L9.70711 1.70711L8.29289 0.292893L5.29289 3.29289L6.70711 4.70711ZM9 2H11V0H9V2ZM10.2929 1.70711L14.2929 5.70711L15.7071 4.29289L11.7071 0.292893L10.2929 1.70711ZM14 5V7H16V5H14ZM14.2929 6.29289L11.2929 9.29289L12.7071 10.7071L15.7071 7.70711L14.2929 6.29289ZM4 14H2V16H4V14ZM12 9H10V11H12V9ZM10.7071 9.29289L10.4142 9L9 10.4142L9.29289 10.7071L10.7071 9.29289ZM7.58579 9C7.21071 9.37507 7 9.88378 7 10.4142H9L9 10.4142L7.58579 9ZM4 14V16C5.10457 16 6 15.1046 6 14H4ZM6 12C4.89543 12 4 12.8954 4 14H6V12ZM0 14C0 15.1046 0.89543 16 2 16V14H2H0ZM6 12V14C7.10457 14 8 13.1046 8 12H6ZM10.4142 9C9.63317 8.21895 8.36683 8.21895 7.58579 9L9 10.4142L10.4142 9ZM8 12L8.00071 11.9994L6.89352 10.3338C6.35706 10.6904 6 11.3033 6 12H8ZM12 4V6C13.1046 6 14 5.10457 14 4H12ZM12 4H10C10 5.10457 10.8954 6 12 6V4ZM12 4V2C10.8954 2 10 2.89543 10 4H12ZM12 4H14C14 2.89543 13.1046 2 12 2V4ZM7 10.4142C7 10.345 7.01591 10.2875 7.03259 10.2486C7.04792 10.2129 7.06138 10.1984 7.05682 10.2038C7.0523 10.2093 7.03768 10.2252 7.00741 10.2504C6.97766 10.2752 6.93994 10.303 6.89352 10.3338L8.00071 11.9994C8.16914 11.8874 8.3983 11.7178 8.59236 11.4853C8.7903 11.2481 9 10.8855 9 10.4142H7Z" fill="url(#paint0_linear_504_8636)" mask="url(#path-1-outside-1_504_8636)"/>
<mask id="path-3-inside-2_504_8636" fill="white">
<path fill-rule="evenodd" clip-rule="evenodd" d="M1 14V12L6 7V4L9 1H11L15 5V7L12 10H10L9.70711 9.70711C9.31658 9.31658 8.68342 9.31658 8.29289 9.70711C8.10536 9.89464 8 10.149 8 10.4142C8 10.7377 7.71654 10.9875 7.44712 11.1666C7.17762 11.3458 7 11.6521 7 12C7 12.5523 6.55228 13 6 13C5.44772 13 5 13.4477 5 14C5 14.5523 4.55228 15 4 15H2C1.44772 15 1 14.5523 1 14ZM12 5C12.5523 5 13 4.55228 13 4C13 3.44772 12.5523 3 12 3C11.4477 3 11 3.44772 11 4C11 4.55228 11.4477 5 12 5Z"/>
</mask>
<path d="M1 12L-0.414214 10.5858C-0.789286 10.9609 -1 11.4696 -1 12H1ZM6 7L7.41421 8.41421C7.78929 8.03914 8 7.53043 8 7H6ZM6 4L4.58579 2.58579C4.21071 2.96086 4 3.46957 4 4H6ZM9 1V-1C8.46957 -1 7.96086 -0.789286 7.58579 -0.414214L9 1ZM11 1L12.4142 -0.414214C12.0391 -0.789286 11.5304 -1 11 -1V1ZM15 5H17C17 4.46957 16.7893 3.96086 16.4142 3.58579L15 5ZM15 7L16.4142 8.41421C16.7893 8.03914 17 7.53043 17 7H15ZM12 10V12C12.5304 12 13.0391 11.7893 13.4142 11.4142L12 10ZM10 10L8.58579 11.4142C8.96086 11.7893 9.46957 12 10 12V10ZM8.29289 9.70711L9.70711 11.1213L9.70711 11.1213L8.29289 9.70711ZM7.44712 11.1666L6.33993 9.50104L7.44712 11.1666ZM3 14V12H-1V14H3ZM2.41421 13.4142L7.41421 8.41421L4.58579 5.58579L-0.414214 10.5858L2.41421 13.4142ZM8 7V4H4V7H8ZM7.41421 5.41421L10.4142 2.41421L7.58579 -0.414214L4.58579 2.58579L7.41421 5.41421ZM9 3H11V-1H9V3ZM9.58579 2.41421L13.5858 6.41421L16.4142 3.58579L12.4142 -0.414214L9.58579 2.41421ZM13 5V7H17V5H13ZM13.5858 5.58579L10.5858 8.58579L13.4142 11.4142L16.4142 8.41421L13.5858 5.58579ZM4 13H2V17H4V13ZM12 8H10V12H12V8ZM11.4142 8.58579L11.1213 8.29289L8.29289 11.1213L8.58579 11.4142L11.4142 8.58579ZM6.87868 8.29289C6.31607 8.8555 6 9.61857 6 10.4142H10C10 10.6794 9.89464 10.9338 9.70711 11.1213L6.87868 8.29289ZM3 14C3 13.4477 3.44772 13 4 13V17C5.65685 17 7 15.6569 7 14H3ZM6 11C4.34315 11 3 12.3431 3 14H7C7 14.5523 6.55228 15 6 15V11ZM-1 14C-1 15.6569 0.343145 17 2 17V13C2.55229 13 3 13.4477 3 14H-1ZM5 12C5 11.4477 5.44772 11 6 11V15C7.65685 15 9 13.6569 9 12H5ZM11.1213 8.29289C9.94975 7.12132 8.05025 7.12132 6.87868 8.29289L9.70711 11.1213C9.31658 11.5118 8.68342 11.5118 8.29289 11.1213L11.1213 8.29289ZM9 12C9 12.3498 8.81874 12.6564 8.5543 12.8322L6.33993 9.50104C5.5365 10.0351 5 10.9545 5 12H9ZM11 4C11 3.44772 11.4477 3 12 3V7C13.6569 7 15 5.65685 15 4H11ZM12 3C12.5523 3 13 3.44772 13 4H9C9 5.65685 10.3431 7 12 7V3ZM13 4C13 4.55228 12.5523 5 12 5V1C10.3431 1 9 2.34315 9 4H13ZM12 5C11.4477 5 11 4.55228 11 4H15C15 2.34315 13.6569 1 12 1V5ZM6 10.4142C6 9.9569 6.20681 9.66167 6.28905 9.56312C6.36356 9.47384 6.4072 9.45632 6.33993 9.50104L8.5543 12.8322C8.75646 12.6978 9.07654 12.4658 9.36013 12.126C9.65146 11.7769 10 11.1951 10 10.4142H6Z" fill="#F5DD49" mask="url(#path-3-inside-2_504_8636)"/>
<path d="M2 14L9 7" stroke="url(#paint1_linear_504_8636)"/>
<mask id="path-6-inside-3_504_8636" fill="white">
<path fill-rule="evenodd" clip-rule="evenodd" d="M1 14V12L6 7V4L9 1H11L15 5V7L12 10H10L9.70711 9.70711C9.31658 9.31658 8.68342 9.31658 8.29289 9.70711C8.10536 9.89464 8 10.149 8 10.4142C8 10.7377 7.71654 10.9875 7.44712 11.1666C7.17762 11.3458 7 11.6521 7 12C7 12.5523 6.55228 13 6 13C5.44772 13 5 13.4477 5 14C5 14.5523 4.55228 15 4 15H2C1.44772 15 1 14.5523 1 14ZM12 5C12.5523 5 13 4.55228 13 4C13 3.44772 12.5523 3 12 3C11.4477 3 11 3.44772 11 4C11 4.55228 11.4477 5 12 5Z"/>
</mask>
<path d="M1 12L0.292893 11.2929C0.105357 11.4804 0 11.7348 0 12H1ZM6 7L6.70711 7.70711C6.89464 7.51957 7 7.26522 7 7H6ZM6 4L5.29289 3.29289C5.10536 3.48043 5 3.73478 5 4H6ZM9 1V0C8.73478 0 8.48043 0.105357 8.29289 0.292893L9 1ZM11 1L11.7071 0.292893C11.5196 0.105357 11.2652 0 11 0V1ZM15 5H16C16 4.73478 15.8946 4.48043 15.7071 4.29289L15 5ZM15 7L15.7071 7.70711C15.8946 7.51957 16 7.26522 16 7H15ZM12 10V11C12.2652 11 12.5196 10.8946 12.7071 10.7071L12 10ZM10 10L9.29289 10.7071C9.48043 10.8946 9.73478 11 10 11V10ZM8.29289 9.70711L9 10.4142L9 10.4142L8.29289 9.70711ZM7.44712 11.1666L6.89352 10.3338L7.44712 11.1666ZM2 14V12H0V14H2ZM1.70711 12.7071L6.70711 7.70711L5.29289 6.29289L0.292893 11.2929L1.70711 12.7071ZM7 7V4H5V7H7ZM6.70711 4.70711L9.70711 1.70711L8.29289 0.292893L5.29289 3.29289L6.70711 4.70711ZM9 2H11V0H9V2ZM10.2929 1.70711L14.2929 5.70711L15.7071 4.29289L11.7071 0.292893L10.2929 1.70711ZM14 5V7H16V5H14ZM14.2929 6.29289L11.2929 9.29289L12.7071 10.7071L15.7071 7.70711L14.2929 6.29289ZM4 14H2V16H4V14ZM12 9H10V11H12V9ZM10.7071 9.29289L10.4142 9L9 10.4142L9.29289 10.7071L10.7071 9.29289ZM7.58579 9C7.21071 9.37507 7 9.88378 7 10.4142H9L9 10.4142L7.58579 9ZM4 14V16C5.10457 16 6 15.1046 6 14H4ZM6 12C4.89543 12 4 12.8954 4 14H6V12ZM0 14C0 15.1046 0.89543 16 2 16V14H2H0ZM6 12V14C7.10457 14 8 13.1046 8 12H6ZM10.4142 9C9.63317 8.21895 8.36683 8.21895 7.58579 9L9 10.4142L10.4142 9ZM8 12L8.00071 11.9994L6.89352 10.3338C6.35706 10.6904 6 11.3033 6 12H8ZM12 4V6C13.1046 6 14 5.10457 14 4H12ZM12 4H10C10 5.10457 10.8954 6 12 6V4ZM12 4V2C10.8954 2 10 2.89543 10 4H12ZM12 4H14C14 2.89543 13.1046 2 12 2V4ZM7 10.4142C7 10.345 7.01591 10.2875 7.03259 10.2486C7.04792 10.2129 7.06138 10.1984 7.05682 10.2038C7.0523 10.2093 7.03768 10.2252 7.00741 10.2504C6.97766 10.2752 6.93994 10.303 6.89352 10.3338L8.00071 11.9994C8.16914 11.8874 8.3983 11.7178 8.59236 11.4853C8.7903 11.2481 9 10.8855 9 10.4142H7Z" fill="url(#paint2_linear_504_8636)" mask="url(#path-6-inside-3_504_8636)"/>
</g>
<g filter="url(#filter0_i_504_8636)">
<path d="M10 9H6V14H10V16H11L16 11.5L11 7H10V9Z" fill="#80B361"/>
</g>
<path d="M10 9.5C10.2761 9.5 10.5 9.27614 10.5 9V7.5H10.8081L15.2526 11.5L10.8081 15.5H10.5V14C10.5 13.7239 10.2761 13.5 10 13.5H6.5V9.5H10Z" stroke="url(#paint3_linear_504_8636)" stroke-linejoin="round"/>
<path d="M7.5 12.5V10.5H10C10.7149 10.5 11.2659 10.0257 11.4412 9.41686L13.7531 11.5L11.4413 13.5831C11.263 12.9643 10.6975 12.5 10.0049 12.5H7.5Z" stroke="white" stroke-opacity="0.2" stroke-linejoin="round"/>
<defs>
<filter id="filter0_i_504_8636" x="6" y="7" width="12" height="11" filterUnits="userSpaceOnUse" color-interpolation-filters="sRGB">
<feFlood flood-opacity="0" result="BackgroundImageFix"/>
<feBlend mode="normal" in="SourceGraphic" in2="BackgroundImageFix" result="shape"/>
<feColorMatrix in="SourceAlpha" type="matrix" values="0 0 0 0 0 0 0 0 0 0 0 0 0 0 0 0 0 0 127 0" result="hardAlpha"/>
<feOffset dx="2" dy="2"/>
<feGaussianBlur stdDeviation="1"/>
<feComposite in2="hardAlpha" operator="arithmetic" k2="-1" k3="1"/>
<feColorMatrix type="matrix" values="0 0 0 0 1 0 0 0 0 1 0 0 0 0 1 0 0 0 0.25 0"/>
<feBlend mode="normal" in2="shape" result="effect1_innerShadow_504_8636"/>
</filter>
<linearGradient id="paint0_linear_504_8636" x1="6.6" y1="2.86667" x2="11.2667" y2="11.2667" gradientUnits="userSpaceOnUse">
<stop stop-color="#E3B044"/>
<stop offset="1" stop-color="#D67D29"/>
</linearGradient>
<linearGradient id="paint1_linear_504_8636" x1="9" y1="7" x2="2" y2="14" gradientUnits="userSpaceOnUse">
<stop stop-color="#F1D13D"/>
<stop offset="1" stop-color="#EEC528"/>
</linearGradient>
<linearGradient id="paint2_linear_504_8636" x1="3.5" y1="5.5" x2="12" y2="11" gradientUnits="userSpaceOnUse">
<stop stop-color="white"/>
<stop offset="1" stop-color="#FCF3A0"/>
</linearGradient>
<linearGradient id="paint3_linear_504_8636" x1="14.5714" y1="14.7143" x2="8.17837" y2="7.61089" gradientUnits="userSpaceOnUse">
<stop stop-color="#247C10"/>
<stop offset="1" stop-color="#6FA53D"/>
</linearGradient>
<clipPath id="clip0_504_8636">
<rect width="16" height="16" fill="white"/>
</clipPath>
</defs>
</svg>
