<svg width="16" height="16" viewBox="0 0 16 16" fill="none" xmlns="http://www.w3.org/2000/svg">
<g clip-path="url(#clip0_199_4109)">
<rect x="1.5" y="1.5" width="13" height="13" rx="1.5" fill="white"/>
<rect x="1.5" y="1.5" width="13" height="13" rx="1.5" fill="white"/>
<rect x="1.5" y="1.5" width="13" height="13" rx="1.5" fill="white"/>
<rect x="1.5" y="1.5" width="13" height="13" rx="1.5" stroke="url(#paint0_linear_199_4109)"/>
<rect x="7.5" y="7.5" width="5" height="5" fill="#E6ECF5" stroke="#CDD9EB" stroke-linejoin="round"/>
<rect x="3.5" y="7.5" width="2" height="5" fill="#75A0CD" stroke="url(#paint1_linear_199_4109)" stroke-linejoin="round"/>
<rect x="3.5" y="3.5" width="9" height="2" fill="#C2DBF4" stroke="#85B7E9" stroke-linejoin="round"/>
<g filter="url(#filter0_i_199_4109)">
<circle cx="12.5" cy="12.5" r="3.5" fill="#456F23"/>
</g>
<circle cx="12.5" cy="12.5" r="3" stroke="url(#paint2_linear_199_4109)"/>
<path fill-rule="evenodd" clip-rule="evenodd" d="M12 12V11H13V12H14V13H13V14H12V13H11V12H12Z" fill="white"/>
</g>
<defs>
<filter id="filter0_i_199_4109" x="9" y="9" width="9" height="9" filterUnits="userSpaceOnUse" color-interpolation-filters="sRGB">
<feFlood flood-opacity="0" result="BackgroundImageFix"/>
<feBlend mode="normal" in="SourceGraphic" in2="BackgroundImageFix" result="shape"/>
<feColorMatrix in="SourceAlpha" type="matrix" values="0 0 0 0 0 0 0 0 0 0 0 0 0 0 0 0 0 0 127 0" result="hardAlpha"/>
<feOffset dx="2" dy="2"/>
<feGaussianBlur stdDeviation="4"/>
<feComposite in2="hardAlpha" operator="arithmetic" k2="-1" k3="1"/>
<feColorMatrix type="matrix" values="0 0 0 0 0.715009 0 0 0 0 0.899316 0 0 0 0 0.570196 0 0 0 1 0"/>
<feBlend mode="normal" in2="shape" result="effect1_innerShadow_199_4109"/>
</filter>
<linearGradient id="paint0_linear_199_4109" x1="8" y1="1" x2="8" y2="15" gradientUnits="userSpaceOnUse">
<stop stop-color="#5F90CC"/>
<stop offset="1" stop-color="#4E6FA6"/>
</linearGradient>
<linearGradient id="paint1_linear_199_4109" x1="5" y1="12" x2="2.5" y2="9.5" gradientUnits="userSpaceOnUse">
<stop stop-color="#2B64AD"/>
<stop offset="1" stop-color="#547FBC"/>
</linearGradient>
<linearGradient id="paint2_linear_199_4109" x1="15" y1="15" x2="10" y2="10" gradientUnits="userSpaceOnUse">
<stop stop-color="#376B19"/>
<stop offset="1" stop-color="#5A9438"/>
</linearGradient>
<clipPath id="clip0_199_4109">
<rect width="16" height="16" fill="white"/>
</clipPath>
</defs>
</svg>
