<svg width="16" height="16" viewBox="0 0 16 16" fill="none" xmlns="http://www.w3.org/2000/svg">
<g clip-path="url(#clip0_385_6292)">
<path d="M3 2C3 1.44772 3.44772 1 4 1H11.5858C11.851 1 12.1054 1.10536 12.2929 1.29289L14.7071 3.70711C14.8946 3.89464 15 4.149 15 4.41421V14C15 14.5523 14.5523 15 14 15H4C3.44772 15 3 14.5523 3 14V2Z" fill="url(#paint0_linear_385_6292)"/>
<path d="M4 0.5C3.17157 0.5 2.5 1.17157 2.5 2V14C2.5 14.8284 3.17157 15.5 4 15.5H14C14.8284 15.5 15.5 14.8284 15.5 14V4.41421C15.5 4.01639 15.342 3.63486 15.0607 3.35355L12.6464 0.93934C12.3651 0.658035 11.9836 0.5 11.5858 0.5H4Z" stroke="#A8A8A8" stroke-opacity="0.66" stroke-linejoin="round"/>
<path d="M3.5 2C3.5 1.72386 3.72386 1.5 4 1.5H11C11.2761 1.5 11.5 1.72386 11.5 2V3C11.5 3.82843 12.1716 4.5 13 4.5H14C14.2761 4.5 14.5 4.72386 14.5 5V14C14.5 14.2761 14.2761 14.5 14 14.5H4C3.72386 14.5 3.5 14.2761 3.5 14V2Z" stroke="white" stroke-linejoin="round"/>
<path d="M12 5.5H12.5V4.5H12V5.5ZM9 8.5L8.5219 8.35364L9 8.5ZM10.2857 9H10.7857V8H10.2857V9ZM12 4.5C10.7628 4.5 9.966 5.23712 9.45983 6.04766C8.96263 6.84384 8.69487 7.7886 8.5219 8.35364L9.4781 8.64636C9.66227 8.04474 9.89452 7.2395 10.308 6.57734C10.7126 5.92955 11.2372 5.5 12 5.5V4.5ZM8.5219 8.35364C8.33773 8.95526 8.10548 9.7605 7.69198 10.4227C7.28743 11.0705 6.76284 11.5 6 11.5V12.5C7.23716 12.5 8.034 11.7629 8.54017 10.9523C9.03737 10.1562 9.30513 9.2114 9.4781 8.64636L8.5219 8.35364ZM9 9H10.2857V8H9V9ZM2.75 11.5C2.05964 11.5 1.5 10.9404 1.5 10.25H0.5C0.5 11.4926 1.50736 12.5 2.75 12.5V11.5ZM1.5 10.25C1.5 9.55964 2.05964 9 2.75 9V8C1.50736 8 0.5 9.00736 0.5 10.25H1.5ZM6 11.5H2.75V12.5H6V11.5ZM2.75 9H5V8H2.75V9Z" fill="url(#paint1_linear_385_6292)"/>
<path d="M13 4.5V4H12.5H12C10.5248 4 9.5921 4.8919 9.03574 5.78281C8.53785 6.58008 8.25815 7.50148 8.08607 8.06837L8.08094 8.08528L8.55938 8.23053L8.08094 8.08528L8.0438 8.20729L8.5219 8.35364L8.0438 8.20729L8.01076 8.31553C7.82843 8.91382 7.61648 9.59959 7.26788 10.1578C6.91508 10.7227 6.52693 11 6 11H2.75C2.33579 11 2 10.6642 2 10.25C2 9.83579 2.33579 9.5 2.75 9.5H5H5.5V9V8V7.5H5H2.75C1.23122 7.5 0 8.73122 0 10.25C0 11.7688 1.23122 13 2.75 13H6C7.47516 13 8.4079 12.1081 8.96426 11.2172C9.31969 10.648 9.5627 10.0186 9.73515 9.5H10.7857H11.2857V9V8V7.5H10.7857H10.3974C10.4948 7.26905 10.6048 7.04614 10.7321 6.84219C11.0849 6.27726 11.4731 6 12 6H12.5H13V5.5V4.5Z" fill="url(#paint2_linear_385_6292)"/>
<path d="M13 4.5V4H12.5H12C10.5248 4 9.5921 4.8919 9.03574 5.78281C8.53785 6.58008 8.25815 7.50148 8.08607 8.06837L8.08094 8.08528L8.55938 8.23053L8.08094 8.08528L8.0438 8.20729L8.5219 8.35364L8.0438 8.20729L8.01076 8.31553C7.82843 8.91382 7.61648 9.59959 7.26788 10.1578C6.91508 10.7227 6.52693 11 6 11H2.75C2.33579 11 2 10.6642 2 10.25C2 9.83579 2.33579 9.5 2.75 9.5H5H5.5V9V8V7.5H5H2.75C1.23122 7.5 0 8.73122 0 10.25C0 11.7688 1.23122 13 2.75 13H6C7.47516 13 8.4079 12.1081 8.96426 11.2172C9.31969 10.648 9.5627 10.0186 9.73515 9.5H10.7857H11.2857V9V8V7.5H10.7857H10.3974C10.4948 7.26905 10.6048 7.04614 10.7321 6.84219C11.0849 6.27726 11.4731 6 12 6H12.5H13V5.5V4.5Z" stroke="url(#paint3_linear_385_6292)"/>
<path d="M13 4.5V4H12.5H12C10.5248 4 9.5921 4.8919 9.03574 5.78281C8.53785 6.58008 8.25815 7.50148 8.08607 8.06837L8.08094 8.08528L8.55938 8.23053L8.08094 8.08528L8.0438 8.20729L8.5219 8.35364L8.0438 8.20729L8.01076 8.31553C7.82843 8.91382 7.61648 9.59959 7.26788 10.1578C6.91508 10.7227 6.52693 11 6 11H2.75C2.33579 11 2 10.6642 2 10.25C2 9.83579 2.33579 9.5 2.75 9.5H5H5.5V9V8V7.5H5H2.75C1.23122 7.5 0 8.73122 0 10.25C0 11.7688 1.23122 13 2.75 13H6C7.47516 13 8.4079 12.1081 8.96426 11.2172C9.31969 10.648 9.5627 10.0186 9.73515 9.5H10.7857H11.2857V9V8V7.5H10.7857H10.3974C10.4948 7.26905 10.6048 7.04614 10.7321 6.84219C11.0849 6.27726 11.4731 6 12 6H12.5H13V5.5V4.5Z" stroke="black" stroke-opacity="0.15"/>
</g>
<defs>
<linearGradient id="paint0_linear_385_6292" x1="3" y1="15" x2="15" y2="0.999999" gradientUnits="userSpaceOnUse">
<stop offset="0.500484" stop-color="white"/>
<stop offset="0.806982" stop-color="#E6E6E6"/>
<stop offset="0.901248" stop-color="white"/>
</linearGradient>
<linearGradient id="paint1_linear_385_6292" x1="3.15514" y1="5" x2="9.84486" y2="12" gradientUnits="userSpaceOnUse">
<stop offset="0.307996" stop-color="#5DD1FF"/>
<stop offset="0.919783" stop-color="#1DA8E8"/>
</linearGradient>
<linearGradient id="paint2_linear_385_6292" x1="3.15514" y1="5" x2="9.84486" y2="12" gradientUnits="userSpaceOnUse">
<stop offset="0.307996" stop-color="#5DD1FF"/>
<stop offset="0.919783" stop-color="#1DA8E8"/>
</linearGradient>
<linearGradient id="paint3_linear_385_6292" x1="2.61586" y1="4.5" x2="10.3841" y2="12.5" gradientUnits="userSpaceOnUse">
<stop offset="0.31" stop-color="#5DD1FF"/>
<stop offset="0.92" stop-color="#1DA8E8"/>
</linearGradient>
<clipPath id="clip0_385_6292">
<rect width="16" height="16" fill="white"/>
</clipPath>
</defs>
</svg>
