<svg width="16" height="16" viewBox="0 0 16 16" fill="none" xmlns="http://www.w3.org/2000/svg">
<g clip-path="url(#clip0_134_2238)">
<mask id="path-1-outside-1_134_2238" maskUnits="userSpaceOnUse" x="0" y="0" width="9" height="9" fill="black">
<rect fill="white" width="9" height="9"/>
<path d="M1.42277 8L2.97977 3.635C3.11177 3.251 3.27077 2.921 3.45677 2.645C3.64877 2.369 3.86777 2.144 4.11377 1.97C4.36577 1.79 4.65977 1.658 4.99577 1.574C5.33777 1.49 5.72777 1.448 6.16577 1.448C6.40577 1.448 6.63677 1.463 6.85877 1.493C7.08677 1.517 7.31477 1.556 7.54277 1.61L7.55177 1.718C7.49177 1.898 7.43477 2.114 7.38077 2.366C7.33277 2.612 7.29077 2.825 7.25477 3.005L6.28277 8H5.23877L6.25577 2.798C6.27977 2.684 6.30677 2.573 6.33677 2.465C6.36677 2.351 6.41177 2.252 6.47177 2.168L6.53477 2.447C6.48077 2.411 6.39377 2.384 6.27377 2.366C6.15377 2.348 6.03077 2.339 5.90477 2.339C5.53877 2.339 5.23277 2.393 4.98677 2.501C4.74677 2.609 4.55177 2.765 4.40177 2.969C4.25177 3.173 4.12277 3.419 4.01477 3.707L2.49377 8H1.42277ZM2.91677 6.101L3.20477 5.219H6.00377L5.83277 6.101H2.91677Z"/>
</mask>
<path d="M1.42277 8L2.97977 3.635C3.11177 3.251 3.27077 2.921 3.45677 2.645C3.64877 2.369 3.86777 2.144 4.11377 1.97C4.36577 1.79 4.65977 1.658 4.99577 1.574C5.33777 1.49 5.72777 1.448 6.16577 1.448C6.40577 1.448 6.63677 1.463 6.85877 1.493C7.08677 1.517 7.31477 1.556 7.54277 1.61L7.55177 1.718C7.49177 1.898 7.43477 2.114 7.38077 2.366C7.33277 2.612 7.29077 2.825 7.25477 3.005L6.28277 8H5.23877L6.25577 2.798C6.27977 2.684 6.30677 2.573 6.33677 2.465C6.36677 2.351 6.41177 2.252 6.47177 2.168L6.53477 2.447C6.48077 2.411 6.39377 2.384 6.27377 2.366C6.15377 2.348 6.03077 2.339 5.90477 2.339C5.53877 2.339 5.23277 2.393 4.98677 2.501C4.74677 2.609 4.55177 2.765 4.40177 2.969C4.25177 3.173 4.12277 3.419 4.01477 3.707L2.49377 8H1.42277ZM2.91677 6.101L3.20477 5.219H6.00377L5.83277 6.101H2.91677Z" fill="url(#paint0_radial_134_2238)"/>
<path d="M1.42277 8L0.4809 7.66403L0.00435885 9H1.42277V8ZM2.97977 3.635L3.92171 3.97099L3.92546 3.96008L2.97977 3.635ZM3.45677 2.645L2.63587 2.07394L2.63164 2.08001L2.62751 2.08615L3.45677 2.645ZM4.11377 1.97L4.69124 2.78642L4.69501 2.78373L4.11377 1.97ZM4.99577 1.574L4.75725 0.602855L4.75324 0.603857L4.99577 1.574ZM6.85877 1.493L6.72486 2.48399L6.73945 2.48596L6.75409 2.4875L6.85877 1.493ZM7.54277 1.61L8.53932 1.52695L8.47908 0.804092L7.77324 0.636919L7.54277 1.61ZM7.55177 1.718L8.50046 2.03423L8.56537 1.8395L8.54832 1.63495L7.55177 1.718ZM7.38077 2.366L6.40297 2.15647L6.40104 2.16546L6.39928 2.17449L7.38077 2.366ZM7.25477 3.005L6.27418 2.80888L6.27319 2.81399L7.25477 3.005ZM6.28277 8V9H7.10694L7.26436 8.19101L6.28277 8ZM5.23877 8L4.25735 7.80813L4.02434 9H5.23877V8ZM6.25577 2.798L5.27722 2.59199L5.27574 2.59905L5.27435 2.60613L6.25577 2.798ZM6.33677 2.465L7.30038 2.73267L7.30385 2.71949L6.33677 2.465ZM6.47177 2.168L7.44722 1.94774L5.65804 1.58676L6.47177 2.168ZM6.53477 2.447L5.98007 3.27905L7.51021 2.22674L6.53477 2.447ZM6.27377 2.366L6.42212 1.37706L6.42211 1.37706L6.27377 2.366ZM4.98677 2.501L4.58477 1.58532L4.57641 1.58908L4.98677 2.501ZM4.40177 2.969L5.20742 3.56139L5.20742 3.56139L4.40177 2.969ZM4.01477 3.707L3.07844 3.35588L3.07524 3.36443L3.07219 3.37304L4.01477 3.707ZM2.49377 8V9H3.20038L3.43636 8.33396L2.49377 8ZM2.91677 6.101L1.96617 5.7906L1.53828 7.101H2.91677V6.101ZM3.20477 5.219V4.219H2.47934L2.25417 4.9086L3.20477 5.219ZM6.00377 5.219L6.98549 5.40933L7.21627 4.219H6.00377V5.219ZM5.83277 6.101V7.101H6.65752L6.81449 6.29133L5.83277 6.101ZM2.36465 8.33597L3.92165 3.97097L2.0379 3.29903L0.4809 7.66403L2.36465 8.33597ZM3.92546 3.96008C4.03503 3.64134 4.15822 3.39352 4.28604 3.20385L2.62751 2.08615C2.38332 2.44848 2.18852 2.86066 2.03409 3.30992L3.92546 3.96008ZM4.27768 3.21606C4.41101 3.02439 4.55033 2.88608 4.69124 2.78642L3.53631 1.15358C3.18521 1.40192 2.88653 1.71361 2.63587 2.07394L4.27768 3.21606ZM4.69501 2.78373C4.83353 2.68479 5.00966 2.6013 5.23831 2.54414L4.75324 0.603857C4.30988 0.714696 3.89801 0.89521 3.53254 1.15627L4.69501 2.78373ZM5.2343 2.54514C5.48203 2.48429 5.78954 2.448 6.16577 2.448V0.448C5.66601 0.448 5.19352 0.495709 4.75725 0.602863L5.2343 2.54514ZM6.16577 2.448C6.36413 2.448 6.55026 2.4604 6.72486 2.48399L6.99269 0.502007C6.72329 0.465601 6.44742 0.448 6.16577 0.448V2.448ZM6.75409 2.4875C6.93883 2.50695 7.12483 2.53868 7.31231 2.58308L7.77324 0.636919C7.50472 0.573323 7.23472 0.527048 6.96346 0.498494L6.75409 2.4875ZM6.54623 1.69305L6.55523 1.80105L8.54832 1.63495L8.53932 1.52695L6.54623 1.69305ZM6.60309 1.40177C6.52814 1.62662 6.46217 1.88022 6.40297 2.15647L8.35858 2.57553C8.40738 2.34778 8.45541 2.16938 8.50046 2.03423L6.60309 1.40177ZM6.39928 2.17449C6.35148 2.41947 6.3098 2.63086 6.27419 2.80888L8.23535 3.20112C8.27175 3.01914 8.31406 2.80453 8.36226 2.55751L6.39928 2.17449ZM6.27319 2.81399L5.30119 7.80899L7.26436 8.19101L8.23636 3.19601L6.27319 2.81399ZM6.28277 7H5.23877V9H6.28277V7ZM6.22019 8.19187L7.23719 2.98987L5.27435 2.60613L4.25735 7.80813L6.22019 8.19187ZM7.23432 3.00401C7.25414 2.9099 7.27617 2.81948 7.30029 2.73264L5.37326 2.19736C5.33738 2.32652 5.30541 2.4581 5.27722 2.59199L7.23432 3.00401ZM7.30385 2.71949C7.30567 2.71259 7.30611 2.71306 7.30339 2.71905C7.30058 2.72523 7.29499 2.73596 7.28551 2.74924L5.65804 1.58676C5.51827 1.78244 5.42624 1.99566 5.3697 2.21051L7.30385 2.71949ZM5.49633 2.38826L5.55933 2.66726L7.51021 2.22674L7.44722 1.94774L5.49633 2.38826ZM7.08947 1.61495C6.84811 1.45404 6.58249 1.40112 6.42212 1.37706L6.12543 3.35494C6.15065 3.35872 6.15041 3.36033 6.13262 3.35481C6.12293 3.35181 6.10459 3.34562 6.08015 3.3347C6.05596 3.32389 6.02091 3.30627 5.98007 3.27905L7.08947 1.61495ZM6.42211 1.37706C6.25117 1.35142 6.07853 1.339 5.90477 1.339V3.339C5.98302 3.339 6.05638 3.34458 6.12544 3.35494L6.42211 1.37706ZM5.90477 1.339C5.44757 1.339 4.99455 1.40546 4.58478 1.58536L5.38876 3.41664C5.471 3.38054 5.62998 3.339 5.90477 3.339V1.339ZM4.57641 1.58908C4.18576 1.76487 3.85227 2.02825 3.59612 2.37661L5.20742 3.56139C5.25128 3.50175 5.30778 3.45313 5.39714 3.41292L4.57641 1.58908ZM3.59612 2.37661C3.3815 2.6685 3.21206 2.99958 3.07844 3.35588L4.9511 4.05812C5.03349 3.83842 5.12205 3.6775 5.20742 3.56139L3.59612 2.37661ZM3.07219 3.37304L1.55119 7.66604L3.43636 8.33396L4.95736 4.04096L3.07219 3.37304ZM2.49377 7H1.42277V9H2.49377V7ZM3.86738 6.4114L4.15538 5.5294L2.25417 4.9086L1.96617 5.7906L3.86738 6.4114ZM3.20477 6.219H6.00377V4.219H3.20477V6.219ZM5.02205 5.02867L4.85105 5.91067L6.81449 6.29133L6.98549 5.40933L5.02205 5.02867ZM5.83277 5.101H2.91677V7.101H5.83277V5.101Z" fill="#579CE2" mask="url(#path-1-outside-1_134_2238)"/>
<mask id="path-3-outside-2_134_2238" maskUnits="userSpaceOnUse" x="3" y="2" width="13" height="13" fill="black">
<rect fill="white" x="3" y="2" width="13" height="13"/>
<path d="M5.33723 14L7.77323 7.168C7.96923 6.608 8.1979 6.118 8.45923 5.698C8.7299 5.278 9.04723 4.928 9.41123 4.648C9.78457 4.368 10.2279 4.158 10.7412 4.018C11.2546 3.878 11.8612 3.808 12.5612 3.808C12.8972 3.808 13.2286 3.82667 13.5552 3.864C13.8912 3.892 14.2319 3.948 14.5772 4.032V4.2C14.4839 4.48 14.3999 4.816 14.3252 5.208C14.2506 5.6 14.1852 5.936 14.1292 6.216L12.6172 14H11.2732L12.8972 5.656C12.9252 5.49733 12.9579 5.34333 12.9952 5.194C13.0419 5.03533 13.1119 4.89067 13.2052 4.76L13.3172 5.152C13.2332 5.096 13.0932 5.054 12.8972 5.026C12.7012 4.998 12.4959 4.984 12.2812 4.984C11.6652 4.984 11.1519 5.07733 10.7412 5.264C10.3399 5.44133 10.0132 5.70267 9.76123 6.048C9.50923 6.384 9.29457 6.79467 9.11723 7.28L6.73723 14H5.33723ZM7.54923 10.92L7.94123 9.744H12.3652L12.1412 10.92H7.54923Z"/>
</mask>
<path d="M5.33723 14L7.77323 7.168C7.96923 6.608 8.1979 6.118 8.45923 5.698C8.7299 5.278 9.04723 4.928 9.41123 4.648C9.78457 4.368 10.2279 4.158 10.7412 4.018C11.2546 3.878 11.8612 3.808 12.5612 3.808C12.8972 3.808 13.2286 3.82667 13.5552 3.864C13.8912 3.892 14.2319 3.948 14.5772 4.032V4.2C14.4839 4.48 14.3999 4.816 14.3252 5.208C14.2506 5.6 14.1852 5.936 14.1292 6.216L12.6172 14H11.2732L12.8972 5.656C12.9252 5.49733 12.9579 5.34333 12.9952 5.194C13.0419 5.03533 13.1119 4.89067 13.2052 4.76L13.3172 5.152C13.2332 5.096 13.0932 5.054 12.8972 5.026C12.7012 4.998 12.4959 4.984 12.2812 4.984C11.6652 4.984 11.1519 5.07733 10.7412 5.264C10.3399 5.44133 10.0132 5.70267 9.76123 6.048C9.50923 6.384 9.29457 6.79467 9.11723 7.28L6.73723 14H5.33723ZM7.54923 10.92L7.94123 9.744H12.3652L12.1412 10.92H7.54923Z" fill="url(#paint1_radial_134_2238)"/>
<path d="M5.33723 14L4.39532 13.6642L3.91901 15H5.33723V14ZM7.77323 7.168L8.71517 7.50385L8.71709 7.49835L7.77323 7.168ZM8.45923 5.698L7.61866 5.1563L7.61437 5.16296L7.61018 5.1697L8.45923 5.698ZM9.41123 4.648L8.81119 3.84794L8.80152 3.85538L9.41123 4.648ZM10.7412 4.018L10.4781 3.05324L10.4781 3.05324L10.7412 4.018ZM13.5552 3.864L13.4417 4.85753L13.4569 4.85927L13.4722 4.86055L13.5552 3.864ZM14.5772 4.032H15.5772V3.24608L14.8136 3.06033L14.5772 4.032ZM14.5772 4.2L15.5259 4.51623L15.5772 4.36228V4.2H14.5772ZM14.3252 5.208L15.3076 5.39511L15.3076 5.39511L14.3252 5.208ZM14.1292 6.216L13.1486 6.01988L13.1476 6.02532L14.1292 6.216ZM12.6172 14V15H13.4417L13.5989 14.1907L12.6172 14ZM11.2732 14L10.2917 13.809L10.0598 15H11.2732V14ZM12.8972 5.656L13.8788 5.84705L13.8805 5.83843L13.882 5.82978L12.8972 5.656ZM12.9952 5.194L12.0359 4.91183L12.0301 4.93154L12.0251 4.95146L12.9952 5.194ZM13.2052 4.76L14.1668 4.48528L12.3915 4.17876L13.2052 4.76ZM13.3172 5.152L12.7625 5.98405L14.2788 4.87728L13.3172 5.152ZM12.8972 5.026L13.0387 4.03605L13.0387 4.03605L12.8972 5.026ZM10.7412 5.264L11.1454 6.17874L11.155 6.17437L10.7412 5.264ZM9.76123 6.048L10.5613 6.64805L10.569 6.63747L9.76123 6.048ZM9.11723 7.28L8.17792 6.93679L8.17461 6.94615L9.11723 7.28ZM6.73723 14V15H7.44393L7.67986 14.3338L6.73723 14ZM7.54923 10.92L6.60055 10.6038L6.16181 11.92H7.54923V10.92ZM7.94123 9.744V8.744H7.22048L6.99255 9.42777L7.94123 9.744ZM12.3652 9.744L13.3476 9.93111L13.5737 8.744H12.3652V9.744ZM12.1412 10.92V11.92H12.9687L13.1236 11.1071L12.1412 10.92ZM6.27915 14.3358L8.71515 7.50385L6.83132 6.83215L4.39532 13.6642L6.27915 14.3358ZM8.71709 7.49835C8.89349 6.99436 9.0925 6.57311 9.30829 6.2263L7.61018 5.1697C7.3033 5.66289 7.04498 6.22163 6.82938 6.83765L8.71709 7.49835ZM9.29981 6.2397C9.51391 5.90747 9.75535 5.64492 10.0209 5.44062L8.80152 3.85538C8.33911 4.21107 7.94589 4.64853 7.61866 5.1563L9.29981 6.2397ZM10.0112 5.448C10.2705 5.25352 10.5958 5.09419 11.0044 4.98276L10.4781 3.05324C9.86001 3.22181 9.2986 3.48248 8.81124 3.848L10.0112 5.448ZM11.0044 4.98276C11.4099 4.87217 11.9239 4.808 12.5612 4.808V2.808C11.7986 2.808 11.0993 2.88383 10.4781 3.05324L11.0044 4.98276ZM12.5612 4.808C12.8601 4.808 13.1535 4.8246 13.4417 4.85753L13.6688 2.87047C13.3036 2.82873 12.9343 2.808 12.5612 2.808V4.808ZM13.4722 4.86055C13.7538 4.88401 14.0432 4.93127 14.3409 5.00367L14.8136 3.06033C14.4206 2.96473 14.0286 2.89998 13.6383 2.86745L13.4722 4.86055ZM13.5772 4.032V4.2H15.5772V4.032H13.5772ZM13.6286 3.88377C13.5172 4.21775 13.4232 4.59927 13.3429 5.02089L15.3076 5.39511C15.3766 5.03273 15.4506 4.74225 15.5259 4.51623L13.6286 3.88377ZM13.3429 5.02089C13.2686 5.41096 13.2039 5.74379 13.1487 6.01988L15.1098 6.41212C15.1666 6.12821 15.2325 5.78904 15.3076 5.39511L13.3429 5.02089ZM13.1476 6.02532L11.6356 13.8093L13.5989 14.1907L15.1109 6.40668L13.1476 6.02532ZM12.6172 13H11.2732V15H12.6172V13ZM12.2548 14.191L13.8788 5.84705L11.9157 5.46495L10.2917 13.809L12.2548 14.191ZM13.882 5.82978C13.9061 5.69313 13.934 5.5621 13.9654 5.43654L12.0251 4.95146C11.9818 5.12456 11.9443 5.30153 11.9125 5.48222L13.882 5.82978ZM13.9546 5.47617C13.9707 5.42137 13.9925 5.37832 14.019 5.34124L12.3915 4.17876C12.2313 4.40301 12.1131 4.6493 12.0359 4.91183L13.9546 5.47617ZM12.2437 5.03472L12.3557 5.42672L14.2788 4.87728L14.1668 4.48528L12.2437 5.03472ZM13.8719 4.31995C13.5937 4.13446 13.267 4.06867 13.0387 4.03605L12.7558 6.01595C12.787 6.0204 12.8114 6.02477 12.8298 6.0286C12.8484 6.03248 12.8586 6.03534 12.8619 6.03633C12.8655 6.0374 12.8582 6.03546 12.8429 6.02878C12.828 6.02228 12.7992 6.00848 12.7625 5.98405L13.8719 4.31995ZM13.0387 4.03605C12.7921 4.00083 12.5393 3.984 12.2812 3.984V5.984C12.4525 5.984 12.6104 5.99517 12.7558 6.01595L13.0387 4.03605ZM12.2812 3.984C11.5716 3.984 10.9064 4.09047 10.3274 4.35363L11.155 6.17437C11.3974 6.0642 11.7588 5.984 12.2812 5.984V3.984ZM10.3371 4.34931C9.77938 4.59573 9.31188 4.96733 8.95344 5.45853L10.569 6.63747C10.7146 6.438 10.9004 6.28693 11.1454 6.17869L10.3371 4.34931ZM8.96123 5.448C8.6388 5.87791 8.38149 6.37981 8.17797 6.93681L10.0565 7.62319C10.2076 7.20952 10.3797 6.89009 10.5612 6.648L8.96123 5.448ZM8.17461 6.94615L5.79461 13.6662L7.67986 14.3338L10.0599 7.61385L8.17461 6.94615ZM6.73723 13H5.33723V15H6.73723V13ZM8.49792 11.2362L8.88992 10.0602L6.99255 9.42777L6.60055 10.6038L8.49792 11.2362ZM7.94123 10.744H12.3652V8.744H7.94123V10.744ZM11.3829 9.55689L11.1589 10.7329L13.1236 11.1071L13.3476 9.93111L11.3829 9.55689ZM12.1412 9.92H7.54923V11.92H12.1412V9.92Z" fill="url(#paint2_linear_134_2238)" mask="url(#path-3-outside-2_134_2238)"/>
<circle cx="12.5" cy="12.5" r="3" fill="url(#paint3_radial_134_2238)" stroke="#BC4305"/>
<path fill-rule="evenodd" clip-rule="evenodd" d="M14 13H11V12H14V13Z" fill="white"/>
</g>
<defs>
<radialGradient id="paint0_radial_134_2238" cx="0" cy="0" r="1" gradientUnits="userSpaceOnUse" gradientTransform="translate(2.5 2) rotate(47.4896) scale(8.13941 8.87936)">
<stop stop-color="#C6E5F6"/>
<stop offset="1" stop-color="#8DC2EB"/>
</radialGradient>
<radialGradient id="paint1_radial_134_2238" cx="0" cy="0" r="1" gradientUnits="userSpaceOnUse" gradientTransform="translate(5 4) rotate(45) scale(12.7279 14.1421)">
<stop offset="0.328299" stop-color="#76B8EB"/>
<stop offset="1" stop-color="#377FDD"/>
</radialGradient>
<linearGradient id="paint2_linear_134_2238" x1="7" y1="5.81818" x2="12.6639" y2="15.4032" gradientUnits="userSpaceOnUse">
<stop stop-color="#2387DA"/>
<stop offset="1" stop-color="#1D58C6"/>
</linearGradient>
<radialGradient id="paint3_radial_134_2238" cx="0" cy="0" r="1" gradientUnits="userSpaceOnUse" gradientTransform="translate(11 11) rotate(45) scale(4.24264)">
<stop stop-color="#FFAF7D"/>
<stop offset="1" stop-color="#FF6D00"/>
</radialGradient>
<clipPath id="clip0_134_2238">
<rect width="16" height="16" fill="white"/>
</clipPath>
</defs>
</svg>
