<svg width="16" height="16" viewBox="0 0 16 16" fill="none" xmlns="http://www.w3.org/2000/svg">
<g clip-path="url(#clip0_410_6919)">
<mask id="path-1-inside-1_410_6919" fill="white">
<path d="M2.20312 7.10938C1.68229 7.10938 1.25521 6.96875 0.921875 6.6875C0.598958 6.39583 0.4375 6 0.4375 5.5C0.4375 5.15625 0.546875 4.84375 0.765625 4.5625C0.994792 4.28125 1.3125 4.04167 1.71875 3.84375C1.86458 3.77083 1.99479 3.71354 2.10938 3.67188C2.23438 3.61979 2.34896 3.57292 2.45312 3.53125C2.81771 3.41667 3.11979 3.32292 3.35938 3.25C3.60938 3.17708 3.78646 3.125 3.89062 3.09375C3.98438 3.04167 4.03125 2.95833 4.03125 2.84375V1.98438C4.03125 1.61979 3.94792 1.33333 3.78125 1.125C3.61458 0.916667 3.39062 0.8125 3.10938 0.8125C2.79688 0.8125 2.55208 0.911458 2.375 1.10938C2.19792 1.29688 2.10938 1.56771 2.10938 1.92188C2.10938 2.13021 2.03125 2.28646 1.875 2.39062C1.71875 2.48438 1.54167 2.53125 1.34375 2.53125C0.958333 2.53125 0.6875 2.40625 0.53125 2.15625C0.53125 1.90625 0.625 1.66146 0.8125 1.42188C1 1.17188 1.24479 0.947917 1.54688 0.75C1.85938 0.552083 2.20312 0.395833 2.57812 0.28125C2.95312 0.15625 3.32812 0.09375 3.70312 0.09375C4.34896 0.09375 4.83333 0.265625 5.15625 0.609375C5.47917 0.942708 5.64062 1.52083 5.64062 2.34375V5.42188C5.64062 5.84896 5.8125 6.0625 6.15625 6.0625C6.3125 6.0625 6.48958 5.99479 6.6875 5.85938C6.75 5.86979 6.78125 5.92708 6.78125 6.03125C6.78125 6.22917 6.75 6.38542 6.6875 6.5C6.53125 6.625 6.32292 6.75521 6.0625 6.89062C5.80208 7.02604 5.55208 7.09375 5.3125 7.09375C5.07292 7.09375 4.83854 7.00521 4.60938 6.82812C4.38021 6.65104 4.22917 6.45833 4.15625 6.25C4.07292 6.32292 4.01042 6.375 3.96875 6.40625C3.92708 6.4375 3.85938 6.48958 3.76562 6.5625C3.54688 6.70833 3.30729 6.83854 3.04688 6.95312C2.78646 7.05729 2.50521 7.10938 2.20312 7.10938ZM3 6.09375C3.28125 6.09375 3.52083 6.02083 3.71875 5.875C3.92708 5.72917 4.03125 5.5625 4.03125 5.375V3.78125L3.03125 4.125C2.79167 4.22917 2.57812 4.35417 2.39062 4.5C2.20312 4.64583 2.10938 4.85417 2.10938 5.125C2.10938 5.45833 2.19271 5.70312 2.35938 5.85938C2.52604 6.01562 2.73958 6.09375 3 6.09375Z"/>
</mask>
<path d="M2.20312 7.10938C1.68229 7.10938 1.25521 6.96875 0.921875 6.6875C0.598958 6.39583 0.4375 6 0.4375 5.5C0.4375 5.15625 0.546875 4.84375 0.765625 4.5625C0.994792 4.28125 1.3125 4.04167 1.71875 3.84375C1.86458 3.77083 1.99479 3.71354 2.10938 3.67188C2.23438 3.61979 2.34896 3.57292 2.45312 3.53125C2.81771 3.41667 3.11979 3.32292 3.35938 3.25C3.60938 3.17708 3.78646 3.125 3.89062 3.09375C3.98438 3.04167 4.03125 2.95833 4.03125 2.84375V1.98438C4.03125 1.61979 3.94792 1.33333 3.78125 1.125C3.61458 0.916667 3.39062 0.8125 3.10938 0.8125C2.79688 0.8125 2.55208 0.911458 2.375 1.10938C2.19792 1.29688 2.10938 1.56771 2.10938 1.92188C2.10938 2.13021 2.03125 2.28646 1.875 2.39062C1.71875 2.48438 1.54167 2.53125 1.34375 2.53125C0.958333 2.53125 0.6875 2.40625 0.53125 2.15625C0.53125 1.90625 0.625 1.66146 0.8125 1.42188C1 1.17188 1.24479 0.947917 1.54688 0.75C1.85938 0.552083 2.20312 0.395833 2.57812 0.28125C2.95312 0.15625 3.32812 0.09375 3.70312 0.09375C4.34896 0.09375 4.83333 0.265625 5.15625 0.609375C5.47917 0.942708 5.64062 1.52083 5.64062 2.34375V5.42188C5.64062 5.84896 5.8125 6.0625 6.15625 6.0625C6.3125 6.0625 6.48958 5.99479 6.6875 5.85938C6.75 5.86979 6.78125 5.92708 6.78125 6.03125C6.78125 6.22917 6.75 6.38542 6.6875 6.5C6.53125 6.625 6.32292 6.75521 6.0625 6.89062C5.80208 7.02604 5.55208 7.09375 5.3125 7.09375C5.07292 7.09375 4.83854 7.00521 4.60938 6.82812C4.38021 6.65104 4.22917 6.45833 4.15625 6.25C4.07292 6.32292 4.01042 6.375 3.96875 6.40625C3.92708 6.4375 3.85938 6.48958 3.76562 6.5625C3.54688 6.70833 3.30729 6.83854 3.04688 6.95312C2.78646 7.05729 2.50521 7.10938 2.20312 7.10938ZM3 6.09375C3.28125 6.09375 3.52083 6.02083 3.71875 5.875C3.92708 5.72917 4.03125 5.5625 4.03125 5.375V3.78125L3.03125 4.125C2.79167 4.22917 2.57812 4.35417 2.39062 4.5C2.20312 4.64583 2.10938 4.85417 2.10938 5.125C2.10938 5.45833 2.19271 5.70312 2.35938 5.85938C2.52604 6.01562 2.73958 6.09375 3 6.09375Z" fill="url(#paint0_linear_410_6919)"/>
<path d="M0.921875 6.6875L0.251589 7.4296L0.264109 7.44091L0.277004 7.45179L0.921875 6.6875ZM0.765625 4.5625L-0.00960999 3.93083L-0.0167691 3.93961L-0.0237272 3.94856L0.765625 4.5625ZM1.71875 3.84375L2.15674 4.74279L2.16596 4.73818L1.71875 3.84375ZM2.10938 3.67188L2.45112 4.61167L2.47275 4.6038L2.49399 4.59495L2.10938 3.67188ZM2.45312 3.53125L2.1533 2.57726L2.11703 2.58865L2.08173 2.60277L2.45312 3.53125ZM3.35938 3.25L3.07936 2.28994L3.06821 2.29333L3.35938 3.25ZM3.89062 3.09375L4.17797 4.05158L4.28165 4.02047L4.37627 3.96791L3.89062 3.09375ZM2.375 1.10938L3.10201 1.796L3.11126 1.78621L3.12024 1.77617L2.375 1.10938ZM1.875 2.39062L2.3895 3.24812L2.4099 3.23588L2.4297 3.22268L1.875 2.39062ZM0.53125 2.15625H-0.46875V2.44305L-0.316748 2.68625L0.53125 2.15625ZM0.8125 1.42188L1.60001 2.03818L1.60634 2.03009L1.6125 2.02188L0.8125 1.42188ZM1.54688 0.75L1.01182 -0.0948191L1.0053 -0.0906901L0.998849 -0.0864611L1.54688 0.75ZM2.57812 0.28125L2.87034 1.2376L2.8824 1.23392L2.89435 1.22993L2.57812 0.28125ZM5.15625 0.609375L4.4274 1.29405L4.43266 1.29965L4.43801 1.30517L5.15625 0.609375ZM6.6875 5.85938L6.8519 4.87298L6.45494 4.80682L6.12282 5.03407L6.6875 5.85938ZM6.6875 6.5L7.31219 7.28087L7.46915 7.15531L7.5654 6.97885L6.6875 6.5ZM4.15625 6.25L5.10011 5.91965L4.6113 4.52306L3.49775 5.49742L4.15625 6.25ZM3.96875 6.40625L3.36875 5.60625L3.96875 6.40625ZM3.76562 6.5625L4.32033 7.39455L4.35073 7.37428L4.37957 7.35185L3.76562 6.5625ZM3.04688 6.95312L3.41827 7.8816L3.43405 7.87529L3.44961 7.86844L3.04688 6.95312ZM3.71875 5.875L3.14529 5.05577L3.13533 5.06274L3.12555 5.06994L3.71875 5.875ZM4.03125 3.78125H5.03125V2.38007L3.70617 2.83556L4.03125 3.78125ZM3.03125 4.125L2.70617 3.17931L2.66878 3.19217L2.63252 3.20793L3.03125 4.125ZM2.20312 6.10938C1.8704 6.10938 1.68615 6.02395 1.56675 5.92321L0.277004 7.45179C0.82427 7.91355 1.49419 8.10938 2.20312 8.10938V6.10938ZM1.59216 5.9454C1.51136 5.87241 1.4375 5.76363 1.4375 5.5H-0.5625C-0.5625 6.23637 -0.313439 6.91926 0.251589 7.4296L1.59216 5.9454ZM1.4375 5.5C1.4375 5.38722 1.46738 5.28907 1.55498 5.17644L-0.0237272 3.94856C-0.37363 4.39843 -0.5625 4.92528 -0.5625 5.5H1.4375ZM1.54086 5.19417C1.6587 5.04955 1.84977 4.89228 2.15672 4.74274L1.28078 2.94476C0.775227 3.19106 0.330887 3.51295 -0.00960999 3.93083L1.54086 5.19417ZM2.16596 4.73818C2.28816 4.67708 2.38219 4.63673 2.45112 4.61167L1.76763 2.73208C1.60739 2.79035 1.441 2.86459 1.27154 2.94932L2.16596 4.73818ZM2.49399 4.59495C2.61546 4.54434 2.72556 4.49931 2.82452 4.45973L2.08173 2.60277C1.97236 2.64652 1.85329 2.69524 1.72476 2.7488L2.49399 4.59495ZM2.75295 4.48524C3.11598 4.37115 3.41492 4.27838 3.65054 4.20667L3.06821 2.29333C2.82466 2.36745 2.51944 2.46218 2.1533 2.57726L2.75295 4.48524ZM3.63937 4.21C3.8894 4.13708 4.06976 4.08404 4.17797 4.05158L3.60328 2.13592C3.50315 2.16596 3.32935 2.21709 3.07938 2.29L3.63937 4.21ZM4.37627 3.96791C4.5646 3.86328 4.74286 3.70433 4.86767 3.48245C4.99055 3.26399 5.03125 3.03873 5.03125 2.84375H3.03125C3.03125 2.76335 3.04851 2.63705 3.12452 2.50193C3.20245 2.36338 3.3104 2.27214 3.40498 2.21959L4.37627 3.96791ZM5.03125 2.84375V1.98438H3.03125V2.84375H5.03125ZM5.03125 1.98438C5.03125 1.4753 4.91481 0.941175 4.56212 0.500305L3.00038 1.74969C2.98102 1.72549 3.03125 1.76428 3.03125 1.98438H5.03125ZM4.56212 0.500305C4.19412 0.040309 3.67541 -0.1875 3.10938 -0.1875V1.8125C3.12452 1.8125 3.10385 1.8147 3.06655 1.79735C3.04918 1.78927 3.03357 1.77936 3.02081 1.76915C3.00828 1.75913 3.00179 1.75146 3.00038 1.74969L4.56212 0.500305ZM3.10938 -0.1875C2.5675 -0.1875 2.03044 -0.0052371 1.62976 0.44258L3.12024 1.77617C3.11535 1.78163 3.10722 1.7894 3.096 1.7973C3.08476 1.80521 3.07417 1.8106 3.0662 1.81383C3.04978 1.82046 3.05844 1.8125 3.10938 1.8125V-0.1875ZM1.64799 0.422751C1.23893 0.855866 1.10938 1.40895 1.10938 1.92188H3.10938C3.10938 1.82578 3.12165 1.77802 3.12628 1.76386C3.12955 1.75384 3.12499 1.77167 3.10201 1.796L1.64799 0.422751ZM1.10938 1.92188C1.10938 1.90044 1.11385 1.83311 1.15635 1.7481C1.20093 1.65895 1.26484 1.59555 1.3203 1.55857L2.4297 3.22268C2.89816 2.91037 3.10938 2.42151 3.10938 1.92188H1.10938ZM1.3605 1.53313C1.36152 1.53252 1.36317 1.53164 1.36521 1.53078C1.36724 1.52993 1.36868 1.5295 1.36911 1.52939C1.37048 1.52903 1.36323 1.53125 1.34375 1.53125V3.53125C1.70676 3.53125 2.06454 3.44309 2.3895 3.24812L1.3605 1.53313ZM1.34375 1.53125C1.25511 1.53125 1.24219 1.51642 1.27062 1.52954C1.28592 1.5366 1.30729 1.54918 1.32972 1.56887C1.35222 1.58863 1.36864 1.60928 1.37925 1.62625L-0.316748 2.68625C0.0777682 3.31748 0.733243 3.53125 1.34375 3.53125V1.53125ZM1.53125 2.15625C1.53125 2.15637 1.53125 2.15613 1.53125 2.15625C1.53125 2.15613 1.53125 2.15637 1.53125 2.15625C1.53125 2.15625 1.53125 2.15625 1.53125 2.15625C1.53125 2.15625 1.53125 2.15626 1.53125 2.15626C1.53125 2.15627 1.53125 2.15628 1.53125 2.15629C1.53125 2.15631 1.53125 2.15635 1.53125 2.15638C1.53124 2.15646 1.53124 2.15653 1.53123 2.15657C1.53122 2.15669 1.53123 2.1565 1.53135 2.15589C1.53154 2.15488 1.53241 2.15067 1.53542 2.1428C1.54148 2.12698 1.55802 2.09183 1.60001 2.03818L0.024995 0.805567C-0.26945 1.1818 -0.46875 1.63762 -0.46875 2.15625H1.53125ZM1.6125 2.02188C1.72045 1.87794 1.87503 1.73051 2.0949 1.58646L0.998849 -0.0864611C0.614548 0.165321 0.279549 0.465809 0.0125 0.821875L1.6125 2.02188ZM2.08193 1.59482C2.31443 1.44756 2.57578 1.32761 2.87034 1.2376L2.28591 -0.675102C1.83047 -0.53594 1.40432 -0.343398 1.01182 -0.0948191L2.08193 1.59482ZM2.89435 1.22993C3.17293 1.13707 3.4413 1.09375 3.70312 1.09375V-0.90625C3.21495 -0.90625 2.73332 -0.824573 2.2619 -0.667433L2.89435 1.22993ZM3.70312 1.09375C4.17827 1.09375 4.35522 1.21721 4.4274 1.29405L5.8851 -0.0753007C5.31145 -0.685957 4.51965 -0.90625 3.70312 -0.90625V1.09375ZM4.43801 1.30517C4.48353 1.35216 4.64062 1.59675 4.64062 2.34375H6.64062C6.64062 1.44492 6.4748 0.533258 5.87449 -0.0864201L4.43801 1.30517ZM4.64062 2.34375V5.42188H6.64062V2.34375H4.64062ZM4.64062 5.42188C4.64062 5.74333 4.70102 6.16967 4.99052 6.52935C5.31341 6.93052 5.76577 7.0625 6.15625 7.0625V5.0625C6.17207 5.0625 6.23184 5.06482 6.31329 5.09856C6.40086 5.13482 6.48441 5.19565 6.54854 5.27533C6.66617 5.42148 6.64062 5.5275 6.64062 5.42188H4.64062ZM6.15625 7.0625C6.59535 7.0625 6.97087 6.87716 7.25218 6.68468L6.12282 5.03407C6.0984 5.05077 6.07972 5.06189 6.06669 5.06895C6.05362 5.07603 6.04784 5.07815 6.04911 5.07767C6.05097 5.07696 6.08933 5.0625 6.15625 5.0625V7.0625ZM6.5231 6.84577C6.4015 6.8255 6.26787 6.77682 6.14302 6.68666C6.019 6.59708 5.93434 6.48879 5.87992 6.38901C5.78132 6.20825 5.78125 6.05682 5.78125 6.03125H7.78125C7.78125 5.90151 7.76555 5.66935 7.63571 5.4313C7.47803 5.14224 7.19678 4.93046 6.8519 4.87298L6.5231 6.84577ZM5.78125 6.03125C5.78125 6.05462 5.78032 6.07199 5.77926 6.08398C5.7782 6.09601 5.77713 6.10127 5.77723 6.10076C5.77733 6.10025 5.7789 6.09253 5.78353 6.07914C5.78819 6.06567 5.79627 6.04559 5.8096 6.02115L7.5654 6.97885C7.73892 6.66073 7.78125 6.31721 7.78125 6.03125H5.78125ZM6.06281 5.71913C5.97496 5.78941 5.82789 5.8855 5.60115 6.00341L6.52385 7.77784C6.81794 7.62492 7.08754 7.46059 7.31219 7.28087L6.06281 5.71913ZM5.60115 6.00341C5.45159 6.08118 5.35925 6.09375 5.3125 6.09375V8.09375C5.74492 8.09375 6.15257 7.97091 6.52385 7.77784L5.60115 6.00341ZM5.3125 6.09375C5.31891 6.09375 5.31991 6.09545 5.31043 6.09187C5.29907 6.08758 5.26896 6.07403 5.22082 6.03684L3.99793 7.61941C4.36455 7.90271 4.80833 8.09375 5.3125 8.09375V6.09375ZM5.22082 6.03684C5.09775 5.94174 5.092 5.8965 5.10011 5.91965L3.21239 6.58035C3.36633 7.02017 3.66267 7.36034 3.99793 7.61941L5.22082 6.03684ZM3.49775 5.49742C3.46013 5.53033 3.43003 5.55608 3.40669 5.57553C3.39512 5.58517 3.38605 5.59257 3.37921 5.59804C3.37584 5.60073 3.37326 5.60276 3.37141 5.6042C3.36954 5.60566 3.36869 5.6063 3.36875 5.60625L4.56875 7.20625C4.64239 7.15102 4.72861 7.07796 4.81475 7.00258L3.49775 5.49742ZM3.36875 5.60625C3.31947 5.64321 3.24574 5.69999 3.15168 5.77315L4.37957 7.35185C4.47301 7.27918 4.5347 7.23179 4.56875 7.20625L3.36875 5.60625ZM3.21092 5.73045C3.04407 5.84169 2.85587 5.94465 2.64414 6.03781L3.44961 7.86844C3.75871 7.73244 4.04968 7.57498 4.32033 7.39455L3.21092 5.73045ZM2.67548 6.02465C2.54203 6.07803 2.38787 6.10938 2.20312 6.10938V8.10938C2.62255 8.10938 3.03089 8.03655 3.41827 7.8816L2.67548 6.02465ZM3 7.09375C3.46271 7.09375 3.91808 6.97028 4.31195 6.68006L3.12555 5.06994C3.12359 5.07139 3.09979 5.09375 3 5.09375V7.09375ZM4.29221 6.69423C4.66392 6.43403 5.03125 5.99789 5.03125 5.375H3.03125C3.03125 5.27208 3.0629 5.17819 3.10513 5.11063C3.1418 5.05195 3.17036 5.03822 3.14529 5.05577L4.29221 6.69423ZM5.03125 5.375V3.78125H3.03125V5.375H5.03125ZM3.70617 2.83556L2.70617 3.17931L3.35633 5.07069L4.35633 4.72694L3.70617 2.83556ZM2.63252 3.20793C2.3237 3.3422 2.0365 3.50857 1.77668 3.71065L3.00457 5.28935C3.11975 5.19976 3.25963 5.11613 3.42998 5.04207L2.63252 3.20793ZM1.77668 3.71065C1.30931 4.07416 1.10938 4.59465 1.10938 5.125H3.10938C3.10938 5.10517 3.11255 5.12945 3.09161 5.17599C3.06885 5.22657 3.03426 5.26625 3.00457 5.28935L1.77668 3.71065ZM1.10938 5.125C1.10938 5.60669 1.22962 6.17096 1.67543 6.58891L3.04332 5.12984C3.06716 5.15219 3.0855 5.17554 3.09862 5.19658C3.11145 5.21716 3.11699 5.23183 3.11852 5.23633C3.11993 5.24047 3.11749 5.23462 3.11477 5.21573C3.11204 5.19677 3.10938 5.16713 3.10938 5.125H1.10938ZM1.67543 6.58891C2.0536 6.94344 2.52379 7.09375 3 7.09375V5.09375C2.97021 5.09375 2.97007 5.08943 2.98811 5.09603C2.99677 5.0992 3.00712 5.10401 3.01791 5.11066C3.02869 5.1173 3.03725 5.12415 3.04332 5.12984L1.67543 6.58891Z" fill="url(#paint1_linear_410_6919)" mask="url(#path-1-inside-1_410_6919)"/>
<mask id="path-4-inside-2_410_6919" fill="white">
<path d="M4.82422 16.0527C4.80078 15.9824 4.78906 15.9414 4.78906 15.9297C4.78906 15.6602 4.82422 15.5254 4.89453 15.5254C4.98828 15.5254 5.12305 15.502 5.29883 15.4551C5.47461 15.3965 5.64453 15.3262 5.80859 15.2441C5.98438 15.1504 6.10156 15.0625 6.16016 14.9805C6.24219 14.8867 6.35352 14.7285 6.49414 14.5059C6.64648 14.2715 6.82812 13.9727 7.03906 13.6094L11.9082 5.27734C12.2832 4.64453 12.5879 4.32812 12.8223 4.32812C12.8926 4.32812 12.9512 4.35156 12.998 4.39844L14.6504 13.6094L14.8965 14.8926C14.9199 15.0098 14.9902 15.1152 15.1074 15.209C15.2363 15.3027 15.3711 15.3789 15.5117 15.4375C15.6641 15.4961 15.7754 15.5254 15.8457 15.5254C15.8691 15.5254 15.8809 15.5605 15.8809 15.6309C15.8809 15.8301 15.8574 15.9707 15.8105 16.0527L13.8066 15.9473C13.6777 15.9473 12.9453 15.9824 11.6094 16.0527C11.5977 16.041 11.5918 16.0059 11.5918 15.9473C11.5918 15.666 11.627 15.5254 11.6973 15.5254C11.8145 15.5254 11.9902 15.4844 12.2246 15.4023C12.459 15.3086 12.6055 15.2148 12.6641 15.1211C12.7344 14.9805 12.7695 14.8047 12.7695 14.5938C12.7695 14.5352 12.7402 14.3008 12.6816 13.8906C12.623 13.4688 12.5352 12.8652 12.418 12.0801C12.418 12.0215 12.3887 11.9922 12.3301 11.9922C12.1191 11.957 11.5684 11.9395 10.6777 11.9395C10.2441 11.9395 9.69336 11.957 9.02539 11.9922C8.9668 11.9922 8.93164 12.0156 8.91992 12.0625C8.9082 12.0859 8.82031 12.2207 8.65625 12.4668C8.50391 12.7129 8.32812 13.0059 8.12891 13.3457C7.92969 13.6738 7.75391 13.9902 7.60156 14.2949C7.44922 14.5879 7.37305 14.8047 7.37305 14.9453C7.37305 15.0625 7.4375 15.168 7.56641 15.2617C7.70703 15.3438 7.85938 15.4082 8.02344 15.4551C8.19922 15.502 8.33398 15.5254 8.42773 15.5254C8.45117 15.5254 8.46289 15.5547 8.46289 15.6133C8.46289 15.7656 8.42773 15.9121 8.35742 16.0527C8.22852 16.041 7.99414 16.0234 7.6543 16C7.32617 15.9648 7.02148 15.9473 6.74023 15.9473C6.55273 15.9473 6.32422 15.959 6.05469 15.9824C5.79688 15.9941 5.55078 16.0059 5.31641 16.0176C5.09375 16.0293 4.92969 16.041 4.82422 16.0527ZM10.8887 10.9902C11.2285 10.9902 11.6504 10.9727 12.1543 10.9375C12.2012 10.9375 12.2246 10.9141 12.2246 10.8672L11.9258 9.05664C11.8438 8.57617 11.7793 8.19531 11.7324 7.91406C11.6855 7.62109 11.6562 7.43359 11.6445 7.35156L9.60547 10.9375C9.95703 10.9727 10.3848 10.9902 10.8887 10.9902Z"/>
</mask>
<path d="M4.82422 16.0527C4.80078 15.9824 4.78906 15.9414 4.78906 15.9297C4.78906 15.6602 4.82422 15.5254 4.89453 15.5254C4.98828 15.5254 5.12305 15.502 5.29883 15.4551C5.47461 15.3965 5.64453 15.3262 5.80859 15.2441C5.98438 15.1504 6.10156 15.0625 6.16016 14.9805C6.24219 14.8867 6.35352 14.7285 6.49414 14.5059C6.64648 14.2715 6.82812 13.9727 7.03906 13.6094L11.9082 5.27734C12.2832 4.64453 12.5879 4.32812 12.8223 4.32812C12.8926 4.32812 12.9512 4.35156 12.998 4.39844L14.6504 13.6094L14.8965 14.8926C14.9199 15.0098 14.9902 15.1152 15.1074 15.209C15.2363 15.3027 15.3711 15.3789 15.5117 15.4375C15.6641 15.4961 15.7754 15.5254 15.8457 15.5254C15.8691 15.5254 15.8809 15.5605 15.8809 15.6309C15.8809 15.8301 15.8574 15.9707 15.8105 16.0527L13.8066 15.9473C13.6777 15.9473 12.9453 15.9824 11.6094 16.0527C11.5977 16.041 11.5918 16.0059 11.5918 15.9473C11.5918 15.666 11.627 15.5254 11.6973 15.5254C11.8145 15.5254 11.9902 15.4844 12.2246 15.4023C12.459 15.3086 12.6055 15.2148 12.6641 15.1211C12.7344 14.9805 12.7695 14.8047 12.7695 14.5938C12.7695 14.5352 12.7402 14.3008 12.6816 13.8906C12.623 13.4688 12.5352 12.8652 12.418 12.0801C12.418 12.0215 12.3887 11.9922 12.3301 11.9922C12.1191 11.957 11.5684 11.9395 10.6777 11.9395C10.2441 11.9395 9.69336 11.957 9.02539 11.9922C8.9668 11.9922 8.93164 12.0156 8.91992 12.0625C8.9082 12.0859 8.82031 12.2207 8.65625 12.4668C8.50391 12.7129 8.32812 13.0059 8.12891 13.3457C7.92969 13.6738 7.75391 13.9902 7.60156 14.2949C7.44922 14.5879 7.37305 14.8047 7.37305 14.9453C7.37305 15.0625 7.4375 15.168 7.56641 15.2617C7.70703 15.3438 7.85938 15.4082 8.02344 15.4551C8.19922 15.502 8.33398 15.5254 8.42773 15.5254C8.45117 15.5254 8.46289 15.5547 8.46289 15.6133C8.46289 15.7656 8.42773 15.9121 8.35742 16.0527C8.22852 16.041 7.99414 16.0234 7.6543 16C7.32617 15.9648 7.02148 15.9473 6.74023 15.9473C6.55273 15.9473 6.32422 15.959 6.05469 15.9824C5.79688 15.9941 5.55078 16.0059 5.31641 16.0176C5.09375 16.0293 4.92969 16.041 4.82422 16.0527ZM10.8887 10.9902C11.2285 10.9902 11.6504 10.9727 12.1543 10.9375C12.2012 10.9375 12.2246 10.9141 12.2246 10.8672L11.9258 9.05664C11.8438 8.57617 11.7793 8.19531 11.7324 7.91406C11.6855 7.62109 11.6562 7.43359 11.6445 7.35156L9.60547 10.9375C9.95703 10.9727 10.3848 10.9902 10.8887 10.9902Z" fill="url(#paint2_linear_410_6919)"/>
<path d="M4.82422 16.0527L3.87554 16.369L4.13118 17.1359L4.93465 17.0466L4.82422 16.0527ZM5.29883 15.4551L5.55649 16.4213L5.58604 16.4134L5.61506 16.4038L5.29883 15.4551ZM5.80859 15.2441L6.25581 16.1386L6.26757 16.1327L6.27918 16.1265L5.80859 15.2441ZM6.16016 14.9805L5.40758 14.322L5.3751 14.3591L5.34642 14.3992L6.16016 14.9805ZM6.49414 14.5059L5.65563 13.9608L5.64865 13.9719L6.49414 14.5059ZM7.03906 13.6094L6.17568 13.1048L6.17427 13.1072L7.03906 13.6094ZM11.9082 5.27734L11.0479 4.76753L11.0448 4.77279L11.9082 5.27734ZM12.998 4.39844L13.9823 4.22187L13.927 3.91313L13.7052 3.69133L12.998 4.39844ZM14.6504 13.6094L13.666 13.786L13.6683 13.7977L14.6504 13.6094ZM14.8965 14.8926L13.9144 15.0809L13.9159 15.0887L14.8965 14.8926ZM15.1074 15.209L14.4827 15.9899L14.5007 16.0042L14.5192 16.0177L15.1074 15.209ZM15.5117 15.4375L15.1271 16.3606L15.1399 16.3659L15.1527 16.3708L15.5117 15.4375ZM15.8105 16.0527L15.758 17.0514L16.3732 17.0837L16.6788 16.5489L15.8105 16.0527ZM13.8066 15.9473L13.8592 14.9486L13.8329 14.9473H13.8066V15.9473ZM11.6094 16.0527L10.9023 16.7598L11.2172 17.0748L11.6619 17.0514L11.6094 16.0527ZM12.2246 15.4023L12.555 16.3462L12.5756 16.339L12.596 16.3308L12.2246 15.4023ZM12.6641 15.1211L13.5121 15.6511L13.5372 15.6108L13.5585 15.5683L12.6641 15.1211ZM12.6816 13.8906L11.6911 14.0282L11.6917 14.032L12.6816 13.8906ZM12.418 12.0801H11.418V12.1543L11.4289 12.2277L12.418 12.0801ZM12.3301 11.9922L12.1657 12.9786L12.2473 12.9922H12.3301V11.9922ZM9.02539 11.9922V12.9922H9.05169L9.07795 12.9908L9.02539 11.9922ZM8.91992 12.0625L9.81435 12.5097L9.86344 12.4115L9.89006 12.305L8.91992 12.0625ZM8.65625 12.4668L7.8242 11.9121L7.81485 11.9261L7.80598 11.9404L8.65625 12.4668ZM8.12891 13.3457L8.98369 13.8647L8.9877 13.8581L8.9916 13.8514L8.12891 13.3457ZM7.60156 14.2949L8.48878 14.7563L8.49244 14.7492L8.49599 14.7421L7.60156 14.2949ZM7.56641 15.2617L6.97823 16.0705L7.019 16.1001L7.06254 16.1255L7.56641 15.2617ZM8.02344 15.4551L7.74872 16.4166L7.75722 16.419L7.76577 16.4213L8.02344 15.4551ZM8.35742 16.0527L8.26689 17.0486L8.94661 17.1104L9.25185 16.4999L8.35742 16.0527ZM7.6543 16L7.54776 16.9943L7.5666 16.9963L7.58549 16.9976L7.6543 16ZM6.05469 15.9824L6.1001 16.9814L6.12073 16.9805L6.14132 16.9787L6.05469 15.9824ZM5.31641 16.0176L5.26647 15.0188L5.26385 15.019L5.31641 16.0176ZM12.1543 10.9375V9.9375H12.1195L12.0847 9.93993L12.1543 10.9375ZM12.2246 10.8672H13.2246V10.7852L13.2113 10.7043L12.2246 10.8672ZM11.9258 9.05664L12.9124 8.89379L12.9115 8.88834L11.9258 9.05664ZM11.7324 7.91406L10.745 8.07206L10.746 8.07846L11.7324 7.91406ZM11.6445 7.35156L12.6345 7.21014L12.2209 4.31493L10.7752 6.85726L11.6445 7.35156ZM9.60547 10.9375L8.73618 10.4432L7.97628 11.7796L9.50597 11.9325L9.60547 10.9375ZM5.7729 15.7365C5.76829 15.7227 5.76487 15.7121 5.76242 15.7044C5.75987 15.6963 5.75905 15.6934 5.75938 15.6945C5.75958 15.6952 5.7604 15.6981 5.76162 15.7028C5.76277 15.7072 5.76491 15.7156 5.76745 15.727C5.76976 15.7374 5.77398 15.7574 5.77798 15.7834C5.78005 15.7968 5.78258 15.8153 5.7847 15.8374C5.78672 15.8587 5.78906 15.8907 5.78906 15.9297H3.78906C3.78906 16.0522 3.81287 16.151 3.81507 16.1609C3.82257 16.1946 3.83067 16.2241 3.83633 16.244C3.84802 16.2849 3.86204 16.3285 3.87554 16.369L5.7729 15.7365ZM5.78906 15.9297C5.78906 15.8165 5.79862 15.8192 5.78305 15.8789C5.77635 15.9046 5.74356 16.0294 5.63589 16.167C5.5052 16.334 5.25166 16.5254 4.89453 16.5254V14.5254C4.50224 14.5254 4.21795 14.7337 4.06088 14.9344C3.92685 15.1056 3.87209 15.281 3.84781 15.374C3.79708 15.5685 3.78906 15.7734 3.78906 15.9297H5.78906ZM4.89453 16.5254C5.12258 16.5254 5.35977 16.4738 5.55649 16.4213L5.04117 14.4888C4.9731 14.507 4.92527 14.5173 4.89458 14.5226C4.86055 14.5285 4.86443 14.5254 4.89453 14.5254V16.5254ZM5.61506 16.4038C5.83527 16.3304 6.04899 16.242 6.25581 16.1386L5.36138 14.3497C5.24007 14.4104 5.11395 14.4626 4.9826 14.5064L5.61506 16.4038ZM6.27918 16.1265C6.48321 16.0177 6.77462 15.8407 6.97389 15.5617L5.34642 14.3992C5.37358 14.3612 5.39735 14.3365 5.4102 14.3241C5.42336 14.3114 5.43059 14.3062 5.42832 14.3079C5.42631 14.3094 5.41829 14.3152 5.4025 14.325C5.38688 14.3347 5.36569 14.347 5.33801 14.3618L6.27918 16.1265ZM6.91273 15.639C7.04907 15.4832 7.19477 15.2692 7.33963 15.0399L5.64865 13.9719C5.51227 14.1878 5.43531 14.2903 5.40758 14.322L6.91273 15.639ZM7.33258 15.0508C7.49737 14.7973 7.68822 14.4829 7.90385 14.1115L6.17427 13.1072C5.96803 13.4624 5.7956 13.7456 5.6557 13.9609L7.33258 15.0508ZM7.90244 14.1139L12.7716 5.78189L11.0448 4.77279L6.17568 13.1048L7.90244 14.1139ZM12.7685 5.78715C12.9392 5.49909 13.0634 5.33683 13.1383 5.25907C13.1746 5.22136 13.1755 5.22873 13.1395 5.24987C13.103 5.27132 12.9914 5.32812 12.8223 5.32812V3.32812C12.2756 3.32812 11.89 3.672 11.6976 3.87179C11.4678 4.11043 11.2522 4.42278 11.0479 4.76754L12.7685 5.78715ZM12.8223 5.32812C12.7447 5.32812 12.6491 5.31481 12.5476 5.27418C12.4448 5.23308 12.3583 5.17295 12.2909 5.10554L13.7052 3.69133C13.4585 3.44466 13.1399 3.32812 12.8223 3.32812V5.32812ZM12.0138 4.57501L13.6661 13.7859L15.6347 13.4328L13.9823 4.22187L12.0138 4.57501ZM13.6683 13.7977L13.9144 15.0809L15.8786 14.7042L15.6325 13.421L13.6683 13.7977ZM13.9159 15.0887C13.9963 15.4908 14.2301 15.7878 14.4827 15.9899L15.7321 14.4281C15.7395 14.434 15.7676 14.4579 15.7988 14.5049C15.8317 14.5541 15.8616 14.6193 15.8771 14.6965L13.9159 15.0887ZM14.5192 16.0177C14.7084 16.1553 14.9111 16.2706 15.1271 16.3606L15.8963 14.5144C15.831 14.4872 15.7643 14.4502 15.6956 14.4002L14.5192 16.0177ZM15.1527 16.3708C15.3079 16.4305 15.5726 16.5254 15.8457 16.5254V14.5254C15.8712 14.5254 15.8923 14.5267 15.9079 14.5281C15.9237 14.5296 15.9361 14.5313 15.9445 14.5327C15.9606 14.5353 15.9678 14.5374 15.964 14.5363C15.9606 14.5355 15.9511 14.5328 15.9345 14.5273C15.9181 14.5218 15.897 14.5143 15.8707 14.5042L15.1527 16.3708ZM15.8457 16.5254C15.569 16.5254 15.3245 16.4096 15.154 16.2391C15.008 16.0931 14.9474 15.9401 14.9234 15.868C14.8968 15.7882 14.8881 15.7247 14.8848 15.6951C14.8811 15.6621 14.8809 15.6391 14.8809 15.6309H16.8809C16.8809 15.5665 16.8787 15.4094 16.8208 15.2355C16.7713 15.0873 16.5217 14.5254 15.8457 14.5254V16.5254ZM14.8809 15.6309C14.8809 15.6614 14.8799 15.6843 14.8788 15.7005C14.8777 15.7169 14.8766 15.7232 14.8769 15.7213C14.8771 15.7199 14.8797 15.7045 14.8877 15.6791C14.8956 15.6543 14.9116 15.6103 14.9423 15.5566L16.6788 16.5489C16.8651 16.2229 16.8809 15.8509 16.8809 15.6309H14.8809ZM15.8631 15.0541L13.8592 14.9486L13.7541 16.9459L15.758 17.0514L15.8631 15.0541ZM13.8066 14.9473C13.6432 14.9473 12.8695 14.985 11.5568 15.0541L11.6619 17.0514C12.3294 17.0162 12.8447 16.99 13.2086 16.9725C13.3907 16.9637 13.5334 16.9573 13.6376 16.953C13.6898 16.9509 13.7308 16.9494 13.7614 16.9484C13.7951 16.9474 13.8073 16.9473 13.8066 16.9473V14.9473ZM12.3165 15.3456C12.4526 15.4818 12.5133 15.6225 12.538 15.6884C12.5658 15.7625 12.5775 15.8227 12.5826 15.8532C12.5882 15.8868 12.5902 15.912 12.5909 15.9244C12.5918 15.9378 12.5918 15.9459 12.5918 15.9473H10.5918C10.5918 16.0014 10.5939 16.0867 10.6098 16.182C10.6154 16.2154 10.6549 16.5125 10.9023 16.7598L12.3165 15.3456ZM12.5918 15.9473C12.5918 15.8271 12.6013 15.8213 12.5883 15.8734C12.5831 15.8943 12.5533 16.0155 12.4511 16.1518C12.3278 16.3162 12.0725 16.5254 11.6973 16.5254V14.5254C11.2868 14.5254 11.0008 14.7522 10.8511 14.9518C10.7226 15.1232 10.6708 15.2971 10.648 15.3883C10.5998 15.581 10.5918 15.7862 10.5918 15.9473H12.5918ZM11.6973 16.5254C11.9945 16.5254 12.306 16.4333 12.555 16.3462L11.8943 14.4585C11.7993 14.4917 11.7326 14.5108 11.6898 14.5208C11.669 14.5256 11.6587 14.5272 11.6575 14.5274C11.6555 14.5276 11.67 14.5254 11.6973 14.5254V16.5254ZM12.596 16.3308C12.748 16.27 12.9052 16.1962 13.0493 16.104C13.1833 16.0182 13.372 15.8753 13.5121 15.6511L11.8161 14.5911C11.8599 14.5209 11.9039 14.4762 11.9289 14.4534C11.9544 14.4301 11.9711 14.4195 11.9712 14.4194C11.9719 14.419 11.9634 14.4245 11.9422 14.4349C11.9215 14.4451 11.8923 14.4582 11.8532 14.4739L12.596 16.3308ZM13.5585 15.5683C13.7178 15.2497 13.7695 14.9093 13.7695 14.5938H11.7695C11.7695 14.6446 11.7652 14.6745 11.7626 14.6877C11.76 14.7004 11.7599 14.6933 11.7696 14.6739L13.5585 15.5683ZM13.7695 14.5938C13.7695 14.488 13.7515 14.3437 13.7398 14.25C13.7241 14.1243 13.7012 13.9565 13.6716 13.7492L11.6917 14.032C11.7207 14.2349 11.7417 14.3894 11.7553 14.4981C11.7621 14.5527 11.7665 14.5913 11.769 14.6163C11.7728 14.6546 11.7695 14.6348 11.7695 14.5938H13.7695ZM13.6721 13.7531C13.6128 13.3261 13.5244 12.7186 13.407 11.9325L11.4289 12.2277C11.546 13.0118 11.6333 13.6114 11.6911 14.0282L13.6721 13.7531ZM13.418 12.0801C13.418 11.8966 13.3714 11.5754 13.1031 11.3071C12.8348 11.0387 12.5135 10.9922 12.3301 10.9922V12.9922C12.2052 12.9922 11.9279 12.9603 11.6889 12.7213C11.4499 12.4822 11.418 12.2049 11.418 12.0801H13.418ZM12.4945 11.0058C12.1828 10.9539 11.5349 10.9395 10.6777 10.9395V12.9395C11.118 12.9395 11.4665 12.9438 11.7269 12.9521C11.8571 12.9563 11.9603 12.9613 12.0391 12.9667C12.0783 12.9694 12.1087 12.9721 12.1316 12.9745C12.1429 12.9756 12.1515 12.9767 12.1576 12.9775C12.1638 12.9783 12.1663 12.9787 12.1657 12.9786L12.4945 11.0058ZM10.6777 10.9395C10.2199 10.9395 9.65003 10.9579 8.97283 10.9936L9.07795 12.9908C9.73669 12.9561 10.2684 12.9395 10.6777 12.9395V10.9395ZM9.02539 10.9922C8.87246 10.9922 8.63443 11.0217 8.40038 11.1777C8.14606 11.3473 8.0067 11.5923 7.94978 11.82L9.89006 12.305C9.84486 12.4858 9.72894 12.6957 9.50978 12.8418C9.31089 12.9744 9.11972 12.9922 9.02539 12.9922V10.9922ZM8.02549 11.6153C8.03611 11.594 8.04486 11.5786 8.04754 11.5739C8.05123 11.5674 8.0538 11.5631 8.05446 11.562C8.05575 11.5599 8.05489 11.5614 8.05062 11.5681C8.04231 11.5813 8.02841 11.603 8.0076 11.6349C7.96642 11.698 7.90563 11.79 7.8242 11.9121L9.4883 13.0215C9.57093 12.8975 9.63612 12.799 9.68283 12.7274C9.70677 12.6907 9.77572 12.587 9.81435 12.5097L8.02549 11.6153ZM7.80598 11.9404C7.64822 12.1953 7.46815 12.4955 7.26621 12.84L8.9916 13.8514C9.1881 13.5162 9.35959 13.2305 9.50652 12.9932L7.80598 11.9404ZM7.27412 12.8267C7.06246 13.1753 6.87312 13.5157 6.70714 13.8477L8.49599 14.7421C8.63469 14.4647 8.79692 14.1723 8.98369 13.8647L7.27412 12.8267ZM6.71435 13.8336C6.5624 14.1258 6.37305 14.5366 6.37305 14.9453H8.37305C8.37305 14.9974 8.36636 15.0293 8.36537 15.034C8.36408 15.04 8.36531 15.0324 8.37364 15.0087C8.39093 14.9595 8.42585 14.8773 8.48878 14.7563L6.71435 13.8336ZM6.37305 14.9453C6.37305 15.4895 6.69147 15.8619 6.97823 16.0705L8.15458 14.453C8.16708 14.4621 8.22155 14.5039 8.27467 14.5909C8.3329 14.6861 8.37305 14.8097 8.37305 14.9453H6.37305ZM7.06254 16.1255C7.27855 16.2515 7.50835 16.3479 7.74872 16.4166L8.29816 14.4936C8.2104 14.4685 8.13551 14.436 8.07028 14.3979L7.06254 16.1255ZM7.76577 16.4213C7.9625 16.4738 8.19968 16.5254 8.42773 16.5254V14.5254C8.45784 14.5254 8.46171 14.5285 8.42769 14.5226C8.397 14.5173 8.34916 14.507 8.2811 14.4888L7.76577 16.4213ZM8.42773 16.5254C8.20586 16.5254 7.98296 16.4491 7.80293 16.2991C7.64062 16.1638 7.56215 16.0101 7.52562 15.9188C7.45951 15.7535 7.46289 15.6212 7.46289 15.6133H9.46289C9.46289 15.5468 9.46041 15.3706 9.38258 15.176C9.34019 15.07 9.2544 14.9052 9.0833 14.7627C8.89448 14.6053 8.66133 14.5254 8.42773 14.5254V16.5254ZM7.46289 15.6133C7.46289 15.6128 7.46292 15.6115 7.46315 15.6096C7.46337 15.6077 7.46372 15.6058 7.46414 15.604C7.46508 15.6001 7.4656 15.6003 7.46299 15.6055L9.25185 16.4999C9.38929 16.2251 9.46289 15.9259 9.46289 15.6133H7.46289ZM8.44796 15.0568C8.30677 15.044 8.06221 15.0258 7.7231 15.0024L7.58549 16.9976C7.92607 17.0211 8.15026 17.038 8.26689 17.0486L8.44796 15.0568ZM7.76083 15.0057C7.4032 14.9674 7.06253 14.9473 6.74023 14.9473V16.9473C6.98044 16.9473 7.24914 16.9623 7.54776 16.9943L7.76083 15.0057ZM6.74023 14.9473C6.51427 14.9473 6.25499 14.9612 5.96806 14.9862L6.14132 16.9787C6.39345 16.9567 6.5912 16.9473 6.74023 16.9473V14.9473ZM6.00928 14.9835C5.7501 14.9952 5.50249 15.007 5.26647 15.0188L5.36634 17.0163C5.59907 17.0047 5.84365 16.993 6.1001 16.9814L6.00928 14.9835ZM5.26385 15.019C5.03803 15.0308 4.84974 15.0437 4.71379 15.0589L4.93465 17.0466C5.00963 17.0383 5.14947 17.0277 5.36897 17.0162L5.26385 15.019ZM10.8887 11.9902C11.2599 11.9902 11.7068 11.9712 12.2239 11.9351L12.0847 9.93993C11.594 9.97416 11.1971 9.99023 10.8887 9.99023V11.9902ZM12.1543 11.9375C12.3319 11.9375 12.6487 11.8924 12.9141 11.627C13.1795 11.3616 13.2246 11.0448 13.2246 10.8672H11.2246C11.2246 10.7365 11.258 10.4548 11.4999 10.2128C11.7419 9.97085 12.0236 9.9375 12.1543 9.9375V11.9375ZM13.2113 10.7043L12.9124 8.8938L10.9391 9.21949L11.238 11.03L13.2113 10.7043ZM12.9115 8.88834C12.8296 8.40841 12.7654 8.02902 12.7188 7.74966L10.746 8.07846C10.7932 8.3616 10.8579 8.74394 10.94 9.22494L12.9115 8.88834ZM12.7199 7.75607C12.6726 7.46065 12.6448 7.28217 12.6345 7.21014L10.6546 7.49298C10.6677 7.58502 10.6985 7.78153 10.745 8.07205L12.7199 7.75607ZM10.7752 6.85726L8.73618 10.4432L10.4748 11.4318L12.5138 7.84586L10.7752 6.85726ZM9.50597 11.9325C9.90121 11.9721 10.3643 11.9902 10.8887 11.9902V9.99023C10.4053 9.99023 10.0129 9.97325 9.70497 9.94246L9.50597 11.9325Z" fill="url(#paint3_linear_410_6919)" mask="url(#path-4-inside-2_410_6919)"/>
<g filter="url(#filter0_i_410_6919)">
<path d="M5.30769 8.61538L3 6.30769L5.30769 4L7.61538 6.30769L9 4.92308V10H3.92308L5.30769 8.61538Z" fill="#82C27C"/>
</g>
<path d="M7.96894 6.66125L8.5 6.13018V9.5H5.13018L5.66125 8.96894C5.85651 8.77368 5.85651 8.45709 5.66125 8.26183L3.70711 6.30769L5.30769 4.70711L7.26183 6.66125C7.45709 6.85651 7.77368 6.85651 7.96894 6.66125Z" stroke="url(#paint4_linear_410_6919)" stroke-linejoin="round"/>
</g>
<defs>
<filter id="filter0_i_410_6919" x="3" y="4" width="7" height="7" filterUnits="userSpaceOnUse" color-interpolation-filters="sRGB">
<feFlood flood-opacity="0" result="BackgroundImageFix"/>
<feBlend mode="normal" in="SourceGraphic" in2="BackgroundImageFix" result="shape"/>
<feColorMatrix in="SourceAlpha" type="matrix" values="0 0 0 0 0 0 0 0 0 0 0 0 0 0 0 0 0 0 127 0" result="hardAlpha"/>
<feOffset dx="1" dy="1"/>
<feGaussianBlur stdDeviation="1"/>
<feComposite in2="hardAlpha" operator="arithmetic" k2="-1" k3="1"/>
<feColorMatrix type="matrix" values="0 0 0 0 0.71381 0 0 0 0 0.864312 0 0 0 0 0.687251 0 0 0 1 0"/>
<feBlend mode="normal" in2="shape" result="effect1_innerShadow_410_6919"/>
</filter>
<linearGradient id="paint0_linear_410_6919" x1="8" y1="2.5" x2="0" y2="2.5" gradientUnits="userSpaceOnUse">
<stop stop-color="#71A4E6"/>
<stop offset="1" stop-color="#88B5EC"/>
</linearGradient>
<linearGradient id="paint1_linear_410_6919" x1="8" y1="2.5" x2="0" y2="2.5" gradientUnits="userSpaceOnUse">
<stop stop-color="#296CD9"/>
<stop offset="1" stop-color="#448DE2"/>
</linearGradient>
<linearGradient id="paint2_linear_410_6919" x1="17" y1="10.5" x2="5" y2="10.5" gradientUnits="userSpaceOnUse">
<stop stop-color="#71A4E6"/>
<stop offset="1" stop-color="#88B5EC"/>
</linearGradient>
<linearGradient id="paint3_linear_410_6919" x1="17" y1="10.5" x2="5" y2="10.5" gradientUnits="userSpaceOnUse">
<stop stop-color="#296CD9"/>
<stop offset="1" stop-color="#448DE2"/>
</linearGradient>
<linearGradient id="paint4_linear_410_6919" x1="4.05511" y1="4.46154" x2="8.60504" y2="9.39064" gradientUnits="userSpaceOnUse">
<stop stop-color="#80C178"/>
<stop offset="1" stop-color="#2A6B26"/>
</linearGradient>
<clipPath id="clip0_410_6919">
<rect width="16" height="16" fill="white"/>
</clipPath>
</defs>
</svg>
