<svg width="16" height="16" viewBox="0 0 16 16" fill="none" xmlns="http://www.w3.org/2000/svg">
<g clip-path="url(#clip0_410_6921)">
<mask id="path-1-inside-1_410_6921" fill="white">
<path d="M1.53613 9.11426C1.51921 9.11426 1.47689 9.0931 1.40918 9.05078C1.34147 9.01693 1.27799 8.97461 1.21875 8.92383C1.15951 8.87305 1.12988 8.83496 1.12988 8.80957C1.12988 8.75879 1.14681 8.60645 1.18066 8.35254C1.21452 8.09863 1.23145 7.77279 1.23145 7.375V2.25879C1.23145 1.90332 1.20605 1.59863 1.15527 1.34473C1.12142 1.20931 0.901367 1.1416 0.495117 1.1416H0.380859C0.330078 1.1416 0.304688 1.05697 0.304688 0.887695C0.304688 0.743815 0.330078 0.671875 0.380859 0.671875C0.871745 0.629557 1.33301 0.557617 1.76465 0.456055C2.20475 0.354492 2.5179 0.274089 2.7041 0.214844L2.83105 0.176758H2.85645C2.8903 0.176758 2.92415 0.202148 2.95801 0.25293C2.99186 0.303711 3.01302 0.35026 3.02148 0.392578C2.92839 0.790365 2.88184 1.21777 2.88184 1.6748V3.52832C2.88184 3.61296 2.88607 3.66797 2.89453 3.69336C2.90299 3.71029 2.92415 3.71029 2.95801 3.69336C3.27116 3.44792 3.63932 3.3252 4.0625 3.3252C4.57031 3.3252 5.03581 3.45215 5.45898 3.70605C5.88216 3.9515 6.2207 4.28581 6.47461 4.70898C6.72852 5.13216 6.85547 5.60612 6.85547 6.13086C6.85547 6.68945 6.72005 7.19303 6.44922 7.6416C6.18685 8.09017 5.83138 8.44564 5.38281 8.70801C4.93424 8.97038 4.43066 9.10156 3.87207 9.10156C3.56738 9.10156 3.32617 9.0804 3.14844 9.03809C2.97917 9.00423 2.83105 8.97038 2.7041 8.93652C2.57715 8.89421 2.42057 8.87305 2.23438 8.87305C2.10742 8.87305 1.97624 8.91536 1.84082 9C1.7054 9.07617 1.60384 9.11426 1.53613 9.11426ZM3.91016 8.41602C4.29102 8.41602 4.57031 8.24674 4.74805 7.9082C4.93424 7.5612 5.02734 7.1084 5.02734 6.5498C5.02734 4.91634 4.65918 4.09961 3.92285 4.09961C3.59277 4.09961 3.33464 4.19271 3.14844 4.37891C2.9707 4.5651 2.88184 4.75977 2.88184 4.96289V7.3623C2.88184 7.70085 2.97917 7.96322 3.17383 8.14941C3.36849 8.32715 3.61393 8.41602 3.91016 8.41602Z"/>
</mask>
<path d="M1.53613 9.11426C1.51921 9.11426 1.47689 9.0931 1.40918 9.05078C1.34147 9.01693 1.27799 8.97461 1.21875 8.92383C1.15951 8.87305 1.12988 8.83496 1.12988 8.80957C1.12988 8.75879 1.14681 8.60645 1.18066 8.35254C1.21452 8.09863 1.23145 7.77279 1.23145 7.375V2.25879C1.23145 1.90332 1.20605 1.59863 1.15527 1.34473C1.12142 1.20931 0.901367 1.1416 0.495117 1.1416H0.380859C0.330078 1.1416 0.304688 1.05697 0.304688 0.887695C0.304688 0.743815 0.330078 0.671875 0.380859 0.671875C0.871745 0.629557 1.33301 0.557617 1.76465 0.456055C2.20475 0.354492 2.5179 0.274089 2.7041 0.214844L2.83105 0.176758H2.85645C2.8903 0.176758 2.92415 0.202148 2.95801 0.25293C2.99186 0.303711 3.01302 0.35026 3.02148 0.392578C2.92839 0.790365 2.88184 1.21777 2.88184 1.6748V3.52832C2.88184 3.61296 2.88607 3.66797 2.89453 3.69336C2.90299 3.71029 2.92415 3.71029 2.95801 3.69336C3.27116 3.44792 3.63932 3.3252 4.0625 3.3252C4.57031 3.3252 5.03581 3.45215 5.45898 3.70605C5.88216 3.9515 6.2207 4.28581 6.47461 4.70898C6.72852 5.13216 6.85547 5.60612 6.85547 6.13086C6.85547 6.68945 6.72005 7.19303 6.44922 7.6416C6.18685 8.09017 5.83138 8.44564 5.38281 8.70801C4.93424 8.97038 4.43066 9.10156 3.87207 9.10156C3.56738 9.10156 3.32617 9.0804 3.14844 9.03809C2.97917 9.00423 2.83105 8.97038 2.7041 8.93652C2.57715 8.89421 2.42057 8.87305 2.23438 8.87305C2.10742 8.87305 1.97624 8.91536 1.84082 9C1.7054 9.07617 1.60384 9.11426 1.53613 9.11426ZM3.91016 8.41602C4.29102 8.41602 4.57031 8.24674 4.74805 7.9082C4.93424 7.5612 5.02734 7.1084 5.02734 6.5498C5.02734 4.91634 4.65918 4.09961 3.92285 4.09961C3.59277 4.09961 3.33464 4.19271 3.14844 4.37891C2.9707 4.5651 2.88184 4.75977 2.88184 4.96289V7.3623C2.88184 7.70085 2.97917 7.96322 3.17383 8.14941C3.36849 8.32715 3.61393 8.41602 3.91016 8.41602Z" fill="black"/>
<path d="M1.53613 9.11426C1.51921 9.11426 1.47689 9.0931 1.40918 9.05078C1.34147 9.01693 1.27799 8.97461 1.21875 8.92383C1.15951 8.87305 1.12988 8.83496 1.12988 8.80957C1.12988 8.75879 1.14681 8.60645 1.18066 8.35254C1.21452 8.09863 1.23145 7.77279 1.23145 7.375V2.25879C1.23145 1.90332 1.20605 1.59863 1.15527 1.34473C1.12142 1.20931 0.901367 1.1416 0.495117 1.1416H0.380859C0.330078 1.1416 0.304688 1.05697 0.304688 0.887695C0.304688 0.743815 0.330078 0.671875 0.380859 0.671875C0.871745 0.629557 1.33301 0.557617 1.76465 0.456055C2.20475 0.354492 2.5179 0.274089 2.7041 0.214844L2.83105 0.176758H2.85645C2.8903 0.176758 2.92415 0.202148 2.95801 0.25293C2.99186 0.303711 3.01302 0.35026 3.02148 0.392578C2.92839 0.790365 2.88184 1.21777 2.88184 1.6748V3.52832C2.88184 3.61296 2.88607 3.66797 2.89453 3.69336C2.90299 3.71029 2.92415 3.71029 2.95801 3.69336C3.27116 3.44792 3.63932 3.3252 4.0625 3.3252C4.57031 3.3252 5.03581 3.45215 5.45898 3.70605C5.88216 3.9515 6.2207 4.28581 6.47461 4.70898C6.72852 5.13216 6.85547 5.60612 6.85547 6.13086C6.85547 6.68945 6.72005 7.19303 6.44922 7.6416C6.18685 8.09017 5.83138 8.44564 5.38281 8.70801C4.93424 8.97038 4.43066 9.10156 3.87207 9.10156C3.56738 9.10156 3.32617 9.0804 3.14844 9.03809C2.97917 9.00423 2.83105 8.97038 2.7041 8.93652C2.57715 8.89421 2.42057 8.87305 2.23438 8.87305C2.10742 8.87305 1.97624 8.91536 1.84082 9C1.7054 9.07617 1.60384 9.11426 1.53613 9.11426ZM3.91016 8.41602C4.29102 8.41602 4.57031 8.24674 4.74805 7.9082C4.93424 7.5612 5.02734 7.1084 5.02734 6.5498C5.02734 4.91634 4.65918 4.09961 3.92285 4.09961C3.59277 4.09961 3.33464 4.19271 3.14844 4.37891C2.9707 4.5651 2.88184 4.75977 2.88184 4.96289V7.3623C2.88184 7.70085 2.97917 7.96322 3.17383 8.14941C3.36849 8.32715 3.61393 8.41602 3.91016 8.41602Z" fill="url(#paint0_linear_410_6921)"/>
<path d="M1.40918 9.05078L1.93918 8.20278L1.89889 8.1776L1.85639 8.15635L1.40918 9.05078ZM1.15527 1.34473L2.13585 1.14861L2.13119 1.12528L2.12542 1.10219L1.15527 1.34473ZM0.380859 0.671875V1.67188H0.423883L0.466748 1.66818L0.380859 0.671875ZM1.76465 0.456055L1.53979 -0.518346L1.53561 -0.517363L1.76465 0.456055ZM2.7041 0.214844L2.41675 -0.742983L2.40881 -0.740598L2.4009 -0.738082L2.7041 0.214844ZM2.83105 0.176758V-0.823242H2.68429L2.54371 -0.781069L2.83105 0.176758ZM3.02148 0.392578L3.99517 0.620463L4.04461 0.40921L4.00207 0.196462L3.02148 0.392578ZM2.89453 3.69336L1.94585 4.00959L1.96832 4.07701L2.0001 4.14057L2.89453 3.69336ZM2.95801 3.69336L3.40522 4.58779L3.49547 4.54266L3.57489 4.48042L2.95801 3.69336ZM5.45898 3.70605L4.94449 4.56355L4.95085 4.56736L4.95727 4.57109L5.45898 3.70605ZM6.44922 7.6416L5.59307 7.12468L5.58603 7.13672L6.44922 7.6416ZM3.14844 9.03809L3.38006 8.06528L3.36238 8.06107L3.34455 8.05751L3.14844 9.03809ZM2.7041 8.93652L2.38787 9.88521L2.41689 9.89488L2.44644 9.90276L2.7041 8.93652ZM1.84082 9L2.33108 9.87158L2.35122 9.86025L2.37082 9.848L1.84082 9ZM4.74805 7.9082L3.86685 7.43537L3.86265 7.44337L4.74805 7.9082ZM3.14844 4.37891L2.44133 3.6718L2.43311 3.68002L2.42508 3.68843L3.14844 4.37891ZM3.17383 8.14941L2.48261 8.87206L2.49099 8.88008L2.49956 8.8879L3.17383 8.14941ZM1.53613 8.11426C1.63202 8.11426 1.70751 8.12843 1.75022 8.13813C1.79613 8.14857 1.83221 8.1604 1.85501 8.16855C1.89924 8.18434 1.9295 8.19926 1.93891 8.20396C1.95872 8.21387 1.96171 8.21686 1.93918 8.20278L0.879181 9.89878C0.924361 9.92702 0.982357 9.96175 1.04449 9.99282C1.07505 10.0081 1.12331 10.0309 1.18234 10.052C1.22157 10.066 1.35754 10.1143 1.53613 10.1143V8.11426ZM1.85639 8.15635C1.85991 8.15811 1.863 8.15994 1.86549 8.1616C1.86797 8.16325 1.86932 8.16438 1.86954 8.16457L0.567959 9.68308C0.687364 9.78543 0.818903 9.87368 0.961966 9.94521L1.85639 8.15635ZM1.86954 8.16457C1.86974 8.16474 1.87629 8.17033 1.88698 8.18102C1.89696 8.191 1.91714 8.21197 1.94145 8.24324C1.96411 8.27237 2.00431 8.32816 2.04162 8.40811C2.07766 8.48535 2.12988 8.62536 2.12988 8.80957H0.129883C0.129883 9.17083 0.317251 9.41262 0.362747 9.47112C0.436018 9.56532 0.51445 9.63722 0.567959 9.68308L1.86954 8.16457ZM2.12988 8.80957C2.12988 8.84007 2.12799 8.85488 2.1296 8.83549C2.13068 8.82255 2.13279 8.80067 2.13646 8.76766C2.14377 8.70193 2.15538 8.60851 2.17189 8.4847L0.189436 8.22038C0.160196 8.43968 0.129883 8.67513 0.129883 8.80957H2.12988ZM2.17189 8.4847C2.21385 8.17001 2.23145 7.7957 2.23145 7.375H0.231445C0.231445 7.74987 0.215185 8.02726 0.189436 8.22038L2.17189 8.4847ZM2.23145 7.375V2.25879H0.231445V7.375H2.23145ZM2.23145 2.25879C2.23145 1.85995 2.20332 1.48592 2.13585 1.14861L0.174693 1.54084C0.208793 1.71134 0.231445 1.94669 0.231445 2.25879H2.23145ZM2.12542 1.10219C1.9789 0.516133 1.47876 0.304244 1.25893 0.236604C1.00748 0.159236 0.734165 0.141602 0.495117 0.141602V2.1416C0.66232 2.1416 0.702151 2.15782 0.670758 2.14816C0.651719 2.1423 0.568501 2.11531 0.470276 2.03673C0.360325 1.94877 0.238205 1.79956 0.185131 1.58726L2.12542 1.10219ZM0.495117 0.141602H0.380859V2.1416H0.495117V0.141602ZM0.380859 0.141602C0.687702 0.141602 0.936242 0.285005 1.09083 0.456768C1.21964 0.599896 1.26655 0.740742 1.28156 0.790777C1.31186 0.891784 1.30469 0.946793 1.30469 0.887695H-0.695312C-0.695312 0.997868 -0.689789 1.17983 -0.634096 1.36547C-0.60639 1.45783 -0.543618 1.63041 -0.39576 1.7947C-0.222131 1.98762 0.0486258 2.1416 0.380859 2.1416V0.141602ZM1.30469 0.887695C1.30469 0.847191 1.31177 0.931001 1.26672 1.05865C1.24256 1.12712 1.18082 1.27386 1.03416 1.41238C0.864554 1.57256 0.632305 1.67188 0.380859 1.67188V-0.328125C0.104023 -0.328125 -0.150442 -0.219816 -0.339089 -0.0416493C-0.504795 0.114851 -0.5824 0.288574 -0.61926 0.39301C-0.689703 0.592599 -0.695312 0.78432 -0.695312 0.887695H1.30469ZM0.466748 1.66818C1.00061 1.62216 1.5101 1.54326 1.99369 1.42947L1.53561 -0.517363C1.15592 -0.428023 0.742878 -0.363042 0.294971 -0.32443L0.466748 1.66818ZM1.98951 1.43045C2.43093 1.32858 2.77888 1.24045 3.00731 1.16777L2.4009 -0.738082C2.25693 -0.692274 1.97857 -0.619595 1.53979 -0.518337L1.98951 1.43045ZM2.99145 1.17267L3.1184 1.13458L2.54371 -0.781069L2.41675 -0.742983L2.99145 1.17267ZM2.83105 1.17676H2.85645V-0.823242H2.83105V1.17676ZM2.85645 1.17676C2.60787 1.17676 2.41947 1.07998 2.30723 0.995801C2.20294 0.917589 2.14655 0.838516 2.12596 0.80763L3.79006 -0.30177C3.71594 -0.412951 3.42117 -0.823242 2.85645 -0.823242V1.17676ZM2.12596 0.80763C2.11513 0.791383 2.06632 0.715791 2.0409 0.588694L4.00207 0.196462C3.95972 -0.01527 3.8686 -0.183961 3.79006 -0.30177L2.12596 0.80763ZM2.0478 0.164694C1.93529 0.645398 1.88184 1.14998 1.88184 1.6748H3.88184C3.88184 1.28557 3.92148 0.935331 3.99517 0.620463L2.0478 0.164694ZM1.88184 1.6748V3.52832H3.88184V1.6748H1.88184ZM1.88184 3.52832C1.88184 3.5843 1.88314 3.6471 1.88796 3.70975C1.89119 3.75176 1.90078 3.87439 1.94585 4.00959L3.84321 3.37713C3.85492 3.41225 3.86236 3.44167 3.867 3.46219C3.87175 3.48325 3.87481 3.50057 3.87674 3.5128C3.88046 3.53638 3.88174 3.55221 3.88206 3.55636C3.88265 3.564 3.88184 3.55698 3.88184 3.52832H1.88184ZM2.0001 4.14057C2.08048 4.30132 2.21351 4.46049 2.40712 4.57112C2.5942 4.67803 2.77883 4.70605 2.91675 4.70605C3.16095 4.70605 3.34261 4.61909 3.40522 4.58779L2.51079 2.79893C2.53955 2.78455 2.6937 2.70605 2.91675 2.70605C3.04409 2.70605 3.21972 2.73197 3.3994 2.83464C3.58561 2.94104 3.71282 3.09387 3.78896 3.24615L2.0001 4.14057ZM3.57489 4.48042C3.70039 4.38205 3.84774 4.3252 4.0625 4.3252V2.3252C3.4309 2.3252 2.84193 2.51378 2.34113 2.9063L3.57489 4.48042ZM4.0625 4.3252C4.39458 4.3252 4.68139 4.40569 4.94449 4.56355L5.97348 2.84856C5.39023 2.49861 4.74604 2.3252 4.0625 2.3252V4.3252ZM4.95727 4.57109C5.23277 4.73088 5.44944 4.94402 5.61712 5.22348L7.3321 4.19449C6.99196 3.62759 6.53155 3.17212 5.9607 2.84102L4.95727 4.57109ZM5.61712 5.22348C5.77182 5.48132 5.85547 5.77543 5.85547 6.13086H7.85547C7.85547 5.43681 7.68521 4.78301 7.3321 4.19449L5.61712 5.22348ZM5.85547 6.13086C5.85547 6.51979 5.76356 6.8425 5.59315 7.12473L7.30528 8.15847C7.67655 7.54356 7.85547 6.85912 7.85547 6.13086H5.85547ZM5.58603 7.13672C5.41035 7.43707 5.17828 7.66914 4.87793 7.84482L5.8877 9.5712C6.48448 9.22213 6.96334 8.74327 7.31241 8.14649L5.58603 7.13672ZM4.87793 7.84482C4.59399 8.0109 4.26697 8.10156 3.87207 8.10156V10.1016C4.59436 10.1016 5.2745 9.92986 5.8877 9.5712L4.87793 7.84482ZM3.87207 8.10156C3.60102 8.10156 3.44835 8.08154 3.38006 8.06528L2.91682 10.0109C3.20399 10.0793 3.53374 10.1016 3.87207 10.1016V8.10156ZM3.34455 8.05751C3.18996 8.02659 3.06321 7.99734 2.96176 7.97029L2.44644 9.90276C2.5989 9.94342 2.76838 9.98188 2.95232 10.0187L3.34455 8.05751ZM3.02033 7.98784C2.76017 7.90112 2.48926 7.87305 2.23438 7.87305V9.87305C2.29035 9.87305 2.33064 9.87627 2.35754 9.87991C2.38463 9.88357 2.39319 9.88698 2.38787 9.88521L3.02033 7.98784ZM2.23438 7.87305C1.87719 7.87305 1.56447 7.99347 1.31082 8.152L2.37082 9.848C2.38801 9.83725 2.33766 9.87305 2.23438 9.87305V7.87305ZM1.35056 8.12842C1.31014 8.15116 1.29917 8.15416 1.31196 8.14936C1.31937 8.14658 1.34076 8.13893 1.37375 8.13151C1.4056 8.12434 1.46197 8.11426 1.53613 8.11426V10.1143C1.88906 10.1143 2.1931 9.94919 2.33108 9.87158L1.35056 8.12842ZM3.91016 9.41602C4.25254 9.41602 4.60324 9.3384 4.92357 9.14426C5.24369 8.95025 5.47463 8.67555 5.63344 8.37304L3.86265 7.44337C3.85237 7.46294 3.84769 7.46665 3.85241 7.46141C3.85774 7.45549 3.86931 7.44457 3.88697 7.43386C3.90465 7.42315 3.91999 7.41776 3.92838 7.41561C3.93589 7.41369 3.93128 7.41602 3.91016 7.41602V9.41602ZM5.62921 8.38102C5.91922 7.84054 6.02734 7.2085 6.02734 6.5498H4.02734C4.02734 7.0083 3.94927 7.28185 3.86689 7.43539L5.62921 8.38102ZM6.02734 6.5498C6.02734 5.68913 5.93515 4.90521 5.66288 4.3012C5.52131 3.98715 5.31193 3.67889 5.00063 3.4487C4.67775 3.20994 4.30462 3.09961 3.92285 3.09961V5.09961C3.90925 5.09961 3.85826 5.09137 3.8115 5.0568C3.77632 5.03078 3.79705 5.0288 3.83956 5.12311C3.93546 5.33584 4.02734 5.77701 4.02734 6.5498H6.02734ZM3.92285 3.09961C3.39851 3.09961 2.85989 3.25324 2.44133 3.6718L3.85554 5.08601C3.84937 5.09219 3.84177 5.0983 3.83375 5.10335C3.82584 5.10832 3.82083 5.11017 3.82096 5.11012C3.82167 5.10987 3.85069 5.09961 3.92285 5.09961V3.09961ZM2.42508 3.68843C2.11932 4.00875 1.88184 4.43883 1.88184 4.96289H3.88184C3.88184 4.98569 3.87927 5.00855 3.87444 5.03016C3.86965 5.05162 3.8634 5.06839 3.85817 5.07984C3.84797 5.1022 3.84479 5.09767 3.87179 5.06938L2.42508 3.68843ZM1.88184 4.96289V7.3623H3.88184V4.96289H1.88184ZM1.88184 7.3623C1.88184 7.89936 2.04273 8.45131 2.48261 8.87206L3.86505 7.42677C3.87162 7.43306 3.87841 7.4411 3.88416 7.44994C3.88984 7.45866 3.89216 7.46455 3.8924 7.46518C3.89267 7.46592 3.88184 7.43703 3.88184 7.3623H1.88184ZM2.49956 8.8879C2.90165 9.25503 3.39768 9.41602 3.91016 9.41602V7.41602C3.8861 7.41602 3.86957 7.41421 3.85941 7.41255C3.84941 7.41091 3.84487 7.40929 3.84435 7.4091C3.84396 7.40896 3.84537 7.40948 3.84747 7.41074C3.84954 7.412 3.84983 7.41251 3.8481 7.41093L2.49956 8.8879Z" fill="url(#paint1_linear_410_6921)" mask="url(#path-1-inside-1_410_6921)"/>
<g filter="url(#filter0_i_410_6921)">
<path d="M6.30769 9.61538L4 7.30769L6.30769 5L8.61538 7.30769L10 5.92308V11H4.92308L6.30769 9.61538Z" fill="#82C27C"/>
</g>
<path d="M8.96894 7.66125L9.5 7.13018V10.5H6.13018L6.66125 9.96894C6.85651 9.77368 6.85651 9.45709 6.66125 9.26183L4.70711 7.30769L6.30769 5.70711L8.26183 7.66125C8.45709 7.85651 8.77368 7.85651 8.96894 7.66125Z" stroke="url(#paint2_linear_410_6921)" stroke-linejoin="round"/>
<mask id="path-6-inside-2_410_6921" fill="white">
<path d="M9.30469 16.1641C8.52344 16.1641 7.88281 15.9531 7.38281 15.5312C6.89844 15.0938 6.65625 14.5 6.65625 13.75C6.65625 13.2344 6.82031 12.7656 7.14844 12.3438C7.49219 11.9219 7.96875 11.5625 8.57812 11.2656C8.79688 11.1562 8.99219 11.0703 9.16406 11.0078C9.35156 10.9297 9.52344 10.8594 9.67969 10.7969C10.2266 10.625 10.6797 10.4844 11.0391 10.375C11.4141 10.2656 11.6797 10.1875 11.8359 10.1406C11.9766 10.0625 12.0469 9.9375 12.0469 9.76562V8.47656C12.0469 7.92969 11.9219 7.5 11.6719 7.1875C11.4219 6.875 11.0859 6.71875 10.6641 6.71875C10.1953 6.71875 9.82812 6.86719 9.5625 7.16406C9.29688 7.44531 9.16406 7.85156 9.16406 8.38281C9.16406 8.69531 9.04688 8.92969 8.8125 9.08594C8.57812 9.22656 8.3125 9.29688 8.01562 9.29688C7.4375 9.29688 7.03125 9.10938 6.79688 8.73438C6.79688 8.35938 6.9375 7.99219 7.21875 7.63281C7.5 7.25781 7.86719 6.92188 8.32031 6.625C8.78906 6.32812 9.30469 6.09375 9.86719 5.92188C10.4297 5.73438 10.9922 5.64062 11.5547 5.64062C12.5234 5.64062 13.25 5.89844 13.7344 6.41406C14.2188 6.91406 14.4609 7.78125 14.4609 9.01562V13.6328C14.4609 14.2734 14.7188 14.5938 15.2344 14.5938C15.4688 14.5938 15.7344 14.4922 16.0312 14.2891C16.125 14.3047 16.1719 14.3906 16.1719 14.5469C16.1719 14.8438 16.125 15.0781 16.0312 15.25C15.7969 15.4375 15.4844 15.6328 15.0938 15.8359C14.7031 16.0391 14.3281 16.1406 13.9688 16.1406C13.6094 16.1406 13.2578 16.0078 12.9141 15.7422C12.5703 15.4766 12.3438 15.1875 12.2344 14.875C12.1094 14.9844 12.0156 15.0625 11.9531 15.1094C11.8906 15.1562 11.7891 15.2344 11.6484 15.3438C11.3203 15.5625 10.9609 15.7578 10.5703 15.9297C10.1797 16.0859 9.75781 16.1641 9.30469 16.1641ZM10.5 14.6406C10.9219 14.6406 11.2812 14.5312 11.5781 14.3125C11.8906 14.0938 12.0469 13.8438 12.0469 13.5625V11.1719L10.5469 11.6875C10.1875 11.8438 9.86719 12.0312 9.58594 12.25C9.30469 12.4688 9.16406 12.7812 9.16406 13.1875C9.16406 13.6875 9.28906 14.0547 9.53906 14.2891C9.78906 14.5234 10.1094 14.6406 10.5 14.6406Z"/>
</mask>
<path d="M9.30469 16.1641C8.52344 16.1641 7.88281 15.9531 7.38281 15.5312C6.89844 15.0938 6.65625 14.5 6.65625 13.75C6.65625 13.2344 6.82031 12.7656 7.14844 12.3438C7.49219 11.9219 7.96875 11.5625 8.57812 11.2656C8.79688 11.1562 8.99219 11.0703 9.16406 11.0078C9.35156 10.9297 9.52344 10.8594 9.67969 10.7969C10.2266 10.625 10.6797 10.4844 11.0391 10.375C11.4141 10.2656 11.6797 10.1875 11.8359 10.1406C11.9766 10.0625 12.0469 9.9375 12.0469 9.76562V8.47656C12.0469 7.92969 11.9219 7.5 11.6719 7.1875C11.4219 6.875 11.0859 6.71875 10.6641 6.71875C10.1953 6.71875 9.82812 6.86719 9.5625 7.16406C9.29688 7.44531 9.16406 7.85156 9.16406 8.38281C9.16406 8.69531 9.04688 8.92969 8.8125 9.08594C8.57812 9.22656 8.3125 9.29688 8.01562 9.29688C7.4375 9.29688 7.03125 9.10938 6.79688 8.73438C6.79688 8.35938 6.9375 7.99219 7.21875 7.63281C7.5 7.25781 7.86719 6.92188 8.32031 6.625C8.78906 6.32812 9.30469 6.09375 9.86719 5.92188C10.4297 5.73438 10.9922 5.64062 11.5547 5.64062C12.5234 5.64062 13.25 5.89844 13.7344 6.41406C14.2188 6.91406 14.4609 7.78125 14.4609 9.01562V13.6328C14.4609 14.2734 14.7188 14.5938 15.2344 14.5938C15.4688 14.5938 15.7344 14.4922 16.0312 14.2891C16.125 14.3047 16.1719 14.3906 16.1719 14.5469C16.1719 14.8438 16.125 15.0781 16.0312 15.25C15.7969 15.4375 15.4844 15.6328 15.0938 15.8359C14.7031 16.0391 14.3281 16.1406 13.9688 16.1406C13.6094 16.1406 13.2578 16.0078 12.9141 15.7422C12.5703 15.4766 12.3438 15.1875 12.2344 14.875C12.1094 14.9844 12.0156 15.0625 11.9531 15.1094C11.8906 15.1562 11.7891 15.2344 11.6484 15.3438C11.3203 15.5625 10.9609 15.7578 10.5703 15.9297C10.1797 16.0859 9.75781 16.1641 9.30469 16.1641ZM10.5 14.6406C10.9219 14.6406 11.2812 14.5312 11.5781 14.3125C11.8906 14.0938 12.0469 13.8438 12.0469 13.5625V11.1719L10.5469 11.6875C10.1875 11.8438 9.86719 12.0312 9.58594 12.25C9.30469 12.4688 9.16406 12.7812 9.16406 13.1875C9.16406 13.6875 9.28906 14.0547 9.53906 14.2891C9.78906 14.5234 10.1094 14.6406 10.5 14.6406Z" fill="black"/>
<path d="M9.30469 16.1641C8.52344 16.1641 7.88281 15.9531 7.38281 15.5312C6.89844 15.0938 6.65625 14.5 6.65625 13.75C6.65625 13.2344 6.82031 12.7656 7.14844 12.3438C7.49219 11.9219 7.96875 11.5625 8.57812 11.2656C8.79688 11.1562 8.99219 11.0703 9.16406 11.0078C9.35156 10.9297 9.52344 10.8594 9.67969 10.7969C10.2266 10.625 10.6797 10.4844 11.0391 10.375C11.4141 10.2656 11.6797 10.1875 11.8359 10.1406C11.9766 10.0625 12.0469 9.9375 12.0469 9.76562V8.47656C12.0469 7.92969 11.9219 7.5 11.6719 7.1875C11.4219 6.875 11.0859 6.71875 10.6641 6.71875C10.1953 6.71875 9.82812 6.86719 9.5625 7.16406C9.29688 7.44531 9.16406 7.85156 9.16406 8.38281C9.16406 8.69531 9.04688 8.92969 8.8125 9.08594C8.57812 9.22656 8.3125 9.29688 8.01562 9.29688C7.4375 9.29688 7.03125 9.10938 6.79688 8.73438C6.79688 8.35938 6.9375 7.99219 7.21875 7.63281C7.5 7.25781 7.86719 6.92188 8.32031 6.625C8.78906 6.32812 9.30469 6.09375 9.86719 5.92188C10.4297 5.73438 10.9922 5.64062 11.5547 5.64062C12.5234 5.64062 13.25 5.89844 13.7344 6.41406C14.2188 6.91406 14.4609 7.78125 14.4609 9.01562V13.6328C14.4609 14.2734 14.7188 14.5938 15.2344 14.5938C15.4688 14.5938 15.7344 14.4922 16.0312 14.2891C16.125 14.3047 16.1719 14.3906 16.1719 14.5469C16.1719 14.8438 16.125 15.0781 16.0312 15.25C15.7969 15.4375 15.4844 15.6328 15.0938 15.8359C14.7031 16.0391 14.3281 16.1406 13.9688 16.1406C13.6094 16.1406 13.2578 16.0078 12.9141 15.7422C12.5703 15.4766 12.3438 15.1875 12.2344 14.875C12.1094 14.9844 12.0156 15.0625 11.9531 15.1094C11.8906 15.1562 11.7891 15.2344 11.6484 15.3438C11.3203 15.5625 10.9609 15.7578 10.5703 15.9297C10.1797 16.0859 9.75781 16.1641 9.30469 16.1641ZM10.5 14.6406C10.9219 14.6406 11.2812 14.5312 11.5781 14.3125C11.8906 14.0938 12.0469 13.8438 12.0469 13.5625V11.1719L10.5469 11.6875C10.1875 11.8438 9.86719 12.0312 9.58594 12.25C9.30469 12.4688 9.16406 12.7812 9.16406 13.1875C9.16406 13.6875 9.28906 14.0547 9.53906 14.2891C9.78906 14.5234 10.1094 14.6406 10.5 14.6406Z" fill="url(#paint3_linear_410_6921)"/>
<path d="M7.38281 15.5312L6.71253 16.2734L6.72505 16.2847L6.73794 16.2955L7.38281 15.5312ZM7.14844 12.3438L6.3732 11.7121L6.36604 11.7209L6.35909 11.7298L7.14844 12.3438ZM8.57812 11.2656L9.01612 12.1647L9.02534 12.1601L8.57812 11.2656ZM9.16406 11.0078L9.50581 11.9476L9.52743 11.9397L9.54868 11.9309L9.16406 11.0078ZM9.67969 10.7969L9.37986 9.84288L9.34359 9.85428L9.3083 9.8684L9.67969 10.7969ZM11.0391 10.375L10.759 9.41493L10.7479 9.41833L11.0391 10.375ZM11.8359 10.1406L12.1233 11.0985L12.227 11.0673L12.3216 11.0148L11.8359 10.1406ZM9.5625 7.16406L10.2895 7.85069L10.2988 7.84089L10.3077 7.83086L9.5625 7.16406ZM8.8125 9.08594L9.327 9.94343L9.3474 9.93119L9.3672 9.91799L8.8125 9.08594ZM6.79688 8.73438H5.79688V9.02117L5.94888 9.26437L6.79688 8.73438ZM7.21875 7.63281L8.00625 8.24912L8.01259 8.24103L8.01875 8.23281L7.21875 7.63281ZM8.32031 6.625L7.78526 5.78018L7.77874 5.78431L7.77229 5.78854L8.32031 6.625ZM9.86719 5.92188L10.1594 6.87823L10.1715 6.87454L10.1834 6.87056L9.86719 5.92188ZM13.7344 6.41406L13.0055 7.09874L13.0108 7.10434L13.0161 7.10986L13.7344 6.41406ZM16.0312 14.2891L16.1956 13.3027L15.7987 13.2365L15.4666 13.4638L16.0312 14.2891ZM16.0312 15.25L16.6559 16.0309L16.8129 15.9053L16.9091 15.7289L16.0312 15.25ZM12.2344 14.875L13.1782 14.5446L12.6894 13.1481L11.5759 14.1224L12.2344 14.875ZM11.6484 15.3438L12.2031 16.1758L12.2335 16.1555L12.2624 16.1331L11.6484 15.3438ZM10.5703 15.9297L10.9417 16.8582L10.9575 16.8519L10.9731 16.845L10.5703 15.9297ZM11.5781 14.3125L11.0047 13.4933L10.9947 13.5002L10.9849 13.5074L11.5781 14.3125ZM12.0469 11.1719H13.0469V9.77069L11.7218 10.2262L12.0469 11.1719ZM10.5469 11.6875L10.2218 10.7418L10.1844 10.7547L10.1481 10.7704L10.5469 11.6875ZM9.30469 15.1641C8.71154 15.1641 8.31375 15.0083 8.02768 14.767L6.73794 16.2955C7.45187 16.8979 8.33533 17.1641 9.30469 17.1641V15.1641ZM8.0531 14.7891C7.81083 14.5703 7.65625 14.2636 7.65625 13.75H5.65625C5.65625 14.7364 5.98604 15.6172 6.71253 16.2734L8.0531 14.7891ZM7.65625 13.75C7.65625 13.4653 7.74082 13.2109 7.93779 12.9577L6.35909 11.7298C5.89981 12.3203 5.65625 13.0034 5.65625 13.75H7.65625ZM7.92367 12.9754C8.15609 12.6902 8.50602 12.4131 9.01609 12.1646L8.14016 10.3666C7.43148 10.7119 6.82828 11.1536 6.3732 11.7121L7.92367 12.9754ZM9.02534 12.1601C9.22046 12.0625 9.37959 11.9935 9.50581 11.9476L8.82232 10.068C8.60478 10.1471 8.37329 10.25 8.13091 10.3712L9.02534 12.1601ZM9.54868 11.9309C9.73265 11.8542 9.90004 11.7858 10.0511 11.7254L9.3083 9.8684C9.14684 9.93298 8.97048 10.0051 8.77945 10.0847L9.54868 11.9309ZM9.97951 11.7509C10.5248 11.5795 10.9748 11.4398 11.3302 11.3317L10.7479 9.41833C10.3846 9.52891 9.92829 9.67052 9.37986 9.84288L9.97951 11.7509ZM11.3191 11.335C11.6941 11.2256 11.963 11.1465 12.1233 11.0985L11.5486 9.1828C11.3964 9.22846 11.134 9.30563 10.7591 9.415L11.3191 11.335ZM12.3216 11.0148C12.5334 10.8971 12.7292 10.7213 12.8657 10.4785C13.0003 10.2392 13.0469 9.98925 13.0469 9.76562H11.0469C11.0469 9.71387 11.0583 9.61231 11.1226 9.49802C11.1888 9.3803 11.2791 9.30599 11.3503 9.26647L12.3216 11.0148ZM13.0469 9.76562V8.47656H11.0469V9.76562H13.0469ZM13.0469 8.47656C13.0469 7.7852 12.8888 7.10784 12.4527 6.56281L10.891 7.81219C10.955 7.89216 11.0469 8.07418 11.0469 8.47656H13.0469ZM12.4527 6.56281C12.0014 5.99864 11.3707 5.71875 10.6641 5.71875V7.71875C10.8012 7.71875 10.8423 7.75136 10.891 7.81219L12.4527 6.56281ZM10.6641 5.71875C9.96593 5.71875 9.30648 5.95049 8.81726 6.49727L10.3077 7.83086C10.3498 7.78388 10.4247 7.71875 10.6641 7.71875V5.71875ZM8.83549 6.47744C8.33789 7.0043 8.16406 7.69281 8.16406 8.38281H10.1641C10.1641 8.01032 10.2559 7.88632 10.2895 7.85069L8.83549 6.47744ZM8.16406 8.38281C8.16406 8.41346 8.15877 8.39171 8.18174 8.34576C8.19275 8.32375 8.20702 8.30291 8.22301 8.28514C8.23874 8.26766 8.25194 8.2578 8.2578 8.25389L9.3672 9.91799C9.91378 9.5536 10.1641 8.98662 10.1641 8.38281H8.16406ZM8.298 8.22844C8.23233 8.26785 8.14741 8.29688 8.01562 8.29688V10.2969C8.47759 10.2969 8.92392 10.1853 9.327 9.94343L8.298 8.22844ZM8.01562 8.29688C7.83064 8.29688 7.73568 8.26642 7.6964 8.24829C7.66778 8.23508 7.65762 8.22478 7.64487 8.20438L5.94888 9.26437C6.42152 10.0206 7.21241 10.2969 8.01562 10.2969V8.29688ZM7.79688 8.73438C7.79688 8.62801 7.83195 8.47184 8.00625 8.24912L6.43124 7.0165C6.04305 7.51253 5.79688 8.09074 5.79688 8.73438H7.79688ZM8.01875 8.23281C8.22045 7.96388 8.49743 7.70447 8.86834 7.46146L7.77229 5.78854C7.23694 6.13928 6.77955 6.55175 6.41875 7.03281L8.01875 8.23281ZM8.85536 7.46982C9.24412 7.22361 9.67735 7.02552 10.1594 6.87823L9.57497 4.96552C8.93203 5.16198 8.334 5.43264 7.78526 5.78018L8.85536 7.46982ZM10.1834 6.87056C10.6495 6.7152 11.1054 6.64062 11.5547 6.64062V4.64062C10.879 4.64062 10.2099 4.75355 9.55096 4.97319L10.1834 6.87056ZM11.5547 6.64062C12.3527 6.64062 12.7719 6.85002 13.0055 7.09874L14.4632 5.72939C13.7281 4.94686 12.6941 4.64062 11.5547 4.64062V6.64062ZM13.0161 7.10986C13.2231 7.32351 13.4609 7.85717 13.4609 9.01562H15.4609C15.4609 7.70533 15.2144 6.50461 14.4526 5.71827L13.0161 7.10986ZM13.4609 9.01562V13.6328H15.4609V9.01562H13.4609ZM13.4609 13.6328C13.4609 14.061 13.5428 14.5675 13.8753 14.9805C14.2411 15.4351 14.758 15.5938 15.2344 15.5938V13.5938C15.2072 13.5938 15.2294 13.5894 15.2786 13.6098C15.334 13.6327 15.3907 13.6735 15.4333 13.7265C15.4723 13.775 15.4787 13.8075 15.4751 13.7941C15.471 13.7787 15.4609 13.7292 15.4609 13.6328H13.4609ZM15.2344 15.5938C15.7516 15.5938 16.2157 15.3746 16.5959 15.1144L15.4666 13.4638C15.3666 13.5321 15.2956 13.567 15.2522 13.5835C15.2098 13.5997 15.2065 13.5938 15.2344 13.5938V15.5938ZM15.8669 15.2755C15.7531 15.2565 15.6263 15.2106 15.5073 15.1246C15.3891 15.0393 15.3093 14.9367 15.2588 14.8441C15.2104 14.7553 15.1902 14.6786 15.1813 14.6329C15.1723 14.5866 15.1719 14.5556 15.1719 14.5469H17.1719C17.1719 14.3911 17.1523 14.1388 17.0146 13.8864C16.8491 13.583 16.5562 13.3628 16.1956 13.3027L15.8669 15.2755ZM15.1719 14.5469C15.1719 14.6446 15.164 14.7099 15.1561 14.7492C15.1483 14.7885 15.1427 14.7908 15.1534 14.7711L16.9091 15.7289C17.1139 15.3534 17.1719 14.9318 17.1719 14.5469H15.1719ZM15.4066 14.4691C15.2406 14.6019 14.9894 14.7631 14.6324 14.9487L15.5551 16.7232C15.9794 16.5025 16.3532 16.2731 16.6559 16.0309L15.4066 14.4691ZM14.6324 14.9487C14.3526 15.0942 14.1353 15.1406 13.9688 15.1406V17.1406C14.521 17.1406 15.0536 16.9839 15.5551 16.7232L14.6324 14.9487ZM13.9688 15.1406C13.874 15.1406 13.7318 15.1103 13.5255 14.9509L12.3026 16.5335C12.7838 16.9053 13.3448 17.1406 13.9688 17.1406V15.1406ZM13.5255 14.9509C13.2879 14.7673 13.2066 14.6257 13.1782 14.5446L11.2905 15.2054C11.4809 15.7493 11.8528 16.1859 12.3026 16.5335L13.5255 14.9509ZM11.5759 14.1224C11.4537 14.2293 11.3837 14.2865 11.3531 14.3094L12.5531 15.9094C12.6476 15.8385 12.7651 15.7394 12.8929 15.6276L11.5759 14.1224ZM11.3531 14.3094C11.283 14.362 11.1754 14.4448 11.0345 14.5544L12.2624 16.1331C12.4027 16.024 12.4982 15.9505 12.5531 15.9094L11.3531 14.3094ZM11.0937 14.5117C10.8175 14.6959 10.5095 14.8639 10.1676 15.0144L10.9731 16.845C11.4124 16.6517 11.8231 16.4291 12.2031 16.1758L11.0937 14.5117ZM10.1989 15.0012C9.93525 15.1067 9.64047 15.1641 9.30469 15.1641V17.1641C9.87515 17.1641 10.4241 17.0652 10.9417 16.8582L10.1989 15.0012ZM10.5 15.6406C11.1033 15.6406 11.6785 15.4807 12.1713 15.1176L10.9849 13.5074C10.884 13.5818 10.7404 13.6406 10.5 13.6406V15.6406ZM12.1516 15.1317C12.6275 14.7986 13.0469 14.2791 13.0469 13.5625H11.0469C11.0469 13.5388 11.0504 13.5121 11.0582 13.4854C11.066 13.4591 11.0756 13.4406 11.0817 13.4309C11.0923 13.4139 11.0818 13.4393 11.0047 13.4933L12.1516 15.1317ZM13.0469 13.5625V11.1719H11.0469V13.5625H13.0469ZM11.7218 10.2262L10.2218 10.7418L10.872 12.6332L12.372 12.1176L11.7218 10.2262ZM10.1481 10.7704C9.71954 10.9568 9.32556 11.1857 8.972 11.4606L10.1999 13.0394C10.4088 12.8768 10.6555 12.7307 10.9456 12.6046L10.1481 10.7704ZM8.972 11.4606C8.41088 11.8971 8.16406 12.5217 8.16406 13.1875H10.1641C10.1641 13.1 10.179 13.0643 10.1815 13.0588C10.183 13.0555 10.1838 13.0544 10.1845 13.0535C10.1853 13.0525 10.1893 13.0476 10.1999 13.0394L8.972 11.4606ZM8.16406 13.1875C8.16406 13.8359 8.32598 14.5225 8.85512 15.0186L10.223 13.5595C10.2521 13.5868 10.1641 13.5391 10.1641 13.1875H8.16406ZM8.85512 15.0186C9.31662 15.4513 9.89358 15.6406 10.5 15.6406V13.6406C10.3252 13.6406 10.2615 13.5956 10.223 13.5595L8.85512 15.0186Z" fill="url(#paint4_linear_410_6921)" mask="url(#path-6-inside-2_410_6921)"/>
</g>
<defs>
<filter id="filter0_i_410_6921" x="4" y="5" width="7" height="7" filterUnits="userSpaceOnUse" color-interpolation-filters="sRGB">
<feFlood flood-opacity="0" result="BackgroundImageFix"/>
<feBlend mode="normal" in="SourceGraphic" in2="BackgroundImageFix" result="shape"/>
<feColorMatrix in="SourceAlpha" type="matrix" values="0 0 0 0 0 0 0 0 0 0 0 0 0 0 0 0 0 0 127 0" result="hardAlpha"/>
<feOffset dx="1" dy="1"/>
<feGaussianBlur stdDeviation="1"/>
<feComposite in2="hardAlpha" operator="arithmetic" k2="-1" k3="1"/>
<feColorMatrix type="matrix" values="0 0 0 0 0.71381 0 0 0 0 0.864312 0 0 0 0 0.687251 0 0 0 1 0"/>
<feBlend mode="normal" in2="shape" result="effect1_innerShadow_410_6921"/>
</filter>
<linearGradient id="paint0_linear_410_6921" x1="8" y1="5.5" x2="0" y2="5.5" gradientUnits="userSpaceOnUse">
<stop stop-color="#71A4E6"/>
<stop offset="1" stop-color="#88B5EC"/>
</linearGradient>
<linearGradient id="paint1_linear_410_6921" x1="8" y1="5.5" x2="0" y2="5.5" gradientUnits="userSpaceOnUse">
<stop stop-color="#296CD9"/>
<stop offset="1" stop-color="#448DE2"/>
</linearGradient>
<linearGradient id="paint2_linear_410_6921" x1="5.05511" y1="5.46154" x2="9.60504" y2="10.3906" gradientUnits="userSpaceOnUse">
<stop stop-color="#80C178"/>
<stop offset="1" stop-color="#2A6B26"/>
</linearGradient>
<linearGradient id="paint3_linear_410_6921" x1="17" y1="8.5" x2="6" y2="8.5" gradientUnits="userSpaceOnUse">
<stop stop-color="#71A4E6"/>
<stop offset="1" stop-color="#88B5EC"/>
</linearGradient>
<linearGradient id="paint4_linear_410_6921" x1="17" y1="8.5" x2="6" y2="8.5" gradientUnits="userSpaceOnUse">
<stop stop-color="#296CD9"/>
<stop offset="1" stop-color="#448DE2"/>
</linearGradient>
<clipPath id="clip0_410_6921">
<rect width="16" height="16" fill="white"/>
</clipPath>
</defs>
</svg>
