<svg width="156" height="49" viewBox="0 0 156 49" fill="none" xmlns="http://www.w3.org/2000/svg">
<g filter="url(#filter0_dd_583_9050)">
<rect x="4" y="1" width="148" height="40" rx="8" fill="white"/>
<rect x="10.5" y="7.5" width="27" height="27" rx="3.5" stroke="black" stroke-opacity="0.33" stroke-dasharray="2 2"/>
<rect x="64.5" y="7.5" width="27" height="27" rx="3.5" stroke="black" stroke-opacity="0.33" stroke-dasharray="2 2"/>
<rect x="118.5" y="7.5" width="27" height="27" rx="3.5" stroke="black" stroke-opacity="0.33" stroke-dasharray="2 2"/>
<path d="M53.528 19.152V20.712H51.332V22.872H49.724V20.712H47.54V19.152H49.724V16.98H51.332V19.152H53.528Z" fill="black"/>
<path d="M101.54 19.272V17.832H107.528V19.272H101.54ZM101.54 22.008V20.568H107.528V22.008H101.54Z" fill="black"/>
<g clip-path="url(#clip0_583_9050)">
<rect x="20.5" y="16.5" width="7" height="4" fill="#C3C3C3" stroke="#9C9C9C" stroke-linejoin="round"/>
<path d="M19 18.5C18.9224 18.5 18.8458 18.5181 18.7764 18.5528L19 19C18.7764 18.5528 18.7762 18.5529 18.776 18.553L18.7756 18.5532L18.7746 18.5537L18.7721 18.5549L18.7649 18.5586L18.7422 18.5705C18.7235 18.5805 18.6978 18.5946 18.666 18.6128C18.6025 18.649 18.5145 18.7019 18.4101 18.7715C18.2023 18.91 17.9251 19.1178 17.6464 19.3964C17.0919 19.9509 16.5 20.8206 16.5 22V22.0117V22.0235V22.0353V22.0471V22.0589V22.0707V22.0826V22.0945V22.1064V22.1183V22.1303V22.1422V22.1542V22.1662V22.1783V22.1903V22.2024V22.2145V22.2266V22.2387V22.2509V22.263V22.2752V22.2874V22.2997V22.3119V22.3242V22.3364V22.3487V22.3611V22.3734V22.3857V22.3981V22.4105V22.4229V22.4353V22.4478V22.4602V22.4727V22.4852V22.4977V22.5102V22.5227V22.5352V22.5478V22.5604V22.573V22.5856V22.5982V22.6108V22.6235V22.6361V22.6488V22.6615V22.6742V22.6869V22.6996V22.7124V22.7251V22.7379V22.7507V22.7635V22.7763V22.7891V22.8019V22.8147V22.8276V22.8404V22.8533V22.8662V22.8791V22.892V22.9049V22.9178V22.9307V22.9436V22.9566V22.9695V22.9825V22.9955V23.0085V23.0215V23.0345V23.0475V23.0605V23.0735V23.0865V23.0996V23.1126V23.1257V23.1387V23.1518V23.1649V23.1779V23.191V23.2041V23.2172V23.2303V23.2434V23.2565V23.2696V23.2828V23.2959V23.309V23.3221V23.3353V23.3484V23.3616V23.3747V23.3879V23.401V23.4142V23.4273V23.4405V23.4537V23.4668V23.48V23.4932V23.5064V23.5195V23.5327V23.5459V23.5591V23.5723V23.5854V23.5986V23.6118V23.625V23.6382V23.6514V23.6645V23.6777V23.6909V23.7041V23.7173V23.7305V23.7436V23.7568V23.77V23.7832V23.7963V23.8095V23.8227V23.8358V23.849V23.8621V23.8753V23.8884V23.9016V23.9147V23.9279V23.941V23.9541V23.9672V23.9804V23.9935V24.0066V24.0197V24.0328V24.0459V24.059V24.0721V24.0851V24.0982V24.1113V24.1243V24.1374V24.1504V24.1635V24.1765V24.1895V24.2025V24.2155V24.2285V24.2415V24.2545V24.2675V24.2805V24.2934V24.3064V24.3193V24.3322V24.3451V24.358V24.3709V24.3838V24.3967V24.4096V24.4224V24.4353V24.4481V24.4609V24.4737V24.4865V24.4993V24.5121V24.5249V24.5376V24.5504V24.5631V24.5758V24.5885V24.6012V24.6139V24.6265V24.6392V24.6518V24.6644V24.677V24.6896V24.7022V24.7148V24.7273V24.7398V24.7523V24.7648V24.7773V24.7898V24.8022V24.8147V24.8271V24.8395V24.8519V24.8643V24.8766V24.8889V24.9013V24.9136V24.9258V24.9381V24.9503V24.9626V24.9748V24.987V24.9991V25.0113V25.0234V25.0355V25.0476V25.0597V25.0717V25.0838V25.0958V25.1078V25.1197V25.1317V25.1436V25.1555V25.1674V25.1793V25.1911V25.2029V25.2147V25.2265V25.2383V25.25V25.2617V25.2734V25.2851V25.2967V25.3083V25.3199V25.3315V25.343V25.3545V25.366V25.3775V25.3889V25.4003V25.4117V25.4231V25.4344V25.4458V25.4571V25.4683V25.4796V25.4908V25.502V25.5131V25.5242V25.5354V25.5464V25.5575V25.5685V25.5795V25.5905V25.6014V25.6123V25.6232V25.634V25.6449V25.6557V25.6664V25.6772V25.6879V25.6985V25.7092V25.7198V25.7304V25.7409V25.7515V25.7619V25.7724V25.7828V25.7932V25.8036V25.8139V25.8242V25.8345V25.8447V25.855V25.8651V25.8753V25.8854V25.8954V25.9055V25.9155V25.9255V25.9354V25.9453V25.9552V25.965V25.9748V25.9846V25.9943V26.004V26.0137V26.0233V26.0329V26.0424V26.052V26.0614V26.0709V26.0803V26.0897V26.099V26.1083V26.1176V26.1268V26.136V26.1451V26.1542V26.1633V26.1723V26.1813V26.1903V26.1992V26.2081V26.2169V26.2257V26.2344V26.2432V26.2518V26.2605V26.2691V26.2776V26.2861V26.2946V26.3031V26.3114V26.3198V26.3281V26.3364V26.3446V26.3528V26.3609V26.369V26.3771V26.3851V26.3931V26.401V26.4089V26.4167V26.4245V26.4322V26.44V26.4476V26.4552V26.4628V26.4703V26.4778V26.4853V26.4927V26.5V26.5073V26.5146V26.5218V26.5289V26.536V26.5431V26.5501V26.5571V26.564V26.5709V26.5778V26.5845V26.5913V26.598V26.6046V26.6112V26.6178V26.6242V26.6307V26.6371V26.6434V26.6497V26.656V26.6622V26.6683V26.6744V26.6805V26.6865V26.6924V26.6983V26.7042V26.71V26.7157V26.7214V26.727V26.7326V26.7382V26.7436V26.7491V26.7544V26.7598V26.765V26.7703V26.7754V26.7805V26.7856V26.7906V26.7955V26.8004V26.8053V26.81V26.8148V26.8195V26.8241V26.8286V26.8331V26.8376V26.842V26.8463V26.8506V26.8548V26.859V26.8631V26.8672V26.8712V26.8751V26.879V26.8828V26.8866V26.8903V26.894V26.8976V26.9011V26.9046V26.908V26.9114V26.9147V26.9179V26.9211V26.9242V26.9273V26.9303V26.9332V26.9361V26.9389V26.9416V26.9443V26.947V26.9495V26.9521V26.9545V26.9569V26.9592V26.9615V26.9637V26.9658V26.9679V26.9699V26.9719V26.9737V26.9756V26.9773V26.979V26.9806V26.9822V26.9837V26.9851V26.9865V26.9878V26.989V26.9902V26.9913V26.9924V26.9934V26.9943V26.9951V26.9959V26.9966V26.9972V26.9978V26.9983V26.9988V26.9991V26.9995V26.9997V26.9999V27L17 27H16.5C16.5 27.2761 16.7239 27.5 17 27.5H31C31.2761 27.5 31.5 27.2761 31.5 27H31L31.5 27V26.9999V26.9997V26.9995V26.9991V26.9988V26.9983V26.9978V26.9972V26.9966V26.9959V26.9951V26.9943V26.9934V26.9924V26.9913V26.9902V26.989V26.9878V26.9865V26.9851V26.9837V26.9822V26.9806V26.979V26.9773V26.9756V26.9737V26.9719V26.9699V26.9679V26.9658V26.9637V26.9615V26.9592V26.9569V26.9545V26.9521V26.9495V26.947V26.9443V26.9416V26.9389V26.9361V26.9332V26.9303V26.9273V26.9242V26.9211V26.9179V26.9147V26.9114V26.908V26.9046V26.9011V26.8976V26.894V26.8903V26.8866V26.8828V26.879V26.8751V26.8712V26.8672V26.8631V26.859V26.8548V26.8506V26.8463V26.842V26.8376V26.8331V26.8286V26.8241V26.8195V26.8148V26.81V26.8053V26.8004V26.7955V26.7906V26.7856V26.7805V26.7754V26.7703V26.765V26.7598V26.7544V26.7491V26.7436V26.7382V26.7326V26.727V26.7214V26.7157V26.71V26.7042V26.6983V26.6924V26.6865V26.6805V26.6744V26.6683V26.6622V26.656V26.6497V26.6434V26.6371V26.6307V26.6242V26.6178V26.6112V26.6046V26.598V26.5913V26.5845V26.5778V26.5709V26.564V26.5571V26.5501V26.5431V26.536V26.5289V26.5218V26.5146V26.5073V26.5V26.4927V26.4853V26.4778V26.4703V26.4628V26.4552V26.4476V26.44V26.4322V26.4245V26.4167V26.4089V26.401V26.3931V26.3851V26.3771V26.369V26.3609V26.3528V26.3446V26.3364V26.3281V26.3198V26.3114V26.3031V26.2946V26.2861V26.2776V26.2691V26.2605V26.2518V26.2432V26.2344V26.2257V26.2169V26.2081V26.1992V26.1903V26.1813V26.1723V26.1633V26.1542V26.1451V26.136V26.1268V26.1176V26.1083V26.099V26.0897V26.0803V26.0709V26.0614V26.052V26.0424V26.0329V26.0233V26.0137V26.004V25.9943V25.9846V25.9748V25.965V25.9552V25.9453V25.9354V25.9255V25.9155V25.9055V25.8954V25.8854V25.8753V25.8651V25.855V25.8447V25.8345V25.8242V25.8139V25.8036V25.7932V25.7828V25.7724V25.7619V25.7515V25.7409V25.7304V25.7198V25.7092V25.6985V25.6879V25.6772V25.6664V25.6557V25.6449V25.634V25.6232V25.6123V25.6014V25.5905V25.5795V25.5685V25.5575V25.5464V25.5354V25.5242V25.5131V25.502V25.4908V25.4796V25.4683V25.4571V25.4458V25.4344V25.4231V25.4117V25.4003V25.3889V25.3775V25.366V25.3545V25.343V25.3315V25.3199V25.3083V25.2967V25.2851V25.2734V25.2617V25.25V25.2383V25.2265V25.2147V25.2029V25.1911V25.1793V25.1674V25.1555V25.1436V25.1317V25.1197V25.1078V25.0958V25.0838V25.0717V25.0597V25.0476V25.0355V25.0234V25.0113V24.9991V24.987V24.9748V24.9626V24.9503V24.9381V24.9258V24.9136V24.9013V24.8889V24.8766V24.8643V24.8519V24.8395V24.8271V24.8147V24.8022V24.7898V24.7773V24.7648V24.7523V24.7398V24.7273V24.7148V24.7022V24.6896V24.677V24.6644V24.6518V24.6392V24.6265V24.6139V24.6012V24.5885V24.5758V24.5631V24.5504V24.5376V24.5249V24.5121V24.4993V24.4865V24.4737V24.4609V24.4481V24.4353V24.4224V24.4096V24.3967V24.3838V24.3709V24.358V24.3451V24.3322V24.3193V24.3064V24.2934V24.2805V24.2675V24.2545V24.2415V24.2285V24.2155V24.2025V24.1895V24.1765V24.1635V24.1504V24.1374V24.1243V24.1113V24.0982V24.0851V24.0721V24.059V24.0459V24.0328V24.0197V24.0066V23.9935V23.9804V23.9672V23.9541V23.941V23.9279V23.9147V23.9016V23.8884V23.8753V23.8621V23.849V23.8358V23.8227V23.8095V23.7963V23.7832V23.77V23.7568V23.7436V23.7305V23.7173V23.7041V23.6909V23.6777V23.6645V23.6514V23.6382V23.625V23.6118V23.5986V23.5854V23.5723V23.5591V23.5459V23.5327V23.5195V23.5064V23.4932V23.48V23.4668V23.4537V23.4405V23.4273V23.4142V23.401V23.3879V23.3747V23.3616V23.3484V23.3353V23.3221V23.309V23.2959V23.2828V23.2696V23.2565V23.2434V23.2303V23.2172V23.2041V23.191V23.1779V23.1649V23.1518V23.1387V23.1257V23.1126V23.0996V23.0865V23.0735V23.0605V23.0475V23.0345V23.0215V23.0085V22.9955V22.9825V22.9695V22.9566V22.9436V22.9307V22.9178V22.9049V22.892V22.8791V22.8662V22.8533V22.8404V22.8276V22.8147V22.8019V22.7891V22.7763V22.7635V22.7507V22.7379V22.7251V22.7124V22.6996V22.6869V22.6742V22.6615V22.6488V22.6361V22.6235V22.6108V22.5982V22.5856V22.573V22.5604V22.5478V22.5352V22.5227V22.5102V22.4977V22.4852V22.4727V22.4602V22.4478V22.4353V22.4229V22.4105V22.3981V22.3857V22.3734V22.3611V22.3487V22.3364V22.3242V22.3119V22.2997V22.2874V22.2752V22.263V22.2509V22.2387V22.2266V22.2145V22.2024V22.1903V22.1783V22.1662V22.1542V22.1422V22.1303V22.1183V22.1064V22.0945V22.0826V22.0707V22.0589V22.0471V22.0353V22.0235V22.0117V22C31.5 20.8206 30.9081 19.9509 30.3536 19.3964C30.0749 19.1178 29.7977 18.91 29.5899 18.7715C29.4855 18.7019 29.3975 18.649 29.334 18.6128C29.3022 18.5946 29.2765 18.5805 29.2578 18.5705L29.2351 18.5586L29.2279 18.5549L29.2254 18.5537L29.2244 18.5532L29.224 18.553C29.2238 18.5529 29.2236 18.5528 29 19L29.2236 18.5528C29.1542 18.5181 29.0776 18.5 29 18.5H19Z" fill="url(#paint0_linear_583_9050)" stroke="url(#paint1_linear_583_9050)" stroke-linejoin="round"/>
<mask id="mask0_583_9050" style="mask-type:alpha" maskUnits="userSpaceOnUse" x="19" y="13" width="10" height="8">
<rect x="19" y="13" width="10" height="8" fill="#D9D9D9"/>
</mask>
<g mask="url(#mask0_583_9050)">
<path d="M20 15C20 14.4477 20.4477 14 21 14H25.5654C25.8426 14 26.1074 14.115 26.2965 14.3177L27.7311 15.8547C27.9039 16.0399 28 16.2837 28 16.537V23C28 23.5523 27.5523 24 27 24H21C20.4477 24 20 23.5523 20 23V15Z" fill="url(#paint2_linear_583_9050)"/>
<path d="M21 13.5C20.1716 13.5 19.5 14.1716 19.5 15V23C19.5 23.8284 20.1716 24.5 21 24.5H27C27.8284 24.5 28.5 23.8284 28.5 23V16.537C28.5 16.1571 28.3558 15.7913 28.0966 15.5135L26.662 13.9765C26.3783 13.6726 25.9812 13.5 25.5654 13.5H21Z" stroke="url(#paint3_linear_583_9050)" stroke-opacity="0.8" stroke-linejoin="round"/>
<path d="M20.5 15C20.5 14.7239 20.7239 14.5 21 14.5H25C25.2761 14.5 25.5 14.7239 25.5 15V15.1429C25.5 15.9713 26.1716 16.6429 27 16.6429C27.2761 16.6429 27.5 16.8667 27.5 17.1429V23C27.5 23.2761 27.2761 23.5 27 23.5H21C20.7239 23.5 20.5 23.2761 20.5 23V15Z" stroke="white" stroke-linejoin="round" style="mix-blend-mode:soft-light"/>
</g>
<rect x="19.5" y="20.5" width="9" height="6" fill="url(#paint4_linear_583_9050)" stroke="url(#paint5_linear_583_9050)" stroke-linejoin="round"/>
<rect x="20.5" y="21.5" width="7" height="4" stroke="white" stroke-opacity="0.66" stroke-linejoin="round"/>
<rect x="19.5" y="25.5" width="9" height="2" fill="#898989" stroke="url(#paint6_linear_583_9050)" stroke-linejoin="round"/>
<mask id="mask1_583_9050" style="mask-type:alpha" maskUnits="userSpaceOnUse" x="19" y="27" width="10" height="2">
<rect x="19" y="27" width="10" height="2" fill="#D9D9D9"/>
</mask>
<g mask="url(#mask1_583_9050)">
<path d="M20 19C20 18.4477 20.4477 18 21 18H25.5654C25.8426 18 26.1074 18.115 26.2965 18.3177L27.7311 19.8547C27.9039 20.0399 28 20.2837 28 20.537V27C28 27.5523 27.5523 28 27 28H21C20.4477 28 20 27.5523 20 27V19Z" fill="url(#paint7_linear_583_9050)"/>
<path d="M21 17.5C20.1716 17.5 19.5 18.1716 19.5 19V27C19.5 27.8284 20.1716 28.5 21 28.5H27C27.8284 28.5 28.5 27.8284 28.5 27V20.537C28.5 20.1571 28.3558 19.7913 28.0966 19.5135L26.662 17.9765C26.3783 17.6726 25.9812 17.5 25.5654 17.5H21Z" stroke="url(#paint8_linear_583_9050)" stroke-opacity="0.8" stroke-linejoin="round"/>
<path d="M20.5 19C20.5 18.7239 20.7239 18.5 21 18.5H25C25.2761 18.5 25.5 18.7239 25.5 19V19.1429C25.5 19.9713 26.1716 20.6429 27 20.6429C27.2761 20.6429 27.5 20.8667 27.5 21.1429V27C27.5 27.2761 27.2761 27.5 27 27.5H21C20.7239 27.5 20.5 27.2761 20.5 27V19Z" stroke="white" stroke-linejoin="round" style="mix-blend-mode:soft-light"/>
</g>
</g>
<mask id="path-20-inside-1_583_9050" fill="white">
<path fill-rule="evenodd" clip-rule="evenodd" d="M85 23V24H85V23H83.5C83.5 22.1716 82.8284 21.5 82 21.5C81.1716 21.5 80.5 22.1716 80.5 23H79C79 21.3431 80.3431 20 82 20C83.6569 20 85 21.3431 85 23Z"/>
</mask>
<path fill-rule="evenodd" clip-rule="evenodd" d="M85 23V24H85V23H83.5C83.5 22.1716 82.8284 21.5 82 21.5C81.1716 21.5 80.5 22.1716 80.5 23H79C79 21.3431 80.3431 20 82 20C83.6569 20 85 21.3431 85 23Z" fill="url(#paint9_linear_583_9050)"/>
<path d="M85 24V25H86V24H85ZM85 24H84V25H85V24ZM85 23H86V22H85V23ZM83.5 23H82.5V24H83.5V23ZM80.5 23V24H81.5V23H80.5ZM79 23H78V24H79V23ZM86 24V23H84V24H86ZM85 25H85V23H85V25ZM84 23V24H86V23H84ZM83.5 24H85V22H83.5V24ZM82 22.5C82.2761 22.5 82.5 22.7239 82.5 23H84.5C84.5 21.6193 83.3807 20.5 82 20.5V22.5ZM81.5 23C81.5 22.7239 81.7239 22.5 82 22.5V20.5C80.6193 20.5 79.5 21.6193 79.5 23H81.5ZM79 24H80.5V22H79V24ZM82 19C79.7909 19 78 20.7909 78 23H80C80 21.8954 80.8954 21 82 21V19ZM86 23C86 20.7909 84.2091 19 82 19V21C83.1046 21 84 21.8954 84 23H86Z" fill="url(#paint10_linear_583_9050)" fill-opacity="0.5" mask="url(#path-20-inside-1_583_9050)"/>
<rect x="78.5" y="23.5" width="7" height="5" fill="url(#paint11_linear_583_9050)" stroke="url(#paint12_linear_583_9050)"/>
<g filter="url(#filter1_i_583_9050)">
<rect x="81" y="25" width="2" height="2" fill="#AB824D"/>
</g>
<g clip-path="url(#clip1_583_9050)">
<rect x="128.5" y="16.5" width="7" height="4" fill="#C3C3C3" stroke="#9C9C9C" stroke-linejoin="round"/>
<path d="M127 18.5C126.922 18.5 126.846 18.5181 126.776 18.5528L127 19C126.776 18.5528 126.776 18.5529 126.776 18.553L126.776 18.5532L126.775 18.5537L126.772 18.5549L126.765 18.5586L126.742 18.5705C126.724 18.5805 126.698 18.5946 126.666 18.6128C126.602 18.649 126.514 18.7019 126.41 18.7715C126.202 18.91 125.925 19.1178 125.646 19.3964C125.092 19.9509 124.5 20.8206 124.5 22V22.0117V22.0235V22.0353V22.0471V22.0589V22.0707V22.0826V22.0945V22.1064V22.1183V22.1303V22.1422V22.1542V22.1662V22.1783V22.1903V22.2024V22.2145V22.2266V22.2387V22.2509V22.263V22.2752V22.2874V22.2997V22.3119V22.3242V22.3364V22.3487V22.3611V22.3734V22.3857V22.3981V22.4105V22.4229V22.4353V22.4478V22.4602V22.4727V22.4852V22.4977V22.5102V22.5227V22.5352V22.5478V22.5604V22.573V22.5856V22.5982V22.6108V22.6235V22.6361V22.6488V22.6615V22.6742V22.6869V22.6996V22.7124V22.7251V22.7379V22.7507V22.7635V22.7763V22.7891V22.8019V22.8147V22.8276V22.8404V22.8533V22.8662V22.8791V22.892V22.9049V22.9178V22.9307V22.9436V22.9566V22.9695V22.9825V22.9955V23.0085V23.0215V23.0345V23.0475V23.0605V23.0735V23.0865V23.0996V23.1126V23.1257V23.1387V23.1518V23.1649V23.1779V23.191V23.2041V23.2172V23.2303V23.2434V23.2565V23.2696V23.2828V23.2959V23.309V23.3221V23.3353V23.3484V23.3616V23.3747V23.3879V23.401V23.4142V23.4273V23.4405V23.4537V23.4668V23.48V23.4932V23.5064V23.5195V23.5327V23.5459V23.5591V23.5723V23.5854V23.5986V23.6118V23.625V23.6382V23.6514V23.6645V23.6777V23.6909V23.7041V23.7173V23.7305V23.7436V23.7568V23.77V23.7832V23.7963V23.8095V23.8227V23.8358V23.849V23.8621V23.8753V23.8884V23.9016V23.9147V23.9279V23.941V23.9541V23.9672V23.9804V23.9935V24.0066V24.0197V24.0328V24.0459V24.059V24.0721V24.0851V24.0982V24.1113V24.1243V24.1374V24.1504V24.1635V24.1765V24.1895V24.2025V24.2155V24.2285V24.2415V24.2545V24.2675V24.2805V24.2934V24.3064V24.3193V24.3322V24.3451V24.358V24.3709V24.3838V24.3967V24.4096V24.4224V24.4353V24.4481V24.4609V24.4737V24.4865V24.4993V24.5121V24.5249V24.5376V24.5504V24.5631V24.5758V24.5885V24.6012V24.6139V24.6265V24.6392V24.6518V24.6644V24.677V24.6896V24.7022V24.7148V24.7273V24.7398V24.7523V24.7648V24.7773V24.7898V24.8022V24.8147V24.8271V24.8395V24.8519V24.8643V24.8766V24.8889V24.9013V24.9136V24.9258V24.9381V24.9503V24.9626V24.9748V24.987V24.9991V25.0113V25.0234V25.0355V25.0476V25.0597V25.0717V25.0838V25.0958V25.1078V25.1197V25.1317V25.1436V25.1555V25.1674V25.1793V25.1911V25.2029V25.2147V25.2265V25.2383V25.25V25.2617V25.2734V25.2851V25.2967V25.3083V25.3199V25.3315V25.343V25.3545V25.366V25.3775V25.3889V25.4003V25.4117V25.4231V25.4344V25.4458V25.4571V25.4683V25.4796V25.4908V25.502V25.5131V25.5242V25.5354V25.5464V25.5575V25.5685V25.5795V25.5905V25.6014V25.6123V25.6232V25.634V25.6449V25.6557V25.6664V25.6772V25.6879V25.6985V25.7092V25.7198V25.7304V25.7409V25.7515V25.7619V25.7724V25.7828V25.7932V25.8036V25.8139V25.8242V25.8345V25.8447V25.855V25.8651V25.8753V25.8854V25.8954V25.9055V25.9155V25.9255V25.9354V25.9453V25.9552V25.965V25.9748V25.9846V25.9943V26.004V26.0137V26.0233V26.0329V26.0424V26.052V26.0614V26.0709V26.0803V26.0897V26.099V26.1083V26.1176V26.1268V26.136V26.1451V26.1542V26.1633V26.1723V26.1813V26.1903V26.1992V26.2081V26.2169V26.2257V26.2344V26.2432V26.2518V26.2605V26.2691V26.2776V26.2861V26.2946V26.3031V26.3114V26.3198V26.3281V26.3364V26.3446V26.3528V26.3609V26.369V26.3771V26.3851V26.3931V26.401V26.4089V26.4167V26.4245V26.4322V26.44V26.4476V26.4552V26.4628V26.4703V26.4778V26.4853V26.4927V26.5V26.5073V26.5146V26.5218V26.5289V26.536V26.5431V26.5501V26.5571V26.564V26.5709V26.5778V26.5845V26.5913V26.598V26.6046V26.6112V26.6178V26.6242V26.6307V26.6371V26.6434V26.6497V26.656V26.6622V26.6683V26.6744V26.6805V26.6865V26.6924V26.6983V26.7042V26.71V26.7157V26.7214V26.727V26.7326V26.7382V26.7436V26.7491V26.7544V26.7598V26.765V26.7703V26.7754V26.7805V26.7856V26.7906V26.7955V26.8004V26.8053V26.81V26.8148V26.8195V26.8241V26.8286V26.8331V26.8376V26.842V26.8463V26.8506V26.8548V26.859V26.8631V26.8672V26.8712V26.8751V26.879V26.8828V26.8866V26.8903V26.894V26.8976V26.9011V26.9046V26.908V26.9114V26.9147V26.9179V26.9211V26.9242V26.9273V26.9303V26.9332V26.9361V26.9389V26.9416V26.9443V26.947V26.9495V26.9521V26.9545V26.9569V26.9592V26.9615V26.9637V26.9658V26.9679V26.9699V26.9719V26.9737V26.9756V26.9773V26.979V26.9806V26.9822V26.9837V26.9851V26.9865V26.9878V26.989V26.9902V26.9913V26.9924V26.9934V26.9943V26.9951V26.9959V26.9966V26.9972V26.9978V26.9983V26.9988V26.9991V26.9995V26.9997V26.9999V27L125 27H124.5C124.5 27.2761 124.724 27.5 125 27.5H139C139.276 27.5 139.5 27.2761 139.5 27H139L139.5 27V26.9999V26.9997V26.9995V26.9991V26.9988V26.9983V26.9978V26.9972V26.9966V26.9959V26.9951V26.9943V26.9934V26.9924V26.9913V26.9902V26.989V26.9878V26.9865V26.9851V26.9837V26.9822V26.9806V26.979V26.9773V26.9756V26.9737V26.9719V26.9699V26.9679V26.9658V26.9637V26.9615V26.9592V26.9569V26.9545V26.9521V26.9495V26.947V26.9443V26.9416V26.9389V26.9361V26.9332V26.9303V26.9273V26.9242V26.9211V26.9179V26.9147V26.9114V26.908V26.9046V26.9011V26.8976V26.894V26.8903V26.8866V26.8828V26.879V26.8751V26.8712V26.8672V26.8631V26.859V26.8548V26.8506V26.8463V26.842V26.8376V26.8331V26.8286V26.8241V26.8195V26.8148V26.81V26.8053V26.8004V26.7955V26.7906V26.7856V26.7805V26.7754V26.7703V26.765V26.7598V26.7544V26.7491V26.7436V26.7382V26.7326V26.727V26.7214V26.7157V26.71V26.7042V26.6983V26.6924V26.6865V26.6805V26.6744V26.6683V26.6622V26.656V26.6497V26.6434V26.6371V26.6307V26.6242V26.6178V26.6112V26.6046V26.598V26.5913V26.5845V26.5778V26.5709V26.564V26.5571V26.5501V26.5431V26.536V26.5289V26.5218V26.5146V26.5073V26.5V26.4927V26.4853V26.4778V26.4703V26.4628V26.4552V26.4476V26.44V26.4322V26.4245V26.4167V26.4089V26.401V26.3931V26.3851V26.3771V26.369V26.3609V26.3528V26.3446V26.3364V26.3281V26.3198V26.3114V26.3031V26.2946V26.2861V26.2776V26.2691V26.2605V26.2518V26.2432V26.2344V26.2257V26.2169V26.2081V26.1992V26.1903V26.1813V26.1723V26.1633V26.1542V26.1451V26.136V26.1268V26.1176V26.1083V26.099V26.0897V26.0803V26.0709V26.0614V26.052V26.0424V26.0329V26.0233V26.0137V26.004V25.9943V25.9846V25.9748V25.965V25.9552V25.9453V25.9354V25.9255V25.9155V25.9055V25.8954V25.8854V25.8753V25.8651V25.855V25.8447V25.8345V25.8242V25.8139V25.8036V25.7932V25.7828V25.7724V25.7619V25.7515V25.7409V25.7304V25.7198V25.7092V25.6985V25.6879V25.6772V25.6664V25.6557V25.6449V25.634V25.6232V25.6123V25.6014V25.5905V25.5795V25.5685V25.5575V25.5464V25.5354V25.5242V25.5131V25.502V25.4908V25.4796V25.4683V25.4571V25.4458V25.4344V25.4231V25.4117V25.4003V25.3889V25.3775V25.366V25.3545V25.343V25.3315V25.3199V25.3083V25.2967V25.2851V25.2734V25.2617V25.25V25.2383V25.2265V25.2147V25.2029V25.1911V25.1793V25.1674V25.1555V25.1436V25.1317V25.1197V25.1078V25.0958V25.0838V25.0717V25.0597V25.0476V25.0355V25.0234V25.0113V24.9991V24.987V24.9748V24.9626V24.9503V24.9381V24.9258V24.9136V24.9013V24.8889V24.8766V24.8643V24.8519V24.8395V24.8271V24.8147V24.8022V24.7898V24.7773V24.7648V24.7523V24.7398V24.7273V24.7148V24.7022V24.6896V24.677V24.6644V24.6518V24.6392V24.6265V24.6139V24.6012V24.5885V24.5758V24.5631V24.5504V24.5376V24.5249V24.5121V24.4993V24.4865V24.4737V24.4609V24.4481V24.4353V24.4224V24.4096V24.3967V24.3838V24.3709V24.358V24.3451V24.3322V24.3193V24.3064V24.2934V24.2805V24.2675V24.2545V24.2415V24.2285V24.2155V24.2025V24.1895V24.1765V24.1635V24.1504V24.1374V24.1243V24.1113V24.0982V24.0851V24.0721V24.059V24.0459V24.0328V24.0197V24.0066V23.9935V23.9804V23.9672V23.9541V23.941V23.9279V23.9147V23.9016V23.8884V23.8753V23.8621V23.849V23.8358V23.8227V23.8095V23.7963V23.7832V23.77V23.7568V23.7436V23.7305V23.7173V23.7041V23.6909V23.6777V23.6645V23.6514V23.6382V23.625V23.6118V23.5986V23.5854V23.5723V23.5591V23.5459V23.5327V23.5195V23.5064V23.4932V23.48V23.4668V23.4537V23.4405V23.4273V23.4142V23.401V23.3879V23.3747V23.3616V23.3484V23.3353V23.3221V23.309V23.2959V23.2828V23.2696V23.2565V23.2434V23.2303V23.2172V23.2041V23.191V23.1779V23.1649V23.1518V23.1387V23.1257V23.1126V23.0996V23.0865V23.0735V23.0605V23.0475V23.0345V23.0215V23.0085V22.9955V22.9825V22.9695V22.9566V22.9436V22.9307V22.9178V22.9049V22.892V22.8791V22.8662V22.8533V22.8404V22.8276V22.8147V22.8019V22.7891V22.7763V22.7635V22.7507V22.7379V22.7251V22.7124V22.6996V22.6869V22.6742V22.6615V22.6488V22.6361V22.6235V22.6108V22.5982V22.5856V22.573V22.5604V22.5478V22.5352V22.5227V22.5102V22.4977V22.4852V22.4727V22.4602V22.4478V22.4353V22.4229V22.4105V22.3981V22.3857V22.3734V22.3611V22.3487V22.3364V22.3242V22.3119V22.2997V22.2874V22.2752V22.263V22.2509V22.2387V22.2266V22.2145V22.2024V22.1903V22.1783V22.1662V22.1542V22.1422V22.1303V22.1183V22.1064V22.0945V22.0826V22.0707V22.0589V22.0471V22.0353V22.0235V22.0117V22C139.5 20.8206 138.908 19.9509 138.354 19.3964C138.075 19.1178 137.798 18.91 137.59 18.7715C137.486 18.7019 137.398 18.649 137.334 18.6128C137.302 18.5946 137.276 18.5805 137.258 18.5705L137.235 18.5586L137.228 18.5549L137.225 18.5537L137.224 18.5532L137.224 18.553C137.224 18.5529 137.224 18.5528 137 19L137.224 18.5528C137.154 18.5181 137.078 18.5 137 18.5H127Z" fill="url(#paint13_linear_583_9050)" stroke="url(#paint14_linear_583_9050)" stroke-linejoin="round"/>
<mask id="mask2_583_9050" style="mask-type:alpha" maskUnits="userSpaceOnUse" x="127" y="13" width="10" height="8">
<rect x="127" y="13" width="10" height="8" fill="#D9D9D9"/>
</mask>
<g mask="url(#mask2_583_9050)">
<path d="M128 15C128 14.4477 128.448 14 129 14H133.565C133.843 14 134.107 14.115 134.297 14.3177L135.731 15.8547C135.904 16.0399 136 16.2837 136 16.537V23C136 23.5523 135.552 24 135 24H129C128.448 24 128 23.5523 128 23V15Z" fill="url(#paint15_linear_583_9050)"/>
<path d="M129 13.5C128.172 13.5 127.5 14.1716 127.5 15V23C127.5 23.8284 128.172 24.5 129 24.5H135C135.828 24.5 136.5 23.8284 136.5 23V16.537C136.5 16.1571 136.356 15.7913 136.097 15.5135L134.662 13.9765C134.378 13.6726 133.981 13.5 133.565 13.5H129Z" stroke="url(#paint16_linear_583_9050)" stroke-opacity="0.8" stroke-linejoin="round"/>
<path d="M128.5 15C128.5 14.7239 128.724 14.5 129 14.5H133C133.276 14.5 133.5 14.7239 133.5 15V15.1429C133.5 15.9713 134.172 16.6429 135 16.6429C135.276 16.6429 135.5 16.8667 135.5 17.1429V23C135.5 23.2761 135.276 23.5 135 23.5H129C128.724 23.5 128.5 23.2761 128.5 23V15Z" stroke="white" stroke-linejoin="round" style="mix-blend-mode:soft-light"/>
</g>
<rect x="127.5" y="20.5" width="9" height="6" fill="url(#paint17_linear_583_9050)" stroke="url(#paint18_linear_583_9050)" stroke-linejoin="round"/>
<rect x="128.5" y="21.5" width="7" height="4" stroke="white" stroke-opacity="0.66" stroke-linejoin="round"/>
<rect x="127.5" y="25.5" width="9" height="2" fill="#898989" stroke="url(#paint19_linear_583_9050)" stroke-linejoin="round"/>
<mask id="mask3_583_9050" style="mask-type:alpha" maskUnits="userSpaceOnUse" x="127" y="27" width="10" height="2">
<rect x="127" y="27" width="10" height="2" fill="#D9D9D9"/>
</mask>
<g mask="url(#mask3_583_9050)">
<path d="M128 19C128 18.4477 128.448 18 129 18H133.565C133.843 18 134.107 18.115 134.297 18.3177L135.731 19.8547C135.904 20.0399 136 20.2837 136 20.537V27C136 27.5523 135.552 28 135 28H129C128.448 28 128 27.5523 128 27V19Z" fill="url(#paint20_linear_583_9050)"/>
<path d="M129 17.5C128.172 17.5 127.5 18.1716 127.5 19V27C127.5 27.8284 128.172 28.5 129 28.5H135C135.828 28.5 136.5 27.8284 136.5 27V20.537C136.5 20.1571 136.356 19.7913 136.097 19.5135L134.662 17.9765C134.378 17.6726 133.981 17.5 133.565 17.5H129Z" stroke="url(#paint21_linear_583_9050)" stroke-opacity="0.8" stroke-linejoin="round"/>
<path d="M128.5 19C128.5 18.7239 128.724 18.5 129 18.5H133C133.276 18.5 133.5 18.7239 133.5 19V19.1429C133.5 19.9713 134.172 20.6429 135 20.6429C135.276 20.6429 135.5 20.8667 135.5 21.1429V27C135.5 27.2761 135.276 27.5 135 27.5H129C128.724 27.5 128.5 27.2761 128.5 27V19Z" stroke="white" stroke-linejoin="round" style="mix-blend-mode:soft-light"/>
</g>
</g>
<mask id="path-37-inside-2_583_9050" fill="white">
<path fill-rule="evenodd" clip-rule="evenodd" d="M139 23V24H139V23H137.5C137.5 22.1716 136.828 21.5 136 21.5C135.172 21.5 134.5 22.1716 134.5 23H133C133 21.3431 134.343 20 136 20C137.657 20 139 21.3431 139 23Z"/>
</mask>
<path fill-rule="evenodd" clip-rule="evenodd" d="M139 23V24H139V23H137.5C137.5 22.1716 136.828 21.5 136 21.5C135.172 21.5 134.5 22.1716 134.5 23H133C133 21.3431 134.343 20 136 20C137.657 20 139 21.3431 139 23Z" fill="url(#paint22_linear_583_9050)"/>
<path d="M139 24V25H140V24H139ZM139 24H138V25H139V24ZM139 23H140V22H139V23ZM137.5 23H136.5V24H137.5V23ZM134.5 23V24H135.5V23H134.5ZM133 23H132V24H133V23ZM140 24V23H138V24H140ZM139 25H139V23H139V25ZM138 23V24H140V23H138ZM137.5 24H139V22H137.5V24ZM136 22.5C136.276 22.5 136.5 22.7239 136.5 23H138.5C138.5 21.6193 137.381 20.5 136 20.5V22.5ZM135.5 23C135.5 22.7239 135.724 22.5 136 22.5V20.5C134.619 20.5 133.5 21.6193 133.5 23H135.5ZM133 24H134.5V22H133V24ZM136 19C133.791 19 132 20.7909 132 23H134C134 21.8954 134.895 21 136 21V19ZM140 23C140 20.7909 138.209 19 136 19V21C137.105 21 138 21.8954 138 23H140Z" fill="url(#paint23_linear_583_9050)" fill-opacity="0.5" mask="url(#path-37-inside-2_583_9050)"/>
<rect x="132.5" y="23.5" width="7" height="5" fill="url(#paint24_linear_583_9050)" stroke="url(#paint25_linear_583_9050)"/>
<g filter="url(#filter2_i_583_9050)">
<rect x="135" y="25" width="2" height="2" fill="#AB824D"/>
</g>
</g>
<defs>
<filter id="filter0_dd_583_9050" x="0" y="0" width="156" height="49" filterUnits="userSpaceOnUse" color-interpolation-filters="sRGB">
<feFlood flood-opacity="0" result="BackgroundImageFix"/>
<feColorMatrix in="SourceAlpha" type="matrix" values="0 0 0 0 0 0 0 0 0 0 0 0 0 0 0 0 0 0 127 0" result="hardAlpha"/>
<feMorphology radius="4" operator="dilate" in="SourceAlpha" result="effect1_dropShadow_583_9050"/>
<feOffset dy="4"/>
<feComposite in2="hardAlpha" operator="out"/>
<feColorMatrix type="matrix" values="0 0 0 0 0 0 0 0 0 0 0 0 0 0 0 0 0 0 0.05 0"/>
<feBlend mode="normal" in2="BackgroundImageFix" result="effect1_dropShadow_583_9050"/>
<feColorMatrix in="SourceAlpha" type="matrix" values="0 0 0 0 0 0 0 0 0 0 0 0 0 0 0 0 0 0 127 0" result="hardAlpha"/>
<feMorphology radius="1" operator="dilate" in="SourceAlpha" result="effect2_dropShadow_583_9050"/>
<feOffset/>
<feComposite in2="hardAlpha" operator="out"/>
<feColorMatrix type="matrix" values="0 0 0 0 0 0 0 0 0 0 0 0 0 0 0 0 0 0 0.15 0"/>
<feBlend mode="normal" in2="effect1_dropShadow_583_9050" result="effect2_dropShadow_583_9050"/>
<feBlend mode="normal" in="SourceGraphic" in2="effect2_dropShadow_583_9050" result="shape"/>
</filter>
<filter id="filter1_i_583_9050" x="81" y="25" width="2" height="2" filterUnits="userSpaceOnUse" color-interpolation-filters="sRGB">
<feFlood flood-opacity="0" result="BackgroundImageFix"/>
<feBlend mode="normal" in="SourceGraphic" in2="BackgroundImageFix" result="shape"/>
<feColorMatrix in="SourceAlpha" type="matrix" values="0 0 0 0 0 0 0 0 0 0 0 0 0 0 0 0 0 0 127 0" result="hardAlpha"/>
<feOffset dx="1" dy="1"/>
<feComposite in2="hardAlpha" operator="arithmetic" k2="-1" k3="1"/>
<feColorMatrix type="matrix" values="0 0 0 0 0.866667 0 0 0 0 0.592157 0 0 0 0 0.188235 0 0 0 1 0"/>
<feBlend mode="normal" in2="shape" result="effect1_innerShadow_583_9050"/>
</filter>
<filter id="filter2_i_583_9050" x="135" y="25" width="2" height="2" filterUnits="userSpaceOnUse" color-interpolation-filters="sRGB">
<feFlood flood-opacity="0" result="BackgroundImageFix"/>
<feBlend mode="normal" in="SourceGraphic" in2="BackgroundImageFix" result="shape"/>
<feColorMatrix in="SourceAlpha" type="matrix" values="0 0 0 0 0 0 0 0 0 0 0 0 0 0 0 0 0 0 127 0" result="hardAlpha"/>
<feOffset dx="1" dy="1"/>
<feComposite in2="hardAlpha" operator="arithmetic" k2="-1" k3="1"/>
<feColorMatrix type="matrix" values="0 0 0 0 0.866667 0 0 0 0 0.592157 0 0 0 0 0.188235 0 0 0 1 0"/>
<feBlend mode="normal" in2="shape" result="effect1_innerShadow_583_9050"/>
</filter>
<linearGradient id="paint0_linear_583_9050" x1="24" y1="19" x2="24" y2="27" gradientUnits="userSpaceOnUse">
<stop stop-color="#DFDFDF"/>
<stop offset="0.249175" stop-color="#FCFCFC"/>
<stop offset="0.393624" stop-color="#FCFCFC"/>
<stop offset="1" stop-color="#B5B5B5"/>
</linearGradient>
<linearGradient id="paint1_linear_583_9050" x1="28" y1="27" x2="20" y2="19" gradientUnits="userSpaceOnUse">
<stop stop-color="#232323"/>
<stop offset="1" stop-color="#818181" stop-opacity="0.952941"/>
</linearGradient>
<linearGradient id="paint2_linear_583_9050" x1="20" y1="24" x2="28.6421" y2="14.5897" gradientUnits="userSpaceOnUse">
<stop offset="0.500484" stop-color="#D2E5FD"/>
<stop offset="0.844906" stop-color="#A6CBF0"/>
</linearGradient>
<linearGradient id="paint3_linear_583_9050" x1="20" y1="14.1503" x2="28.6421" y2="23.5606" gradientUnits="userSpaceOnUse">
<stop stop-color="#2F88DF"/>
<stop offset="1" stop-color="#053C92"/>
</linearGradient>
<linearGradient id="paint4_linear_583_9050" x1="24" y1="21" x2="24" y2="26" gradientUnits="userSpaceOnUse">
<stop stop-color="#DADADA"/>
<stop offset="1" stop-color="#B9B9B9"/>
</linearGradient>
<linearGradient id="paint5_linear_583_9050" x1="24" y1="20" x2="24" y2="27" gradientUnits="userSpaceOnUse">
<stop offset="0.1358" stop-color="#7D7D7D"/>
<stop offset="0.148028" stop-color="#CBCBCB"/>
<stop offset="1" stop-color="#959595"/>
</linearGradient>
<linearGradient id="paint6_linear_583_9050" x1="28" y1="26.5" x2="20" y2="26.5" gradientUnits="userSpaceOnUse">
<stop stop-color="#232323"/>
<stop offset="1" stop-color="#818181"/>
</linearGradient>
<linearGradient id="paint7_linear_583_9050" x1="20" y1="28" x2="28.6421" y2="18.5897" gradientUnits="userSpaceOnUse">
<stop offset="0.500484" stop-color="#D2E5FD"/>
<stop offset="0.844906" stop-color="#A6CBF0"/>
</linearGradient>
<linearGradient id="paint8_linear_583_9050" x1="20" y1="18.1503" x2="28.6421" y2="27.5606" gradientUnits="userSpaceOnUse">
<stop stop-color="#2F88DF"/>
<stop offset="1" stop-color="#053C92"/>
</linearGradient>
<linearGradient id="paint9_linear_583_9050" x1="80.7143" y1="21.5955" x2="84.1125" y2="24.569" gradientUnits="userSpaceOnUse">
<stop stop-color="#D9D9D9"/>
<stop offset="1" stop-color="#737373"/>
</linearGradient>
<linearGradient id="paint10_linear_583_9050" x1="85" y1="26.4935" x2="78.2035" y2="20.5466" gradientUnits="userSpaceOnUse">
<stop stop-color="#404040"/>
<stop offset="1" stop-color="#8D8D8D"/>
</linearGradient>
<linearGradient id="paint11_linear_583_9050" x1="79" y1="26.5" x2="84.9239" y2="27.1714" gradientUnits="userSpaceOnUse">
<stop stop-color="#F8E48E"/>
<stop offset="0.477181" stop-color="#FFF297"/>
<stop offset="1" stop-color="#EEBA3C"/>
</linearGradient>
<linearGradient id="paint12_linear_583_9050" x1="79" y1="24" x2="85" y2="28" gradientUnits="userSpaceOnUse">
<stop stop-color="#E0C259"/>
<stop offset="1" stop-color="#CE6E01"/>
</linearGradient>
<linearGradient id="paint13_linear_583_9050" x1="132" y1="19" x2="132" y2="27" gradientUnits="userSpaceOnUse">
<stop stop-color="#DFDFDF"/>
<stop offset="0.249175" stop-color="#FCFCFC"/>
<stop offset="0.393624" stop-color="#FCFCFC"/>
<stop offset="1" stop-color="#B5B5B5"/>
</linearGradient>
<linearGradient id="paint14_linear_583_9050" x1="136" y1="27" x2="128" y2="19" gradientUnits="userSpaceOnUse">
<stop stop-color="#232323"/>
<stop offset="1" stop-color="#818181" stop-opacity="0.952941"/>
</linearGradient>
<linearGradient id="paint15_linear_583_9050" x1="128" y1="24" x2="136.642" y2="14.5897" gradientUnits="userSpaceOnUse">
<stop offset="0.500484" stop-color="#D2E5FD"/>
<stop offset="0.844906" stop-color="#A6CBF0"/>
</linearGradient>
<linearGradient id="paint16_linear_583_9050" x1="128" y1="14.1503" x2="136.642" y2="23.5606" gradientUnits="userSpaceOnUse">
<stop stop-color="#2F88DF"/>
<stop offset="1" stop-color="#053C92"/>
</linearGradient>
<linearGradient id="paint17_linear_583_9050" x1="132" y1="21" x2="132" y2="26" gradientUnits="userSpaceOnUse">
<stop stop-color="#DADADA"/>
<stop offset="1" stop-color="#B9B9B9"/>
</linearGradient>
<linearGradient id="paint18_linear_583_9050" x1="132" y1="20" x2="132" y2="27" gradientUnits="userSpaceOnUse">
<stop offset="0.1358" stop-color="#7D7D7D"/>
<stop offset="0.148028" stop-color="#CBCBCB"/>
<stop offset="1" stop-color="#959595"/>
</linearGradient>
<linearGradient id="paint19_linear_583_9050" x1="136" y1="26.5" x2="128" y2="26.5" gradientUnits="userSpaceOnUse">
<stop stop-color="#232323"/>
<stop offset="1" stop-color="#818181"/>
</linearGradient>
<linearGradient id="paint20_linear_583_9050" x1="128" y1="28" x2="136.642" y2="18.5897" gradientUnits="userSpaceOnUse">
<stop offset="0.500484" stop-color="#D2E5FD"/>
<stop offset="0.844906" stop-color="#A6CBF0"/>
</linearGradient>
<linearGradient id="paint21_linear_583_9050" x1="128" y1="18.1503" x2="136.642" y2="27.5606" gradientUnits="userSpaceOnUse">
<stop stop-color="#2F88DF"/>
<stop offset="1" stop-color="#053C92"/>
</linearGradient>
<linearGradient id="paint22_linear_583_9050" x1="134.714" y1="21.5955" x2="138.113" y2="24.569" gradientUnits="userSpaceOnUse">
<stop stop-color="#D9D9D9"/>
<stop offset="1" stop-color="#737373"/>
</linearGradient>
<linearGradient id="paint23_linear_583_9050" x1="139" y1="26.4935" x2="132.204" y2="20.5466" gradientUnits="userSpaceOnUse">
<stop stop-color="#404040"/>
<stop offset="1" stop-color="#8D8D8D"/>
</linearGradient>
<linearGradient id="paint24_linear_583_9050" x1="133" y1="26.5" x2="138.924" y2="27.1714" gradientUnits="userSpaceOnUse">
<stop stop-color="#F8E48E"/>
<stop offset="0.477181" stop-color="#FFF297"/>
<stop offset="1" stop-color="#EEBA3C"/>
</linearGradient>
<linearGradient id="paint25_linear_583_9050" x1="133" y1="24" x2="139" y2="28" gradientUnits="userSpaceOnUse">
<stop stop-color="#E0C259"/>
<stop offset="1" stop-color="#CE6E01"/>
</linearGradient>
<clipPath id="clip0_583_9050">
<rect width="16" height="16" fill="white" transform="translate(16 13)"/>
</clipPath>
<clipPath id="clip1_583_9050">
<rect width="16" height="16" fill="white" transform="translate(124 13)"/>
</clipPath>
</defs>
</svg>
