<svg width="154" height="101" viewBox="0 0 154 101" fill="none" xmlns="http://www.w3.org/2000/svg">
<g filter="url(#filter0_dd_583_8683)">
<path d="M4 9C4 4.58172 7.58172 1 12 1H142C146.418 1 150 4.58172 150 9V85C150 89.4183 146.418 93 142 93H12C7.58173 93 4 89.4183 4 85V9Z" fill="white" shape-rendering="crispEdges"/>
<path d="M14 32.5C13.7656 32.5 13.5371 32.477 13.3164 32.4334L13.2193 32.9239C12.6946 32.82 12.2067 32.6136 11.7775 32.3263L12.0557 31.9108C11.6738 31.6551 11.3449 31.3262 11.0892 30.9443L10.6737 31.2225C10.3864 30.7933 10.18 30.3054 10.0761 29.7806L10.5666 29.6836C10.523 29.4629 10.5 29.2344 10.5 29V28.1H10V26.3H10.5V24.5H10V22.7H10.5V20.9H10V19.1H10.5V17.3H10V15.5H10.5V13.7H10V11.9H10.5V11C10.5 10.7656 10.523 10.5371 10.5666 10.3164L10.0761 10.2194C10.18 9.69457 10.3864 9.2067 10.6737 8.77754L11.0892 9.0557C11.3449 8.6738 11.6738 8.34489 12.0557 8.08922L11.7775 7.67374C12.2067 7.38642 12.6946 7.17995 13.2194 7.07614L13.3164 7.56663C13.5371 7.52297 13.7656 7.5 14 7.5H14.9844V7H16.9531V7.5H18.9219V7H20.8906V7.5H22.8594V7H24.8281V7.5H26.7969V7H28.7656V7.5H30.7344V7H32.7031V7.5H34.6719V7H36.6406V7.5H38.6094V7H40.5781V7.5H42.5469V7H44.5156V7.5H46.4844V7H48.4531V7.5H50.4219V7H52.3906V7.5H54.3594V7H56.3281V7.5H58.2969V7H60.2656V7.5H62.2344V7H64.2031V7.5H66.1719V7H68.1406V7.5H70.1094V7H72.0781V7.5H74.0469V7H76.0156V7.5H77.9844V7H79.9531V7.5H81.9219V7H83.8906V7.5H85.8594V7H87.8281V7.5H89.7969V7H91.7656V7.5H93.7344V7H95.7031V7.5H97.6719V7H99.6406V7.5H101.609V7H103.578V7.5H105.547V7H107.516V7.5H109.484V7H111.453V7.5H113.422V7H115.391V7.5H117.359V7H119.328V7.5H121.297V7H123.266V7.5H125.234V7H127.203V7.5H129.172V7H131.141V7.5H133.109V7H135.078V7.5H137.047V7H139.016V7.5H140C140.234 7.5 140.463 7.52297 140.684 7.56663L140.781 7.07614C141.305 7.17996 141.793 7.38642 142.222 7.67374L141.944 8.08922C142.326 8.3449 142.655 8.6738 142.911 9.0557L143.326 8.77754C143.614 9.20671 143.82 9.69457 143.924 10.2194L143.433 10.3164C143.477 10.5371 143.5 10.7656 143.5 11V11.9H144V13.7H143.5V15.5H144V17.3H143.5V19.1H144V20.9H143.5V22.7H144V24.5H143.5V26.3H144V28.1H143.5V29C143.5 29.2344 143.477 29.4629 143.433 29.6836L143.924 29.7806C143.82 30.3054 143.614 30.7933 143.326 31.2225L142.911 30.9443C142.655 31.3262 142.326 31.6551 141.944 31.9108L142.222 32.3263C141.793 32.6136 141.305 32.82 140.781 32.9239L140.684 32.4334C140.463 32.477 140.234 32.5 140 32.5H139.016V33H137.047V32.5H135.078V33H133.109V32.5H131.141V33H129.172V32.5H127.203V33H125.234V32.5H123.266V33H121.297V32.5H119.328V33H117.359V32.5H115.391V33H113.422V32.5H111.453V33H109.484V32.5H107.516V33H105.547V32.5H103.578V33H101.609V32.5H99.6406V33H97.6719V32.5H95.7031V33H93.7344V32.5H91.7656V33H89.7969V32.5H87.8281V33H85.8594V32.5H83.8906V33H81.9219V32.5H79.9531V33H77.9844V32.5H76.0156V33H74.0469V32.5H72.0781V33H70.1094V32.5H68.1406V33H66.1719V32.5H64.2031V33H62.2344V32.5H60.2656V33H58.2969V32.5H56.3281V33H54.3594V32.5H52.3906V33H50.4219V32.5H48.4531V33H46.4844V32.5H44.5156V33H42.5469V32.5H40.5781V33H38.6094V32.5H36.6406V33H34.6719V32.5H32.7031V33H30.7344V32.5H28.7656V33H26.7969V32.5H24.8281V33H22.8594V32.5H20.8906V33H18.9219V32.5H16.9531V33H14.9844V32.5H14Z" stroke="black" stroke-opacity="0.33" stroke-dasharray="2 2"/>
<path d="M41.528 20.152V21.712H39.332V23.872H37.724V21.712H35.54V20.152H37.724V17.98H39.332V20.152H41.528Z" fill="black"/>
<path d="M74.528 20.152V21.712H72.332V23.872H70.724V21.712H68.54V20.152H70.724V17.98H72.332V20.152H74.528Z" fill="black"/>
<path d="M105.54 20.272V18.832H111.528V20.272H105.54ZM105.54 23.008V21.568H111.528V23.008H105.54Z" fill="black"/>
<path d="M27 22H23C23 24 23 25 21 26V27H29V26C27 25 27 24 27 22Z" fill="url(#paint0_linear_583_8683)"/>
<path d="M23.499 22.5H26.501C26.5066 23.2657 26.5439 23.956 26.7858 24.5607C27.0699 25.2711 27.6067 25.8114 28.5 26.3024V26.5H21.5V26.3024C22.3933 25.8114 22.9301 25.2711 23.2142 24.5607C23.4561 23.956 23.4934 23.2657 23.499 22.5Z" stroke="black" stroke-opacity="0.2"/>
<ellipse cx="25" cy="47" rx="4" ry="2" fill="url(#paint1_linear_583_8683)"/>
<path d="M28.5 47C28.5 47.2609 28.2755 47.6316 27.6048 47.967C26.964 48.2874 26.0438 48.5 25 48.5C23.9562 48.5 23.036 48.2874 22.3952 47.967C21.7245 47.6316 21.5 47.2609 21.5 47C21.5 46.7391 21.7245 46.3684 22.3952 46.033C23.036 45.7126 23.9562 45.5 25 45.5C26.0438 45.5 26.964 45.7126 27.6048 46.033C28.2755 46.3684 28.5 46.7391 28.5 47Z" stroke="black" stroke-opacity="0.2"/>
<rect x="48.5" y="38.5" width="13" height="8" stroke="#CCCCCC" stroke-linejoin="round"/>
<rect x="49" y="39" width="12" height="7" fill="#4E9292"/>
<rect x="49" y="39" width="12" height="7" fill="url(#paint2_linear_583_8683)"/>
<rect x="49" y="39" width="12" height="7" fill="url(#paint3_linear_583_8683)"/>
<rect x="48.5" y="15.5" width="13" height="8" stroke="#1A1A1A" stroke-linejoin="round"/>
<rect x="49" y="16" width="12" height="7" fill="#4E9292"/>
<rect x="49" y="16" width="12" height="7" fill="url(#paint4_linear_583_8683)"/>
<rect x="49" y="16" width="12" height="7" fill="url(#paint5_linear_583_8683)"/>
<rect x="48" y="56" width="14" height="11" rx="1" fill="url(#paint6_linear_583_8683)"/>
<rect x="48.5" y="56.5" width="13" height="10" rx="0.5" stroke="black" stroke-opacity="0.66" stroke-linejoin="round" style="mix-blend-mode:overlay"/>
<rect x="50" y="58" width="10" height="7" fill="#4E9292"/>
<rect x="50" y="58" width="10" height="7" fill="url(#paint7_linear_583_8683)"/>
<rect x="50" y="58" width="10" height="7" fill="url(#paint8_linear_583_8683)"/>
<rect x="50.5" y="58.5" width="9" height="6" stroke="black" stroke-opacity="0.33" stroke-linejoin="round" style="mix-blend-mode:overlay"/>
<rect width="12" height="9" transform="translate(83 15)" fill="#3EB4FA"/>
<rect x="83" y="15" width="12" height="9" fill="url(#paint9_linear_583_8683)"/>
<rect x="83" y="15" width="12" height="9" fill="url(#paint10_linear_583_8683)"/>
<rect x="83" y="78" width="12" height="9" fill="url(#paint11_linear_583_8683)"/>
<rect x="83" y="78" width="12" height="9" fill="url(#paint12_linear_583_8683)" fill-opacity="0.66"/>
<rect x="83" y="36" width="12" height="9" fill="#4E9292"/>
<rect x="83" y="36" width="12" height="9" fill="url(#paint13_linear_583_8683)"/>
<rect x="83" y="36" width="12" height="9" fill="url(#paint14_linear_583_8683)"/>
<rect x="83" y="57" width="12" height="9" fill="#6EA4DC"/>
<rect x="83" y="57" width="12" height="9" fill="url(#paint15_linear_583_8683)"/>
<rect x="83" y="57" width="12" height="9" fill="url(#paint16_linear_583_8683)"/>
<path d="M130 22H126C126 24 126 25 124 26V27H132V26C130 25 130 24 130 22Z" fill="url(#paint17_linear_583_8683)"/>
<path d="M126.499 22.5H129.501C129.507 23.2657 129.544 23.956 129.786 24.5607C130.07 25.2711 130.607 25.8114 131.5 26.3024V26.5H124.5V26.3024C125.393 25.8114 125.93 25.2711 126.214 24.5607C126.456 23.956 126.493 23.2657 126.499 22.5Z" stroke="black" stroke-opacity="0.2"/>
<rect x="121.5" y="15.5" width="13" height="8" stroke="#1A1A1A" stroke-linejoin="round"/>
<rect width="12" height="7" transform="translate(122 16)" fill="#3EB4FA"/>
<rect x="122" y="16" width="12" height="7" fill="url(#paint18_linear_583_8683)"/>
<rect x="122" y="16" width="12" height="7" fill="url(#paint19_linear_583_8683)"/>
</g>
<defs>
<filter id="filter0_dd_583_8683" x="0" y="0" width="154" height="101" filterUnits="userSpaceOnUse" color-interpolation-filters="sRGB">
<feFlood flood-opacity="0" result="BackgroundImageFix"/>
<feColorMatrix in="SourceAlpha" type="matrix" values="0 0 0 0 0 0 0 0 0 0 0 0 0 0 0 0 0 0 127 0" result="hardAlpha"/>
<feMorphology radius="4" operator="dilate" in="SourceAlpha" result="effect1_dropShadow_583_8683"/>
<feOffset dy="4"/>
<feComposite in2="hardAlpha" operator="out"/>
<feColorMatrix type="matrix" values="0 0 0 0 0 0 0 0 0 0 0 0 0 0 0 0 0 0 0.05 0"/>
<feBlend mode="normal" in2="BackgroundImageFix" result="effect1_dropShadow_583_8683"/>
<feColorMatrix in="SourceAlpha" type="matrix" values="0 0 0 0 0 0 0 0 0 0 0 0 0 0 0 0 0 0 127 0" result="hardAlpha"/>
<feMorphology radius="1" operator="dilate" in="SourceAlpha" result="effect2_dropShadow_583_8683"/>
<feOffset/>
<feComposite in2="hardAlpha" operator="out"/>
<feColorMatrix type="matrix" values="0 0 0 0 0 0 0 0 0 0 0 0 0 0 0 0 0 0 0.15 0"/>
<feBlend mode="normal" in2="effect1_dropShadow_583_8683" result="effect2_dropShadow_583_8683"/>
<feBlend mode="normal" in="SourceGraphic" in2="effect2_dropShadow_583_8683" result="shape"/>
</filter>
<linearGradient id="paint0_linear_583_8683" x1="25" y1="22" x2="25" y2="27" gradientUnits="userSpaceOnUse">
<stop offset="0.0001" stop-color="#CCCCCC"/>
<stop offset="1" stop-color="#E6E6E6"/>
</linearGradient>
<linearGradient id="paint1_linear_583_8683" x1="25" y1="45" x2="25" y2="49" gradientUnits="userSpaceOnUse">
<stop offset="0.0001" stop-color="#CCCCCC"/>
<stop offset="1" stop-color="#E6E6E6"/>
</linearGradient>
<linearGradient id="paint2_linear_583_8683" x1="60" y1="39" x2="52.2616" y2="47.9545" gradientUnits="userSpaceOnUse">
<stop stop-color="white" stop-opacity="0.2"/>
<stop offset="0.494495" stop-color="white" stop-opacity="0.66"/>
<stop offset="0.5" stop-color="white" stop-opacity="0.33"/>
<stop offset="1" stop-color="white" stop-opacity="0"/>
</linearGradient>
<linearGradient id="paint3_linear_583_8683" x1="61" y1="42.5" x2="49" y2="42.5" gradientUnits="userSpaceOnUse">
<stop offset="0.205" stop-color="#5CA7A7"/>
<stop offset="1" stop-color="#7FC8C8" stop-opacity="0"/>
</linearGradient>
<linearGradient id="paint4_linear_583_8683" x1="60" y1="16" x2="52.2616" y2="24.9545" gradientUnits="userSpaceOnUse">
<stop stop-color="white" stop-opacity="0.2"/>
<stop offset="0.494495" stop-color="white" stop-opacity="0.66"/>
<stop offset="0.5" stop-color="white" stop-opacity="0.33"/>
<stop offset="1" stop-color="white" stop-opacity="0"/>
</linearGradient>
<linearGradient id="paint5_linear_583_8683" x1="61" y1="19.5" x2="49" y2="19.5" gradientUnits="userSpaceOnUse">
<stop offset="0.205" stop-color="#5CA7A7"/>
<stop offset="1" stop-color="#7FC8C8" stop-opacity="0"/>
</linearGradient>
<linearGradient id="paint6_linear_583_8683" x1="48" y1="56" x2="62" y2="67" gradientUnits="userSpaceOnUse">
<stop stop-color="#F0F0E9"/>
<stop offset="1" stop-color="#CDCDC8"/>
</linearGradient>
<linearGradient id="paint7_linear_583_8683" x1="59.1667" y1="58" x2="51.3508" y2="65.5367" gradientUnits="userSpaceOnUse">
<stop stop-color="white" stop-opacity="0.2"/>
<stop offset="0.494495" stop-color="white" stop-opacity="0.66"/>
<stop offset="0.5" stop-color="white" stop-opacity="0.33"/>
<stop offset="1" stop-color="white" stop-opacity="0"/>
</linearGradient>
<linearGradient id="paint8_linear_583_8683" x1="60" y1="61.5" x2="50" y2="61.5" gradientUnits="userSpaceOnUse">
<stop offset="0.205" stop-color="#5CA7A7"/>
<stop offset="1" stop-color="#7FC8C8" stop-opacity="0"/>
</linearGradient>
<linearGradient id="paint9_linear_583_8683" x1="89" y1="24" x2="89" y2="15" gradientUnits="userSpaceOnUse">
<stop stop-color="#207CD0"/>
<stop offset="1" stop-color="#18D99F"/>
</linearGradient>
<linearGradient id="paint10_linear_583_8683" x1="94" y1="15" x2="84" y2="24" gradientUnits="userSpaceOnUse">
<stop stop-color="white" stop-opacity="0.2"/>
<stop offset="0.494495" stop-color="white" stop-opacity="0.66"/>
<stop offset="0.5" stop-color="white" stop-opacity="0.33"/>
<stop offset="1" stop-color="white" stop-opacity="0"/>
</linearGradient>
<linearGradient id="paint11_linear_583_8683" x1="89" y1="78" x2="89" y2="87" gradientUnits="userSpaceOnUse">
<stop stop-color="#D76CA5"/>
<stop offset="0.335" stop-color="#D038A9"/>
<stop offset="0.655" stop-color="#981CBD"/>
<stop offset="1" stop-color="#360ACD"/>
</linearGradient>
<linearGradient id="paint12_linear_583_8683" x1="94" y1="78" x2="84" y2="87" gradientUnits="userSpaceOnUse">
<stop stop-color="white" stop-opacity="0.2"/>
<stop offset="0.494495" stop-color="white" stop-opacity="0.66"/>
<stop offset="0.5" stop-color="white" stop-opacity="0.33"/>
<stop offset="1" stop-color="white" stop-opacity="0"/>
</linearGradient>
<linearGradient id="paint13_linear_583_8683" x1="94" y1="36" x2="84" y2="45" gradientUnits="userSpaceOnUse">
<stop stop-color="white" stop-opacity="0.2"/>
<stop offset="0.494495" stop-color="white" stop-opacity="0.66"/>
<stop offset="0.5" stop-color="white" stop-opacity="0.33"/>
<stop offset="1" stop-color="white" stop-opacity="0"/>
</linearGradient>
<linearGradient id="paint14_linear_583_8683" x1="95" y1="40.5" x2="83" y2="40.5" gradientUnits="userSpaceOnUse">
<stop offset="0.205" stop-color="#5CA7A7"/>
<stop offset="1" stop-color="#7FC8C8" stop-opacity="0"/>
</linearGradient>
<linearGradient id="paint15_linear_583_8683" x1="94" y1="57" x2="84" y2="66" gradientUnits="userSpaceOnUse">
<stop stop-color="white" stop-opacity="0.2"/>
<stop offset="0.494495" stop-color="white" stop-opacity="0.66"/>
<stop offset="0.5" stop-color="white" stop-opacity="0.33"/>
<stop offset="1" stop-color="white" stop-opacity="0"/>
</linearGradient>
<linearGradient id="paint16_linear_583_8683" x1="95" y1="61.5" x2="83" y2="61.5" gradientUnits="userSpaceOnUse">
<stop offset="0.205" stop-color="#96BDF1"/>
<stop offset="1" stop-color="#90BDF6" stop-opacity="0"/>
</linearGradient>
<linearGradient id="paint17_linear_583_8683" x1="128" y1="22" x2="128" y2="27" gradientUnits="userSpaceOnUse">
<stop offset="0.0001" stop-color="#CCCCCC"/>
<stop offset="1" stop-color="#E6E6E6"/>
</linearGradient>
<linearGradient id="paint18_linear_583_8683" x1="128" y1="23" x2="128" y2="16" gradientUnits="userSpaceOnUse">
<stop stop-color="#207CD0"/>
<stop offset="1" stop-color="#18D99F"/>
</linearGradient>
<linearGradient id="paint19_linear_583_8683" x1="133" y1="16" x2="125.262" y2="24.9545" gradientUnits="userSpaceOnUse">
<stop stop-color="white" stop-opacity="0.2"/>
<stop offset="0.494495" stop-color="white" stop-opacity="0.66"/>
<stop offset="0.5" stop-color="white" stop-opacity="0.33"/>
<stop offset="1" stop-color="white" stop-opacity="0"/>
</linearGradient>
</defs>
</svg>
