<svg width="153" height="49" viewBox="0 0 153 49" fill="none" xmlns="http://www.w3.org/2000/svg">
<g filter="url(#filter0_dd_584_8614)">
<rect x="4" y="1" width="145" height="40" rx="8" fill="white" shape-rendering="crispEdges"/>
<path d="M15 33.5C14.7656 33.5 14.5371 33.477 14.3164 33.4334L14.2194 33.9239C13.6946 33.82 13.2067 33.6136 12.7775 33.3263L13.0557 32.9108C12.6738 32.6551 12.3449 32.3262 12.0892 31.9443L11.6737 32.2225C11.3864 31.7933 11.18 31.3054 11.0761 30.7806L11.5666 30.6836C11.523 30.4629 11.5 30.2344 11.5 30V29.1H11V27.3H11.5V25.5H11V23.7H11.5V21.9H11V20.1H11.5V18.3H11V16.5H11.5V14.7H11V12.9H11.5V12C11.5 11.7656 11.523 11.5371 11.5666 11.3164L11.0761 11.2194C11.18 10.6946 11.3864 10.2067 11.6737 9.77754L12.0892 10.0557C12.3449 9.6738 12.6738 9.34489 13.0557 9.08922L12.7775 8.67374C13.2067 8.38642 13.6946 8.17995 14.2194 8.07614L14.3164 8.56663C14.5371 8.52297 14.7656 8.5 15 8.5H15.975V8H17.925V8.5H19.875V8H21.825V8.5H23.775V8H25.725V8.5H27.675V8H29.625V8.5H31.575V8H33.525V8.5H35.475V8H37.425V8.5H39.375V8H41.325V8.5H43.275V8H45.225V8.5H47.175V8H49.125V8.5H51.075V8H53.025V8.5H54C54.2344 8.5 54.4629 8.52297 54.6836 8.56663L54.7806 8.07614C55.3054 8.17995 55.7933 8.38642 56.2225 8.67374L55.9443 9.08922C56.3262 9.3449 56.6551 9.6738 56.9108 10.0557L57.3263 9.77754C57.6136 10.2067 57.82 10.6946 57.9239 11.2194L57.4334 11.3164C57.477 11.5371 57.5 11.7656 57.5 12V12.9H58V14.7H57.5V16.5H58V18.3H57.5V20.1H58V21.9H57.5V23.7H58V25.5H57.5V27.3H58V29.1H57.5V30C57.5 30.2344 57.477 30.4629 57.4334 30.6836L57.9239 30.7806C57.82 31.3054 57.6136 31.7933 57.3263 32.2225L56.9108 31.9443C56.6551 32.3262 56.3262 32.6551 55.9443 32.9108L56.2225 33.3263C55.7933 33.6136 55.3054 33.82 54.7806 33.9239L54.6836 33.4334C54.4629 33.477 54.2344 33.5 54 33.5H53.025V34H51.075V33.5H49.125V34H47.175V33.5H45.225V34H43.275V33.5H41.325V34H39.375V33.5H37.425V34H35.475V33.5H33.525V34H31.575V33.5H29.625V34H27.675V33.5H25.725V34H23.775V33.5H21.825V34H19.875V33.5H17.925V34H15.975V33.5H15Z" stroke="black" stroke-opacity="0.33" stroke-dasharray="2 2"/>
<path d="M30.5 15.5C29 16 28 17 27 18" stroke="url(#paint0_linear_584_8614)" stroke-width="3" stroke-linecap="round"/>
<path d="M30.5 15.5C29 16 28 17 27 18" stroke="#DADADA" stroke-linecap="round"/>
<path d="M26.8536 17.1464C26.6407 16.9336 26.4767 16.7457 26.3239 16.5708C26.3074 16.5519 26.291 16.5331 26.2747 16.5145C26.1135 16.3303 25.9457 16.1412 25.7498 15.9846C25.3148 15.6365 24.8107 15.5 24 15.5C23.0707 15.5 22.3304 15.9679 21.7303 16.5013C21.4288 16.7693 21.1487 17.0666 20.8892 17.3496C20.8309 17.4133 20.7738 17.4759 20.7178 17.5374C20.5193 17.7554 20.3335 17.9594 20.1464 18.1464C19.9441 18.3488 19.652 18.538 19.2663 18.7791C19.2472 18.791 19.228 18.803 19.2085 18.8152C18.8529 19.0372 18.44 19.295 18.0549 19.6159C17.2135 20.317 16.5 21.3245 16.5 23C16.5 24.037 16.6288 24.7366 16.8529 25.2595C17.0784 25.7857 17.3854 26.0925 17.6369 26.344L17.6464 26.3536L17.656 26.3631C17.9075 26.6146 18.2143 26.9216 18.7405 27.1471C19.2634 27.3712 19.963 27.5 21 27.5C22.6755 27.5 23.683 26.7865 24.3841 25.9451C24.705 25.56 24.9628 25.1471 25.1848 24.7915C25.197 24.772 25.209 24.7528 25.2209 24.7337C25.462 24.348 25.6512 24.0559 25.8536 23.8536C26.0758 23.6313 26.3321 23.4307 26.615 23.2242C26.7027 23.1603 26.7953 23.0941 26.8902 23.0263C27.0896 22.8838 27.2992 22.7341 27.4945 22.5822C28.0878 22.1207 28.6785 21.5457 28.9743 20.6581C29.2307 19.889 28.8149 19.1969 28.3841 18.6799C28.0879 18.3244 27.6961 17.9529 27.3318 17.6074C27.1623 17.4467 26.9987 17.2916 26.8536 17.1464Z" fill="url(#paint1_linear_584_8614)"/>
<path d="M26.8536 17.1464C26.6407 16.9336 26.4767 16.7457 26.3239 16.5708C26.3074 16.5519 26.291 16.5331 26.2747 16.5145C26.1135 16.3303 25.9457 16.1412 25.7498 15.9846C25.3148 15.6365 24.8107 15.5 24 15.5C23.0707 15.5 22.3304 15.9679 21.7303 16.5013C21.4288 16.7693 21.1487 17.0666 20.8892 17.3496C20.8309 17.4133 20.7738 17.4759 20.7178 17.5374C20.5193 17.7554 20.3335 17.9594 20.1464 18.1464C19.9441 18.3488 19.652 18.538 19.2663 18.7791C19.2472 18.791 19.228 18.803 19.2085 18.8152C18.8529 19.0372 18.44 19.295 18.0549 19.6159C17.2135 20.317 16.5 21.3245 16.5 23C16.5 24.037 16.6288 24.7366 16.8529 25.2595C17.0784 25.7857 17.3854 26.0925 17.6369 26.344L17.6464 26.3536L17.656 26.3631C17.9075 26.6146 18.2143 26.9216 18.7405 27.1471C19.2634 27.3712 19.963 27.5 21 27.5C22.6755 27.5 23.683 26.7865 24.3841 25.9451C24.705 25.56 24.9628 25.1471 25.1848 24.7915C25.197 24.772 25.209 24.7528 25.2209 24.7337C25.462 24.348 25.6512 24.0559 25.8536 23.8536C26.0758 23.6313 26.3321 23.4307 26.615 23.2242C26.7027 23.1603 26.7953 23.0941 26.8902 23.0263C27.0896 22.8838 27.2992 22.7341 27.4945 22.5822C28.0878 22.1207 28.6785 21.5457 28.9743 20.6581C29.2307 19.889 28.8149 19.1969 28.3841 18.6799C28.0879 18.3244 27.6961 17.9529 27.3318 17.6074C27.1623 17.4467 26.9987 17.2916 26.8536 17.1464Z" stroke="url(#paint2_linear_584_8614)"/>
<path d="M26.8536 17.1464C26.6407 16.9336 26.4767 16.7457 26.3239 16.5708C26.3074 16.5519 26.291 16.5331 26.2747 16.5145C26.1135 16.3303 25.9457 16.1412 25.7498 15.9846C25.3148 15.6365 24.8107 15.5 24 15.5C23.0707 15.5 22.3304 15.9679 21.7303 16.5013C21.4288 16.7693 21.1487 17.0666 20.8892 17.3496C20.8309 17.4133 20.7738 17.4759 20.7178 17.5374C20.5193 17.7554 20.3335 17.9594 20.1464 18.1464C19.9441 18.3488 19.652 18.538 19.2663 18.7791C19.2472 18.791 19.228 18.803 19.2085 18.8152C18.8529 19.0372 18.44 19.295 18.0549 19.6159C17.2135 20.317 16.5 21.3245 16.5 23C16.5 24.037 16.6288 24.7366 16.8529 25.2595C17.0784 25.7857 17.3854 26.0925 17.6369 26.344L17.6464 26.3536L17.656 26.3631C17.9075 26.6146 18.2143 26.9216 18.7405 27.1471C19.2634 27.3712 19.963 27.5 21 27.5C22.6755 27.5 23.683 26.7865 24.3841 25.9451C24.705 25.56 24.9628 25.1471 25.1848 24.7915C25.197 24.772 25.209 24.7528 25.2209 24.7337C25.462 24.348 25.6512 24.0559 25.8536 23.8536C26.0758 23.6313 26.3321 23.4307 26.615 23.2242C26.7027 23.1603 26.7953 23.0941 26.8902 23.0263C27.0896 22.8838 27.2992 22.7341 27.4945 22.5822C28.0878 22.1207 28.6785 21.5457 28.9743 20.6581C29.2307 19.889 28.8149 19.1969 28.3841 18.6799C28.0879 18.3244 27.6961 17.9529 27.3318 17.6074C27.1623 17.4467 26.9987 17.2916 26.8536 17.1464Z" stroke="url(#paint3_radial_584_8614)"/>
<path opacity="0.5" d="M20.5 18C21.5 18.5 22.7875 19.8354 23.5 20.5M26 23.5C25.5 22.5 24.3393 21.2829 23.5 20.5M23.5 20.5C25 19 26 18 27 17.5" stroke="url(#paint4_linear_584_8614)" stroke-linecap="round"/>
<path d="M24 16.5C24.6893 16.5 24.9352 16.6135 25.1252 16.7654C25.2418 16.8588 25.3552 16.9822 25.5221 17.173C25.5381 17.1912 25.5544 17.2099 25.5711 17.229C25.7233 17.4034 25.9085 17.6156 26.1464 17.8536C26.336 18.0431 26.5237 18.2207 26.7048 18.392C27.042 18.7111 27.3561 19.0083 27.6159 19.3201C28.0184 19.8031 28.1026 20.111 28.0257 20.3419C27.8215 20.9543 27.4122 21.3793 26.8805 21.7928C26.7007 21.9327 26.5208 22.0611 26.3318 22.1961C26.2327 22.2669 26.131 22.3395 26.0256 22.4164C25.7304 22.6318 25.4242 22.8687 25.1464 23.1464C24.8488 23.4441 24.6005 23.8395 24.3729 24.2038C24.364 24.218 24.3551 24.2322 24.3463 24.2463C24.1169 24.6135 23.8918 24.9738 23.6159 25.3049C23.067 25.9635 22.3245 26.5 21 26.5C20.037 26.5 19.4866 26.3788 19.1345 26.2279C18.7924 26.0813 18.6003 25.8932 18.3536 25.6464C18.1068 25.3997 17.9187 25.2076 17.7721 24.8655C17.6212 24.5134 17.5 23.963 17.5 23C17.5 21.6755 18.0365 20.933 18.6951 20.3841C19.0262 20.1082 19.3865 19.8831 19.7536 19.6537C19.7678 19.6449 19.782 19.636 19.7962 19.6271C20.1605 19.3995 20.5559 19.1512 20.8536 18.8536C21.0588 18.6483 21.2655 18.4213 21.4665 18.2006C21.5202 18.1416 21.5736 18.083 21.6264 18.0254C21.8825 17.7459 22.1337 17.4807 22.3947 17.2487C22.9196 16.7821 23.4293 16.5 24 16.5Z" stroke="white" stroke-opacity="0.66"/>
<path d="M51.5 15.5C50 16 49 17 48 18" stroke="url(#paint5_linear_584_8614)" stroke-width="3" stroke-linecap="round"/>
<path d="M51.5 15.5C50 16 49 17 48 18" stroke="#DADADA" stroke-linecap="round"/>
<path d="M48.3536 17.6464C48.1554 17.4483 47.979 17.2514 47.8004 17.052C47.7644 17.0118 47.7283 16.9716 47.692 16.9311C47.4805 16.6962 47.2585 16.4559 47.0129 16.2454C46.4994 15.8052 45.8873 15.5 45 15.5C44.7301 15.5 44.4184 15.5754 44.1039 15.6851C43.7809 15.7978 43.4198 15.9593 43.0404 16.1592C42.2815 16.5591 41.4238 17.126 40.6159 17.8046C39.809 18.4824 39.0379 19.2833 38.465 20.1551C37.8936 21.0246 37.5 21.9948 37.5 23C37.5 24.037 37.6288 24.7366 37.8529 25.2595C38.0784 25.7857 38.3854 26.0925 38.6369 26.344L38.6464 26.3536L38.656 26.3631C38.9075 26.6146 39.2143 26.9216 39.7405 27.1471C40.2634 27.3712 40.963 27.5 42 27.5C42.7521 27.5 43.6233 27.1699 44.4651 26.7129C45.3215 26.2479 46.2086 25.6178 47.0091 24.9454C47.8093 24.2732 48.537 23.5471 49.0697 22.8832C49.3356 22.5518 49.5608 22.2262 49.7219 21.923C49.8769 21.6311 50 21.3096 50 21C50 20.1886 49.8634 19.597 49.5591 19.0644C49.2756 18.5683 48.8589 18.1516 48.3859 17.6788C48.3752 17.6681 48.3644 17.6573 48.3536 17.6464Z" fill="url(#paint6_linear_584_8614)"/>
<path d="M48.3536 17.6464C48.1554 17.4483 47.979 17.2514 47.8004 17.052C47.7644 17.0118 47.7283 16.9716 47.692 16.9311C47.4805 16.6962 47.2585 16.4559 47.0129 16.2454C46.4994 15.8052 45.8873 15.5 45 15.5C44.7301 15.5 44.4184 15.5754 44.1039 15.6851C43.7809 15.7978 43.4198 15.9593 43.0404 16.1592C42.2815 16.5591 41.4238 17.126 40.6159 17.8046C39.809 18.4824 39.0379 19.2833 38.465 20.1551C37.8936 21.0246 37.5 21.9948 37.5 23C37.5 24.037 37.6288 24.7366 37.8529 25.2595C38.0784 25.7857 38.3854 26.0925 38.6369 26.344L38.6464 26.3536L38.656 26.3631C38.9075 26.6146 39.2143 26.9216 39.7405 27.1471C40.2634 27.3712 40.963 27.5 42 27.5C42.7521 27.5 43.6233 27.1699 44.4651 26.7129C45.3215 26.2479 46.2086 25.6178 47.0091 24.9454C47.8093 24.2732 48.537 23.5471 49.0697 22.8832C49.3356 22.5518 49.5608 22.2262 49.7219 21.923C49.8769 21.6311 50 21.3096 50 21C50 20.1886 49.8634 19.597 49.5591 19.0644C49.2756 18.5683 48.8589 18.1516 48.3859 17.6788C48.3752 17.6681 48.3644 17.6573 48.3536 17.6464Z" stroke="url(#paint7_linear_584_8614)"/>
<path d="M48.3536 17.6464C48.1554 17.4483 47.979 17.2514 47.8004 17.052C47.7644 17.0118 47.7283 16.9716 47.692 16.9311C47.4805 16.6962 47.2585 16.4559 47.0129 16.2454C46.4994 15.8052 45.8873 15.5 45 15.5C44.7301 15.5 44.4184 15.5754 44.1039 15.6851C43.7809 15.7978 43.4198 15.9593 43.0404 16.1592C42.2815 16.5591 41.4238 17.126 40.6159 17.8046C39.809 18.4824 39.0379 19.2833 38.465 20.1551C37.8936 21.0246 37.5 21.9948 37.5 23C37.5 24.037 37.6288 24.7366 37.8529 25.2595C38.0784 25.7857 38.3854 26.0925 38.6369 26.344L38.6464 26.3536L38.656 26.3631C38.9075 26.6146 39.2143 26.9216 39.7405 27.1471C40.2634 27.3712 40.963 27.5 42 27.5C42.7521 27.5 43.6233 27.1699 44.4651 26.7129C45.3215 26.2479 46.2086 25.6178 47.0091 24.9454C47.8093 24.2732 48.537 23.5471 49.0697 22.8832C49.3356 22.5518 49.5608 22.2262 49.7219 21.923C49.8769 21.6311 50 21.3096 50 21C50 20.1886 49.8634 19.597 49.5591 19.0644C49.2756 18.5683 48.8589 18.1516 48.3859 17.6788C48.3752 17.6681 48.3644 17.6573 48.3536 17.6464Z" stroke="url(#paint8_radial_584_8614)"/>
<path opacity="0.5" d="M41 18C42.5 18.5 43.7875 19.8354 44.5 20.5M47 24.5C46.5 23 45.3393 21.2829 44.5 20.5M44.5 20.5C46.4166 18.5405 46.9853 18.1423 48 18" stroke="url(#paint9_linear_584_8614)" stroke-linecap="round"/>
<path d="M45 16.5C45.6127 16.5 46.0006 16.6948 46.3621 17.0046C46.554 17.1691 46.7383 17.3663 46.9487 17.6001C46.982 17.6372 47.016 17.6752 47.0508 17.7139C47.2296 17.9136 47.4271 18.1342 47.6464 18.3536C48.1602 18.8673 48.4808 19.193 48.6909 19.5606C48.8866 19.903 49 20.3114 49 21C49 21.0654 48.9669 21.2126 48.8387 21.4539C48.7165 21.6839 48.5316 21.956 48.2897 22.2574C47.8068 22.8592 47.1282 23.5393 46.3659 24.1796C45.6039 24.8197 44.7722 25.4083 43.988 25.834C43.1892 26.2676 42.4979 26.5 42 26.5C41.037 26.5 40.4866 26.3788 40.1345 26.2279C39.7924 26.0813 39.6003 25.8932 39.3536 25.6464C39.1068 25.3997 38.9187 25.2076 38.7721 24.8655C38.6212 24.5134 38.5 23.963 38.5 23C38.5 22.2552 38.7939 21.4754 39.3007 20.7043C39.8059 19.9355 40.5035 19.2051 41.2591 18.5704C42.0137 17.9365 42.8123 17.4097 43.5065 17.0439C43.8537 16.861 44.1683 16.7217 44.4332 16.6293C44.7066 16.534 44.8949 16.5 45 16.5Z" stroke="white" stroke-opacity="0.66"/>
<path d="M72 33.5C71.7656 33.5 71.5371 33.477 71.3164 33.4334L71.2194 33.9239C70.6946 33.82 70.2067 33.6136 69.7775 33.3263L70.0557 32.9108C69.6738 32.6551 69.3449 32.3262 69.0892 31.9443L68.6737 32.2225C68.3864 31.7933 68.18 31.3054 68.0761 30.7806L68.5666 30.6836C68.523 30.4629 68.5 30.2344 68.5 30V29.1H68V27.3H68.5V25.5H68V23.7H68.5V21.9H68V20.1H68.5V18.3H68V16.5H68.5V14.7H68V12.9H68.5V12C68.5 11.7656 68.523 11.5371 68.5666 11.3164L68.0761 11.2194C68.18 10.6946 68.3864 10.2067 68.6737 9.77754L69.0892 10.0557C69.3449 9.6738 69.6738 9.34489 70.0557 9.08922L69.7775 8.67374C70.2067 8.38642 70.6946 8.17995 71.2194 8.07614L71.3164 8.56663C71.5371 8.52297 71.7656 8.5 72 8.5H72.9706V8H74.9118V8.5H76.8529V8H78.7941V8.5H80.7353V8H82.6765V8.5H84.6176V8H86.5588V8.5H88.5V8H90.4412V8.5H92.3824V8H94.3235V8.5H96.2647V8H98.2059V8.5H100.147V8H102.088V8.5H104.029V8H105.971V8.5H107.912V8H109.853V8.5H111.794V8H113.735V8.5H115.676V8H117.618V8.5H119.559V8H121.5V8.5H123.441V8H125.382V8.5H127.324V8H129.265V8.5H131.206V8H133.147V8.5H135.088V8H137.029V8.5H138C138.234 8.5 138.463 8.52297 138.684 8.56663L138.781 8.07614C139.305 8.17995 139.793 8.38642 140.222 8.67374L139.944 9.08922C140.326 9.3449 140.655 9.6738 140.911 10.0557L141.326 9.77754C141.614 10.2067 141.82 10.6946 141.924 11.2194L141.433 11.3164C141.477 11.5371 141.5 11.7656 141.5 12V12.9H142V14.7H141.5V16.5H142V18.3H141.5V20.1H142V21.9H141.5V23.7H142V25.5H141.5V27.3H142V29.1H141.5V30C141.5 30.2344 141.477 30.4629 141.433 30.6836L141.924 30.7806C141.82 31.3054 141.614 31.7933 141.326 32.2225L140.911 31.9443C140.655 32.3262 140.326 32.6551 139.944 32.9108L140.222 33.3263C139.793 33.6136 139.305 33.82 138.781 33.9239L138.684 33.4334C138.463 33.477 138.234 33.5 138 33.5H137.029V34H135.088V33.5H133.147V34H131.206V33.5H129.265V34H127.324V33.5H125.382V34H123.441V33.5H121.5V34H119.559V33.5H117.618V34H115.676V33.5H113.735V34H111.794V33.5H109.853V34H107.912V33.5H105.971V34H104.029V33.5H102.088V34H100.147V33.5H98.2059V34H96.2647V33.5H94.3235V34H92.3823V33.5H90.4412V34H88.5V33.5H86.5588V34H84.6176V33.5H82.6765V34H80.7353V33.5H78.7941V34H76.8529V33.5H74.9117V34H72.9706V33.5H72Z" stroke="black" stroke-opacity="0.33" stroke-dasharray="2 2"/>
<rect x="74.5" y="19.5" width="13" height="9" fill="url(#paint10_linear_584_8614)" stroke="url(#paint11_linear_584_8614)"/>
<rect x="75.5" y="20.5" width="11" height="7" stroke="white" stroke-opacity="0.5" stroke-linejoin="round" style="mix-blend-mode:soft-light"/>
<rect x="75.5" y="20.5" width="11" height="7" stroke="white" stroke-opacity="0.5" stroke-linejoin="round" style="mix-blend-mode:hard-light"/>
<path fill-rule="evenodd" clip-rule="evenodd" d="M79 22H77.5C77.2239 22 77 22.2239 77 22.5C77 22.7761 77.2239 23 77.5 23H79V22ZM79 24H77.5C77.2239 24 77 24.2239 77 24.5C77 24.7761 77.2239 25 77.5 25H79V24ZM83 25V24H84.5C84.7761 24 85 24.2239 85 24.5C85 24.7761 84.7761 25 84.5 25H83ZM79 26H77.5C77.2239 26 77 26.2239 77 26.5C77 26.7761 77.2239 27 77.5 27H84.5C84.7761 27 85 26.7761 85 26.5C85 26.2239 84.7761 26 84.5 26H83H79ZM83 23V22H84.5C84.7761 22 85 22.2239 85 22.5C85 22.7761 84.7761 23 84.5 23H83Z" fill="#CE6E01" fill-opacity="0.5"/>
<g filter="url(#filter1_i_584_8614)">
<rect x="80" y="22" width="2" height="3" rx="1" fill="#AB824D"/>
</g>
<mask id="path-20-inside-1_584_8614" fill="white">
<path fill-rule="evenodd" clip-rule="evenodd" d="M75.083 20C75.0284 19.6748 75 19.3407 75 19C75 15.6863 77.6863 13 81 13C84.3137 13 87 15.6863 87 19C87 19.3407 86.9716 19.6748 86.917 20H83.8293C83.9398 19.6872 84 19.3506 84 19C84 17.3431 82.6569 16 81 16C79.3431 16 78 17.3431 78 19C78 19.3506 78.0602 19.6872 78.1707 20H75.083Z"/>
</mask>
<path fill-rule="evenodd" clip-rule="evenodd" d="M75.083 20C75.0284 19.6748 75 19.3407 75 19C75 15.6863 77.6863 13 81 13C84.3137 13 87 15.6863 87 19C87 19.3407 86.9716 19.6748 86.917 20H83.8293C83.9398 19.6872 84 19.3506 84 19C84 17.3431 82.6569 16 81 16C79.3431 16 78 17.3431 78 19C78 19.3506 78.0602 19.6872 78.1707 20H75.083Z" fill="url(#paint12_linear_584_8614)"/>
<path d="M75.083 20L74.0967 20.1655L74.2368 21H75.083V20ZM86.917 20V21H87.7632L87.9033 20.1655L86.917 20ZM83.8293 20L82.8865 19.6668L82.4152 21H83.8293V20ZM78.1707 20V21H79.5848L79.1135 19.6668L78.1707 20ZM74 19C74 19.3964 74.033 19.7858 74.0967 20.1655L76.0692 19.8345C76.0238 19.5638 76 19.285 76 19H74ZM81 12C77.134 12 74 15.134 74 19H76C76 16.2386 78.2386 14 81 14V12ZM88 19C88 15.134 84.866 12 81 12V14C83.7614 14 86 16.2386 86 19H88ZM87.9033 20.1655C87.967 19.7858 88 19.3964 88 19H86C86 19.285 85.9762 19.5638 85.9308 19.8345L87.9033 20.1655ZM83.8293 21H86.917V19H83.8293V21ZM84.7721 20.3332C84.92 19.9149 85 19.4657 85 19H83C83 19.2355 82.9597 19.4595 82.8865 19.6668L84.7721 20.3332ZM85 19C85 16.7909 83.2091 15 81 15V17C82.1046 17 83 17.8954 83 19H85ZM81 15C78.7909 15 77 16.7909 77 19H79C79 17.8954 79.8954 17 81 17V15ZM77 19C77 19.4657 77.08 19.9149 77.2279 20.3332L79.1135 19.6668C79.0403 19.4595 79 19.2355 79 19H77ZM75.083 21H78.1707V19H75.083V21Z" fill="url(#paint13_linear_584_8614)" fill-opacity="0.5" mask="url(#path-20-inside-1_584_8614)"/>
<rect x="98.5" y="19.5" width="13" height="9" fill="url(#paint14_linear_584_8614)" stroke="url(#paint15_linear_584_8614)"/>
<rect x="99.5" y="20.5" width="11" height="7" stroke="white" stroke-opacity="0.5" stroke-linejoin="round" style="mix-blend-mode:soft-light"/>
<rect x="99.5" y="20.5" width="11" height="7" stroke="white" stroke-opacity="0.5" stroke-linejoin="round" style="mix-blend-mode:hard-light"/>
<path fill-rule="evenodd" clip-rule="evenodd" d="M103 22H101.5C101.224 22 101 22.2239 101 22.5C101 22.7761 101.224 23 101.5 23H103V22ZM103 24H101.5C101.224 24 101 24.2239 101 24.5C101 24.7761 101.224 25 101.5 25H103V24ZM107 25V24H108.5C108.776 24 109 24.2239 109 24.5C109 24.7761 108.776 25 108.5 25H107ZM103 26H101.5C101.224 26 101 26.2239 101 26.5C101 26.7761 101.224 27 101.5 27H108.5C108.776 27 109 26.7761 109 26.5C109 26.2239 108.776 26 108.5 26H107H103ZM107 23V22H108.5C108.776 22 109 22.2239 109 22.5C109 22.7761 108.776 23 108.5 23H107Z" fill="#CE6E01" fill-opacity="0.5"/>
<g filter="url(#filter2_i_584_8614)">
<rect x="104" y="22" width="2" height="3" rx="1" fill="#AB824D"/>
</g>
<mask id="path-26-inside-2_584_8614" fill="white">
<path fill-rule="evenodd" clip-rule="evenodd" d="M99 19C99 19.3407 99.0284 19.6748 99.083 20H102.171C102.06 19.6872 102 19.3506 102 19C102 17.3431 103.343 16 105 16C105.303 16 105.596 16.0449 105.871 16.1285L108.124 13.8763C107.214 13.3204 106.144 13 105 13C101.686 13 99 15.6863 99 19ZM110.124 15.8763L107.871 18.1285C107.955 18.4043 108 18.6969 108 19C108 19.3506 107.94 19.6872 107.829 20H110.917C110.972 19.6748 111 19.3407 111 19C111 17.8557 110.68 16.7862 110.124 15.8763Z"/>
</mask>
<path fill-rule="evenodd" clip-rule="evenodd" d="M99 19C99 19.3407 99.0284 19.6748 99.083 20H102.171C102.06 19.6872 102 19.3506 102 19C102 17.3431 103.343 16 105 16C105.303 16 105.596 16.0449 105.871 16.1285L108.124 13.8763C107.214 13.3204 106.144 13 105 13C101.686 13 99 15.6863 99 19ZM110.124 15.8763L107.871 18.1285C107.955 18.4043 108 18.6969 108 19C108 19.3506 107.94 19.6872 107.829 20H110.917C110.972 19.6748 111 19.3407 111 19C111 17.8557 110.68 16.7862 110.124 15.8763Z" fill="url(#paint16_linear_584_8614)"/>
<path d="M99.083 20L98.0967 20.1655L98.2368 21H99.083V20ZM102.171 20V21H103.585L103.114 19.6668L102.171 20ZM105.871 16.1285L105.581 17.0855L106.155 17.2594L106.579 16.8356L105.871 16.1285ZM108.124 13.8763L108.831 14.5834L109.729 13.6852L108.645 13.0229L108.124 13.8763ZM107.871 18.1285L107.164 17.4214L106.741 17.8451L106.914 18.4186L107.871 18.1285ZM110.124 15.8763L110.977 15.3549L110.315 14.271L109.417 15.1692L110.124 15.8763ZM107.829 20L106.886 19.6668L106.415 21H107.829V20ZM110.917 20V21H111.763L111.903 20.1655L110.917 20ZM100.069 19.8345C100.024 19.5638 100 19.285 100 19H98C98 19.3964 98.033 19.7858 98.0967 20.1655L100.069 19.8345ZM102.171 19H99.083V21H102.171V19ZM101 19C101 19.4657 101.08 19.9149 101.228 20.3332L103.114 19.6668C103.04 19.4595 103 19.2355 103 19H101ZM105 15C102.791 15 101 16.7909 101 19H103C103 17.8954 103.895 17 105 17V15ZM106.162 15.1715C105.793 15.0597 105.402 15 105 15V17C105.204 17 105.399 17.0301 105.581 17.0855L106.162 15.1715ZM107.417 13.1692L105.164 15.4214L106.579 16.8356L108.831 14.5834L107.417 13.1692ZM105 14C105.955 14 106.845 14.2669 107.602 14.7296L108.645 13.0229C107.583 12.3738 106.333 12 105 12V14ZM100 19C100 16.2386 102.239 14 105 14V12C101.134 12 98 15.134 98 19H100ZM108.579 18.8356L110.831 16.5834L109.417 15.1692L107.164 17.4214L108.579 18.8356ZM109 19C109 18.5976 108.94 18.2073 108.828 17.8385L106.914 18.4186C106.97 18.6014 107 18.7963 107 19H109ZM108.772 20.3332C108.92 19.9149 109 19.4657 109 19H107C107 19.2355 106.96 19.4595 106.886 19.6668L108.772 20.3332ZM110.917 19H107.829V21H110.917V19ZM110 19C110 19.285 109.976 19.5638 109.931 19.8345L111.903 20.1655C111.967 19.7858 112 19.3964 112 19H110ZM109.27 16.3976C109.733 17.155 110 18.0448 110 19H112C112 17.6665 111.626 16.4173 110.977 15.3549L109.27 16.3976Z" fill="url(#paint17_linear_584_8614)" fill-opacity="0.5" mask="url(#path-26-inside-2_584_8614)"/>
<path d="M123 19.5H122.5V20V28V28.5H123H135H135.5V28V20V19.5H135H134.5H134.293L134.146 19.6464L133.293 20.5H132.207L131.354 19.6464L131.207 19.5H131H123Z" fill="url(#paint18_linear_584_8614)" stroke="url(#paint19_linear_584_8614)"/>
<rect x="123.5" y="20.5" width="11" height="7" stroke="white" stroke-opacity="0.5" stroke-linejoin="round" style="mix-blend-mode:soft-light"/>
<rect x="123.5" y="20.5" width="11" height="7" stroke="white" stroke-opacity="0.5" stroke-linejoin="round" style="mix-blend-mode:hard-light"/>
<path fill-rule="evenodd" clip-rule="evenodd" d="M127 22H125.5C125.224 22 125 22.2239 125 22.5C125 22.7761 125.224 23 125.5 23H127V22ZM127 24H125.5C125.224 24 125 24.2239 125 24.5C125 24.7761 125.224 25 125.5 25H127V24ZM131 25V24H132.5C132.776 24 133 24.2239 133 24.5C133 24.7761 132.776 25 132.5 25H131ZM127 26H125.5C125.224 26 125 26.2239 125 26.5C125 26.7761 125.224 27 125.5 27H132.5C132.776 27 133 26.7761 133 26.5C133 26.2239 132.776 26 132.5 26H131H127ZM131 23V22H132.5C132.776 22 133 22.2239 133 22.5C133 22.7761 132.776 23 132.5 23H131Z" fill="#CE6E01" fill-opacity="0.5"/>
<g filter="url(#filter3_i_584_8614)">
<rect x="128" y="22" width="2" height="3" rx="1" fill="#AB824D"/>
</g>
<mask id="path-32-inside-3_584_8614" fill="white">
<path fill-rule="evenodd" clip-rule="evenodd" d="M123 18.5C123 19.02 123.072 19.5232 123.207 20H126.5C126.186 19.5822 126 19.0628 126 18.5C126 17.1193 127.119 16 128.5 16C129.709 16 130.718 16.8589 130.95 18H133.978C133.725 15.1967 131.369 13 128.5 13C125.462 13 123 15.4624 123 18.5Z"/>
</mask>
<path fill-rule="evenodd" clip-rule="evenodd" d="M123 18.5C123 19.02 123.072 19.5232 123.207 20H126.5C126.186 19.5822 126 19.0628 126 18.5C126 17.1193 127.119 16 128.5 16C129.709 16 130.718 16.8589 130.95 18H133.978C133.725 15.1967 131.369 13 128.5 13C125.462 13 123 15.4624 123 18.5Z" fill="url(#paint20_linear_584_8614)"/>
<path d="M123.207 20L122.245 20.2722C122.367 20.7027 122.76 21 123.207 21V20ZM126.5 20V21C126.879 21 127.225 20.7859 127.394 20.4469C127.564 20.1079 127.527 19.7024 127.299 19.3994L126.5 20ZM130.95 18L129.97 18.1989C130.065 18.665 130.474 19 130.95 19V18ZM133.978 18V19C134.258 19 134.526 18.8819 134.716 18.6746C134.905 18.4673 134.999 18.1899 134.974 17.9102L133.978 18ZM124.169 19.7278C124.059 19.3387 124 18.9271 124 18.5H122C122 19.1129 122.085 19.7076 122.245 20.2722L124.169 19.7278ZM123.207 21H126.5V19H123.207V21ZM125 18.5C125 19.2868 125.261 20.0155 125.7 20.6006L127.299 19.3994C127.111 19.1488 127 18.8388 127 18.5H125ZM128.5 15C126.567 15 125 16.567 125 18.5H127C127 17.6716 127.672 17 128.5 17V15ZM131.93 17.8011C131.606 16.2031 130.194 15 128.5 15V17C129.225 17 129.831 17.5147 129.97 18.1989L131.93 17.8011ZM133.978 17H130.95V19H133.978V17ZM128.5 14C130.847 14 132.775 15.7972 132.982 18.0898L134.974 17.9102C134.675 14.5963 131.891 12 128.5 12V14ZM124 18.5C124 16.0147 126.015 14 128.5 14V12C124.91 12 122 14.9101 122 18.5H124Z" fill="url(#paint21_linear_584_8614)" fill-opacity="0.5" mask="url(#path-32-inside-3_584_8614)"/>
</g>
<defs>
<filter id="filter0_dd_584_8614" x="0" y="0" width="153" height="49" filterUnits="userSpaceOnUse" color-interpolation-filters="sRGB">
<feFlood flood-opacity="0" result="BackgroundImageFix"/>
<feColorMatrix in="SourceAlpha" type="matrix" values="0 0 0 0 0 0 0 0 0 0 0 0 0 0 0 0 0 0 127 0" result="hardAlpha"/>
<feMorphology radius="4" operator="dilate" in="SourceAlpha" result="effect1_dropShadow_584_8614"/>
<feOffset dy="4"/>
<feComposite in2="hardAlpha" operator="out"/>
<feColorMatrix type="matrix" values="0 0 0 0 0 0 0 0 0 0 0 0 0 0 0 0 0 0 0.05 0"/>
<feBlend mode="normal" in2="BackgroundImageFix" result="effect1_dropShadow_584_8614"/>
<feColorMatrix in="SourceAlpha" type="matrix" values="0 0 0 0 0 0 0 0 0 0 0 0 0 0 0 0 0 0 127 0" result="hardAlpha"/>
<feMorphology radius="1" operator="dilate" in="SourceAlpha" result="effect2_dropShadow_584_8614"/>
<feOffset/>
<feComposite in2="hardAlpha" operator="out"/>
<feColorMatrix type="matrix" values="0 0 0 0 0 0 0 0 0 0 0 0 0 0 0 0 0 0 0.15 0"/>
<feBlend mode="normal" in2="effect1_dropShadow_584_8614" result="effect2_dropShadow_584_8614"/>
<feBlend mode="normal" in="SourceGraphic" in2="effect2_dropShadow_584_8614" result="shape"/>
</filter>
<filter id="filter1_i_584_8614" x="80" y="22" width="2" height="3" filterUnits="userSpaceOnUse" color-interpolation-filters="sRGB">
<feFlood flood-opacity="0" result="BackgroundImageFix"/>
<feBlend mode="normal" in="SourceGraphic" in2="BackgroundImageFix" result="shape"/>
<feColorMatrix in="SourceAlpha" type="matrix" values="0 0 0 0 0 0 0 0 0 0 0 0 0 0 0 0 0 0 127 0" result="hardAlpha"/>
<feOffset dx="1" dy="1"/>
<feComposite in2="hardAlpha" operator="arithmetic" k2="-1" k3="1"/>
<feColorMatrix type="matrix" values="0 0 0 0 0.866667 0 0 0 0 0.592157 0 0 0 0 0.188235 0 0 0 1 0"/>
<feBlend mode="normal" in2="shape" result="effect1_innerShadow_584_8614"/>
</filter>
<filter id="filter2_i_584_8614" x="104" y="22" width="2" height="3" filterUnits="userSpaceOnUse" color-interpolation-filters="sRGB">
<feFlood flood-opacity="0" result="BackgroundImageFix"/>
<feBlend mode="normal" in="SourceGraphic" in2="BackgroundImageFix" result="shape"/>
<feColorMatrix in="SourceAlpha" type="matrix" values="0 0 0 0 0 0 0 0 0 0 0 0 0 0 0 0 0 0 127 0" result="hardAlpha"/>
<feOffset dx="1" dy="1"/>
<feComposite in2="hardAlpha" operator="arithmetic" k2="-1" k3="1"/>
<feColorMatrix type="matrix" values="0 0 0 0 0.866667 0 0 0 0 0.592157 0 0 0 0 0.188235 0 0 0 1 0"/>
<feBlend mode="normal" in2="shape" result="effect1_innerShadow_584_8614"/>
</filter>
<filter id="filter3_i_584_8614" x="128" y="22" width="2" height="3" filterUnits="userSpaceOnUse" color-interpolation-filters="sRGB">
<feFlood flood-opacity="0" result="BackgroundImageFix"/>
<feBlend mode="normal" in="SourceGraphic" in2="BackgroundImageFix" result="shape"/>
<feColorMatrix in="SourceAlpha" type="matrix" values="0 0 0 0 0 0 0 0 0 0 0 0 0 0 0 0 0 0 127 0" result="hardAlpha"/>
<feOffset dx="1" dy="1"/>
<feComposite in2="hardAlpha" operator="arithmetic" k2="-1" k3="1"/>
<feColorMatrix type="matrix" values="0 0 0 0 0.866667 0 0 0 0 0.592157 0 0 0 0 0.188235 0 0 0 1 0"/>
<feBlend mode="normal" in2="shape" result="effect1_innerShadow_584_8614"/>
</filter>
<linearGradient id="paint0_linear_584_8614" x1="28" y1="15" x2="30" y2="18" gradientUnits="userSpaceOnUse">
<stop stop-color="#DADADA"/>
<stop offset="1" stop-color="#747474"/>
</linearGradient>
<linearGradient id="paint1_linear_584_8614" x1="19.5" y1="18.5" x2="25" y2="25" gradientUnits="userSpaceOnUse">
<stop stop-color="white"/>
<stop offset="1" stop-color="#F0F0F0"/>
</linearGradient>
<linearGradient id="paint2_linear_584_8614" x1="19" y1="18" x2="26" y2="25" gradientUnits="userSpaceOnUse">
<stop stop-color="#DEDEDE"/>
<stop offset="1" stop-color="#787878"/>
</linearGradient>
<radialGradient id="paint3_radial_584_8614" cx="0" cy="0" r="1" gradientUnits="userSpaceOnUse" gradientTransform="translate(17 27) rotate(-39.8056) scale(7.81025 8.16526)">
<stop offset="0.202303" stop-color="#F68382"/>
<stop offset="0.455413" stop-color="#F68382" stop-opacity="0"/>
</radialGradient>
<linearGradient id="paint4_linear_584_8614" x1="20" y1="18" x2="25.1842" y2="24.6372" gradientUnits="userSpaceOnUse">
<stop stop-color="#DEDEDE"/>
<stop offset="1" stop-color="#787878"/>
</linearGradient>
<linearGradient id="paint5_linear_584_8614" x1="49" y1="15" x2="51" y2="18" gradientUnits="userSpaceOnUse">
<stop stop-color="#DADADA"/>
<stop offset="1" stop-color="#747474"/>
</linearGradient>
<linearGradient id="paint6_linear_584_8614" x1="40.5" y1="18.5" x2="46" y2="25" gradientUnits="userSpaceOnUse">
<stop stop-color="white"/>
<stop offset="1" stop-color="#F0F0F0"/>
</linearGradient>
<linearGradient id="paint7_linear_584_8614" x1="40" y1="18" x2="47" y2="25" gradientUnits="userSpaceOnUse">
<stop stop-color="#DEDEDE"/>
<stop offset="1" stop-color="#787878"/>
</linearGradient>
<radialGradient id="paint8_radial_584_8614" cx="0" cy="0" r="1" gradientUnits="userSpaceOnUse" gradientTransform="translate(38 27) rotate(-39.8056) scale(7.81025 8.16526)">
<stop offset="0.202303" stop-color="#F68382"/>
<stop offset="0.455413" stop-color="#F68382" stop-opacity="0"/>
</radialGradient>
<linearGradient id="paint9_linear_584_8614" x1="41" y1="18" x2="46.1842" y2="24.6372" gradientUnits="userSpaceOnUse">
<stop stop-color="#DEDEDE"/>
<stop offset="1" stop-color="#787878"/>
</linearGradient>
<linearGradient id="paint10_linear_584_8614" x1="75" y1="25" x2="86.8478" y2="26.3428" gradientUnits="userSpaceOnUse">
<stop stop-color="#F8E48E"/>
<stop offset="0.477181" stop-color="#FFF297"/>
<stop offset="1" stop-color="#EEBA3C"/>
</linearGradient>
<linearGradient id="paint11_linear_584_8614" x1="75" y1="20" x2="87" y2="28" gradientUnits="userSpaceOnUse">
<stop stop-color="#E0C259"/>
<stop offset="1" stop-color="#CE6E01"/>
</linearGradient>
<linearGradient id="paint12_linear_584_8614" x1="78.4286" y1="16.4286" x2="84.4286" y2="22.4286" gradientUnits="userSpaceOnUse">
<stop stop-color="#D9D9D9"/>
<stop offset="1" stop-color="#737373"/>
</linearGradient>
<linearGradient id="paint13_linear_584_8614" x1="87" y1="25" x2="75" y2="13" gradientUnits="userSpaceOnUse">
<stop stop-color="#404040"/>
<stop offset="1" stop-color="#8D8D8D"/>
</linearGradient>
<linearGradient id="paint14_linear_584_8614" x1="99" y1="25" x2="110.848" y2="26.3428" gradientUnits="userSpaceOnUse">
<stop stop-color="#F8E48E"/>
<stop offset="0.477181" stop-color="#FFF297"/>
<stop offset="1" stop-color="#EEBA3C"/>
</linearGradient>
<linearGradient id="paint15_linear_584_8614" x1="99" y1="20" x2="111" y2="28" gradientUnits="userSpaceOnUse">
<stop stop-color="#E0C259"/>
<stop offset="1" stop-color="#CE6E01"/>
</linearGradient>
<linearGradient id="paint16_linear_584_8614" x1="102.429" y1="16.4286" x2="108.429" y2="22.4286" gradientUnits="userSpaceOnUse">
<stop stop-color="#D9D9D9"/>
<stop offset="1" stop-color="#737373"/>
</linearGradient>
<linearGradient id="paint17_linear_584_8614" x1="111" y1="25" x2="99" y2="13" gradientUnits="userSpaceOnUse">
<stop stop-color="#404040"/>
<stop offset="1" stop-color="#8D8D8D"/>
</linearGradient>
<linearGradient id="paint18_linear_584_8614" x1="123" y1="25" x2="134.848" y2="26.3428" gradientUnits="userSpaceOnUse">
<stop stop-color="#F8E48E"/>
<stop offset="0.477181" stop-color="#FFF297"/>
<stop offset="1" stop-color="#EEBA3C"/>
</linearGradient>
<linearGradient id="paint19_linear_584_8614" x1="123" y1="20" x2="135" y2="28" gradientUnits="userSpaceOnUse">
<stop stop-color="#E0C259"/>
<stop offset="1" stop-color="#CE6E01"/>
</linearGradient>
<linearGradient id="paint20_linear_584_8614" x1="126.405" y1="16.4286" x2="132.405" y2="22.3869" gradientUnits="userSpaceOnUse">
<stop stop-color="#D9D9D9"/>
<stop offset="1" stop-color="#737373"/>
</linearGradient>
<linearGradient id="paint21_linear_584_8614" x1="134.917" y1="25" x2="122.917" y2="13.0832" gradientUnits="userSpaceOnUse">
<stop stop-color="#404040"/>
<stop offset="1" stop-color="#8D8D8D"/>
</linearGradient>
</defs>
</svg>
